<svg width="40" height="41" viewBox="0 0 40 41" fill="none" xmlns="http://www.w3.org/2000/svg">
<g clip-path="url(#clip0_1853_86792)">
<rect y="0.78125" width="40" height="40" rx="20" fill="#66784E"/>
<path d="M25.3607 33.9681C23.7919 33.7661 19.1349 28.8889 18.4349 33.7831C18.2966 34.7497 17.2371 35.6873 17.5201 36.6218C18.3655 39.4135 22.3313 39.1823 25.5392 38.7367C31.5293 37.9046 34.5629 26.6924 35.3628 24.2322C35.9165 23.2262 36.3919 21.2742 36.3919 21.2742C36.3919 21.2742 36.8814 19.3328 35.4392 18.487C33.7576 17.5008 32.2294 17.256 31.5467 18.5073C30.9957 19.4671 30.0469 21.5259 30.6596 22.0825C31.2723 22.6392 31.5768 22.7571 31.6525 22.7464C31.7232 25.1331 29.5551 28.8907 29.5551 28.8907C29.5551 28.8907 26.2898 34.0877 25.3607 33.9681Z" fill="#8FC449"/>
<path d="M13.6793 30.4187C11.7971 31.8673 11.8202 33.0676 11.8121 33.8675C11.3111 37.7294 19.888 38.8351 19.8885 38.7279C19.8911 38.1039 20.4058 33.5561 20.7862 31.463C19.1197 30.9989 14.9642 29.4299 13.6793 30.4187Z" fill="#2C2E2C"/>
<path d="M21.0032 31.7743C20.7623 32.7562 19.9439 36.2842 20.0048 38.662C20.0092 38.8335 19.8873 38.97 19.7455 38.946L18.932 38.8085C18.8346 38.792 18.7553 38.7024 18.7404 38.5856C18.4775 36.5271 18.945 32.2931 19.7523 31.1685C19.8032 31.0976 19.8857 31.0778 19.9615 31.1056L20.8462 31.4306C20.9683 31.4755 21.0389 31.6289 21.0032 31.7743Z" fill="#323633"/>
<path d="M14.6845 31.1276C12.4445 36.6148 13.4084 41.2666 19.3282 45.9225L-0.744427 37.1024C-0.673667 27.996 2.97895 20.2914 3.8513 18.6155C5.41382 15.6136 12.0653 10.7668 12.8592 10.0328C13.6532 9.29893 13.6435 8.34702 15.1265 7.43143C16.6094 6.51584 17.4427 7.24875 19.3282 7.15038C21.2137 7.05201 25.2397 3.95009 28.2897 7.01905C31.3397 10.088 24.8827 16.238 23.885 17.9283C22.8872 19.6186 22.871 20.0571 21.4431 22.6283C19.9143 25.3813 16.9245 25.6404 14.6845 31.1276Z" fill="#8FC449"/>
<path d="M19.8257 9.30787C18.3809 7.90689 16.2544 8.19283 15.1217 9.53162C14.0813 10.7613 14.2154 12.3746 15.4813 13.6021C16.7943 14.8752 18.813 14.9206 19.9961 13.6787C21.1461 12.4716 21.1395 10.5818 19.8257 9.30787Z" fill="#4F5447"/>
<path d="M19.0686 10.3588C19.5762 10.9756 19.5457 11.5168 18.977 11.9823C18.4807 12.3886 17.7123 12.2628 17.3221 11.7886C16.7903 11.1424 16.7952 10.5977 17.3368 10.1543C17.8855 9.70512 18.6261 9.82103 19.0686 10.3588Z" fill="white"/>
<path d="M13.9007 9.39147C10.9808 11.8324 8.56591 13.7793 6.82027 15.1538C6.71459 15.2371 6.57979 15.274 6.44642 15.2565L4.45575 14.9954C3.95664 14.9299 3.85621 14.2511 4.31498 14.0439L6.4243 13.0913C6.72647 12.9549 6.81456 12.5675 6.60111 12.3138L4.66253 10.0096C4.36799 9.65955 4.65938 9.1305 5.11269 9.19231L8.28488 9.62489C8.60989 9.66921 8.88882 9.39384 8.84867 9.06828L8.20741 3.86758C8.15128 3.41244 8.68634 3.12816 9.03211 3.42941L12.0629 6.0701C12.3564 6.32583 12.8167 6.16284 12.8839 5.77938L13.9748 -0.448969C14.0638 -0.956719 14.7698 -1.01403 14.9395 -0.527277L16.9091 5.12333C17.0208 5.44368 17.4123 5.56219 17.6829 5.35754L19.3082 4.12821C19.7255 3.81262 20.2859 4.26876 20.0616 4.74139L19.0067 6.96376C18.9395 7.10538 18.8099 7.20744 18.6547 7.22959C17.8035 7.35107 16.2024 7.4673 13.9007 9.39147Z" fill="#2D85CC"/>
<path d="M15.5658 29.7299C12.8175 28.9115 5.91695 25.4541 2.26954 20.8962L0.990109 23.9322L15.2156 33.515L15.5658 29.7299Z" fill="#3F403F"/>
<path d="M15.5227 41.7784L15.5227 31.7356C15.5227 31.6408 15.4688 31.554 15.384 31.5117C10.1445 28.8971 5.37759 26.2807 1.64729 21.8022C0.488558 21.9063 -1.09662 27.1238 -0.86191 28.1123C1.06304 36.2196 10.2806 40.0073 15.5227 41.7784Z" fill="#323633"/>
<path d="M13.3006 6.69711C13.9239 6.12701 14.2197 3.40516 14.291 2.06152C14.4849 2.65804 14.8725 4.02104 14.8725 4.70095C14.8725 5.3483 13.8725 6.26343 13.3006 6.69711C13.2736 6.7218 13.246 6.74246 13.2178 6.75879C13.2442 6.73951 13.2719 6.71892 13.3006 6.69711Z" fill="#6AAFF3"/>
<path d="M9.25201 9.97145C9.75932 9.29603 9.54734 6.56637 9.36923 5.23269C9.66991 5.78314 10.3026 7.0511 10.4282 7.71931C10.5478 8.35552 9.73393 9.43961 9.25201 9.97145C9.23004 10.0007 9.20672 10.0261 9.18199 10.0474C9.20438 10.0235 9.22778 9.9982 9.25201 9.97145Z" fill="#6AAFF3"/>
</g>
<defs>
<clipPath id="clip0_1853_86792">
<rect y="0.78125" width="40" height="40" rx="20" fill="white"/>
</clipPath>
</defs>
</svg>
