<svg width="40" height="41" viewBox="0 0 40 41" fill="none" xmlns="http://www.w3.org/2000/svg">
<g clip-path="url(#clip0_1853_86795)">
<rect y="0.78125" width="40" height="40" rx="20" fill="#66784E"/>
<path d="M25.113 26.5955C23.3441 29.2007 20.3431 29.1916 17.6215 34.4565C16.2598 37.0906 17.3724 42.2743 17.3724 42.2743L2.35844 34.9333C2.35844 34.9333 7.09032 22.3692 7.95037 21.0258C9.77503 18.1757 16.8332 13.943 17.6896 13.283C18.546 12.623 18.6215 11.6741 20.1804 10.8947C21.7392 10.1154 22.5037 10.9199 24.3904 10.9905C26.2771 11.0611 30.5643 8.33154 33.3277 11.6609C36.0911 14.9903 29.1101 20.5383 27.9652 22.1326C26.8203 23.727 26.765 24.1623 25.113 26.5955Z" fill="#8FC449"/>
<path d="M18.6239 33.1434C15.9599 32.0825 9.39603 28.022 6.17075 23.1562L4.625 26.0656L17.9367 36.882L18.6239 33.1434Z" fill="#F4F4F4"/>
<path d="M17.469 43.3652L18.6824 36.1154C13.6453 33.0148 9.36655 28.2963 6.02238 23.46C4.85899 23.46 2.0292 29.1202 2.40641 30.0636C4.36814 34.9698 12.4062 41.1326 17.469 43.3652Z" fill="#2C2E2C"/>
<path fill-rule="evenodd" clip-rule="evenodd" d="M18.3246 20.499C18.5029 19.2034 18.3175 17.7182 17.935 16.698L18.8713 16.3469C19.3134 17.5259 19.5157 19.1789 19.3152 20.6354C19.1195 22.0572 18.4987 23.5183 17.0776 23.9337C16.2614 24.1722 15.4423 23.8758 14.7407 23.4131C14.0308 22.9449 13.3562 22.2531 12.7776 21.5318C12.1959 20.8066 11.6928 20.0286 11.3305 19.3656C11.1495 19.0343 11.0002 18.7256 10.8934 18.4618C10.7937 18.2158 10.708 17.9549 10.6987 17.7408L11.6978 17.6973C11.6978 17.6973 11.6978 17.6973 11.6978 17.6974C11.6978 17.698 11.6985 17.7078 11.7025 17.7287C11.7066 17.75 11.7133 17.7783 11.7235 17.8139C11.7441 17.8856 11.7758 17.9768 11.8202 18.0863C11.909 18.3054 12.04 18.5785 12.2081 18.8861C12.5442 19.5012 13.0152 20.2299 13.5576 20.906C14.1031 21.586 14.7026 22.1901 15.2912 22.5783C15.8881 22.9719 16.3919 23.0922 16.7971 22.9738C17.6171 22.7341 18.1415 21.8293 18.3246 20.499Z" fill="#FFD33B"/>
<path d="M23.7236 7.90337L23.756 8.24915C23.7913 8.62666 23.5966 8.98855 23.2621 9.16707L8.56689 17.0102C8.23241 17.1887 7.82337 17.1491 7.52942 16.9096L7.26019 16.6902C6.92959 16.4209 6.46963 16.3763 6.09338 16.5771C5.42628 16.9331 5.33695 17.8537 5.92324 18.3313L7.16428 19.3423C7.70166 19.78 8.44927 19.8526 9.06075 19.5262L25.0774 10.9778C25.6889 10.6514 26.0448 9.99002 25.9802 9.29985L25.831 7.70611C25.7605 6.95318 24.9461 6.51498 24.2789 6.87106C23.9027 7.07184 23.6838 7.4788 23.7236 7.90337Z" fill="#3F403F"/>
<path d="M20.7217 6.82578C20.8648 6.74942 21.0425 6.81298 21.1048 6.96269L22.2469 9.70841L9.58231 16.4678L7.9369 13.9907C7.84715 13.8555 7.89331 13.6726 8.03639 13.5962L20.7217 6.82578Z" fill="#2C2E2C"/>
<path d="M11.0923 11.9658L10.5402 10.9313C10.5182 10.8901 10.5337 10.8389 10.5749 10.8169L17 7.38772C17.0412 7.36572 17.0924 7.38128 17.1144 7.42249L17.6665 8.45702L20.707 6.83427L17.2043 -1.39669C17.1523 -1.51886 17.0068 -1.57018 16.8897 -1.50768L3.2659 5.76364C3.1488 5.82614 3.11042 5.97556 3.18304 6.08673L8.0717 13.578L11.0923 11.9658Z" fill="#3F403F"/>
<path d="M14.1425 -0.0415082L16.2589 4.93191C16.7401 6.06266 16.2777 7.37364 15.1935 7.95228L7.18885 12.2245L8.07194 13.5778L20.7072 6.83413L17.2045 -1.3969C17.1525 -1.51907 17.007 -1.57039 16.8899 -1.50789L14.1425 -0.0415082Z" fill="#323633"/>
<path d="M24.9414 14.8965C24.9414 16.9659 23.2638 18.6436 21.1943 18.6436C19.1249 18.6436 17.4473 16.9659 17.4473 14.8965C17.4473 12.827 19.1249 11.1494 21.1943 11.1494C23.2638 11.1494 24.9414 12.827 24.9414 14.8965Z" fill="#D9D9D9"/>
<path fill-rule="evenodd" clip-rule="evenodd" d="M19.4795 17.4407L20.8301 11.9456L21.5584 12.1246L20.2078 17.6197L19.4795 17.4407Z" fill="#F4F4F4"/>
<path fill-rule="evenodd" clip-rule="evenodd" d="M20.709 17.7173L22.0596 12.2222L23.0307 12.4608L21.6801 17.956L20.709 17.7173Z" fill="#F4F4F4"/>
<path fill-rule="evenodd" clip-rule="evenodd" d="M21.1943 17.6436C22.7115 17.6436 23.9414 16.4136 23.9414 14.8965C23.9414 13.3793 22.7115 12.1494 21.1943 12.1494C19.6772 12.1494 18.4473 13.3793 18.4473 14.8965C18.4473 16.4136 19.6772 17.6436 21.1943 17.6436ZM21.1943 18.6436C23.2638 18.6436 24.9414 16.9659 24.9414 14.8965C24.9414 12.827 23.2638 11.1494 21.1943 11.1494C19.1249 11.1494 17.4473 12.827 17.4473 14.8965C17.4473 16.9659 19.1249 18.6436 21.1943 18.6436Z" fill="#FFD33B"/>
<path d="M29.157 6.95499C29.1219 6.93896 29.0623 6.87344 29.1034 6.75104C29.12 6.70135 29.1521 6.65807 29.2021 6.62793C29.2505 6.59879 29.3457 6.5641 29.5159 6.58499C30.3793 6.691 31.146 7.54489 31.4596 8.67355C31.6876 9.4943 31.198 10.2508 30.6314 10.8027C30.2931 11.1323 30.1511 11.6267 30.3303 12.0636C30.5985 12.7176 30.8282 13.4361 30.7216 14.0645C30.5542 15.0511 30.3823 16.0004 29.7862 17.0582C29.2737 17.9677 28.7142 18.6314 28.0061 19.1143C27.2946 19.5995 26.6129 19.7738 26.0245 19.628C25.7965 19.5715 25.6695 19.4573 25.594 19.3284C25.5121 19.1885 25.4734 18.9988 25.4921 18.7873C25.5108 18.5756 25.5846 18.3755 25.6858 18.2313C25.788 18.0859 25.8905 18.0324 25.963 18.0214C26.236 17.9802 26.424 17.7255 26.3828 17.4524C26.3416 17.1794 26.0868 16.9914 25.8138 17.0326C25.3959 17.0957 25.0771 17.3583 24.8676 17.6565C24.6572 17.956 24.5289 18.327 24.496 18.6992C24.4631 19.0717 24.5232 19.4787 24.7311 19.8338C24.9455 20.1998 25.2994 20.4786 25.7841 20.5987C26.747 20.8372 27.7219 20.5184 28.5695 19.9404C29.4205 19.3601 30.1969 18.4854 30.8054 17.4921C31.415 16.497 31.8716 15.3577 32.0631 14.2292C32.2104 13.3612 32.2039 12.4789 31.9709 11.6701C32.6666 10.7614 32.7218 9.48112 32.4231 8.40589C32.0565 7.08608 31.0736 5.76872 29.6377 5.59245C28.891 5.50078 28.3402 5.88142 28.1552 6.43315C27.9882 6.93135 28.143 7.59121 28.7415 7.86459C28.9927 7.97932 29.2893 7.86872 29.404 7.61754C29.5188 7.36637 29.4082 7.06973 29.157 6.95499Z" fill="#2C2E2C"/>
</g>
<defs>
<clipPath id="clip0_1853_86795">
<rect y="0.78125" width="40" height="40" rx="20" fill="white"/>
</clipPath>
</defs>
</svg>
