<svg width="40" height="41" viewBox="0 0 40 41" fill="none" xmlns="http://www.w3.org/2000/svg">
<g clip-path="url(#clip0_1853_86791)">
<rect y="0.78125" width="40" height="40" rx="20" fill="#66784E"/>
<path d="M2.67383 30.772C2.67383 30.772 6.79045 20.9452 7.52819 19.7928C9.35285 16.9426 16.411 12.7099 17.2674 12.05C18.1238 11.39 18.1993 10.441 19.7582 9.66168C21.3171 8.88235 22.0815 9.68684 23.9682 9.75744C25.855 9.82805 30.1421 7.09851 32.9055 10.4279C35.6689 13.7572 28.688 19.3053 27.5431 20.8996C26.3982 22.4939 26.3429 22.9293 24.6908 25.3625C22.9219 27.9677 19.921 27.9585 17.1993 33.2234C15.3576 36.7861 18.447 43.772 18.447 43.772L2.67383 30.772Z" fill="#8FC449"/>
<path d="M18.0832 32.0326C15.378 30.8924 9.2766 27.0704 6.0535 22.4688C5.94477 22.3136 5.70908 22.3258 5.62016 22.4932L4.27148 25.0316L17.5832 35.8479L18.2333 32.311C18.2549 32.1938 18.193 32.0789 18.0832 32.0326Z" fill="#DADCDE"/>
<path d="M17.1154 42.3308L18.0838 34.5513C18.0959 34.4542 18.05 34.3588 17.9666 34.3075C12.9793 31.2363 8.21937 28.2241 4.90553 23.4316C3.74214 23.4316 0.976207 29.6678 1.35341 30.6111C3.31514 35.5173 12.0526 40.0981 17.1154 42.3308Z" fill="#2D85CC"/>
<path d="M24.0164 12.1212C22.5788 10.453 20.2333 10.5566 18.8679 11.9048C17.6139 13.1431 17.6021 14.9144 18.8617 16.3761C20.168 17.892 22.3635 18.1389 23.7744 16.9012C25.1458 15.6982 25.3235 13.638 24.0164 12.1212Z" fill="#4F5447"/>
<path d="M22.8393 12.1674C23.1987 12.694 23.1358 13.122 22.6506 13.4515C22.2271 13.739 21.6252 13.5842 21.3489 13.1794C20.9723 12.6278 21.015 12.1951 21.4772 11.8813C21.9454 11.5634 22.5258 11.7084 22.8393 12.1674Z" fill="white"/>
<path d="M16.4439 37.2532C15.8324 36.5435 13.5164 34.5833 12.4349 33.6919C12.097 33.757 11.2647 34.1235 10.6384 35.069C9.85562 36.2509 11.6828 38.1286 12.5141 39.6307C13.3454 41.1328 17.7977 44.1537 19.3696 44.3442C20.9415 44.5346 24.6583 40.7974 25.7969 39.6895C26.9355 38.5816 28.3581 36.7073 28.7532 36.4742C29.1483 36.241 29.6563 36.7126 29.8252 37.213C29.9991 37.7284 30.0304 38.4087 30.1646 38.5639C30.2988 38.7191 30.6311 38.7151 30.83 38.5048C31.0288 38.2945 30.9597 37.1178 30.6455 36.4148C30.3942 35.8524 29.4348 35.2281 28.9865 34.9863C29.2236 34.4698 30.1301 33.9179 30.9857 33.4128C31.6302 33.0324 32.437 32.6422 32.437 32.6422C32.437 32.6422 33.0998 32.2446 32.9804 32.0246C32.5037 31.1467 30.7844 32.5339 30.3461 32.7555C29.5637 33.151 28.4746 33.7865 28.2478 33.5533C28.0209 33.3202 29.0919 32.2612 29.6137 31.4845C30.0311 30.8631 30.521 29.6602 30.5426 29.4626C30.575 29.165 30.4956 28.8445 30.2045 28.7746C29.945 28.7122 29.7632 28.8949 29.6115 29.1145C29.4021 29.4177 29.0346 30.34 28.8302 30.8348C28.5746 31.4533 27.3362 32.7201 26.6506 32.5858C26.1022 32.4783 25.7829 31.1457 25.1599 30.4788C24.6245 29.9058 24.0663 29.5127 23.8084 29.3812C23.5767 29.2632 23.2968 29.29 23.1547 29.5077C23.0593 29.654 23.0227 29.8097 23.1215 29.9536C23.3087 30.2262 23.7334 30.529 24.5335 31.3245C25.1736 31.9609 25.297 33.2354 25.145 33.3833C24.9508 33.5722 22.5826 32.9867 22.1741 33.1911C21.9044 33.326 21.8976 33.6525 22.075 33.8347C22.3227 34.0894 22.9999 34.0206 23.6386 34.072C24.1495 34.113 24.6425 34.902 24.7613 35.2257C24.3988 35.4102 23.5011 35.9473 22.8099 36.6199C21.946 37.4606 21.2847 38.0199 20.4772 38.8897C19.8312 39.5856 19.0291 40.0129 18.7088 40.1395C18.2086 39.4731 17.0554 37.9629 16.4439 37.2532Z" fill="#8FC449"/>
<path d="M14.1428 33.4438C12.987 32.4252 11.6684 33.0194 11.1536 33.4438C8.03149 35.5167 13.2361 42.9229 13.2851 42.286C13.3243 41.7765 16.5184 39.9508 18.1105 39.1017C17.2695 37.6401 15.2986 34.4624 14.1428 33.4438Z" fill="#2D85CC"/>
<path d="M18.0948 39.4437C17.3687 39.882 14.5673 41.5748 12.9231 42.5894L12.2119 41.9849C12.2119 41.9849 17.4594 37.8393 17.72 38.2005C17.8986 38.4482 18.0912 38.8907 18.1946 39.1444C18.2401 39.2559 18.1978 39.3815 18.0948 39.4437Z" fill="#DADCDE"/>
<path d="M9.14639 6.41152C5.00781 9.41624 4.08864 15.207 7.09336 19.3456L22.0805 8.46455C19.0758 4.32597 13.285 3.4068 9.14639 6.41152Z" fill="#FFD33B"/>
<path d="M18.1854 11.2814C14.962 6.84169 9.16394 6.37912 9.16394 6.37912C9.16394 6.37912 7.78141 12.1117 10.9778 16.5143L18.1854 11.2814Z" fill="#EB4340"/>
<path fill-rule="evenodd" clip-rule="evenodd" d="M22.0477 7.90465C22.2978 8.23484 22.2329 8.70526 21.9027 8.95535L3.1474 23.1608C2.8172 23.4109 2.34679 23.346 2.0967 23.0158C1.84661 22.6856 1.91154 22.2152 2.24174 21.9651L20.997 7.75961C21.3272 7.50952 21.7976 7.57446 22.0477 7.90465Z" fill="#EB4340"/>
</g>
<defs>
<clipPath id="clip0_1853_86791">
<rect y="0.78125" width="40" height="40" rx="20" fill="white"/>
</clipPath>
</defs>
</svg>
