<svg width="40" height="41" viewBox="0 0 40 41" fill="none" xmlns="http://www.w3.org/2000/svg">
<g clip-path="url(#clip0_1853_86794)">
<rect y="0.78125" width="40" height="40" rx="20" fill="#66784E"/>
<path d="M19.3984 31.8928C18.6277 31.3604 13.0904 29.1258 12.6965 30.1363C12.3419 31.0462 12.113 31.6075 12.1759 32.582C12.3637 35.4928 15.8078 35.5522 18.4869 36.5769C20.0904 37.1902 25.1629 32.5816 25.1629 32.5816C25.1629 32.5816 29.3855 27.8151 30.2077 26.4558C30.9759 25.6022 32.0218 23.7338 32.1996 22.8175C32.4428 21.5646 32.7427 21.0512 31.5309 19.8994C30.7761 19.182 29.9848 18.813 29.1728 18.4743C28.4319 18.1653 28.0382 18.192 27.2671 17.7039C26.6044 17.2845 25.9651 17.045 25.6824 16.9829C25.4284 16.9271 25.1643 17.0236 25.0818 17.2702C25.0264 17.4358 25.0302 17.5957 25.1621 17.71C25.4121 17.9266 25.8994 18.1124 26.8744 18.6802C27.6543 19.1345 28.0954 20.3366 27.9856 20.5182C27.8454 20.7499 25.406 20.7809 25.0623 21.0819C24.8355 21.2805 24.9112 21.598 25.1288 21.7296C25.4328 21.9135 26.0708 21.6761 26.7017 21.5646C27.2065 21.4754 27.8826 22.1145 28.0792 22.3977C27.775 22.6677 27.3735 23.4392 26.8744 24.2644C26.2505 25.2959 25.4202 25.9787 24.8583 27.0242C24.4088 27.8606 23.4625 28.6798 23.4625 28.6798C23.4625 28.6798 20.1692 32.4252 19.3984 31.8928Z" fill="#82B341"/>
<path d="M10.5453 27.8757C9.01419 27.7053 8.27565 28.9488 8.09778 29.5919C7.09807 31.8789 15.2449 36.1576 14.9194 35.6081C14.6589 35.1684 16.2261 31.8398 17.0423 30.2305C15.5146 29.5166 12.0765 28.0462 10.5453 27.8757Z" fill="#D33C3A"/>
<path d="M17.227 30.5193C16.8842 31.295 15.5623 34.2893 14.7985 36.064L13.8691 35.9773C13.8691 35.9773 15.7857 29.5704 16.2064 29.7166C16.4949 29.8168 16.9066 30.0685 17.137 30.2169C17.2382 30.2821 17.2757 30.4092 17.227 30.5193Z" fill="#CCCFD1"/>
<path d="M35.8822 29.6357C35.6959 29.6357 35.5685 29.571 35.4053 29.6357C35.2401 29.0281 34.6345 28.6819 33.9745 28.6819C33.608 28.6819 33.2738 28.9323 33.0207 29.1588C32.7675 28.9323 32.4335 28.6819 32.0669 28.6819C31.8806 28.6819 31.7532 28.6171 31.5899 28.6819C31.4247 28.0743 30.8191 27.728 30.1592 27.728C29.4992 27.728 28.8936 28.1031 28.7284 28.7107C28.5652 28.6459 28.4378 28.7107 28.2515 28.7107C27.8848 28.7107 27.5505 28.9607 27.2973 29.1876C27.0443 28.961 26.7103 28.7107 26.3438 28.7107C25.6839 28.7107 25.0782 29.0281 24.9131 29.6357C24.7498 29.571 24.6224 29.6357 24.4361 29.6357C24.0567 29.6357 23.6928 29.7864 23.4244 30.0548C23.1561 30.3231 23.0054 30.687 23.0054 31.0665V32.4972C23.0054 36.4482 26.2082 40.128 30.1592 40.128C34.1101 40.128 37.313 36.4482 37.313 32.4972V31.5434C37.4084 30.6802 36.7261 29.6357 35.8822 29.6357Z" fill="#FFD33B"/>
<path d="M37.313 32.4971C37.313 36.448 34.1101 40.1278 30.1592 40.1278C26.2082 40.1278 23.0054 36.448 23.0054 32.4971H37.313Z" fill="#EB423F"/>
<path d="M31.1125 27.2505C31.1125 26.9975 31.012 26.7549 30.8331 26.576C30.6542 26.3971 30.4116 26.2966 30.1587 26.2966C29.9057 26.2966 29.6631 26.3971 29.4842 26.576C29.3053 26.7549 29.2048 26.9975 29.2048 27.2505C28.9518 27.2505 28.7092 27.351 28.5303 27.5298C28.3515 27.7087 28.251 27.9513 28.251 28.2043C28.251 28.4573 28.3515 28.6999 28.5303 28.8788C28.7092 29.0577 28.9518 29.1582 29.2048 29.1582C29.2465 29.1582 29.1643 29.1634 29.2048 29.1582C29.3685 29.4479 29.8021 29.6351 30.1587 29.6351C30.5152 29.6351 30.9488 29.4479 31.1125 29.1582C31.153 29.1634 31.0708 29.1582 31.1125 29.1582C31.3655 29.1582 31.6081 29.0577 31.787 28.8788C31.9658 28.6999 32.0663 28.4573 32.0663 28.2043C32.0663 27.9513 31.9658 27.7087 31.787 27.5298C31.6081 27.351 31.3655 27.2505 31.1125 27.2505Z" fill="#FFE76C"/>
<path d="M27.778 18.5581C27.778 18.3051 27.6775 18.0625 27.4987 17.8836C27.3198 17.7047 27.0772 17.6042 26.8242 17.6042C26.5712 17.6042 26.3286 17.7047 26.1497 17.8836C25.9708 18.0625 25.8703 18.3051 25.8703 18.5581C25.6174 18.5581 25.3748 18.6586 25.1959 18.8375C25.017 19.0163 24.9165 19.259 24.9165 19.5119C24.9165 19.7649 25.017 20.0075 25.1959 20.1864C25.3748 20.3653 25.6174 20.4658 25.8703 20.4658C25.8299 20.471 25.9121 20.4658 25.8703 20.4658C26.034 20.7556 26.4676 20.9427 26.8242 20.9427C27.1807 20.9427 27.6143 20.7556 27.778 20.4658C27.7363 20.4658 27.8185 20.471 27.778 20.4658C28.031 20.4658 28.2736 20.3653 28.4525 20.1864C28.6314 20.0075 28.7319 19.7649 28.7319 19.5119C28.7319 19.259 28.6314 19.0163 28.4525 18.8375C28.2736 18.6586 28.031 18.5581 27.778 18.5581Z" fill="#FFE76C"/>
<path d="M-1.71094 28.5C-1.71094 28.5 2.40568 18.6732 3.14342 17.5208C4.96809 14.6707 12.0263 10.438 12.8827 9.77799C13.7391 9.11801 13.8145 8.16904 15.3734 7.38971C16.9323 6.61038 17.6967 7.41486 19.5835 7.48547C21.4702 7.55607 25.7574 4.82653 28.5208 8.1559C31.2841 11.4853 24.3032 17.0333 23.1583 18.6276C22.0134 20.222 21.9581 20.6573 20.306 23.0905C18.5372 25.6957 15.5362 25.6866 12.8146 30.9515C10.9729 34.5141 14.0622 41.5 14.0622 41.5L-1.71094 28.5Z" fill="#8FC449"/>
<path d="M13.6281 29.5616C10.9229 28.4215 4.82152 24.5994 1.59842 19.9979C1.4897 19.8426 1.254 19.8548 1.16508 20.0222L-0.183594 22.5606L13.1281 33.377L13.7782 29.84C13.7998 29.7228 13.738 29.6079 13.6281 29.5616Z" fill="#DADCDE"/>
<path d="M12.6607 39.86L13.6291 32.0806C13.6412 31.9835 13.5953 31.8881 13.5119 31.8368C8.52462 28.7656 3.76469 25.7534 0.450851 20.9609C-0.712544 20.9609 -2.77913 25.615 -2.40192 26.5584C-0.440195 31.4646 7.59789 37.6274 12.6607 39.86Z" fill="#EB4340"/>
<path d="M18.9265 9.42084C17.6127 7.89628 15.4691 7.99095 14.2213 9.2231C13.0752 10.3548 13.0644 11.9736 14.2156 13.3094C15.4094 14.6949 17.416 14.9206 18.7054 13.7894C19.9587 12.6899 20.1211 10.8071 18.9265 9.42084Z" fill="#4F5447"/>
<path d="M16.2993 11.2215C16.6278 11.7027 16.5703 12.0939 16.1268 12.395C15.7398 12.6578 15.1897 12.5163 14.9372 12.1463C14.593 11.6422 14.6321 11.2468 15.0544 10.96C15.4824 10.6694 16.0128 10.8019 16.2993 11.2215Z" fill="white"/>
<path d="M23.171 25.5315C23.0473 25.5313 22.9279 25.486 22.8352 25.4041C22.7425 25.3221 22.683 25.2092 22.6676 25.0864L22.1934 21.2925L20.4047 20.3982C20.2853 20.3374 20.1948 20.2317 20.1529 20.1044C20.111 19.9771 20.1211 19.8384 20.1811 19.7185C20.241 19.5986 20.3459 19.5073 20.4729 19.4644C20.5999 19.4216 20.7387 19.4306 20.859 19.4896L22.8909 20.5055C22.9657 20.5429 23.0301 20.5982 23.0784 20.6665C23.1267 20.7348 23.1573 20.8139 23.1677 20.8969L23.6757 24.9605C23.6924 25.0942 23.6553 25.229 23.5726 25.3354C23.4899 25.4417 23.3683 25.5108 23.2346 25.5275C23.2135 25.5302 23.1923 25.5315 23.171 25.5315Z" fill="#2D85CC"/>
<path d="M26.7279 40.263H19.6165L18.6006 26.5481H27.7438L26.7279 40.263Z" fill="#2D85CC"/>
<path d="M18.6007 25.0234H27.744L28.252 27.0553H18.0928L18.6007 25.0234Z" fill="#DADCDE"/>
<path d="M23.1725 34.1667C22.0503 34.1667 21.1406 33.257 21.1406 32.1349C21.1406 31.0127 22.0503 30.103 23.1725 30.103C24.2946 30.103 25.2043 31.0127 25.2043 32.1349C25.2043 33.257 24.2946 34.1667 23.1725 34.1667Z" fill="#395A8D"/>
<path d="M21.2603 32.8241C21.3727 33.1343 21.5586 33.4127 21.8019 33.6355C21.8475 33.6212 21.8909 33.6004 21.9308 33.5739L24.9785 31.5421C25.0186 31.5156 25.0546 31.4833 25.0852 31.4462C24.9727 31.136 24.7869 30.8576 24.5436 30.6348C24.4979 30.649 24.4545 30.6698 24.4147 30.6964L21.3669 32.7282C21.3268 32.7547 21.2908 32.787 21.2603 32.8241Z" fill="#DADCDE"/>
<path d="M12.8505 35.2309C12.4093 34.4045 10.5788 31.9847 9.71867 30.8781C9.37473 30.8676 8.48232 31.043 7.66423 31.8284C6.64162 32.8102 8.01323 35.0425 8.49547 36.6901C8.97771 38.3378 12.6604 42.2604 14.1524 42.7904C15.6445 43.3204 20.0894 40.4879 21.443 39.6562C22.7966 38.8245 24.5951 37.3072 25.0316 37.1662C25.4682 37.0252 26.782 37.5937 26.9179 37.6641C27.0537 37.7344 27.1874 37.5625 27.1874 37.3789C27.1874 37.2133 27.0752 37.1051 26.9639 36.9835C26.4789 36.4534 25.9695 36.0997 25.5851 35.7656C25.9296 35.3135 26.2957 35.1525 27.2411 34.847C27.3778 34.8029 27.7406 34.7299 27.6114 34.2748C27.4559 33.7271 27.2748 33.8961 27.157 33.8961C26.2803 33.8961 25.3484 34.4828 25.1781 34.2056C25.0078 33.9284 26.2157 32.988 26.8949 32.3444C27.3719 31.8925 27.577 31.0923 27.6749 30.7953C27.7547 30.5536 27.6824 30.0178 27.4808 30.1731C27.1596 30.4205 26.8644 31.1687 26.3417 31.6806C25.8635 32.1488 24.4711 33.193 23.8316 32.9118C23.32 32.6868 23.3003 31.3166 22.8384 30.5295C22.4415 29.8531 21.9829 29.3474 21.7601 29.1626C21.5599 28.9967 21.2808 28.9615 21.0946 29.1429C20.9695 29.2647 20.8996 29.4086 20.9645 29.5707C21.0875 29.8777 21.4356 30.2661 22.0421 31.2175C22.5273 31.9786 22.3686 33.2492 22.1878 33.3603C21.9571 33.5021 19.7745 32.4121 19.3311 32.5222C19.0385 32.5948 18.9604 32.9118 19.0935 33.1285C19.2795 33.4312 19.9553 33.5124 20.5672 33.7023C21.0568 33.8543 21.365 34.7321 21.41 35.0739C21.0159 35.1745 20.0224 35.502 19.2007 36.0069C18.1736 36.638 17.406 37.039 16.4276 37.7109C15.6448 38.2484 14.7687 38.4896 14.4284 38.5431C14.0863 37.7833 13.2917 36.0572 12.8505 35.2309Z" fill="#8FC449"/>
<path d="M9.98632 30.8417C8.83052 29.8231 7.5119 30.4173 6.99707 30.8417C4.86556 32.1403 9.07958 40.3208 9.12857 39.684C9.16777 39.1745 12.3619 37.3488 13.954 36.4996C13.1131 35.0381 11.1421 31.8603 9.98632 30.8417Z" fill="#EB4340"/>
<path d="M13.9395 36.8416C13.2134 37.28 10.4121 38.9727 8.76782 39.9874L8.05664 39.3828C8.05664 39.3828 13.3041 35.2372 13.5647 35.5985C13.7434 35.8462 13.9359 36.2886 14.0393 36.5424C14.0848 36.6538 14.0425 36.7794 13.9395 36.8416Z" fill="#DADCDE"/>
</g>
<defs>
<clipPath id="clip0_1853_86794">
<rect y="0.78125" width="40" height="40" rx="20" fill="white"/>
</clipPath>
</defs>
</svg>
