<svg width="40" height="41" viewBox="0 0 40 41" fill="none" xmlns="http://www.w3.org/2000/svg">
<g clip-path="url(#clip0_1853_86796)">
<rect y="0.78125" width="40" height="40" rx="20" fill="#66784E"/>
<path d="M22.5448 26.5859C20.776 29.1911 17.775 29.1819 15.0533 34.4468C13.8251 36.8229 14.5197 41.5042 14.5197 41.5042L-0.105228 34.4468C-0.105228 34.4468 4.54147 22.3294 5.38221 21.0162C7.20688 18.166 14.265 13.9333 15.1215 13.2733C15.9779 12.6134 16.0533 11.6644 17.6122 10.8851C19.1711 10.1057 19.9355 10.9102 21.8223 10.9808C23.709 11.0514 27.9962 8.32188 30.7596 11.6512C33.5229 14.9806 26.542 20.5286 25.3971 22.123C24.2522 23.7173 24.1969 24.1526 22.5448 26.5859Z" fill="#8FC449"/>
<path d="M35.5343 31.5897C34.7199 32.1071 33.6402 31.8663 33.1228 31.0519L28.3107 23.4776C27.7933 22.6632 28.0341 21.5835 28.8485 21.0661C29.6629 20.5487 30.7426 20.7895 31.26 21.6039L36.0721 29.1782C36.5895 29.9926 36.3487 31.0723 35.5343 31.5897Z" fill="#D9D9D9"/>
<path d="M31.8274 26.5597C30.895 27.152 29.6591 26.8764 29.0667 25.9441L27.6114 23.6534C27.0191 22.7211 27.2948 21.4851 28.2271 20.8928L28.9566 20.4293C29.8889 19.837 31.1249 20.1126 31.7172 21.045L33.1725 23.3356C33.7648 24.268 33.4892 25.5039 32.5568 26.0962L31.8274 26.5597Z" fill="#3F403F"/>
<path d="M33.1729 23.3355L31.7176 21.0449C31.7176 21.0449 32.0108 23.1528 31.3666 24.2221C30.7878 25.1831 29.0672 25.944 29.0672 25.944C29.6595 26.8763 30.8954 27.1519 31.8278 26.5596L32.5573 26.0961C33.4896 25.5038 33.7652 24.2679 33.1729 23.3355Z" fill="#2C2E2C"/>
<path d="M16.6801 1.98728C11.8872 3.25638 14.8966 8.00308 11.8168 9.95115C10.0367 11.0772 8.21366 10.1364 6.67239 11.5722C5.02305 13.1087 4.61024 14.7585 4.73444 17.0092C4.92042 20.3795 8.50462 23.2013 10.1257 23.7651C11.7467 24.329 10.3371 20.8754 11.8168 20.3821C12.9265 20.0121 14.1647 22.9986 14.7414 24.8254C14.7943 24.993 14.998 25.0592 15.1374 24.952L16.5042 23.9005C16.6046 23.8233 16.6314 23.6836 16.5688 23.5735C15.9549 22.4928 14.9009 20.2636 14.8479 18.6201C14.7774 16.4352 18.7948 13.7571 21.4026 11.5722C24.0104 9.38731 21.4731 0.718188 16.6801 1.98728Z" fill="#2C2E2C"/>
<path d="M18.7191 10.9075C19.0066 10.0227 20.2583 10.0227 20.5458 10.9075L21.2047 12.9355C21.3333 13.3312 21.702 13.5991 22.1181 13.5991H24.2505C25.1808 13.5991 25.5676 14.7895 24.8149 15.3363L23.0898 16.5897C22.7532 16.8343 22.6124 17.2677 22.7409 17.6634L23.3999 19.6915C23.6873 20.5762 22.6747 21.312 21.9221 20.7652L20.1969 19.5118C19.8603 19.2672 19.4046 19.2672 19.068 19.5118L17.3428 20.7652C16.5902 21.312 15.5775 20.5762 15.865 19.6915L16.524 17.6634C16.6525 17.2677 16.5117 16.8343 16.1751 16.5897L14.45 15.3363C13.6973 14.7895 14.0841 13.5991 15.0144 13.5991H17.1468C17.5629 13.5991 17.9316 13.3312 18.0602 12.9355L18.7191 10.9075Z" fill="#EB4340"/>
<path d="M18.5141 14.5294C18.2927 14.7604 17.1742 14.8708 16.709 14.8788C17.1341 14.9348 18.3766 15.2737 18.8001 15.0908C19.2237 14.9079 18.9618 14.399 19.038 13.8577C18.8334 14.2948 18.7355 14.2983 18.5141 14.5294Z" fill="#F59F9E"/>
<path d="M23.0902 16.5893L24.8154 15.3359C25.568 14.7891 25.1812 13.5986 24.2509 13.5986C24.2509 13.5986 21.9727 15.771 20.4866 16.9242C19.0264 18.0573 15.8655 19.691 15.8655 19.691C15.578 20.5758 16.5906 21.3115 17.3433 20.7647L19.0684 19.5113C19.405 19.2668 19.8608 19.2668 20.1974 19.5113L21.9225 20.7647C22.6751 21.3115 23.6878 20.5758 23.4003 19.691L22.7414 17.663C22.6128 17.2673 22.7536 16.8338 23.0902 16.5893Z" fill="#D33C3A"/>
<path fill-rule="evenodd" clip-rule="evenodd" d="M20.5197 13.1581L19.8608 11.13C19.7889 10.9088 19.476 10.9089 19.4041 11.13L18.7452 13.1581C18.5202 13.8505 17.8749 14.3193 17.1468 14.3193H15.0144C14.7818 14.3193 14.6851 14.6169 14.8733 14.7536L16.5985 16.007C17.1875 16.435 17.434 17.1936 17.209 17.886L16.55 19.914C16.4781 20.1352 16.7313 20.3192 16.9195 20.1825L18.6446 18.9291C19.2336 18.5011 20.0312 18.5011 20.6203 18.9291L22.3454 20.1825C22.5336 20.3192 22.7867 20.1352 22.7149 19.914L22.0559 17.886C21.8309 17.1936 22.0774 16.435 22.6664 16.007L24.3916 14.7536C24.5797 14.6169 24.483 14.3193 24.2505 14.3193H22.1181C21.39 14.3193 20.7447 13.8505 20.5197 13.1581ZM20.5458 10.9075C20.2583 10.0227 19.0066 10.0227 18.7191 10.9075L18.0602 12.9355C17.9316 13.3312 17.5629 13.5991 17.1468 13.5991H15.0144C14.0841 13.5991 13.6973 14.7895 14.45 15.3363L16.1751 16.5897C16.5117 16.8343 16.6525 17.2677 16.524 17.6634L15.865 19.6915C15.5775 20.5762 16.5902 21.312 17.3428 20.7652L19.068 19.5118C19.4046 19.2672 19.8603 19.2672 20.1969 19.5118L21.9221 20.7652C22.6747 21.312 23.6873 20.5762 23.3999 19.6915L22.7409 17.6634C22.6124 17.2677 22.7532 16.8343 23.0898 16.5897L24.8149 15.3363C25.5676 14.7895 25.1808 13.5991 24.2505 13.5991H22.1181C21.702 13.5991 21.3333 13.3312 21.2047 12.9355L20.5458 10.9075Z" fill="#FFD33B"/>
<path d="M23.0165 35.6523C22.2432 35.1235 19.4225 34.3441 18.1482 33.7604C17.8384 33.9101 17.2071 33.9582 16.8448 35.0328C16.3919 36.3762 18.6401 37.7215 19.8294 38.9596C21.0187 40.1977 26.0976 41.9735 27.6657 41.7537C29.2338 41.5339 31.8657 36.9673 32.6815 35.6041C33.4972 34.2408 34.3906 32.064 34.7125 31.7372C35.0345 31.4103 36.4623 31.3071 36.6153 31.3066C36.7683 31.3062 36.8073 31.092 36.7225 30.9292C36.6459 30.7824 36.4963 30.7383 36.3415 30.6819C35.6664 30.436 35.0512 30.3579 34.5558 30.2393C34.6523 29.6792 34.9025 29.3672 35.5996 28.6592C35.7004 28.5569 35.9884 28.3245 35.6634 27.9807C35.2723 27.5669 35.1899 27.8005 35.0854 27.855C34.308 28.2603 33.7529 29.2112 33.4737 29.0442C33.1946 28.8772 33.8309 27.4849 34.1357 26.6002C34.3497 25.9789 34.1616 25.1746 34.1112 24.866C34.0702 24.6147 33.7584 24.173 33.6514 24.404C33.481 24.7718 33.5651 25.5717 33.3382 26.2673C33.1307 26.9035 32.3787 28.4732 31.6816 28.5194C31.124 28.5564 30.4731 27.3506 29.6996 26.8662C29.035 26.4499 28.3946 26.2134 28.1115 26.1526C27.8573 26.098 27.5936 26.1958 27.5123 26.4428C27.4577 26.6086 27.4623 26.7685 27.5948 26.8822C27.8457 27.0976 28.334 27.2811 29.3116 27.8444C30.0937 28.295 30.5403 29.495 30.4314 29.677C30.2923 29.9094 27.8531 29.952 27.5108 30.2545C27.2849 30.4541 27.3622 30.7714 27.5804 30.9019C27.8853 31.0844 28.5221 30.844 29.1525 30.7295C29.6568 30.6379 30.336 31.2738 30.5339 31.5561C30.231 31.8275 29.5014 32.5772 29.0062 33.4048C28.3872 34.4392 27.8918 35.1496 27.3349 36.1978C26.8893 37.0363 26.2239 37.6552 25.9469 37.8598C25.2923 37.3443 23.7898 36.1811 23.0165 35.6523Z" fill="#8FC449"/>
<path d="M0.687811 30.5986C1.22966 28.7553 3.47413 24.4992 4.52863 22.6016L17.4951 32.3155L11.9834 45.0564C7.99242 41.0052 0.145966 32.442 0.687811 30.5986Z" fill="#ECECEC"/>
<path d="M33.3665 34.7397L28.4328 32.0882L25.6094 35.5212C25.3078 35.8879 24.7928 35.9924 24.3619 35.7934C20.7224 34.1121 12.1565 31.356 11.0192 32.0189C9.49123 32.9095 7.5702 35.6946 7.89338 37.8491C8.21657 40.0035 26.5502 42.8295 27.744 42.7705C28.6991 42.7233 31.8903 37.3969 33.3665 34.7397Z" fill="#ECECEC"/>
<path d="M28.6228 31.2827C29.395 31.8112 32.2203 33.7424 33.8153 34.8031L32.0789 37.5549C32.0789 37.5549 26.1201 34.5195 26.3394 34.1318C26.5219 33.8093 27.8423 31.9574 28.2814 31.3435C28.3605 31.233 28.5106 31.2059 28.6228 31.2827Z" fill="white"/>
<path d="M16.79 5.46362C16.0108 7.64544 15.348 11.6966 12.6602 12.3591C15.844 12.1471 17.6628 9.14115 16.79 5.46362Z" fill="#3F403F"/>
<path d="M17.2447 39.1738L18.1866 31.6072C18.1987 31.51 18.1529 31.4147 18.0695 31.3633C13.2172 28.3752 8.58633 25.4441 5.36213 20.7812C4.22991 20.7812 1.53811 26.8502 1.90521 27.7683C3.81436 32.543 12.3176 37.001 17.2447 39.1738Z" fill="white"/>
<path d="M13.0109 35.3428C13.0005 35.1865 12.7963 35.1348 12.7129 35.2673C12.6756 35.3265 12.6043 35.355 12.5365 35.3378C12.3847 35.2993 12.2724 35.4775 12.3726 35.5978C12.4174 35.6516 12.4225 35.7282 12.3851 35.7874C12.3017 35.9199 12.4365 36.0817 12.5818 36.0236C12.6468 35.9977 12.7212 36.0165 12.766 36.0703C12.8662 36.1906 13.0618 36.1124 13.0514 35.9562C13.0468 35.8863 13.0877 35.8215 13.1527 35.7955C13.2981 35.7374 13.2842 35.5272 13.1324 35.4887C13.0646 35.4716 13.0155 35.4126 13.0109 35.3428Z" fill="#FFD33B"/>
<path d="M14.6515 35.7583C14.6412 35.6021 14.437 35.5503 14.3535 35.6828C14.3162 35.742 14.245 35.7705 14.1771 35.7533C14.0253 35.7149 13.913 35.8931 14.0132 36.0134C14.058 36.0672 14.0631 36.1437 14.0258 36.2029C13.9423 36.3354 14.0771 36.4973 14.2225 36.4392C14.2875 36.4132 14.3618 36.432 14.4066 36.4858C14.5068 36.6061 14.7024 36.5279 14.6921 36.3717C14.6874 36.3019 14.7283 36.237 14.7933 36.211C14.9387 36.1529 14.9248 35.9427 14.7731 35.9043C14.7052 35.8871 14.6561 35.8281 14.6515 35.7583Z" fill="#FFD33B"/>
<path d="M15.067 34.1177C15.0567 33.9614 14.8525 33.9097 14.769 34.0422C14.7317 34.1014 14.6605 34.1299 14.5926 34.1127C14.4409 34.0742 14.3286 34.2524 14.4287 34.3727C14.4735 34.4266 14.4786 34.5031 14.4413 34.5623C14.3578 34.6948 14.4926 34.8566 14.638 34.7985C14.703 34.7726 14.7773 34.7914 14.8222 34.8452C14.9223 34.9655 15.1179 34.8873 15.1076 34.7311C15.103 34.6613 15.1439 34.5964 15.2089 34.5704C15.3542 34.5123 15.3403 34.3021 15.1886 34.2637C15.1207 34.2465 15.0716 34.1875 15.067 34.1177Z" fill="#FFD33B"/>
<path d="M16.2921 36.1738C16.2818 36.0176 16.0776 35.9659 15.9941 36.0983C15.9568 36.1576 15.8856 36.186 15.8177 36.1688C15.666 36.1304 15.5537 36.3086 15.6538 36.4289C15.6986 36.4827 15.7037 36.5592 15.6664 36.6185C15.5829 36.7509 15.7177 36.9128 15.8631 36.8547C15.9281 36.8287 16.0024 36.8475 16.0472 36.9013C16.1474 37.0216 16.343 36.9435 16.3327 36.7873C16.3281 36.7174 16.369 36.6525 16.434 36.6265C16.5793 36.5684 16.5654 36.3582 16.4137 36.3198C16.3458 36.3026 16.2967 36.2437 16.2921 36.1738Z" fill="#FFD33B"/>
<path d="M16.7076 34.5332C16.6973 34.377 16.4931 34.3252 16.4097 34.4577C16.3723 34.5169 16.3011 34.5454 16.2332 34.5282C16.0815 34.4898 15.9692 34.668 16.0694 34.7883C16.1142 34.8421 16.1192 34.9186 16.0819 34.9778C15.9984 35.1103 16.1332 35.2722 16.2786 35.2141C16.3436 35.1881 16.418 35.2069 16.4628 35.2607C16.563 35.381 16.7586 35.3029 16.7482 35.1466C16.7436 35.0768 16.7845 35.0119 16.8495 34.9859C16.9949 34.9278 16.981 34.7176 16.8292 34.6792C16.7613 34.662 16.7123 34.603 16.7076 34.5332Z" fill="#FFD33B"/>
<path d="M17.1232 32.8928C17.1128 32.7366 16.9086 32.6849 16.8252 32.8173C16.7879 32.8766 16.7166 32.905 16.6488 32.8878C16.497 32.8494 16.3847 33.0276 16.4849 33.1479C16.5297 33.2017 16.5348 33.2782 16.4974 33.3375C16.414 33.4699 16.5488 33.6318 16.6941 33.5737C16.7592 33.5477 16.8335 33.5665 16.8783 33.6203C16.9785 33.7406 17.1741 33.6625 17.1637 33.5063C17.1591 33.4364 17.2 33.3715 17.265 33.3455C17.4104 33.2874 17.3965 33.0772 17.2447 33.0388C17.1769 33.0216 17.1278 32.9627 17.1232 32.8928Z" fill="#FFD33B"/>
</g>
<defs>
<clipPath id="clip0_1853_86796">
<rect y="0.78125" width="40" height="40" rx="20" fill="white"/>
</clipPath>
</defs>
</svg>
