<svg width="40" height="41" viewBox="0 0 40 41" fill="none" xmlns="http://www.w3.org/2000/svg">
<g clip-path="url(#clip0_1853_86793)">
<rect y="0.78125" width="40" height="40" rx="20" fill="#66784E"/>
<path d="M12.8434 11.1731C12.6902 11.2791 12.5486 11.2984 12.4513 11.4446C11.9696 11.0391 11.2745 11.0992 10.732 11.4749C10.4307 11.6836 10.2984 12.0797 10.2193 12.4101C9.88219 12.368 9.46509 12.3522 9.16362 12.561C9.01046 12.6671 8.86886 12.6864 8.77153 12.8325C8.28981 12.427 7.59479 12.4872 7.05224 12.8629C6.50968 13.2386 6.22529 13.8917 6.43539 14.4853C6.2643 14.5249 6.19646 14.6507 6.0433 14.7568C5.74183 14.9655 5.60935 15.3615 5.53034 15.6921C5.19336 15.6499 4.77626 15.6342 4.47494 15.8428C3.93239 16.2185 3.61521 16.8243 3.8253 17.4179C3.65425 17.4576 3.58638 17.5833 3.43322 17.6894C3.12125 17.9054 2.90788 18.2365 2.84004 18.6099C2.7722 18.9832 2.85546 19.3682 3.07148 19.6802L3.88602 20.8564C6.1353 24.1046 10.8634 25.3065 14.1116 23.0572C17.3597 20.8079 17.898 15.9592 15.6487 12.7111L15.1057 11.9269C14.6927 11.1629 13.5372 10.6926 12.8434 11.1731Z" fill="#D9D9D9"/>
<path d="M20.4624 11.3076C20.4624 13.3771 18.7848 15.0547 16.7153 15.0547C14.6459 15.0547 12.9683 13.3771 12.9683 11.3076C12.9683 9.23817 14.6459 7.56055 16.7153 7.56055C18.7848 7.56055 20.4624 9.23817 20.4624 11.3076Z" fill="#D9D9D9"/>
<path fill-rule="evenodd" clip-rule="evenodd" d="M16.7153 14.0547C18.2325 14.0547 19.4624 12.8248 19.4624 11.3076C19.4624 9.79045 18.2325 8.56055 16.7153 8.56055C15.1982 8.56055 13.9683 9.79045 13.9683 11.3076C13.9683 12.8248 15.1982 14.0547 16.7153 14.0547ZM16.7153 15.0547C18.7848 15.0547 20.4624 13.3771 20.4624 11.3076C20.4624 9.23817 18.7848 7.56055 16.7153 7.56055C14.6459 7.56055 12.9683 9.23817 12.9683 11.3076C12.9683 13.3771 14.6459 15.0547 16.7153 15.0547Z" fill="#323633"/>
<path fill-rule="evenodd" clip-rule="evenodd" d="M16.7153 14.0547C18.2325 14.0547 19.4624 12.8248 19.4624 11.3076C19.4624 9.79045 18.2325 8.56055 16.7153 8.56055C15.1982 8.56055 13.9683 9.79045 13.9683 11.3076C13.9683 12.8248 15.1982 14.0547 16.7153 14.0547ZM16.7153 15.0547C18.7848 15.0547 20.4624 13.3771 20.4624 11.3076C20.4624 9.23817 18.7848 7.56055 16.7153 7.56055C14.6459 7.56055 12.9683 9.23817 12.9683 11.3076C12.9683 13.3771 14.6459 15.0547 16.7153 15.0547Z" fill="#2C2E2C"/>
<path d="M20.955 24.7397C19.1861 27.3449 16.1851 27.3357 13.4635 32.6006C12.2352 34.9767 12.9299 39.658 12.9299 39.658L-1.69507 32.6006C-1.69507 32.6006 2.95163 20.4832 3.79237 19.17C5.61703 16.3198 12.6752 12.0871 13.5316 11.4271C14.388 10.7672 14.4635 9.8182 16.0224 9.03887C17.5812 8.25953 18.3457 9.06402 20.2324 9.13462C22.1191 9.20523 26.4063 6.47569 29.1697 9.80506C31.9331 13.1344 24.9521 18.6824 23.8072 20.2768C22.6623 21.8711 22.607 22.3064 20.955 24.7397Z" fill="#8FC449"/>
<path d="M14.4108 31.7198C11.7056 30.5797 5.60423 26.7576 2.38113 22.1561C2.27241 22.0008 2.03671 22.013 1.9478 22.1804L0.599121 24.7188L13.9108 35.5352L14.5609 31.9982C14.5825 31.881 14.5207 31.7661 14.4108 31.7198Z" fill="#F4F4F4"/>
<path d="M13.4436 42.0186L14.6292 34.9346C14.646 34.8343 14.6004 34.734 14.5141 34.6801C9.53896 31.5788 5.30948 26.9038 1.99699 22.1133C0.833595 22.1133 -1.99619 27.7735 -1.61898 28.7169C0.342748 33.6231 8.38083 39.7859 13.4436 42.0186Z" fill="#3F403F"/>
<path d="M20.9155 13.5498C20.9155 15.6193 19.2379 17.2969 17.1685 17.2969C15.099 17.2969 13.4214 15.6193 13.4214 13.5498C13.4214 11.4804 15.099 9.80273 17.1685 9.80273C19.2379 9.80273 20.9155 11.4804 20.9155 13.5498Z" fill="#D9D9D9"/>
<path fill-rule="evenodd" clip-rule="evenodd" d="M17.1685 16.2969C18.6856 16.2969 19.9155 15.067 19.9155 13.5498C19.9155 12.0326 18.6856 10.8027 17.1685 10.8027C15.6513 10.8027 14.4214 12.0326 14.4214 13.5498C14.4214 15.067 15.6513 16.2969 17.1685 16.2969ZM17.1685 17.2969C19.2379 17.2969 20.9155 15.6193 20.9155 13.5498C20.9155 11.4804 19.2379 9.80273 17.1685 9.80273C15.099 9.80273 13.4214 11.4804 13.4214 13.5498C13.4214 15.6193 15.099 17.2969 17.1685 17.2969Z" fill="#323633"/>
<path fill-rule="evenodd" clip-rule="evenodd" d="M15.4541 16.094L16.8047 10.5989L17.533 10.7779L16.1824 16.273L15.4541 16.094Z" fill="#F4F4F4"/>
<path fill-rule="evenodd" clip-rule="evenodd" d="M16.6831 16.3708L18.0337 10.8757L19.0048 11.1144L17.6542 16.6095L16.6831 16.3708Z" fill="#F4F4F4"/>
<path fill-rule="evenodd" clip-rule="evenodd" d="M17.1685 16.2969C18.6856 16.2969 19.9155 15.067 19.9155 13.5498C19.9155 12.0326 18.6856 10.8027 17.1685 10.8027C15.6513 10.8027 14.4214 12.0326 14.4214 13.5498C14.4214 15.067 15.6513 16.2969 17.1685 16.2969ZM17.1685 17.2969C19.2379 17.2969 20.9155 15.6193 20.9155 13.5498C20.9155 11.4804 19.2379 9.80273 17.1685 9.80273C15.099 9.80273 13.4214 11.4804 13.4214 13.5498C13.4214 15.6193 15.099 17.2969 17.1685 17.2969Z" fill="#3F403F"/>
<path d="M4.14816 21.4208C4.32608 21.476 4.42856 21.5756 4.60364 21.5621C4.58131 22.1914 5.0571 22.7016 5.68738 22.8972C6.03742 23.0058 6.43087 22.8658 6.73972 22.7244C6.91438 23.0159 7.15911 23.354 7.50933 23.4627C7.68725 23.5179 7.78973 23.6175 7.96481 23.604C7.94248 24.2333 8.41827 24.7435 9.04855 24.9391C9.67883 25.1347 10.3684 24.956 10.7063 24.4247C10.843 24.535 10.9838 24.5109 11.1618 24.5661C11.512 24.6748 11.9054 24.535 12.2144 24.3934C12.3889 24.6848 12.6337 25.0229 12.9837 25.1315C13.614 25.3272 14.2865 25.2035 14.6244 24.6722C14.7611 24.7824 14.9019 24.7583 15.0799 24.8135C15.4423 24.926 15.8345 24.8899 16.1703 24.7132C16.5061 24.5364 16.7579 24.2336 16.8704 23.8712L17.2945 22.5047C18.4656 18.7313 14.6506 21.3083 10.8772 20.1372C7.10386 18.9661 6.73972 13.7083 3.62988 18.2638L3.34715 19.1747C3.00018 19.9709 3.34217 21.1706 4.14816 21.4208Z" fill="#F4F4F4"/>
<path d="M17.8859 21.0945C17.8859 20.8415 17.7854 20.5989 17.6066 20.42C17.4277 20.2411 17.1851 20.1406 16.9321 20.1406C16.6791 20.1406 16.4365 20.2411 16.2576 20.42C16.0787 20.5989 15.9783 20.8415 15.9783 21.0945C15.7253 21.0945 15.4827 21.195 15.3038 21.3738C15.1249 21.5527 15.0244 21.7953 15.0244 22.0483C15.0244 22.3013 15.1249 22.5439 15.3038 22.7228C15.4827 22.9017 15.7253 23.0021 15.9783 23.0021C16.02 23.0021 15.9378 23.0074 15.9783 23.0021C16.142 23.2919 16.5755 23.4791 16.9321 23.4791C17.2887 23.4791 17.7222 23.2919 17.8859 23.0021C17.9264 23.0074 17.8442 23.0021 17.8859 23.0021C18.1389 23.0021 18.3815 22.9017 18.5604 22.7228C18.7393 22.5439 18.8398 22.3013 18.8398 22.0483C18.8398 21.7953 18.7393 21.5527 18.5604 21.3738C18.3815 21.195 18.1389 21.0945 17.8859 21.0945Z" fill="#F4F4F4"/>
<path d="M29.6009 19.233C30.1815 18.7661 30.3396 18.3202 30.6669 17.6509C31.8211 15.2906 30.3647 11.1806 30.3163 10.9323C30.2679 10.684 30.1228 10.4651 29.913 10.3237C29.7033 10.1823 29.4459 10.1301 29.1976 10.1785C28.9493 10.2269 28.7304 10.3719 28.589 10.5817C28.6073 10.5452 28.5657 10.6163 28.589 10.5817C28.2572 10.5556 27.8598 10.8106 27.6605 11.1063C27.4613 11.402 27.3742 11.8661 27.523 12.1638C27.5463 12.1292 27.4961 12.1944 27.523 12.1638C27.3817 12.3736 27.3294 12.6309 27.3778 12.8792C27.4262 13.1276 27.5713 13.3465 27.7811 13.4878C27.9909 13.6292 28.2482 13.6814 28.4965 13.633C30.1523 15.1492 27.8639 20.6299 29.6009 19.233Z" fill="#F4F4F4"/>
<path d="M16.4437 36.9737C15.8322 36.264 13.5162 34.3038 12.4347 33.4124C12.0968 33.4774 11.2645 33.844 10.6382 34.7895C9.85542 35.9714 11.6826 37.8491 12.5139 39.3512C13.3452 40.8533 17.7975 43.8742 19.3694 44.0646C20.9413 44.255 24.6581 40.5179 25.7967 39.41C26.9353 38.3021 27.7571 36.5735 28.1522 36.3403C28.5473 36.1072 29.3103 35.2751 29.5187 33.7924C29.8033 31.7684 29.3417 30.666 28.1538 30.0606C27.2253 29.5874 25.7406 29.8317 25.4109 31.1538C25.2079 31.9676 25.4109 33.36 25.4109 33.36C25.4109 33.36 25.1509 34.402 24.7611 34.9462C24.2156 35.7075 23.5009 35.6678 22.8097 36.3403C21.9457 37.181 21.2845 37.7403 20.477 38.6102C19.831 39.3061 19.0289 39.7333 18.7086 39.8599C18.2084 39.1936 17.0552 37.6833 16.4437 36.9737Z" fill="#8FC449"/>
<path d="M28.0871 31.1621C27.8634 31.0776 27.7507 30.8278 27.8352 30.6041L32.7991 17.4728C32.8836 17.2492 33.1334 17.1364 33.357 17.221C33.5806 17.3055 33.6934 17.5553 33.6089 17.7789L28.645 30.9103C28.5605 31.1339 28.3107 31.2466 28.0871 31.1621Z" fill="#EB4340"/>
<path d="M28.0874 31.1629C27.7332 31.029 28.094 30.4624 28.2926 30.1399C28.9533 29.067 30.0773 26.329 31.0442 23.7692C31.9492 21.3732 32.7905 19.0289 33.1649 17.8725C33.2753 17.5316 33.736 17.4445 33.6093 17.7797L28.6454 30.911C28.5609 31.1347 28.3111 31.2474 28.0874 31.1629Z" fill="#D33C3A"/>
<path d="M27.8251 31.3374C27.5014 31.2151 27.3382 30.8535 27.4606 30.5299C27.5829 30.2062 27.9445 30.0431 28.2681 30.1654L28.4988 30.2526C28.8224 30.3749 28.9856 30.7365 28.8633 31.0601C28.7409 31.3838 28.3794 31.547 28.0557 31.4246L27.8251 31.3374Z" fill="#EB4340"/>
<path d="M23.486 35.4476C22.2922 36.5485 20.7788 38.4588 19.0229 39.4005C18.5862 39.6347 13.2592 33.0151 11.849 33.2608C10.9019 33.7966 8.78304 35.4934 10.087 37.0801C12.3116 39.7873 16.3304 44.623 16.5477 44.7422C19.293 46.6571 28.3319 38.2678 27.7104 38.4129C27.2132 38.5289 24.687 36.4844 23.486 35.4476Z" fill="#3F403F"/>
<path d="M23.8768 35.0093C24.4579 35.4303 26.7288 37.074 28.0808 38.0318L27.6658 38.7475C27.6658 38.7475 22.4907 35.9595 22.7766 35.6568C22.98 35.4413 23.3809 35.1536 23.5951 35.0057C23.6807 34.9466 23.7925 34.9483 23.8768 35.0093Z" fill="#DADCDE"/>
</g>
<defs>
<clipPath id="clip0_1853_86793">
<rect y="0.78125" width="40" height="40" rx="20" fill="white"/>
</clipPath>
</defs>
</svg>
