<svg width="18" height="18" viewBox="0 0 18 18" fill="none" xmlns="http://www.w3.org/2000/svg">
<path fill-rule="evenodd" clip-rule="evenodd" d="M12.227 2.0625H5.73801C3.47901 2.0625 2.06226 3.663 2.06226 5.928V12.0375C2.06226 14.3025 3.47301 15.903 5.73801 15.903H12.2233C14.492 15.903 15.902 14.3025 15.902 12.0375V5.928C15.905 3.663 14.4943 2.0625 12.227 2.0625Z" stroke="#2B6C00" stroke-width="1.5" stroke-linecap="round" stroke-linejoin="round"/>
<path fill-rule="evenodd" clip-rule="evenodd" d="M8.0273 6.5886C8.0273 7.3536 7.4078 7.9731 6.6428 7.9731C5.87855 7.9731 5.2583 7.3536 5.2583 6.5886C5.2583 5.8236 5.87855 5.2041 6.6428 5.2041C7.40705 5.20485 8.02655 5.82435 8.0273 6.5886Z" stroke="#2B6C00" stroke-width="1.5" stroke-linecap="round" stroke-linejoin="round"/>
<path d="M15.9053 11.2133C15.213 10.5008 13.8818 9.06152 12.4343 9.06152C10.986 9.06152 10.1512 12.2363 8.7585 12.2363C7.36575 12.2363 6.1005 10.8008 4.9845 11.721C3.8685 12.6405 2.8125 14.5208 2.8125 14.5208" stroke="#2B6C00" stroke-width="1.5" stroke-linecap="round" stroke-linejoin="round"/>
</svg>
