<svg fill="none" width="19" height="20" viewBox="0 0 19 18" xmlns="http://www.w3.org/2000/svg">
	<path d="M13.75 1.8C11.9827 1.8 10.55 3.23269 10.55 5C10.55 6.76731 11.9827 8.2 13.75 8.2C15.5173 8.2 16.95 6.76731 16.95 5C16.95 3.23269 15.5173 1.8 13.75 1.8ZM8.74998 5C8.74998 2.23858 10.9886 0 13.75 0C16.5114 0 18.75 2.23858 18.75 5C18.75 7.76142 16.5114 10 13.75 10C10.9886 10 8.74998 7.76142 8.74998 5ZM7.43339 8.01408C7.81237 8.33593 7.85854 8.90391 7.53651 9.28269L2.73424 14.9313C2.47449 15.2368 2.49289 15.6904 2.77655 15.9739C3.06035 16.2576 3.51453 16.2758 3.8202 16.0159L9.46594 11.2145C9.8447 10.8924 10.413 10.9382 10.7353 11.3167C11.0576 11.6953 11.0118 12.2633 10.6331 12.5854L4.98731 17.3868C3.96682 18.2546 2.45054 18.1937 1.50307 17.2467C0.556077 16.3002 0.494621 14.7857 1.36182 13.7657L6.16409 8.11715C6.48612 7.73837 7.0544 7.69222 7.43339 8.01408Z" fill="#919390" stroke-width="0" stroke-linecap="round" stroke-linejoin="round" />
	<path d="M13.75 1.8C11.9827 1.8 10.55 3.23269 10.55 5C10.55 6.76731 11.9827 8.2 13.75 8.2C15.5173 8.2 16.95 6.76731 16.95 5C16.95 3.23269 15.5173 1.8 13.75 1.8ZM8.74998 5C8.74998 2.23858 10.9886 0 13.75 0C16.5114 0 18.75 2.23858 18.75 5C18.75 7.76142 16.5114 10 13.75 10C10.9886 10 8.74998 7.76142 8.74998 5ZM7.43339 8.01408C7.81237 8.33593 7.85854 8.90391 7.53651 9.28269L2.73424 14.9313C2.47449 15.2368 2.49289 15.6904 2.77655 15.9739C3.06035 16.2576 3.51453 16.2758 3.8202 16.0159L9.46594 11.2145C9.8447 10.8924 10.413 10.9382 10.7353 11.3167C11.0576 11.6953 11.0118 12.2633 10.6331 12.5854L4.98731 17.3868C3.96682 18.2546 2.45054 18.1937 1.50307 17.2467C0.556077 16.3002 0.494621 14.7857 1.36182 13.7657L6.16409 8.11715C6.48612 7.73837 7.0544 7.69222 7.43339 8.01408Z" stroke="#919390" stroke-width="0" stroke-linecap="round" stroke-linejoin="round" />
</svg>
