<svg width="18" height="16" viewBox="0 0 18 16" fill="none" xmlns="http://www.w3.org/2000/svg">
	<path d="M9.49388 1.55419C9.80561 1.28143 9.83719 0.807605 9.56443 0.495878C9.29167 0.18415 8.81785 0.152562 8.50612 0.425324L0.509306 7.42254C0.350477 7.56006 0.25 7.76317 0.25 7.98976C0.25 8.17889 0.3214 8.35997 0.448175 8.49769C0.458827 8.50926 0.469869 8.52052 0.481294 8.53146C0.490404 8.54019 0.499735 8.54869 0.509277 8.55695L8.50612 15.5542C8.81785 15.827 9.29167 15.7954 9.56443 15.4836C9.83719 15.1719 9.80561 14.6981 9.49388 14.4253L2.99609 8.73976H17C17.4142 8.73976 17.75 8.40397 17.75 7.98976C17.75 7.57554 17.4142 7.23976 17 7.23976H2.99609L9.49388 1.55419Z" stroke="black" stroke-width="1.8" />
	<path d="M9.49388 1.55419C9.80561 1.28143 9.83719 0.807605 9.56443 0.495878C9.29167 0.18415 8.81785 0.152562 8.50612 0.425324L0.509306 7.42254C0.350477 7.56006 0.25 7.76317 0.25 7.98976C0.25 8.17889 0.3214 8.35997 0.448175 8.49769C0.458827 8.50926 0.469869 8.52052 0.481294 8.53146C0.490404 8.54019 0.499735 8.54869 0.509277 8.55695L8.50612 15.5542C8.81785 15.827 9.29167 15.7954 9.56443 15.4836C9.83719 15.1719 9.80561 14.6981 9.49388 14.4253L2.99609 8.73976H17C17.4142 8.73976 17.75 8.40397 17.75 7.98976C17.75 7.57554 17.4142 7.23976 17 7.23976H2.99609L9.49388 1.55419Z" fill="white" stroke-width="1.3" />
</svg>
