<svg width="304" height="270" viewBox="0 0 304 270" fill="none" xmlns="http://www.w3.org/2000/svg">
	<path opacity="0.05" fill-rule="evenodd" clip-rule="evenodd" d="M214.496 269.266C219.29 267.865 228.031 264.124 234.664 260.637C267.098 243.583 290.05 214.044 298.922 177.939C301.208 168.635 302.671 157.97 302.992 148.275L303.211 141.698L299.876 138.09L268.398 138.493C248.795 138.744 236.405 139.103 235.555 139.443C233.639 140.211 232.429 142.393 232.474 144.996C232.506 146.81 232.825 147.483 234.222 148.691C235.162 149.502 236.228 150.162 236.59 150.158C276.933 149.625 290.9 149.553 291.234 149.876C291.817 150.44 290.745 160.625 289.331 167.948C283.068 200.386 265.854 226.818 239.516 244.44C232.2 249.335 218.321 256.338 215.85 256.381C214.865 256.398 214.616 255.695 212.263 246.285C208.045 229.414 207.857 228.806 206.445 227.441C203.987 225.065 201.638 225.422 196.045 229.022C186.47 235.186 174.156 240.667 162.561 243.927C151.017 247.173 147.217 247.679 132.415 247.94C118.511 248.184 115.154 247.907 105.14 245.685C76.7732 239.391 50.9513 222.53 34.2605 199.401C26.5904 188.772 20.2271 175.602 16.4017 162.441C11.816 146.661 11.0129 125.524 14.3362 108.053C16.9977 94.0609 23.1324 78.2293 30.0623 67.4685C41.6774 49.4341 57.0767 35.0704 74.9469 25.6018C81.4004 22.1827 85.5847 20.4132 86.0817 20.8937C86.2653 21.0718 84.9509 22.6207 83.1608 24.3361C70.2411 36.7151 61.5365 53.5252 58.8102 71.3622C57.541 79.6647 57.7536 91.6568 59.3147 99.8634C64.5114 127.183 83.7419 150.39 109.309 160.196C122.374 165.207 131.453 166.705 144.711 166.038C154.228 165.559 158.253 164.813 166.695 161.962C191.044 153.742 211.423 132.032 219.602 105.603C221.641 99.0163 221.594 97.8558 219.192 95.5339C217.435 93.835 217.077 93.7075 214.871 93.9957C213.549 94.1685 212.028 94.7206 211.493 95.223C210.958 95.7252 209.794 98.4809 208.908 101.346C202.547 121.902 189.484 138.111 171.942 147.214C152.512 157.297 130.85 157.557 109.843 147.96C91.4997 139.58 77.9172 123.716 72.0643 103.837C69.8219 96.2212 69.1311 90.7904 69.3534 82.5355C69.8583 63.8251 76.2569 48.4813 89.155 35.0521C99.2806 24.5097 110.725 17.9849 125.451 14.3595C130.55 13.1038 144.418 12.4388 149.6 13.2017C164.75 15.4315 177.639 26.0062 183.092 40.6801C184.578 44.6792 184.681 45.45 184.829 53.7491C184.978 62.0478 184.903 62.8222 183.562 66.8706C175.815 90.2718 149.976 102.442 127.844 93.1142C116.503 88.3344 107.863 78.7548 106.2 69.116C104.011 56.4286 113.677 43.5434 126.42 42.1602C137.007 41.0114 146.62 46.3897 150.727 55.7602C152.191 59.0988 152.335 59.964 152.49 66.3436C152.71 75.3264 153.491 76.8168 157.976 76.8064C160.609 76.8006 162.059 75.8417 163.332 73.2665C164.496 70.9156 164.104 60.0895 162.682 55.2804C160.497 47.8904 156.67 42.1877 150.968 37.8206C137.543 27.5402 119.441 27.9214 106.785 38.7506C100.75 43.9134 96.1944 51.7434 94.9289 59.1268C92.791 71.5978 97.5247 84.3851 107.721 93.6835C118.462 103.479 129.719 107.643 144.751 107.381C153.869 107.222 159.577 105.89 167.11 102.165C181.603 94.9978 191.807 82.2427 195.513 66.662C197.044 60.2262 196.972 47.2912 195.373 41.5351C189.574 20.6523 174.272 6.36254 153.225 2.17455C144.515 0.441346 130.323 -0.123079 119.558 0.836357C100.457 2.53797 84.7128 7.20666 68.7654 15.898C50.8522 25.6604 36.8953 38.0062 24.5503 55.0086C13.1013 70.7768 5.13524 91.0113 1.79147 112.817C0.34587 122.242 0.575671 142.812 2.22695 151.84C4.01164 161.596 7.55956 173.637 11.0037 181.628C13.658 187.786 19.501 198.162 23.777 204.31C31.967 216.087 39.3962 223.959 50.167 232.272C53.8811 235.138 64.1825 241.919 64.8066 241.908C64.9807 241.905 65.7713 242.347 66.5626 242.891C67.3545 243.435 70.6663 245.164 73.922 246.734C111.594 264.895 154.38 264.178 191.742 244.759C196.68 242.193 198.602 241.43 198.99 241.882C199.28 242.22 200.852 247.877 202.483 254.452C205.607 267.053 205.779 267.561 207.363 268.894C208.971 270.247 210.814 270.343 214.496 269.266ZM262.918 197.682C267.364 194.539 266.389 187.64 261.274 186.049C258.703 185.248 256.096 185.922 254.217 187.87C252.87 189.267 252.63 189.933 252.669 192.173C252.724 195.35 253.897 197.299 256.338 198.27C258.864 199.276 260.924 199.092 262.918 197.682Z" fill="url(#paint0_linear_198_3674)" />
	<defs>
		<linearGradient id="paint0_linear_198_3674" x1="309.69" y1="297.603" x2="125.971" y2="-25.0968" gradientUnits="userSpaceOnUse">
			<stop stop-color="white" />
			<stop offset="0.337838" stop-color="white" />
			<stop offset="1" stop-color="white" />
		</linearGradient>
	</defs>
</svg>
