<svg width="791" height="1084" viewBox="0 0 791 1084" fill="none" xmlns="http://www.w3.org/2000/svg">
	<path fill-rule="evenodd" clip-rule="evenodd" d="M586.261 446.245C607.622 430.745 576.666 380.704 506.905 421.578C464.222 446.587 442.651 488.467 447.681 537.763C450.65 566.866 460.166 599.168 470.481 634.179C492.98 710.546 519.278 799.807 489.716 896.901C440.173 1059.63 291.263 1083.03 221.911 1083.03C57.3429 1083.03 0.343515 977.655 0.343384 896.901C0.343237 806.405 57.6883 712.901 158.914 701.202C300.207 684.873 364.674 779.136 399.184 829.596C412.12 848.511 425.51 859.315 432.497 857.787C454.86 852.897 447.843 816.647 443.458 805.186C439.073 793.725 263.267 412.975 284.445 106.213C291.795 -0.26239 400.892 -0.0547736 431.22 0.00294113C465.305 0.0677164 498.571 10.354 528.813 25.5297C529.525 25.8871 529.402 26.9347 528.629 27.1272C520.47 29.1577 514.398 30.9504 510.864 32.0705C485.587 40.0805 443.353 77.6246 423.442 95.3242C418.602 99.627 415.08 102.758 413.443 104.005C410.25 106.438 406.949 107.699 403.46 109.031C397.803 111.191 391.656 113.538 384.688 121.376C377.465 129.5 377.193 136.197 376.849 144.671C376.657 149.413 376.442 154.712 374.973 161.13C373.847 166.05 370.268 172.143 366.179 179.105C355.405 197.449 341.086 221.827 358.746 246.696C378.064 273.899 425.954 247.113 453.88 231.494C461.174 227.414 467.106 224.096 470.811 222.701C479.655 219.372 485.162 217.829 491.74 215.986C498.468 214.1 506.316 211.901 520.001 207.155C531.275 203.245 539.296 196.589 548.21 189.191C562.206 177.575 578.406 164.13 612.866 156.613C616.334 155.857 619.743 155.298 623.095 154.931C626.846 154.52 625.663 163.561 629.47 162.919C629.47 162.919 646.164 161.418 651.999 150.224C652.877 148.54 655.277 148.763 654.971 150.637C652.965 162.902 642.663 173.348 637.512 178.572C627.873 188.346 619.266 198.672 608.748 207.648C608.531 207.833 608.236 207.895 607.955 207.843C606.385 207.552 603.327 207.606 600.753 209.706C598.133 211.844 599.253 216.52 600.336 219.099C600.49 219.466 600.396 219.898 600.053 220.101C598.168 221.22 594.663 221.913 590.877 222.662C585.14 223.796 578.757 225.059 576.379 228.122C573.341 232.037 576.369 237.11 578.688 239.66C578.998 240.001 579.015 240.52 578.715 240.869C572.684 247.882 567.242 259.372 570.131 266.191C572.512 271.81 577.097 267.919 579.093 265.271C575.513 270.126 570.393 280.64 578.556 283.855C585.786 286.703 591.851 272.357 594.754 262.262C595.006 261.384 596.497 261.372 596.857 262.213C600.355 270.392 608.315 272.65 610.935 270.338C613.905 267.717 608.801 263.719 608.551 259.33C608.302 254.941 624.142 235.631 633.65 227.501C643.157 219.37 670.251 214.323 685.186 205.76C691.324 202.241 698.631 197.622 705.467 192.121C705.823 191.834 706.343 191.872 706.649 192.212C710.383 196.348 714.037 200.779 717.617 205.482C731.662 226.641 744.087 248.012 754.536 268.825C763.787 290.695 771.447 316.313 777.344 341.876C777.453 342.347 777.359 342.838 777.084 343.237C764.91 360.94 754.107 389.114 746.888 407.942L746.887 407.944C742.33 419.83 739.201 427.992 738.057 427.442C734.794 425.872 735.055 422.765 735.34 419.36C735.652 415.63 736.519 411.492 734.999 407.917C733.341 404.021 729.441 401.927 725.674 400.494L725.498 400.427C722.383 399.227 718.887 400.765 717.69 403.862C716.492 406.958 718.047 410.441 721.162 411.64C721.888 411.92 723.772 412.265 723.729 413.313C723.535 418.052 723.941 419.017 719.487 416.814C714.381 414.29 712.67 407.284 711.574 402.331C709.776 394.202 704.37 390.889 696.811 388.216C693.696 387.017 690.2 388.555 689.003 391.651C687.805 394.748 689.36 398.23 692.475 399.43C694.185 400.088 697.809 400.451 698.828 402.183C699.725 403.707 705.053 420.65 700.935 419.596C695.903 418.308 690.774 417.392 686.941 413.663C682.844 409.677 682.481 407.221 680.037 403.588C676.436 398.728 671.273 396.154 670.028 395.572C667.009 394.161 663.41 395.373 661.963 398.361C660.516 401.35 661.78 404.946 664.787 406.394C666.934 407.428 668.608 408.189 669.999 410.257C670.552 411.079 673.335 417.222 678.504 422.251C684.825 428.4 690.908 428.907 694.079 436.792C695.243 439.686 679.388 441.73 677.029 441.506C671.332 440.964 669.498 439.278 665.306 437.976C658.744 436.177 654.667 436.985 652.474 437.994C649.256 439.474 647.214 441.98 647.979 445.214C648.745 448.448 651.999 450.459 655.247 449.705C662.46 448.032 668.727 452.794 675.911 453.477C682.902 454.142 693.436 449.237 703.6 452.923C711.874 455.924 719.189 458.039 721.593 466.469C722.872 470.953 721.177 475.118 720.501 479.501C719.755 484.335 720.58 488.367 722.122 491.783C723.872 495.659 727.38 498.617 729.037 502.46C729.676 503.942 727.089 506.902 726.318 508.001C724.365 510.642 725.024 514.484 727.668 516.398C732.613 519.976 736.849 514.418 738.838 510.681C740.508 507.542 741.922 503.837 741.011 500.251C739.734 495.224 734.509 491.575 733.039 486.693C732.427 484.659 734.979 482.822 736.551 481.98C738.123 481.138 758.624 470.154 767.214 462.021C777.886 451.918 784.003 438.033 788.416 429.63C788.805 428.89 789.882 429.118 789.956 429.95C795.823 495.885 766.279 556.786 721.137 608.989C651.886 689.073 500.905 650.069 500.373 537.763C500.22 505.529 507.692 470.805 533.831 452.064C548.096 440.841 561.241 443.865 571.386 446.198C577.625 447.633 582.729 448.807 586.261 446.245ZM410.136 141.4C422.534 127.051 442.763 127.942 454.539 139.538C465.355 150.19 465.456 165.426 454.593 177.999C443.326 191.038 424.391 193.163 412.222 182.516C403.017 174.462 400.048 161.944 404.498 150.637C405.766 147.416 407.636 144.293 410.136 141.4ZM413.61 162.469C409.2 168.912 409.972 174.149 415.925 178.181C421.121 181.699 428.506 179.804 431.896 174.851C436.517 168.101 435.992 162.807 430.322 158.967C424.577 155.077 417.456 156.851 413.61 162.469ZM149.846 935.369C207.479 945.407 257.206 909.679 263.703 851.331C269.49 799.372 237.94 756.51 186.416 747.124C129.713 736.794 77.9088 774.833 71.2794 832.033C65.2233 884.286 98.2958 926.392 149.846 935.369ZM140.402 808.535C136.458 830.227 153.17 849.47 175.016 853.285C199.811 857.615 220.547 844.249 225.474 819.663C229.829 797.931 210.604 779.818 188.58 776.36C166.799 772.94 144.462 786.201 140.402 808.535Z" fill="#FDFDF5" fill-opacity="0.05" />
</svg>
