<svg width="76" height="76" viewBox="0 0 76 76" fill="none" xmlns="http://www.w3.org/2000/svg">
<g clip-path="url(#clip0_937_46943)">
<rect width="76" height="76" rx="38" fill="url(#paint0_linear_937_46943)"/>
<path fill-rule="evenodd" clip-rule="evenodd" d="M2.70584 48.899C-11.6597 65.2505 -18.2174 83.9145 -16.6025 108.723C-14.2059 145.542 10.0719 174.462 51.2567 174.462C83.3309 174.462 106.202 152.634 102.681 128.869C99.5004 107.398 83.6403 98.8521 67.4263 103.687C63.4312 104.878 60.9618 106.584 58.3312 108.809C57.1129 109.839 58.0374 111.77 59.6062 111.479C63.6008 110.736 66.6878 110.304 71.1373 111.639C79.0896 114.025 85.697 121.476 84.6562 131.255C83.3357 143.661 63.5205 150.312 51.2567 148.02C32.311 144.479 23.113 126.903 28.4602 98.9154C30.7119 87.13 34.7496 77.3182 39.7494 65.1683C41.6105 60.6458 43.6049 55.7994 45.6901 50.4066C56.1237 37.0143 59.6255 30.6446 61.0493 26.1762C62.5627 21.4264 59.433 15.9834 54.4679 15.5373C50.7813 15.2061 46.0593 15.6455 39.8585 17.8024C37.9984 17.8024 36.5968 17.6723 35.4127 17.5624C32.8847 17.3277 31.3486 17.1852 28.4602 18.5976C25.2836 20.1509 23.7993 22.8901 22.6675 24.9788C22.0048 26.2017 21.463 27.2016 20.7731 27.6101C13.3682 31.9946 8.9149 38.0986 7.41312 41.3052C7.30307 41.5402 7.18593 41.7701 7.04994 41.991L3.25532 48.1573C3.09407 48.4193 2.90889 48.6679 2.70584 48.899ZM39.68 24.2036C40.8595 25.5746 41.4492 27.2474 41.4492 29.2217C41.4492 31.0864 40.9131 32.6768 39.8409 33.9931C38.6078 35.419 36.9459 36.1868 34.8551 36.2965H34.3726C32.1745 36.2965 30.3786 35.5287 28.9847 33.9931C27.7517 32.5671 27.1351 30.8944 27.1351 28.9749C27.1351 27.1651 27.6712 25.6295 28.7435 24.3681C29.9229 22.997 31.6116 22.2018 33.8097 21.9824H34.453C36.651 21.9824 38.3934 22.7228 39.68 24.2036Z" fill="#8FC449"/>
<path d="M36.1479 29.479C36.1479 31.5503 35.1986 32.5859 33.2999 32.5859C32.7574 32.5859 32.1245 32.3393 31.4012 31.8462C30.6779 31.2544 30.3163 30.4653 30.3163 29.479C30.3163 27.3091 31.2204 26.2241 33.0287 26.2241C33.6616 26.2241 34.2041 26.4214 34.6561 26.8159C35.6507 27.5063 36.1479 28.394 36.1479 29.479Z" fill="#8FC449"/>
<path d="M52.8963 97.4732C47.331 100.828 41.6647 103.326 39.5289 89.611L36.3843 82.641C38.1489 83.0999 36.3843 82.641 42.7414 77.9085C46.919 74.7986 47.2626 69.4928 49.2652 68.542C48.9123 62.9436 42.7987 61.8193 45.1823 60.0952C47.3846 58.5022 51.7655 63.2697 52.3917 63.309C56.5877 56.3021 52.6019 50.6529 54.6698 50.0988C58.1262 49.1727 58.148 58.4846 57.7289 59.218C61.9043 55.6145 61.5326 48.3488 63.4641 49.2953C67.9868 51.5118 62.3652 58.5969 61.928 59.6458C68.2342 57.1615 68.617 51.9543 70.3188 53.3598C73.1478 55.6963 66.0215 61.1372 63.3565 62.6795C66.2813 61.6474 70.1755 65.8819 68.2006 66.9722C66.2257 68.0626 68.5846 64.9189 65.4735 65.2555C61.5846 65.6764 61.5486 66.5805 57.8852 71.2892C54.2218 75.9979 58.4615 94.1185 52.8963 97.4732Z" fill="#8FC449"/>
</g>
<defs>
<linearGradient id="paint0_linear_937_46943" x1="76" y1="76" x2="-1.23794" y2="74.7204" gradientUnits="userSpaceOnUse">
<stop stop-color="#FF7134"/>
<stop offset="1" stop-color="#E02B2B"/>
</linearGradient>
<clipPath id="clip0_937_46943">
<rect width="76" height="76" rx="38" fill="white"/>
</clipPath>
</defs>
</svg>
