<svg width="25" height="24" viewBox="0 0 25 24" fill="none" xmlns="http://www.w3.org/2000/svg">
	<path fill-rule="evenodd" clip-rule="evenodd" d="M4.25083 13.7871V13.5681C4.28295 12.9202 4.4906 12.2925 4.85236 11.7496C5.4545 11.0975 5.8667 10.2983 6.04571 9.43598C6.04571 8.7695 6.04571 8.0935 6.10393 7.42703C6.40469 4.21842 9.57728 2 12.7111 2H12.7887C15.9225 2 19.095 4.21842 19.4055 7.42703C19.4637 8.0935 19.4055 8.7695 19.454 9.43598C19.6354 10.3003 20.0472 11.1019 20.6474 11.7591C21.0118 12.2972 21.2198 12.9227 21.2489 13.5681V13.7776C21.2706 14.648 20.9708 15.4968 20.4048 16.1674C19.657 16.9515 18.6421 17.4393 17.5524 17.5384C14.357 17.8812 11.133 17.8812 7.93762 17.5384C6.84914 17.435 5.83576 16.9479 5.08521 16.1674C4.528 15.4963 4.23224 14.6526 4.25083 13.7871Z" stroke="#BDBDBD" stroke-width="1.5" stroke-linecap="round" stroke-linejoin="round" />
	<path d="M10.3049 20.8516C10.8042 21.4782 11.5374 21.8838 12.3422 21.9785C13.1471 22.0732 13.9572 21.8493 14.5933 21.3562C14.7889 21.2103 14.9649 21.0408 15.1172 20.8516" stroke="#BDBDBD" stroke-width="1.5" stroke-linecap="round" stroke-linejoin="round" />
</svg>
