<svg width="40" height="40" viewBox="0 0 40 40" fill="none" xmlns="http://www.w3.org/2000/svg">
<g clip-path="url(#clip0_937_46993)">
<rect width="40" height="40" rx="20" fill="#66784E"/>
<path d="M16.6057 6.92365C16.9807 6.21157 18.0004 6.21157 18.3754 6.92364L19.071 8.24474C19.244 8.57318 19.5847 8.77879 19.9559 8.77879H21.0268C22.0301 8.77879 22.323 10.1479 21.4074 10.5583C20.9174 10.778 20.7145 11.3657 20.9648 11.8409L21.0146 11.9355C21.4574 12.7763 20.5879 13.7027 19.7207 13.3139L17.8996 12.4976C17.6394 12.3809 17.3417 12.3809 17.0815 12.4976L15.2604 13.3139C14.3932 13.7027 13.5237 12.7763 13.9665 11.9355L14.0163 11.8409C14.2665 11.3657 14.0637 10.778 13.5736 10.5583C12.6581 10.1479 12.951 8.77879 13.9543 8.77879H15.0252C15.3964 8.77879 15.7371 8.57318 15.91 8.24474L16.6057 6.92365Z" fill="url(#paint0_linear_937_46993)" fill-opacity="0.85"/>
<path d="M-8.73812 57.2227C-9.58804 44.1655 -6.13662 34.3423 1.42416 25.7363C1.53103 25.6146 1.6285 25.4838 1.71336 25.3459L3.71053 22.1005C3.78211 21.9842 3.84376 21.8632 3.90168 21.7396C4.69209 20.0519 7.03594 16.8392 10.9332 14.5316C11.9166 13.9494 12.3284 11.0844 14.9791 9.78817C17.2113 8.69664 17.9089 9.36963 20.9782 9.36963C24.2418 8.23447 26.7271 8.00319 28.6673 8.17752C31.2805 8.4123 32.9278 11.277 32.1312 13.7769C31.3819 16.1287 29.5388 19.4812 24.0475 26.5298C20.0016 36.9933 16.6053 43.549 14.9791 52.0607C12.1647 66.7912 17.0058 76.0417 26.9773 77.9052C33.4319 79.1115 43.8609 75.6108 44.5559 69.0813C45.1037 63.9345 41.6261 60.0129 37.4407 58.7573C35.0989 58.0548 33.4741 58.2823 31.3717 58.6731C30.5461 58.8265 30.0594 57.81 30.7006 57.2677C32.0852 56.0967 33.3849 55.1989 35.4876 54.572C44.0212 52.0274 52.3686 56.5251 54.0428 67.8257C55.8958 80.3335 43.8584 91.822 26.9773 91.822C5.30105 91.822 -7.47673 76.601 -8.73812 57.2227Z" fill="#8FC449"/>
<path d="M19.0251 15.5151C19.0251 16.6052 18.5254 17.1503 17.5261 17.1503C17.2406 17.1503 16.9075 17.0205 16.5268 16.761C16.1462 16.4495 15.9558 16.0342 15.9558 15.5151C15.9558 14.373 16.4317 13.802 17.3834 13.802C17.7165 13.802 18.002 13.9058 18.2399 14.1135C18.7634 14.4769 19.0251 14.9441 19.0251 15.5151Z" fill="#8FC449"/>
<path d="M27.8402 51.3017C24.9111 53.0674 21.9288 54.3821 20.8047 47.1637L19.1496 43.4953C20.0784 43.7368 19.1496 43.4953 22.4955 41.0045C24.6942 39.3677 24.875 36.5752 25.929 36.0748C25.7434 33.1282 22.5257 32.5365 23.7802 31.6291C24.9393 30.7907 27.245 33.2999 27.5746 33.3206C29.783 29.6327 27.6852 26.6595 28.7736 26.3678C30.5928 25.8804 30.6042 30.7814 30.3836 31.1674C32.5812 29.2708 32.3856 25.4468 33.4022 25.945C35.7826 27.1115 32.8238 30.8405 32.5937 31.3926C35.9128 30.085 36.1142 27.3444 37.0099 28.0842C38.4989 29.3139 34.7481 32.1775 33.3456 32.9893C34.8849 32.446 36.9345 34.6747 35.8951 35.2486C34.8556 35.8225 36.0972 34.1679 34.4598 34.3451C32.413 34.5666 32.394 35.0424 30.4659 37.5207C28.5378 39.9989 30.7692 49.5361 27.8402 51.3017Z" fill="#8FC449"/>
<path d="M18.3632 8.17022C18.6626 7.24891 19.966 7.24891 20.2653 8.17022L20.9515 10.282C21.0854 10.694 21.4693 10.973 21.9025 10.973H24.123C25.0918 10.973 25.4945 12.2126 24.7108 12.782L22.9144 14.0872C22.5639 14.3418 22.4173 14.7932 22.5511 15.2052L23.2373 17.317C23.5367 18.2383 22.4822 19.0045 21.6985 18.4351L19.9021 17.1299C19.5516 16.8752 19.077 16.8752 18.7265 17.1299L16.9301 18.4351C16.1464 19.0045 15.0919 18.2383 15.3912 17.317L16.0774 15.2052C16.2113 14.7932 16.0646 14.3418 15.7141 14.0872L13.9177 12.782C13.134 12.2126 13.5368 10.973 14.5055 10.973H16.726C17.1592 10.973 17.5432 10.694 17.677 10.282L18.3632 8.17022Z" fill="url(#paint1_linear_937_46993)"/>
<path opacity="0.9" d="M17.5353 12.0835L14.4944 11.9771" stroke="white" stroke-linecap="round" stroke-linejoin="round"/>
<path opacity="0.9" d="M19.2577 8.48975L18.7474 10.0208" stroke="white" stroke-linecap="round" stroke-linejoin="round"/>
</g>
<defs>
<linearGradient id="paint0_linear_937_46993" x1="25.7828" y1="15.4763" x2="8.93562" y2="15.0239" gradientUnits="userSpaceOnUse">
<stop stop-color="#FF7134"/>
<stop offset="1" stop-color="#E02B2B"/>
</linearGradient>
<linearGradient id="paint1_linear_937_46993" x1="27.6066" y1="21.8278" x2="10.7518" y2="21.5485" gradientUnits="userSpaceOnUse">
<stop stop-color="#FF7134"/>
<stop offset="1" stop-color="#E02B2B"/>
</linearGradient>
<clipPath id="clip0_937_46993">
<rect width="40" height="40" rx="20" fill="white"/>
</clipPath>
</defs>
</svg>
