<svg width="18" height="18" viewBox="0 0 18 18" fill="none" xmlns="http://www.w3.org/2000/svg">
<path d="M4.6997 17.2938H0.398427C0.178406 17.2938 0 17.0418 0 16.7308V16.0305L1.31664 9.03631L0 1.96992V1.26933C0 0.958371 0.178406 0.706299 0.398463 0.706299H4.69974V17.2938H4.6997Z" fill="#E41F2D"/>
<path d="M0 1.96997H4.69956V3.97822H0V1.96997Z" fill="#FEDBA6"/>
<path d="M0 1.96997H3.70358V3.97822H0V1.96997Z" fill="#FFEFD2"/>
<path d="M0 3.97803H4.69956V5.98668H0V3.97803Z" fill="#FEDBA6"/>
<path d="M0 3.97803H3.70358V5.98668H0V3.97803Z" fill="#FFEFD2"/>
<path d="M0 5.98682H4.69956V7.99583H0V5.98682Z" fill="#FEDBA6"/>
<path d="M0 5.98682H3.70358V7.99583H0V5.98682Z" fill="#FFEFD2"/>
<path d="M0 7.99585H4.69956V10.0045H0V7.99585Z" fill="#FEDBA6"/>
<path d="M0 7.99585H3.70358V10.0045H0V7.99585Z" fill="#FFEFD2"/>
<path d="M0 10.0044H4.69956V12.0134H0V10.0044Z" fill="#FEDBA6"/>
<path d="M0 10.0044H3.70358V12.0134H0V10.0044Z" fill="#FFEFD2"/>
<path d="M0 12.0134H4.69956V14.0221H0V12.0134Z" fill="#FEDBA6"/>
<path d="M0 12.0134H3.70358V14.0221H0V12.0134Z" fill="#FFEFD2"/>
<path d="M0 14.022H4.69956V16.0302H0V14.022Z" fill="#FEDBA6"/>
<path d="M0 14.0217H3.70358V16.0304H0V14.0217Z" fill="#FFEFD2"/>
<path d="M3.97521 14.0219C3.97521 14.1722 3.85352 14.2935 3.70358 14.2935H0V13.7502H3.70358C3.85352 13.7502 3.97521 13.8719 3.97521 14.0219Z" fill="#FEDBA6"/>
<path d="M3.97521 12.0133C3.97521 12.1633 3.85352 12.285 3.70358 12.285H0V11.7417H3.70358C3.85352 11.7417 3.97521 11.8634 3.97521 12.0133Z" fill="#FEDBA6"/>
<path d="M3.97521 10.0043C3.97521 10.1542 3.85352 10.2759 3.70358 10.2759H0V9.73267H3.70358C3.85352 9.73267 3.97521 9.85436 3.97521 10.0043Z" fill="#FEDBA6"/>
<path d="M3.97521 7.99575C3.97521 8.14569 3.85352 8.26738 3.70358 8.26738H0V7.72412H3.70358C3.85352 7.72412 3.97521 7.84581 3.97521 7.99575Z" fill="#FEDBA6"/>
<path d="M3.97521 5.98672C3.97521 6.13702 3.85352 6.25835 3.70358 6.25835H0V5.71509H3.70358C3.85352 5.71509 3.97521 5.83678 3.97521 5.98672Z" fill="#FEDBA6"/>
<path d="M3.70358 4.2498H0V3.70654H3.70358C3.85352 3.70654 3.97521 3.82787 3.97521 3.97817C3.97521 4.12811 3.85352 4.2498 3.70358 4.2498Z" fill="#FEDBA6"/>
<path d="M2.53662 4.25604V3.70036C2.53662 3.5912 2.62514 3.50269 2.7343 3.50269H4.69974V4.45372H2.7343C2.62514 4.45372 2.53662 4.36524 2.53662 4.25604V4.25604Z" fill="#465A61"/>
<path d="M2.53662 6.26483V5.70915C2.53662 5.59999 2.62514 5.51147 2.7343 5.51147H4.69974V6.4625H2.7343C2.62514 6.4625 2.53662 6.37403 2.53662 6.26483V6.26483Z" fill="#465A61"/>
<path d="M2.53662 10.2822V9.72648C2.53662 9.61732 2.62514 9.52881 2.7343 9.52881H4.69974V10.4798H2.7343C2.62514 10.4798 2.53662 10.3913 2.53662 10.2822V10.2822Z" fill="#465A61"/>
<path d="M2.53662 12.291V11.7353C2.53662 11.6261 2.62514 11.5376 2.7343 11.5376H4.69974V12.4886H2.7343C2.62514 12.4886 2.53662 12.4001 2.53662 12.291V12.291Z" fill="#465A61"/>
<path d="M2.53662 14.2997V13.7441C2.53662 13.6349 2.62514 13.5464 2.7343 13.5464H4.69974V14.4974H2.7343C2.62514 14.4974 2.53662 14.4089 2.53662 14.2997V14.2997Z" fill="#465A61"/>
<path d="M7.81222 1.10846V16.8915C7.81222 17.1136 7.63219 17.2936 7.4101 17.2936H4.69971V0.706299H7.4101C7.63219 0.706299 7.81222 0.886371 7.81222 1.10846V1.10846Z" fill="#E41F2D"/>
<path d="M6.75728 1.31819V16.6818C6.75728 17.0198 6.49619 17.2937 6.17411 17.2937H4.69971V0.706299H6.17408C6.49616 0.706299 6.75728 0.980247 6.75728 1.31819V1.31819Z" fill="#FD4755"/>
<path d="M18.0002 1.10866V2.18486L16.889 8.70644L18.0002 15.8025V16.8917C18.0002 17.1137 17.8202 17.2938 17.5981 17.2938H14.2298C14.0077 17.2938 13.8276 17.1137 13.8276 16.8917V1.10866C13.8276 0.886579 14.0077 0.706543 14.2298 0.706543H17.5981C17.8202 0.706507 18.0002 0.886579 18.0002 1.10866V1.10866Z" fill="#E41F2D"/>
<path d="M16.8891 1.28913V16.7112C16.8891 17.0329 16.6437 17.2938 16.3409 17.2938H14.2298C14.0077 17.2938 13.8276 17.1138 13.8276 16.8917V1.10866C13.8276 0.886579 14.0077 0.706543 14.2298 0.706543H16.3409C16.6437 0.706507 16.8891 0.96738 16.8891 1.28913V1.28913Z" fill="#FD4755"/>
<path d="M18.0001 2.19775V15.8024H15.4767C15.2967 15.8024 15.1509 15.6566 15.1509 15.4766V2.52353C15.1509 2.3436 15.2967 2.19775 15.4767 2.19775H18.0001Z" fill="#FEDBA6"/>
<path d="M16.8889 2.19775V15.8024H15.4767C15.2967 15.8024 15.1509 15.6566 15.1509 15.4766V2.52353C15.1509 2.3436 15.2967 2.19775 15.4767 2.19775H16.8889Z" fill="#FFEFD2"/>
<path d="M6.53241 4.30121H5.97894C5.85493 4.30121 5.75439 4.20067 5.75439 4.07666V2.04169C5.75439 1.91768 5.85493 1.81714 5.97894 1.81714H6.53241C6.65642 1.81714 6.75696 1.91768 6.75696 2.04169V4.0767C6.75696 4.20071 6.65642 4.30121 6.53241 4.30121Z" fill="#0AB69F"/>
<path d="M8.3133 16.8637C8.03645 16.8637 7.81201 16.6392 7.81201 16.3624V1.63751C7.81201 1.36067 8.03645 1.13623 8.3133 1.13623C8.59014 1.13623 8.81458 1.36067 8.81458 1.63751V16.3624C8.81454 16.6392 8.59014 16.8637 8.3133 16.8637Z" fill="#D7D0D6"/>
<path d="M9.31574 16.8637C9.03889 16.8637 8.81445 16.6392 8.81445 16.3624V1.63751C8.81445 1.36067 9.03889 1.13623 9.31574 1.13623C9.59258 1.13623 9.81702 1.36067 9.81702 1.63751V16.3624C9.81702 16.6392 9.59258 16.8637 9.31574 16.8637Z" fill="#E5E1E5"/>
<path d="M10.3182 16.8637C10.0413 16.8637 9.81689 16.6392 9.81689 16.3624V1.63751C9.81689 1.36067 10.0413 1.13623 10.3182 1.13623C10.595 1.13623 10.8195 1.36067 10.8195 1.63751V16.3624C10.8194 16.6392 10.595 16.8637 10.3182 16.8637Z" fill="#D7D0D6"/>
<path d="M11.3211 16.8637C11.0443 16.8637 10.8198 16.6392 10.8198 16.3624V1.63751C10.8198 1.36067 11.0443 1.13623 11.3211 1.13623C11.598 1.13623 11.8224 1.36067 11.8224 1.63751V16.3624C11.8224 16.6392 11.598 16.8637 11.3211 16.8637Z" fill="#E5E1E5"/>
<path d="M12.3235 16.8637C12.0467 16.8637 11.8223 16.6392 11.8223 16.3624V1.63751C11.8223 1.36067 12.0467 1.13623 12.3235 1.13623C12.6004 1.13623 12.8248 1.36067 12.8248 1.63751V16.3624C12.8248 16.6392 12.6004 16.8637 12.3235 16.8637Z" fill="#D7D0D6"/>
<path d="M13.326 16.8637C13.0491 16.8637 12.8247 16.6392 12.8247 16.3624V1.63751C12.8247 1.36067 13.0491 1.13623 13.326 1.13623C13.6028 1.13623 13.8273 1.36067 13.8273 1.63751V16.3624C13.8273 16.6392 13.6028 16.8637 13.326 16.8637Z" fill="#E5E1E5"/>
<path d="M16.2744 6.42962C16.4405 6.42962 16.5751 6.29497 16.5751 6.12887C16.5751 5.96277 16.4405 5.82812 16.2744 5.82812C16.1083 5.82812 15.9736 5.96277 15.9736 6.12887C15.9736 6.29497 16.1083 6.42962 16.2744 6.42962Z" fill="#465A61"/>
<path d="M16.2744 9.03631C16.4405 9.03631 16.5751 8.90166 16.5751 8.73556C16.5751 8.56946 16.4405 8.43481 16.2744 8.43481C16.1083 8.43481 15.9736 8.56946 15.9736 8.73556C15.9736 8.90166 16.1083 9.03631 16.2744 9.03631Z" fill="#465A61"/>
<path d="M16.2744 11.643C16.4405 11.643 16.5751 11.5084 16.5751 11.3423C16.5751 11.1762 16.4405 11.0415 16.2744 11.0415C16.1083 11.0415 15.9736 11.1762 15.9736 11.3423C15.9736 11.5084 16.1083 11.643 16.2744 11.643Z" fill="#465A61"/>
<path d="M16.8759 10.3395C17.042 10.3395 17.1767 10.2049 17.1767 10.0388C17.1767 9.87269 17.042 9.73804 16.8759 9.73804C16.7098 9.73804 16.5752 9.87269 16.5752 10.0388C16.5752 10.2049 16.7098 10.3395 16.8759 10.3395Z" fill="#465A61"/>
<path d="M16.8759 12.9462C17.042 12.9462 17.1767 12.8116 17.1767 12.6455C17.1767 12.4794 17.042 12.3447 16.8759 12.3447C16.7098 12.3447 16.5752 12.4794 16.5752 12.6455C16.5752 12.8116 16.7098 12.9462 16.8759 12.9462Z" fill="#465A61"/>
<path d="M16.8759 7.73309C17.042 7.73309 17.1767 7.59844 17.1767 7.43234C17.1767 7.26624 17.042 7.13159 16.8759 7.13159C16.7098 7.13159 16.5752 7.26624 16.5752 7.43234C16.5752 7.59844 16.7098 7.73309 16.8759 7.73309Z" fill="#465A61"/>
<path d="M16.8759 5.1264C17.042 5.1264 17.1767 4.99175 17.1767 4.82565C17.1767 4.65955 17.042 4.5249 16.8759 4.5249C16.7098 4.5249 16.5752 4.65955 16.5752 4.82565C16.5752 4.99175 16.7098 5.1264 16.8759 5.1264Z" fill="#465A61"/>
</svg>
