<svg width="18" height="18" viewBox="0 0 18 18" fill="none" xmlns="http://www.w3.org/2000/svg">
<path d="M2.42413 16.7152C2.42093 16.7124 2.41822 16.7097 2.41544 16.7065C2.39371 16.6817 2.28757 16.5586 2.14445 16.3571C2.13711 16.3468 2.12949 16.3363 2.12215 16.3255C1.49383 15.4263 0.236928 13.0959 2.14174 10.8761C2.39079 10.5857 2.69388 10.2972 3.05976 10.014C3.19711 9.90769 3.37908 9.87653 3.54379 9.93167C3.99672 10.0833 4.97743 10.2965 5.62951 9.6008C6.17456 9.01963 6.08412 8.55071 5.93965 8.28071C5.83742 8.08965 5.87133 7.85456 6.01509 7.69242C6.71636 6.9016 8.79033 5.07775 12.2109 6.29159C12.3594 6.34402 12.51 6.40254 12.6636 6.46698C14.2144 10.1607 12.2605 12.3875 11.4365 13.1174C11.275 13.2605 11.0404 13.293 10.8501 13.1912C10.5802 13.0467 10.1112 12.9563 9.53004 13.5013C8.83443 14.1533 9.04747 15.1339 9.1991 15.5869C9.25452 15.7524 9.22222 15.935 9.11529 16.073C6.13694 19.9177 2.56964 16.8433 2.42413 16.7152Z" fill="#883F2E"/>
<path d="M2.14456 16.3571C2.13723 16.3468 2.1296 16.3363 2.12227 16.3255C1.9721 16.1107 1.78595 15.8143 1.61594 15.4566C1.08215 14.3369 0.70419 12.621 2.0745 10.9562C2.0963 10.9295 2.1191 10.9028 2.14186 10.8761C2.39091 10.5857 2.69399 10.2972 3.05987 10.014C3.19722 9.90769 3.3792 9.87653 3.5439 9.93167C3.99684 10.0833 4.97754 10.2965 5.62963 9.6008C6.17467 9.01963 6.08424 8.55071 5.93976 8.28071C5.83754 8.08965 5.87145 7.85456 6.01521 7.69242C6.71648 6.9016 8.79045 5.07775 12.211 6.29159C13.4249 9.71218 11.601 11.7861 10.8102 12.4874C10.6481 12.6312 10.413 12.6651 10.2219 12.5629C9.95196 12.4184 9.48303 12.328 8.90183 12.873C8.20619 13.525 8.41926 14.5056 8.57093 14.9586C8.62621 15.1237 8.59454 15.3059 8.48793 15.4436C6.01332 18.6391 3.13197 17.0575 2.14456 16.3571Z" fill="#A44F3E"/>
<path d="M11.3088 0.0782467C11.2045 -0.0260822 11.0353 -0.0260822 10.931 0.0782467L10.3089 0.700338L2.68715 8.32208L2.06506 8.94418C1.96073 9.0485 1.96073 9.21763 2.06506 9.32199C2.16939 9.42632 2.33855 9.42632 2.44288 9.32199L3.06497 8.6999L10.6867 1.07812L11.3088 0.456025C11.4131 0.351732 11.4131 0.182576 11.3088 0.0782467Z" fill="white"/>
<path d="M1.37854 8.67082C1.27421 8.56649 1.27421 8.39734 1.37854 8.29301L9.23787 0.433717C9.30287 0.368711 9.39673 0.341712 9.48635 0.362193L10.575 0.611279C10.7188 0.644227 10.8087 0.787416 10.7758 0.931283C10.7429 1.07511 10.5997 1.16502 10.4558 1.13214L9.51121 0.916002L1.75635 8.67082C1.65202 8.77515 1.48287 8.77519 1.37854 8.67082Z" fill="#D8AA5E"/>
<path d="M2.68733 8.3222L1.0716 9.93793C0.93226 10.0773 0.717975 10.0888 0.592986 9.96386L0.129152 9.50006C0.00412814 9.37504 0.01574 9.16075 0.155083 9.02144L1.11666 8.05986C1.21326 7.96326 1.35086 7.92465 1.471 7.96038L2.68733 8.3222Z" fill="#A44F3E"/>
<path d="M2.10508 15.0558C1.95224 15.2086 1.78811 15.3424 1.61589 15.4568C1.52673 15.2701 1.44221 15.067 1.36923 14.85C1.00473 13.7663 0.932711 12.3435 2.07449 10.9563C2.15313 11.0168 2.22808 11.083 2.29985 11.1547C2.70035 11.5552 2.93088 12.0665 2.99507 12.6084C2.99507 12.6084 2.99482 12.6086 2.99482 12.6091C3.09498 13.4515 2.79343 14.3674 2.10508 15.0558Z" fill="#465A61"/>
<path d="M1.36923 14.85C1.00473 13.7663 0.932711 12.3435 2.07449 10.9563C2.15313 11.0168 2.22808 11.083 2.29985 11.1547C2.70035 11.5552 2.93088 12.0665 2.99507 12.6084C2.99507 12.6084 2.99482 12.6086 2.99482 12.6091C2.97986 12.649 2.40639 14.1749 1.36923 14.85Z" fill="#596C76"/>
<path d="M5.81322 11.9215C5.69525 11.9215 5.58732 11.8428 5.55537 11.7234C5.51719 11.5809 5.60175 11.4345 5.74426 11.3962C5.76734 11.3901 5.78006 11.3751 5.78665 11.3637C5.79324 11.3523 5.79979 11.3339 5.79359 11.3108C5.7874 11.2877 5.77251 11.275 5.76111 11.2684C5.74971 11.2618 5.73129 11.2553 5.70818 11.2615L3.88012 11.7513C3.55838 11.8375 3.22651 11.6459 3.14028 11.3242C3.05408 11.0024 3.24571 10.6705 3.56739 10.5843C3.70994 10.5463 3.8564 10.6307 3.89459 10.7733C3.93277 10.9158 3.84821 11.0622 3.7057 11.1005C3.66851 11.1104 3.64639 11.1488 3.65633 11.1859C3.66627 11.223 3.70456 11.2452 3.74178 11.2352L5.56983 10.7454C5.72574 10.7037 5.88848 10.7251 6.02822 10.8057C6.16795 10.8864 6.2679 11.0167 6.30964 11.1725C6.35139 11.3284 6.32995 11.4912 6.24927 11.6309C6.16859 11.7706 6.03833 11.8706 5.8825 11.9123C5.85938 11.9185 5.83612 11.9215 5.81322 11.9215Z" fill="#D8AA5E"/>
<path d="M7.95084 15.999C7.89923 15.999 7.8468 15.9923 7.79462 15.9783C7.47294 15.8921 7.28131 15.5603 7.36751 15.2385L7.85734 13.4104C7.86728 13.3733 7.84516 13.335 7.80797 13.325C7.77079 13.315 7.73246 13.3372 7.72252 13.3744C7.68434 13.5169 7.53766 13.6014 7.39532 13.5633C7.25281 13.5251 7.16825 13.3786 7.20643 13.2361C7.29267 12.9143 7.62461 12.7229 7.94628 12.8089C8.26796 12.8951 8.45959 13.227 8.37339 13.5488L7.88356 15.3768C7.87362 15.414 7.89574 15.4523 7.93293 15.4623C7.97011 15.4722 8.00844 15.4501 8.01838 15.4129C8.05652 15.2704 8.20317 15.1858 8.34558 15.224C8.48809 15.2622 8.57265 15.4087 8.53446 15.5512C8.46219 15.8208 8.21749 15.999 7.95084 15.999Z" fill="#D8AA5E"/>
<path d="M6.83326 14.1395C6.76488 14.1395 6.69652 14.1134 6.64434 14.0612L5.05725 12.4741C4.95292 12.3698 4.95292 12.2006 5.05725 12.0963C5.16165 11.992 5.33077 11.992 5.43506 12.0963L7.02215 13.6835C7.12648 13.7878 7.12648 13.9569 7.02215 14.0612C6.97001 14.1134 6.90162 14.1395 6.83326 14.1395Z" fill="#E8AD8C"/>
<path d="M5.88428 13.6654L8.39487 11.1548C8.4992 11.0505 8.4992 10.8813 8.39487 10.777C8.29044 10.6726 8.12132 10.6727 8.01706 10.777L7.41117 11.3829L7.41114 11.3829L4.90051 13.8935C4.79618 13.9979 4.79618 14.167 4.90051 14.2713C4.95269 14.3234 5.02108 14.3496 5.08944 14.3496C5.15779 14.3496 5.22618 14.3235 5.27836 14.2713L5.88425 13.6654C5.88425 13.6655 5.88425 13.6654 5.88428 13.6654Z" fill="white"/>
<path d="M8.72754 11.7348C8.6729 11.793 8.58071 11.794 8.52404 11.7373L7.43067 10.644C7.37425 10.5875 7.3755 10.4956 7.43345 10.4407L14.4777 3.77734L15.3909 4.69062L8.72754 11.7348Z" fill="#E19974"/>
<path d="M8.36283 11.3701C8.30819 11.4283 8.21601 11.4293 8.15934 11.3726L7.43067 10.644C7.37425 10.5875 7.3755 10.4956 7.43345 10.4407L14.4777 3.77734L15.0262 4.32592L8.36283 11.3701Z" fill="#E8AD8C"/>
<path d="M14.4761 3.77856L15.4846 2.76999L16.3985 3.68388L15.39 4.69245L14.4761 3.77856Z" fill="#883F2E"/>
<path d="M14.4761 3.77856L15.4846 2.76999L16.0331 3.31847L15.0246 4.32705L14.4761 3.77856Z" fill="#A44F3E"/>
<path d="M17.2241 2.85908L16.4004 3.68281L15.4863 2.76878L16.3101 1.94505C16.3585 1.89657 16.4371 1.89657 16.4856 1.94505L17.2241 2.68351C17.2726 2.73199 17.2726 2.8106 17.2241 2.85908Z" fill="#883F2E"/>
<path d="M17.2241 2.85908L16.4004 3.68281L15.4863 2.76878L16.3101 1.94505C16.3585 1.89657 16.4371 1.89657 16.4856 1.94505L17.2241 2.68351C17.2726 2.73199 17.2726 2.8106 17.2241 2.85908Z" fill="#6D3326"/>
<path d="M16.8586 2.49362L16.0349 3.31735L15.4863 2.76878L16.3101 1.94505C16.3585 1.89657 16.4371 1.89657 16.4856 1.94505L16.8586 2.31805C16.9071 2.36653 16.9071 2.44514 16.8586 2.49362Z" fill="#883F2E"/>
<path d="M14.8344 3.68747C14.7661 3.68747 14.6977 3.6614 14.6455 3.60922L13.9117 2.87546C13.8074 2.77113 13.8074 2.60197 13.9117 2.49768C14.0161 2.39335 14.1852 2.39335 14.2896 2.49768L15.0233 3.23144C15.1276 3.33577 15.1276 3.50492 15.0233 3.60922C14.9711 3.6614 14.9027 3.68747 14.8344 3.68747Z" fill="#6D3326"/>
<path d="M15.7456 2.77611C15.6772 2.77611 15.6088 2.75003 15.5566 2.69785L14.8229 1.96409C14.7185 1.85977 14.7185 1.69061 14.8229 1.58632C14.9273 1.48195 15.0964 1.48199 15.2007 1.58632L15.9344 2.32007C16.0388 2.4244 16.0388 2.59356 15.9344 2.69785C15.8823 2.75 15.8139 2.77611 15.7456 2.77611Z" fill="#6D3326"/>
<path d="M16.7791 5.04401C16.7107 5.04401 16.6424 5.01794 16.5902 4.96575L15.8536 4.22922C15.7493 4.12489 15.7493 3.95573 15.8536 3.85144C15.958 3.74711 16.1271 3.74711 16.2315 3.85144L16.968 4.58798C17.0723 4.69231 17.0723 4.86146 16.968 4.96575C16.9158 5.0179 16.8475 5.04401 16.7791 5.04401Z" fill="#6D3326"/>
<path d="M17.6902 4.13263C17.6218 4.13263 17.5535 4.10656 17.5013 4.05438L16.7648 3.31784C16.6604 3.21351 16.6604 3.04436 16.7648 2.94006C16.8691 2.83573 17.0383 2.83573 17.1426 2.94006L17.8791 3.6766C17.9834 3.78093 17.9834 3.95008 17.8791 4.05438C17.8269 4.10652 17.7585 4.13263 17.6902 4.13263Z" fill="#6D3326"/>
<path d="M5.98319 14.4441L5.55651 14.8708C5.48802 14.9393 5.40559 14.9922 5.31483 15.026L4.76434 15.2311C4.56345 15.3059 4.38104 15.4231 4.22944 15.5747L2.8274 16.9767C2.78811 17.016 2.72442 17.016 2.68513 16.9767L2.15398 16.4456C2.11469 16.4063 2.11469 16.3426 2.15398 16.3033L3.55606 14.9012C3.70762 14.7497 3.82481 14.5672 3.89964 14.3663L4.1047 13.8158C4.13851 13.7251 4.19144 13.6427 4.25993 13.5742L4.68662 13.1475C4.75102 13.0831 4.85556 13.0834 4.9196 13.1481L5.2919 13.5245L5.44794 13.6825L5.78405 14.0147L5.98259 14.2111C6.04731 14.2752 6.04759 14.3797 5.98319 14.4441Z" fill="#465A61"/>
<path d="M5.66893 14.13L5.24224 14.5567C5.17375 14.6252 5.09132 14.6781 5.00057 14.712L4.45007 14.917C4.24918 14.9918 4.06677 15.109 3.91517 15.2606L2.51309 16.6627C2.4738 16.702 2.41012 16.702 2.37083 16.6627L2.15398 16.4458C2.11469 16.4065 2.11469 16.3428 2.15398 16.3035L3.55606 14.9014C3.70762 14.7499 3.82481 14.5674 3.89964 14.3666L4.1047 13.8161C4.13851 13.7253 4.19144 13.6429 4.25993 13.5744L4.68487 13.1494C4.74931 13.085 4.85385 13.0853 4.91793 13.1501L5.13392 13.3686L5.29193 13.5247L5.66832 13.897C5.73308 13.9611 5.73336 14.0656 5.66893 14.13Z" fill="#596C76"/>
</svg>
