<svg width="16" height="18" viewBox="0 0 16 18" fill="none" xmlns="http://www.w3.org/2000/svg">
<path d="M13.5075 3.00045L12.1343 8.12517L12.1342 8.12401L11.534 8.42342L11.1992 7.8731L12.5719 2.75015L13.1379 2.50854L13.5075 3.00045Z" fill="#E19974"/>
<path d="M13.0397 2.87505L11.6665 7.99861L11.4107 8.22066L11.1992 7.87301L12.5719 2.75006L12.8363 2.63721L13.0397 2.87505Z" fill="#E8AD8C"/>
<path d="M13.9444 2.50786L13.8617 2.8164C13.8231 2.96018 13.6754 3.04547 13.5313 3.00683L12.5483 2.74342C12.4041 2.70481 12.3189 2.55708 12.3574 2.4133L12.4401 2.10476C12.4786 1.96098 12.6263 1.87569 12.7704 1.91433L13.7535 2.17774C13.8976 2.21638 13.9829 2.36408 13.9444 2.50786Z" fill="#883F2E"/>
<path d="M13.5246 2.39537L13.4419 2.70391C13.4033 2.84769 13.2557 2.93298 13.1115 2.89434L12.5483 2.74342C12.4041 2.70481 12.3189 2.55708 12.3574 2.4133L12.4401 2.10476C12.4786 1.96098 12.6263 1.87569 12.7704 1.91433L13.3337 2.06525C13.4778 2.10386 13.5631 2.25159 13.5246 2.39537Z" fill="#A44F3E"/>
<path d="M12.089 10.528L10.7453 10.6206L10.0361 9.97793L11.1989 7.8733L11.1993 7.87305L11.6666 7.99847L12.1343 8.12396L12.1344 8.12512L12.089 10.528Z" fill="#BAAFB9"/>
<path d="M11.5306 10.3784L10.7453 10.6206L10.0361 9.97792L11.1989 7.87329L11.6666 7.99864L11.5306 10.3784Z" fill="#D7D0D6"/>
<path d="M10.2341 17.9995C10.2234 18 10.2126 17.9998 10.2021 17.9999L6.46387 17.9998L10.2341 17.9995Z" fill="#FD4755"/>
<path d="M7.41876 8.48612V9.89317H6.01172V8.48612L6.77138 8.16553L7.41876 8.48612Z" fill="#BAAFB9"/>
<path d="M6.91172 8.21704V9.89318H6.01172V8.48614L6.91172 8.21704Z" fill="#D7D0D6"/>
<path d="M7.41876 8.48616H6.01172L6.16963 2.58091L6.75671 2.25293L7.26086 2.58091L7.41876 8.48616Z" fill="#E19974"/>
<path d="M6.91172 8.48614H6.01172L6.16963 2.58089L6.74852 2.38354L6.91172 8.48614Z" fill="#E8AD8C"/>
<path d="M7.28676 2.58073H6.14384C6.07268 2.58073 6.01668 2.52003 6.02237 2.44908L6.18611 0.417251C6.19462 0.311605 6.28285 0.230225 6.38882 0.230225H7.04174C7.14772 0.230225 7.23594 0.311605 7.24445 0.417251L7.40819 2.44908C7.41392 2.52003 7.35789 2.58073 7.28676 2.58073Z" fill="#883F2E"/>
<path d="M6.85215 2.58073H6.14384C6.07268 2.58073 6.01668 2.52003 6.02237 2.44908L6.18611 0.417251C6.19462 0.311605 6.28285 0.230225 6.38882 0.230225H6.60714C6.71311 0.230225 6.80133 0.311605 6.80984 0.417251L6.97358 2.44908C6.97931 2.52003 6.92328 2.58073 6.85215 2.58073Z" fill="#A44F3E"/>
<path d="M10.3872 7.12468L9.69715 7.24749L9.10645 6.78152L10.8205 0.895508L11.4108 0.917673L11.8462 1.17033L10.3872 7.12468Z" fill="#E19974"/>
<path d="M9.9205 6.99962L9.47405 7.17886L9.10645 6.78152L10.8205 0.895508L11.4108 0.917673L9.9205 6.99962Z" fill="#E8AD8C"/>
<path d="M10.0361 9.97808H8.66316L7.9834 9.42768L9.10639 6.78149L10.3871 7.12465L10.0361 9.97808Z" fill="#BAAFB9"/>
<path d="M9.56943 9.85305L8.68047 10.1118L7.9834 9.42768L9.10639 6.78149L9.92045 6.9996L9.56943 9.85305Z" fill="#D7D0D6"/>
<path d="M2.65094 3.63078L2.11996 4.28845C2.03054 4.3992 1.98176 4.53726 1.98176 4.6796V10.1632H1.0133V4.67952C1.0133 4.53723 0.964555 4.3992 0.875207 4.28848L0.344405 3.63078C0.265668 3.53321 0.335097 3.38794 0.460481 3.38794H2.53487C2.66025 3.38794 2.72972 3.53324 2.65094 3.63078Z" fill="#883F2E"/>
<path d="M15.2139 4.84425L14.1873 8.67413H13.4584L13.252 8.42314L14.2784 4.59362L14.5335 4.51221L15.2139 4.84425Z" fill="#E19974"/>
<path d="M2.1439 3.63078L1.61292 4.28845C1.5235 4.3992 1.47471 4.53726 1.47471 4.6796V10.0797H1.0133V4.67952C1.0133 4.53723 0.964555 4.3992 0.875207 4.28848L0.344405 3.63078C0.265668 3.53321 0.335097 3.38794 0.460481 3.38794H2.02782C2.15321 3.38794 2.22267 3.53324 2.1439 3.63078Z" fill="#A44F3E"/>
<path d="M15.659 4.31976L15.57 4.65209C15.5303 4.80008 15.3777 4.88816 15.2297 4.8485L14.2621 4.58922C14.1137 4.54949 14.026 4.39698 14.0657 4.24899L14.1547 3.91666C14.1944 3.76868 14.3466 3.68049 14.495 3.72022L15.4626 3.9795C15.6106 4.0192 15.6987 4.17178 15.659 4.31976Z" fill="#883F2E"/>
<path d="M14.7458 4.71883L13.7196 8.54881L13.4584 8.67413L13.252 8.42314L14.2784 4.59362L14.5335 4.51221L14.7458 4.71883Z" fill="#E8AD8C"/>
<path d="M15.2392 4.20727L15.1501 4.5396C15.1105 4.68759 14.9579 4.77567 14.8099 4.73601L14.2621 4.58922C14.1137 4.54949 14.026 4.39698 14.0657 4.24899L14.1547 3.91666C14.1944 3.76868 14.3466 3.68049 14.495 3.72022L15.0428 3.86701C15.1907 3.9067 15.2789 4.05929 15.2392 4.20727Z" fill="#A44F3E"/>
<path d="M14.1417 11.0781L12.9478 11.2522L12.0889 10.5281L13.2516 8.42346L13.2517 8.4231L14.187 8.67408L14.1417 11.0781Z" fill="#BAAFB9"/>
<path d="M13.512 10.9093L12.689 10.9597L12.0889 10.528L13.2516 8.42334L13.7193 8.54865L13.512 10.9093Z" fill="#D7D0D6"/>
<path d="M4.04869 14.8518C2.55787 14.4741 2.02989 13.8228 1.71665 13.2567C1.39439 12.674 1.41786 12.2295 1.41985 12.1381L1.35013 10.6831C1.35017 10.6802 0.581055 10.9735 0.581055 10.9735V12.1168C0.580765 15.3656 3.215 17.9998 6.46395 17.9998L10.3876 17.9996L11.8875 17.9342C12.2024 17.8604 12.868 17.2018 12.868 17.2018L4.04869 14.8518Z" fill="#FD4755"/>
<path d="M5.95108 10.6479L5.39623 10.4993C5.21004 10.8135 5.09947 11.1771 5.09567 11.5706C5.09577 11.8095 5.03218 12.0342 4.92041 12.2274L5.07575 12.269C5.07611 12.2691 5.07611 12.2691 5.07643 12.2692L8.73674 13.5487L13.9321 14.6424C13.9321 14.6424 14.5671 13.9232 14.5668 13.6344L13.9499 12.7909L9.44787 11.2746L5.95108 10.6479Z" fill="#FD4755"/>
<path d="M13.6278 17.5976C13.1194 17.8547 12.5448 17.9995 11.9363 17.9996L10.2344 17.9995C11.0521 17.9929 11.8074 17.7247 12.4209 17.2742L13.6278 17.5976Z" fill="#E41F2D"/>
<path d="M15.5944 15.088L14.6207 15.1254L13.9341 14.6431C13.9475 14.5133 13.9547 14.3813 13.9545 14.2478L13.9545 12.9759C13.9544 12.9159 13.9527 12.854 13.949 12.7907L14.8551 12.731L15.6887 13.2569L15.6886 14.2478C15.6889 14.5367 15.6562 14.8181 15.5944 15.088Z" fill="#E41F2D"/>
<path d="M12.434 10.6205L12.4337 10.6201L7.98313 9.42754C7.17117 9.20999 6.32571 9.47988 5.76123 10.0347L9.44769 11.2746L13.8621 12.2049L13.6711 11.0089L12.434 10.6205Z" fill="#0AB69F"/>
<path d="M4.49395 12.6757C4.28911 12.8091 4.04377 12.8866 3.78011 12.8868C3.05304 12.8869 2.46407 12.2976 2.46389 11.5705L2.464 10.974L1.69051 10.6833L1.63184 12.1596C1.63216 12.1668 1.73212 14.0859 4.17589 14.7036L12.9114 16.8435C13.4377 16.4314 14.5336 16.0268 14.7797 15.3938L10.1756 13.845L4.49395 12.6757Z" fill="#0AB69F"/>
<path d="M5.07659 12.2691C5.07623 12.269 4.92056 12.2273 4.92056 12.2273C4.8716 12.312 4.81379 12.3907 4.74784 12.4619C4.73604 12.4752 4.72351 12.4883 4.71072 12.5011C4.64513 12.5667 4.57291 12.625 4.49414 12.6755L13.8381 15.1795C13.8381 15.1795 14.5395 15.2121 14.5662 15.1252C14.5926 15.0389 13.9343 14.6428 13.9343 14.6428L5.07659 12.2691Z" fill="#FFEFD2"/>
<path d="M14.4547 12.609C14.4548 12.5122 13.8625 12.205 13.8625 12.205L5.76166 10.0347C5.68905 10.1056 5.62154 10.1812 5.55888 10.2612C5.49999 10.3369 5.44531 10.4163 5.39648 10.4992L13.9344 12.7866L14.4547 12.609Z" fill="#FFEFD2"/>
<path d="M4.24094 14.5199C1.79717 13.9022 1.82875 12.2452 1.8314 12.1765C1.83187 12.1691 1.8319 12.162 1.83158 12.1548L1.79416 10.9735L1.49783 10.7786L1.25116 10.9738C1.25076 10.9767 1.25116 10.9794 1.25108 10.9824L1.28813 12.1637C1.28614 12.255 1.29154 12.7653 1.61384 13.3481C1.92708 13.9142 2.613 14.6679 4.10385 15.0456L12.4142 17.2724C12.4142 17.2724 13.1182 17.329 13.271 17.2204C13.3183 17.1865 12.9049 16.8414 12.9049 16.8414L4.24094 14.5199Z" fill="#FFEFD2"/>
<path d="M15.4347 15.6075C15.1886 16.2405 14.776 16.7898 14.2497 17.2019L12.9116 16.8433C13.3517 16.3849 13.6758 15.8149 13.8381 15.1797L14.8115 15.1856C14.8119 15.1857 15.4347 15.6075 15.4347 15.6075Z" fill="#01998D"/>
<path d="M15.6736 12.6903L14.8551 12.7309L13.8622 12.205C13.6963 11.5269 13.2824 10.8479 12.4341 10.6206L14.1417 11.0778C15.1881 11.3581 15.5944 11.9672 15.6736 12.6903Z" fill="#01998D"/>
<path d="M15.5241 15.3504C15.4974 15.4373 15.4676 15.5234 15.4345 15.6076L14.7394 15.4213C14.7394 15.4213 14.7394 15.4213 14.7391 15.4212L13.8379 15.1797C13.8602 15.0923 13.8794 15.0038 13.8956 14.914C13.9116 14.8249 13.9246 14.7343 13.934 14.6431L15.5944 15.088C15.574 15.1766 15.5506 15.2641 15.5241 15.3504Z" fill="#FEDBA6"/>
<path d="M15.6889 13.2569L13.9491 12.7907C13.9438 12.6971 13.9346 12.6001 13.9203 12.5022L13.92 12.5021C13.9062 12.4039 13.887 12.3047 13.8623 12.2051L15.6738 12.6905C15.684 12.7836 15.6889 12.879 15.6888 12.9757L15.6889 13.2569Z" fill="#FEDBA6"/>
<path d="M14.2498 17.2018C14.2041 17.2379 14.1573 17.2726 14.11 17.3064C13.9572 17.4151 13.7961 17.5125 13.6278 17.5976L12.4209 17.2742C12.552 17.1781 12.6763 17.0738 12.7937 16.9616C12.834 16.9233 12.8735 16.8836 12.9117 16.8433L14.2498 17.2018Z" fill="#FEDBA6"/>
<path d="M2.464 10.1049V10.974H0.581055V10.1049C0.581055 10.0046 0.662363 9.92334 0.762649 9.92334H2.2824C2.38269 9.92334 2.464 10.0046 2.464 10.1049Z" fill="#BAAFB9"/>
<path d="M1.89647 10.1049V10.974H0.581055V10.1049C0.581055 10.0046 0.662363 9.92334 0.762649 9.92334H1.71488C1.81516 9.92334 1.89647 10.0046 1.89647 10.1049Z" fill="#D7D0D6"/>
<path d="M12.4037 0.848013C12.3712 0.969413 12.2924 1.06604 12.1916 1.12453C12.0906 1.18259 11.9675 1.20247 11.8461 1.16995L10.8204 0.895095C10.5776 0.830049 10.4335 0.580294 10.4985 0.337529C10.531 0.216128 10.6098 0.1195 10.7106 0.061009C10.8117 0.00295256 10.9347 -0.0169308 11.0561 0.0155924L12.0818 0.290446C12.3246 0.355493 12.4687 0.605248 12.4037 0.848013Z" fill="#883F2E"/>
<path d="M11.9839 0.735521C11.9514 0.856922 11.8726 0.95355 11.7719 1.01204C11.6708 1.0701 11.5477 1.08998 11.4263 1.05746L10.8204 0.895095C10.5776 0.830049 10.4335 0.580294 10.4985 0.337529C10.531 0.216128 10.6098 0.1195 10.7106 0.061009C10.8117 0.00295256 10.9347 -0.0169308 11.0561 0.0155924L11.662 0.177955C11.9048 0.243001 12.049 0.492756 11.9839 0.735521Z" fill="#A44F3E"/>
</svg>
