<svg width="18" height="18" viewBox="0 0 18 18" fill="none" xmlns="http://www.w3.org/2000/svg">
<path d="M7.37141 17.8229L0.422975 10.8687C0.0802737 10.5257 0.262242 9.9373 0.73938 9.84544L9.34293 8.18895C9.76241 8.1082 10.1296 8.47572 10.0489 8.89552L8.39378 17.5062C8.30202 17.9838 7.71411 18.1658 7.37141 17.8229Z" fill="#F3B573"/>
<path d="M9.3432 8.18895L8.74727 8.3037C8.91774 8.43589 9.01635 8.65723 8.97054 8.89556L7.31539 17.5062C7.30193 17.5762 7.27757 17.6397 7.24512 17.6963L7.37161 17.8229C7.71431 18.1659 8.30223 17.9838 8.39402 17.5062L10.0492 8.89559C10.1299 8.47569 9.76268 8.1082 9.3432 8.18895Z" fill="#F5A257"/>
<path d="M5.85546 15.1021L3.14126 12.3857C3.08638 12.3308 3.08638 12.2418 3.14126 12.1869L3.63731 11.6904C3.69223 11.6354 3.78135 11.6354 3.83626 11.6904L6.55046 14.4069C6.60534 14.4618 6.60534 14.5508 6.55046 14.6057L6.05441 15.1021C5.9995 15.1571 5.91041 15.1571 5.85546 15.1021Z" fill="#FFDEA9"/>
<path d="M5.85548 15.1022L5.20312 14.4493L5.89795 13.7539L6.55049 14.407C6.60537 14.4619 6.60537 14.5509 6.55049 14.6057L6.05443 15.1022C5.99952 15.1572 5.91043 15.1572 5.85548 15.1022Z" fill="#FFBF7B"/>
<path d="M16.6314 1.86469C16.564 1.86469 16.4966 1.83895 16.4451 1.78748L15.1089 0.450141C15.006 0.347133 15.006 0.180211 15.1089 0.0772031C15.2118 -0.0257344 15.3786 -0.0257344 15.4815 0.0772031L16.8177 1.41455C16.9206 1.51755 16.9206 1.68448 16.8177 1.78748C16.7663 1.83895 16.6989 1.86469 16.6314 1.86469Z" fill="#735458"/>
<path d="M17.317 3.85346C17.2495 3.85346 17.1821 3.82772 17.1307 3.77625L15.7945 2.43891C15.6916 2.3359 15.6916 2.16898 15.7945 2.06597C15.8973 1.96304 16.0642 1.96304 16.167 2.06597L17.5033 3.40332C17.6062 3.50632 17.6062 3.67325 17.5033 3.77625C17.4518 3.82772 17.3844 3.85346 17.317 3.85346Z" fill="#735458"/>
<path d="M15.3551 3.14203C15.2876 3.14203 15.2202 3.1163 15.1688 3.06483L13.8325 1.72748C13.7296 1.62448 13.7296 1.45755 13.8325 1.35455C13.9354 1.25161 14.1023 1.25161 14.2051 1.35455L15.5414 2.69189C15.6443 2.7949 15.6443 2.96182 15.5414 3.06483C15.4899 3.11626 15.4225 3.14203 15.3551 3.14203Z" fill="#735458"/>
<path d="M15.2511 4.05219L13.9819 5.31816L13.6089 5.69082L12.8682 6.42945L12.4948 6.80211L11.7558 7.53934L11.3825 7.91164L10.6403 8.65238L10.267 9.02469L7.77264 11.5134L6.71338 10.4573L9.20982 7.96648L9.58318 7.59418L10.3239 6.85555L10.6973 6.48289L11.4363 5.74531L11.81 5.37301L12.5518 4.63297V4.63262L12.9251 4.26031L14.1922 2.99609L15.2511 4.05219Z" fill="#735458"/>
<path d="M17.6978 1.82952L16.1874 3.70845L15.226 4.44641L14.4793 3.69949L13.7876 3.00754L14.5243 2.04647L16.392 0.524805C16.4709 0.456637 16.5757 0.448798 16.6338 0.506946L16.9697 0.84311L17.7149 1.5886C17.7727 1.64643 17.7652 1.75063 17.6978 1.82952Z" fill="#A66856"/>
<path d="M17.698 1.82964L16.1875 3.70857L15.2262 4.44653L14.4795 3.6996L15.4408 2.96125L16.9513 1.08236C17.0183 1.00421 17.0258 0.901445 16.9698 0.843262L17.715 1.58875C17.7729 1.64655 17.7654 1.75075 17.698 1.82964Z" fill="#8F5040"/>
<path d="M6.72559 12.7456C7.40516 12.7456 7.95605 12.1947 7.95605 11.5151C7.95605 10.8356 7.40516 10.2847 6.72559 10.2847C6.04602 10.2847 5.49512 10.8356 5.49512 11.5151C5.49512 12.1947 6.04602 12.7456 6.72559 12.7456Z" fill="#5C4346"/>
<path d="M13.9819 5.31811L13.6089 5.69076L12.5518 4.63291V4.63256L12.9251 4.26025L13.9819 5.31811Z" fill="#FFBF7B"/>
<path d="M12.8684 6.42949L12.4951 6.80215L11.4369 5.7457L11.4365 5.74535L11.8102 5.37305L12.8681 6.42914L12.8684 6.42949Z" fill="#FFBF7B"/>
<path d="M11.7561 7.53936L11.3828 7.91166L10.3242 6.85557L10.6976 6.48291L11.7554 7.53865C11.7558 7.539 11.7558 7.539 11.7561 7.53936Z" fill="#FFBF7B"/>
<path d="M10.6405 8.6522L10.2671 9.0245L9.20996 7.9663L9.58332 7.59399L10.6401 8.65185L10.6405 8.6522Z" fill="#FFBF7B"/>
</svg>
