<svg width="18" height="18" viewBox="0 0 18 18" fill="none" xmlns="http://www.w3.org/2000/svg">
<path d="M12.8354 3.98964L14.9057 2.09106L15.9078 3.09322L14.0093 5.16346L12.8354 3.98964Z" fill="#883F2E"/>
<path d="M11.1353 5.54868L12.4367 4.35522L13.6437 5.56219L12.4502 6.86364L11.1353 5.54868Z" fill="#883F2E"/>
<path d="M9.77458 7.26544L9.52979 7.02065L10.7365 5.91431L12.0846 7.26238L10.9782 8.46909L9.77483 7.2657C9.77483 7.2657 9.77483 7.2657 9.77458 7.26544Z" fill="#883F2E"/>
<path d="M8.62866 11.031L6.96777 9.37016L9.13129 7.38599L10.6128 8.86757L8.62866 11.031Z" fill="#883F2E"/>
<path d="M13.4817 4.63591L12.8354 3.98964L14.9057 2.09106L15.4264 2.61178L13.4817 4.63591Z" fill="#A44F3E"/>
<path d="M11.8847 6.29812L11.1353 5.54868L12.4367 4.35522L13.1072 5.0257L11.8847 6.29812Z" fill="#A44F3E"/>
<path d="M9.77458 7.26544L9.52979 7.02065L10.7365 5.91431L11.5101 6.68795L10.3766 7.86739L9.77487 7.2657C9.77483 7.2657 9.77483 7.2657 9.77458 7.26544Z" fill="#A44F3E"/>
<path d="M7.96993 10.3726L6.96777 9.37041L9.13129 7.38623L10.0022 8.25718L7.96993 10.3726Z" fill="#A44F3E"/>
<path d="M15.9079 3.09345L14.9058 2.09133L16.2015 0.264796C16.2647 0.175669 16.3929 0.164861 16.4702 0.2421L17.7571 1.529C17.8343 1.60628 17.8235 1.73449 17.7344 1.79772L15.9079 3.09345Z" fill="#465A61"/>
<path d="M15.4265 2.61204L14.9058 2.09133L16.2015 0.264796C16.2647 0.175669 16.3929 0.164861 16.4702 0.2421L17.242 1.01391C17.3182 1.0901 17.3089 1.21623 17.2223 1.28043L15.4265 2.61204Z" fill="#596C76"/>
<path d="M17.7297 2.7342C17.6606 2.7342 17.5914 2.70783 17.5386 2.65505L17.1754 2.29181C17.0698 2.18629 17.0698 2.01524 17.1753 1.90972C17.2809 1.8042 17.452 1.80416 17.5574 1.90972L17.9207 2.27296C18.0262 2.37848 18.0262 2.54953 17.9207 2.65505C17.868 2.70779 17.7988 2.7342 17.7297 2.7342Z" fill="#D7D0D6"/>
<path d="M17.0443 3.21486C16.9751 3.21486 16.906 3.18849 16.8532 3.13571L16.523 2.80546C16.4175 2.69994 16.4175 2.52886 16.523 2.42338C16.6285 2.31786 16.7996 2.31786 16.9051 2.42338L17.2354 2.75362C17.3409 2.85914 17.3409 3.03023 17.2353 3.13571C17.1826 3.18849 17.1134 3.21486 17.0443 3.21486Z" fill="#D7D0D6"/>
<path d="M15.9001 0.904365C15.831 0.904365 15.7618 0.877994 15.7091 0.825217L15.3458 0.461971C15.2402 0.356453 15.2402 0.185404 15.3457 0.079885C15.4513 -0.0256337 15.6224 -0.0256698 15.7278 0.079885L16.0911 0.44313C16.1967 0.548649 16.1967 0.719698 16.0911 0.825217C16.0384 0.877994 15.9692 0.904365 15.9001 0.904365Z" fill="#D7D0D6"/>
<path d="M15.3861 1.55665C15.317 1.55665 15.2478 1.53028 15.195 1.47751L14.8648 1.14726C14.7593 1.04174 14.7593 0.870657 14.8648 0.765174C14.9703 0.659655 15.1414 0.659655 15.2469 0.765174L15.5772 1.09542C15.6827 1.20094 15.6827 1.37202 15.5772 1.47751C15.5244 1.53028 15.4552 1.55665 15.3861 1.55665Z" fill="#D7D0D6"/>
<path d="M10.6125 8.86779L10.002 8.25716L10.3764 7.86743L10.9781 8.46913L10.6125 8.86779Z" fill="#BAAFB9"/>
<path d="M10.0023 8.25701L9.13135 7.38606L9.53001 7.02051L9.7748 7.2653C9.77505 7.26555 9.77505 7.26555 9.77505 7.26555L10.3767 7.86725L10.0023 8.25701Z" fill="#D7D0D6"/>
<path d="M11.5104 6.68803L10.7368 5.91438L11.1355 5.54883L11.8849 6.29827L11.5104 6.68803Z" fill="#D7D0D6"/>
<path d="M12.0847 7.26228L11.5103 6.68786L11.8847 6.2981L12.4503 6.86362L12.0847 7.26228Z" fill="#BAAFB9"/>
<path d="M13.107 5.02577L12.4365 4.3553L12.8352 3.98975L13.4814 4.63601L13.107 5.02577Z" fill="#D7D0D6"/>
<path d="M13.6439 5.56224L13.1074 5.02575L13.4819 4.63599L14.0095 5.16354L13.6439 5.56224Z" fill="#BAAFB9"/>
<path d="M8.56835 14.18C8.53808 14.3126 8.62094 14.4444 8.75352 14.4743L9.47583 14.639C9.24743 15.3476 8.85187 16.014 8.28915 16.5768C7.72571 17.1398 7.05852 17.5361 6.34881 17.7642L6.18454 17.0433C6.15464 16.9107 6.02278 16.8279 5.89021 16.8581L5.1153 17.0347C4.98273 17.0649 4.89987 17.1968 4.93013 17.329L5.0818 17.994C3.7647 18.0545 2.4278 17.5822 1.42233 16.5768C1.2984 16.4528 1.18276 16.3242 1.07504 16.1909C-0.466132 14.2841 -0.35013 11.4824 1.42233 9.70994C1.98252 9.14975 2.64539 8.75527 3.35041 8.52651L3.51108 9.23225C3.54135 9.36446 3.6732 9.44732 3.80541 9.41742L4.58068 9.24089C4.7129 9.21063 4.79611 9.07878 4.76585 8.9462L4.61707 8.29414C5.77565 8.23758 6.9508 8.59387 7.90295 9.36302C8.03589 9.47073 8.16486 9.58638 8.28879 9.7103C9.29498 10.7165 9.76727 12.0541 9.70567 13.3716L9.0392 13.2199C8.90698 13.1896 8.77513 13.2725 8.74487 13.4051L8.56835 14.18Z" fill="#BAAFB9"/>
<path d="M8.97327 12.6392C8.95346 13.0675 8.87672 13.4944 8.74343 13.9066C8.51503 14.6152 8.11911 15.2816 7.55639 15.8444C6.99331 16.4074 6.32612 16.8034 5.61641 17.0318C5.20428 17.1647 4.77774 17.2414 4.34904 17.2613C3.19406 17.3149 2.02359 16.9579 1.07504 16.1909C-0.466132 14.2841 -0.35013 11.4824 1.42233 9.70994C1.98252 9.14975 2.64539 8.75527 3.35041 8.52651L3.51108 9.23225C3.54135 9.36446 3.6732 9.44732 3.80541 9.41742L4.58068 9.24089C4.71289 9.21063 4.79611 9.07878 4.76585 8.9462L4.61707 8.29414C5.77565 8.23758 6.9508 8.59387 7.90295 9.36302C8.6703 10.3123 9.02731 11.4835 8.97327 12.6392Z" fill="#D7D0D6"/>
<path d="M7.78551 10.2134C7.68154 10.1095 7.5709 10.01 7.45642 9.91724C6.66663 9.27919 5.67095 8.95475 4.65219 9.00479C4.28437 9.02262 3.92066 9.08934 3.5715 9.203C2.94721 9.40557 2.3935 9.74547 1.92564 10.2133C1.19763 10.9413 0.768424 11.9081 0.717124 12.9356C0.666184 13.9558 0.990161 14.9532 1.62961 15.7445C1.72234 15.859 1.82195 15.9696 1.92564 16.0733C2.70299 16.8506 3.76261 17.287 4.85833 17.287C4.92155 17.287 4.98514 17.2855 5.04854 17.2826C5.41651 17.2654 5.78033 17.1995 6.1297 17.0868C6.75817 16.8846 7.31534 16.5436 7.78569 16.0733C8.25557 15.6034 8.59637 15.0469 8.7984 14.4197C8.91152 14.0705 8.97759 13.7065 8.99478 13.3379C9.04899 12.175 8.60819 11.0362 7.78551 10.2134V10.2134ZM8.45501 13.3129C8.44006 13.6334 8.38267 13.9498 8.28424 14.2536C8.10858 14.7988 7.81228 15.2825 7.4036 15.6912C6.99457 16.1003 6.51028 16.3968 5.96406 16.5725C5.66004 16.6706 5.34356 16.7279 5.02358 16.7429C4.01259 16.7898 3.02283 16.4062 2.30783 15.6913C2.21741 15.6008 2.13051 15.5043 2.04978 15.4046C0.89019 13.9697 1.00111 11.9022 2.30779 10.5954C2.7147 10.1886 3.19597 9.89303 3.73858 9.71698C4.04235 9.61809 4.35855 9.56009 4.67849 9.54459C4.73775 9.54171 4.7968 9.54027 4.85584 9.54027C5.67931 9.54027 6.47627 9.82015 7.11666 10.3375C7.21634 10.4182 7.31282 10.505 7.40346 10.5956C8.11882 11.311 8.50213 12.3014 8.45501 13.3129V13.3129Z" fill="#7A8C98"/>
<path d="M2.41678 15.5382L1.40053 16.5544C0.933823 16.0822 0.584195 15.5379 0.35111 14.9577C-0.268384 13.4186 -0.0669658 11.626 0.955366 10.251L1.82819 11.1238C1.91919 11.2148 1.93839 11.3552 1.87528 11.4673C1.50883 12.1181 1.37233 12.8634 1.46617 13.5842C1.55814 14.2975 1.8751 14.9869 2.41678 15.5382V15.5382Z" fill="#FEDBA6"/>
<path d="M0.35111 14.9577C-0.268384 13.4186 -0.0669658 11.626 0.955366 10.251L1.82819 11.1238C1.91919 11.2148 1.93839 11.3552 1.87528 11.4673C1.50883 12.1181 1.37233 12.8634 1.46617 13.5842L0.35111 14.9577Z" fill="#FFEFD2"/>
<path d="M4.58086 9.2407L3.80559 9.41722C3.67337 9.44712 3.54152 9.36426 3.51126 9.23205L3.35059 8.52631C3.76236 8.39229 4.18854 8.31448 4.61724 8.29395L4.76603 8.94601C4.79629 9.07858 4.71307 9.21043 4.58086 9.2407Z" fill="#596C76"/>
<path d="M9.70557 13.3715C9.68576 13.8002 9.60902 14.2268 9.47573 14.6389L8.75342 14.4743C8.62084 14.4444 8.53798 14.3125 8.56824 14.1799L8.74477 13.405C8.77503 13.2725 8.90688 13.1896 9.0391 13.2199L9.70557 13.3715Z" fill="#596C76"/>
<path d="M6.34875 17.7641C5.93661 17.8974 5.51007 17.9737 5.08173 17.9939L4.93006 17.3289C4.8998 17.1967 4.98266 17.0648 5.11523 17.0346L5.89014 16.858C6.02271 16.8278 6.15457 16.9106 6.18447 17.0432L6.34875 17.7641Z" fill="#596C76"/>
<path d="M3.88617 15.8345L2.13151 17.1346C2.08162 17.1716 2.01212 17.1664 1.96821 17.1225L0.876564 16.0309C0.832649 15.987 0.827497 15.9175 0.864495 15.8676L2.16458 14.1129C2.21405 14.0461 2.30343 14.0229 2.37915 14.0572L3.39403 14.5173C3.43297 14.5349 3.46417 14.5661 3.48182 14.6051L3.60845 14.8842L3.94187 15.6199C3.97613 15.6957 3.95296 15.785 3.88617 15.8345V15.8345Z" fill="#465A61"/>
<path d="M3.50574 14.9702L1.58641 16.5789C1.53659 16.6207 1.46317 16.6174 1.4172 16.5715L0.876564 16.0309C0.832649 15.987 0.827497 15.9175 0.864495 15.8676L2.16458 14.1129C2.21405 14.0461 2.30343 14.0229 2.37915 14.0572L3.39403 14.5173C3.43297 14.5349 3.46417 14.5661 3.48182 14.605L3.55311 14.7622C3.58579 14.8343 3.56644 14.9194 3.50574 14.9702V14.9702Z" fill="#596C76"/>
<path d="M5.25138 14.6786C5.18221 14.6786 5.11308 14.6522 5.0603 14.5994L3.39945 12.9385C3.29393 12.833 3.29393 12.6619 3.39945 12.5564C3.50504 12.4509 3.67609 12.4509 3.78157 12.5564L5.44242 14.2173C5.54794 14.3229 5.54794 14.4939 5.44242 14.5994C5.38965 14.6522 5.32048 14.6786 5.25138 14.6786Z" fill="#BAAFB9"/>
<path d="M6.84273 11.3774C6.99615 11.3774 7.12053 11.253 7.12053 11.0996C7.12053 10.9461 6.99615 10.8218 6.84273 10.8218C6.68931 10.8218 6.56494 10.9461 6.56494 11.0996C6.56494 11.253 6.68931 11.3774 6.84273 11.3774Z" fill="#E5E1E5"/>
</svg>
