<svg width="18" height="18" viewBox="0 0 18 18" fill="none" xmlns="http://www.w3.org/2000/svg">
<path d="M9.53371 13.6054C8.99697 14.1913 8.43596 14.6549 8.16723 15.4604C7.55987 17.2825 6.98293 17.4849 6.28792 17.7298C3.65276 18.6573 1.21245 16.9 1.21245 16.9C1.21245 16.9 1.10235 16.7751 0.950239 16.5433C0.479054 15.8244 -0.392331 14.0754 0.382354 11.8242C0.622474 11.1274 0.835069 10.5678 2.65208 9.94524C4.36045 9.35925 4.48214 8.26115 5.01924 7.72405C5.43356 7.30972 5.95002 7.20035 6.39947 7.4535C6.53239 7.52775 6.65915 7.63387 6.77613 7.77294C6.93947 7.96706 7.11042 8.28795 7.26687 8.63527C7.60225 9.37664 7.8746 10.2379 7.8746 10.2379C7.8746 10.2379 8.28929 11.2871 8.77749 11.9216C8.80393 11.9564 8.83182 11.9904 8.86043 12.0241C9.34972 12.6072 10.0415 13.052 9.53371 13.6054V13.6054Z" fill="#0078C8"/>
<path d="M9.00928 13.0806C8.47255 13.6666 7.91118 14.1301 7.64245 14.9356C7.03545 16.7577 6.45851 16.9605 5.7635 17.205C3.64262 17.9514 1.64851 16.9594 0.950239 16.5433C0.479054 15.8244 -0.392331 14.0754 0.382354 11.8242C0.622474 11.1274 0.835069 10.5678 2.65208 9.94524C4.36045 9.35925 4.48214 8.26115 5.01924 7.72405C5.43356 7.30972 5.95002 7.20035 6.39947 7.4535C6.51537 7.6364 6.63235 7.8671 6.74209 8.11048C7.07782 8.85185 7.7645 10.7627 8.25271 11.3968C8.27951 11.4316 9.51669 12.5272 9.00928 13.0806V13.0806Z" fill="#3C87D0"/>
<path d="M8.86051 12.0241C8.34658 12.94 7.6016 14.1298 6.74434 15.0823C6.21122 15.6748 5.57706 15.9341 4.96426 16.0149C4.08419 16.1304 3.24829 15.8769 2.82238 15.7124C2.62971 15.6382 2.47759 15.4865 2.40299 15.2938C2.40226 15.292 2.40154 15.2902 2.40081 15.2883C2.12122 14.5629 1.59136 12.6677 3.03244 11.3704C4.50865 10.0423 6.55383 8.98439 7.26695 8.63525C7.30534 8.72 7.34301 8.80656 7.37922 8.89312C7.40639 8.95396 7.44043 9.03726 7.47773 9.13252L7.25138 9.35127L6.86059 9.72901L6.33276 10.2389C6.24251 10.3261 6.24124 10.4703 6.33001 10.5591L7.55567 11.7847C7.64441 11.8735 7.78862 11.8722 7.87583 11.782L8.36578 11.2751C8.38787 11.315 8.41033 11.3552 8.43314 11.395C8.53962 11.5812 8.65624 11.7641 8.77757 11.9216C8.80401 11.9564 8.83189 11.9904 8.86051 12.0241V12.0241Z" fill="#FFEFD2"/>
<path d="M8.8606 12.0241C8.34668 12.94 7.60169 14.1298 6.74443 15.0823C6.21131 15.6748 5.57715 15.9341 4.96436 16.0149C6.17546 14.9244 7.77807 12.2639 8.35935 11.2632C8.38362 11.307 8.40825 11.3512 8.43324 11.395C8.53971 11.5812 8.65633 11.7641 8.77766 11.9216C8.8041 11.9564 8.83199 11.9904 8.8606 12.0241V12.0241Z" fill="#FEDBA6"/>
<path d="M14.9655 4.44322L13.037 6.43914L12.6596 6.82993L11.7364 7.78606L11.359 8.17684L10.6455 8.91495L10.2682 9.30573L9.66986 9.92505L9.29247 10.3158L8.76334 10.8634L8.38596 11.2542L8.36568 11.2752L7.87573 11.7821C7.78852 11.8723 7.6443 11.8736 7.55557 11.7848L6.32991 10.5592C6.24118 10.4704 6.24241 10.3262 6.33266 10.239L6.86049 9.72911L7.8054 10.6737L8.18278 10.2829L7.25128 9.35137L7.47763 9.13262L7.79888 8.82223L8.18966 8.44485L8.80934 7.84691L9.20012 7.46952L9.93823 6.75605L10.329 6.37866L11.2848 5.45512L11.6756 5.07774L13.6715 3.1499L14.3846 3.86302L14.9655 4.44322Z" fill="#596C76"/>
<path d="M12.4566 5.85862L11.6758 5.07778L13.6718 3.1499L14.3848 3.86287L12.4566 5.85862Z" fill="#7A8C98"/>
<path d="M11.1558 7.20548L10.3291 6.37879L11.2848 5.45532L12.079 6.24946L11.1558 7.20548Z" fill="#7A8C98"/>
<path d="M10.0653 8.33466L9.2002 7.46957L9.93852 6.75635L10.7785 7.59633L10.0653 8.33466Z" fill="#7A8C98"/>
<path d="M9.08961 9.34454L8.18994 8.44487L8.80944 7.84692L9.68785 8.7253L9.08961 9.34454Z" fill="#7A8C98"/>
<path d="M8.1829 10.2828L7.25146 9.35136L7.799 8.82227L8.71199 9.73526L8.1829 10.2828Z" fill="#7A8C98"/>
<path d="M6.97515 11.2045L6.32991 10.5592C6.24118 10.4705 6.24241 10.3262 6.3327 10.239L6.86063 9.729L7.80536 10.6737L7.29538 11.2017C7.20817 11.292 7.06388 11.2932 6.97515 11.2045Z" fill="#7A8C98"/>
<path d="M17.5288 1.14514C17.3894 1.68731 15.9932 3.69772 15.6843 4.13848C15.6452 4.19426 15.5894 4.23627 15.525 4.25873L14.9734 4.4514L14.3845 3.86287L13.6797 3.15809L13.7181 2.46996C13.7239 2.36131 13.784 2.2628 13.8782 2.20739L15.9469 0.993024C15.9469 0.993024 15.8422 0.295482 16.4326 0.048843C16.5821 -0.0134505 16.7368 -0.0130883 16.8813 0.0325453C17.3065 0.166187 17.6458 0.689525 17.5288 1.14514V1.14514Z" fill="#0078C8"/>
<path d="M16.7715 1.34288C16.384 2.34211 14.3845 3.86287 14.3845 3.86287L13.6797 3.15809L13.7181 2.46996C13.7239 2.36131 13.784 2.2628 13.8782 2.20739L15.9469 0.993024C15.9469 0.993024 15.8422 0.295482 16.4326 0.048843C16.5821 -0.0134505 16.7368 -0.0130883 16.8813 0.0325453C16.982 0.357739 16.9823 0.7989 16.7715 1.34288V1.34288Z" fill="#3C87D0"/>
<path d="M3.8919 14.9424L3.16709 14.2176C2.82712 13.8776 2.82712 13.3265 3.16709 12.9865C3.20381 12.9498 3.26339 12.9498 3.30011 12.9865L5.12299 14.8094C5.15972 14.8461 5.15972 14.9057 5.12299 14.9424C4.78302 15.2824 4.23184 15.2824 3.8919 14.9424V14.9424Z" fill="#D7D0D6"/>
<path d="M5.96455 12.609C5.89504 12.609 5.82551 12.5825 5.77249 12.5294L4.69821 11.4551C4.59213 11.3491 4.59213 11.1771 4.69821 11.071C4.80429 10.9649 4.97629 10.9649 5.08233 11.071L6.15661 12.1453C6.26269 12.2514 6.26269 12.4234 6.15661 12.5294C6.10358 12.5825 6.03408 12.609 5.96455 12.609Z" fill="#596C76"/>
<path d="M6.16328 13.8446C6.09378 13.8446 6.02424 13.8181 5.97122 13.765L4.89694 12.6907C4.79086 12.5846 4.79086 12.4127 4.89694 12.3066C5.00302 12.2005 5.17502 12.2005 5.28106 12.3066L6.35534 13.3809C6.46142 13.487 6.46142 13.659 6.35534 13.765C6.30231 13.8181 6.23278 13.8446 6.16328 13.8446Z" fill="#596C76"/>
<path d="M4.17519 17.302C4.34341 17.302 4.47978 17.1657 4.47978 16.9975C4.47978 16.8292 4.34341 16.6929 4.17519 16.6929C4.00697 16.6929 3.87061 16.8292 3.87061 16.9975C3.87061 17.1657 4.00697 17.302 4.17519 17.302Z" fill="#E5E1E5"/>
<path d="M5.42763 17.2154C5.59585 17.2154 5.73222 17.079 5.73222 16.9108C5.73222 16.7426 5.59585 16.6062 5.42763 16.6062C5.25941 16.6062 5.12305 16.7426 5.12305 16.9108C5.12305 17.079 5.25941 17.2154 5.42763 17.2154Z" fill="#E5E1E5"/>
<path d="M14.7824 3.2328C14.7129 3.2328 14.6434 3.20629 14.5903 3.15323C14.4842 3.04715 14.4842 2.87516 14.5903 2.76912L15.4896 1.86984C15.5957 1.76376 15.7676 1.76376 15.8737 1.86984C15.9798 1.97592 15.9798 2.14792 15.8737 2.25396L14.9745 3.15323C14.9214 3.20629 14.8519 3.2328 14.7824 3.2328V3.2328Z" fill="#FEDBA6"/>
<path d="M16.7665 4.02578C16.7151 4.02578 16.6632 4.01125 16.6172 3.98087L16.0548 3.61C15.9295 3.52743 15.8949 3.35895 15.9775 3.23371C16.0601 3.10847 16.2286 3.07388 16.3538 3.15646L16.9163 3.52732C17.0415 3.6099 17.0761 3.77838 16.9935 3.90362C16.9412 3.98282 16.8547 4.02578 16.7665 4.02578V4.02578Z" fill="#E5E1E5"/>
<path d="M17.2239 3.33157C17.1708 3.33157 17.1172 3.31603 17.0701 3.28365L16.5161 2.90214C16.3925 2.81707 16.3613 2.64793 16.4463 2.52436C16.5315 2.40082 16.7006 2.36957 16.8241 2.45468L17.3782 2.83619C17.5018 2.92126 17.533 3.0904 17.4479 3.21397C17.3952 3.2905 17.3103 3.33157 17.2239 3.33157Z" fill="#E5E1E5"/>
<path d="M17.6541 2.63551C17.601 2.63551 17.5473 2.61997 17.5002 2.58759L16.9462 2.20608C16.8227 2.121 16.7915 1.95187 16.8765 1.8283C16.9616 1.70476 17.1307 1.67354 17.2543 1.75862L17.8084 2.14013C17.9319 2.2252 17.9631 2.39434 17.878 2.51791C17.8253 2.5944 17.7404 2.63551 17.6541 2.63551V2.63551Z" fill="#E5E1E5"/>
<path d="M16.2644 4.71678C16.2108 4.71678 16.1568 4.70099 16.1095 4.66814L15.5741 4.29569C15.4509 4.21003 15.4205 4.04072 15.5062 3.91758C15.5918 3.79444 15.7611 3.76402 15.8842 3.84967L16.4197 4.22213C16.5428 4.30778 16.5733 4.4771 16.4876 4.60024C16.4348 4.67615 16.3503 4.71678 16.2644 4.71678V4.71678Z" fill="#E5E1E5"/>
<path d="M12.0788 6.24926L11.2847 5.45513L11.6755 5.07764L12.4563 5.85848L12.0788 6.24926Z" fill="#D7D0D6"/>
<path d="M12.6597 6.82974L12.0791 6.24918L12.4566 5.8584L13.0372 6.43896L12.6597 6.82974Z" fill="#BAAFB9"/>
<path d="M10.778 7.59614L9.93799 6.75615L10.3288 6.37866L11.1555 7.20536L10.778 7.59614Z" fill="#D7D0D6"/>
<path d="M11.3589 8.17667L10.7783 7.59611L11.1558 7.20532L11.7364 7.78588L11.3589 8.17667Z" fill="#BAAFB9"/>
<path d="M9.68749 8.7251L8.80908 7.84673L9.19986 7.46924L10.0649 8.33432L9.68749 8.7251Z" fill="#D7D0D6"/>
<path d="M10.2681 9.30582L9.6875 8.72526L10.065 8.33447L10.6455 8.91503L10.2681 9.30582Z" fill="#BAAFB9"/>
<path d="M8.71183 9.73531L7.79883 8.82232L8.18965 8.44482L9.08932 9.34449L8.71183 9.73531Z" fill="#D7D0D6"/>
<path d="M9.29247 10.3159L8.71191 9.7353L9.08941 9.34448L9.66997 9.92504L9.29247 10.3159Z" fill="#BAAFB9"/>
<path d="M8.18264 10.2828L7.80526 10.6736L6.86035 9.72906L7.25113 9.35132L8.18264 10.2828Z" fill="#D7D0D6"/>
<path d="M8.38574 11.2541L7.80518 10.6735L8.18267 10.2827L8.76323 10.8633L8.38574 11.2541Z" fill="#BAAFB9"/>
</svg>
