<svg width="18" height="14" viewBox="0 0 18 14" fill="none" xmlns="http://www.w3.org/2000/svg">
<path d="M1.32625 13.1876H0.520996C0.443336 13.1876 0.380371 13.1247 0.380371 13.047V2.44092H1.46687V13.047C1.46687 13.1247 1.40391 13.1876 1.32625 13.1876Z" fill="#5C4346"/>
<path d="M17.4791 13.1876H16.6738C16.5962 13.1876 16.5332 13.1247 16.5332 13.047V2.44092H17.6197V13.047C17.6197 13.1247 17.5567 13.1876 17.4791 13.1876Z" fill="#5C4346"/>
<path d="M5.74043 1.10181H3.56738V2.44056H5.74043V1.10181Z" fill="#75360D"/>
<path d="M10.0866 1.10181H7.91357V2.44056H10.0866V1.10181Z" fill="#75360D"/>
<path d="M3.56757 0.8125H1.39453V2.44094H3.56757V0.8125Z" fill="#A66856"/>
<path d="M7.91377 0.8125H5.74072V2.44094H7.91377V0.8125Z" fill="#A66856"/>
<path d="M12.2595 0.8125H10.0864V2.44094H12.2595V0.8125Z" fill="#A66856"/>
<path d="M16.6061 0.8125H14.4331V2.44094H16.6061V0.8125Z" fill="#A66856"/>
<path d="M16.6055 0.8125H15.519V2.44094H16.6055V0.8125Z" fill="#8F5040"/>
<path d="M12.2594 0.8125H11.1729V2.44094H12.2594V0.8125Z" fill="#8F5040"/>
<path d="M7.91365 0.8125H6.82715V2.44094H7.91365V0.8125Z" fill="#8F5040"/>
<path d="M3.56746 0.8125H2.48096V2.44094H3.56746V0.8125Z" fill="#8F5040"/>
<path d="M14.4328 1.10181H12.2598V2.44056H14.4328V1.10181Z" fill="#75360D"/>
<path d="M14.835 10.8179H14.0298C13.9521 10.8179 13.8892 10.755 13.8892 10.6773V2.98364H14.9757V10.6773C14.9757 10.755 14.9127 10.8179 14.835 10.8179Z" fill="#F5A257"/>
<path d="M13.7486 10.2446H12.9434C12.8657 10.2446 12.8027 10.1817 12.8027 10.104V2.98364H13.8892V10.104C13.8892 10.1817 13.8263 10.2446 13.7486 10.2446Z" fill="#F3B573"/>
<path d="M12.6622 9.71325H11.8569C11.7793 9.71325 11.7163 9.65029 11.7163 9.57263V2.98364H12.8028V9.57263C12.8028 9.65029 12.7398 9.71325 12.6622 9.71325Z" fill="#F5A257"/>
<path d="M11.5758 9.22078H10.7705C10.6928 9.22078 10.6299 9.15782 10.6299 9.08016V2.98364H11.7164V9.08012C11.7164 9.15782 11.6534 9.22078 11.5758 9.22078Z" fill="#F3B573"/>
<path d="M10.4893 8.76435H9.68408C9.60642 8.76435 9.54346 8.70139 9.54346 8.62372V2.98364H10.63V8.62369C10.63 8.70139 10.567 8.76435 10.4893 8.76435Z" fill="#F5A257"/>
<path d="M9.40242 8.34131H8.59717C8.51951 8.34131 8.45654 8.27835 8.45654 8.20069V2.98364H9.54305V8.20069C9.54305 8.27835 9.48008 8.34131 9.40242 8.34131Z" fill="#F3B573"/>
<path d="M8.316 7.94922H7.51074C7.43308 7.94922 7.37012 7.88625 7.37012 7.80859V2.98364H8.45662V7.80859C8.45662 7.88625 8.39366 7.94922 8.316 7.94922Z" fill="#F5A257"/>
<path d="M7.22957 7.58584H6.42432C6.34666 7.58584 6.28369 7.52288 6.28369 7.44522V2.98364H7.3702V7.44518C7.3702 7.52288 7.30723 7.58584 7.22957 7.58584Z" fill="#F3B573"/>
<path d="M6.14314 7.24904H5.33789C5.26023 7.24904 5.19727 7.18608 5.19727 7.10842V2.98364H6.28377V7.10838C6.28377 7.18608 6.22084 7.24904 6.14314 7.24904Z" fill="#F5A257"/>
<path d="M5.05672 6.93689H4.25146C4.1738 6.93689 4.11084 6.87393 4.11084 6.79627V2.98364H5.19734V6.79627C5.19734 6.87393 5.13438 6.93689 5.05672 6.93689Z" fill="#F3B573"/>
<path d="M3.96984 6.64759H3.16455C3.08689 6.64759 3.02393 6.58463 3.02393 6.50697V2.98364H4.11043V6.50697C4.11047 6.58463 4.0475 6.64759 3.96984 6.64759Z" fill="#F5A257"/>
<path d="M17.8594 2.98347H0.140625C0.0629648 2.98347 0 2.9205 0 2.84284V2.03857C0 1.96091 0.0629648 1.89795 0.140625 1.89795H17.8594C17.937 1.89795 18 1.96091 18 2.03857V2.84284C18 2.92054 17.937 2.98347 17.8594 2.98347Z" fill="#735458"/>
<path d="M17.8595 2.98347H16.9136V1.89795H17.8595C17.9371 1.89795 18.0001 1.96091 18.0001 2.03857V2.84284C18.0001 2.92054 17.9371 2.98347 17.8595 2.98347Z" fill="#5C4346"/>
</svg>
