<svg width="18" height="10" viewBox="0 0 18 10" fill="none" xmlns="http://www.w3.org/2000/svg">
<path d="M10.2201 7.85406H6.13477L6.80153 4.36597H9.5012L10.2201 7.85406Z" fill="#D8AA5E"/>
<path d="M9.00006 7.85406H6.36279L7.02955 4.36597H8.28115L9.00006 7.85406Z" fill="#E9B665"/>
<path d="M7.66974 3.03041L6.60926 8.58133C6.57166 8.7781 6.39956 8.92043 6.19924 8.92043H1.47053C1.27018 8.92043 1.09811 8.7781 1.06051 8.58133L0 3.03041L3.71818 2.46777L7.66974 3.03041Z" fill="#A44F3E"/>
<path d="M6.58322 3.03051L5.52274 8.58142C5.48515 8.77819 5.31304 8.92053 5.11272 8.92053H1.47053C1.27018 8.92053 1.09811 8.77819 1.06052 8.58142L0 3.03051L3.07105 2.64526L6.58322 3.03051Z" fill="#BB5D4C"/>
<path d="M17.9999 2.98882L16.7174 9.21244C16.6831 9.37922 16.5362 9.49888 16.3659 9.49888H10.4915C10.3212 9.49888 10.1744 9.37922 10.14 9.21244L8.85791 2.98882L13.2965 2.43042L17.9999 2.98882Z" fill="#A44F3E"/>
<path d="M16.9134 2.98879L15.6309 9.21241C15.5965 9.37919 15.4497 9.49885 15.2794 9.49885H10.4915C10.3212 9.49885 10.1744 9.37919 10.14 9.21241L8.85791 2.98879L12.8856 2.36694L16.9134 2.98879Z" fill="#BB5D4C"/>
<path d="M2.91826 3.03042V8.92044H2.375V3.03042C2.375 2.88048 2.49669 2.75879 2.64663 2.75879C2.79693 2.75879 2.91826 2.88048 2.91826 3.03042Z" fill="#FEDBA6"/>
<path d="M5.29472 3.03042V8.92044H4.75146V3.03042C4.75146 2.88048 4.87279 2.75879 5.02309 2.75879C5.17303 2.75879 5.29472 2.88048 5.29472 3.03042Z" fill="#FEDBA6"/>
<path d="M12.1849 2.98867V9.49873H11.6416V2.98867C11.6416 2.83873 11.7629 2.71704 11.9132 2.71704C12.0632 2.71704 12.1849 2.83873 12.1849 2.98867Z" fill="#FEDBA6"/>
<path d="M15.2161 2.98867V9.49873H14.6729V2.98867C14.6729 2.83873 14.7945 2.71704 14.9445 2.71704C15.0944 2.71704 15.2161 2.83873 15.2161 2.98867Z" fill="#FEDBA6"/>
<path d="M7.66974 1.90522V3.03049H0V1.90522L4.1132 1.6814L7.66974 1.90522Z" fill="#D7D0D6"/>
<path d="M6.58322 1.90522V3.03049H0V1.90522L3.64455 1.63892L6.58322 1.90522Z" fill="#E5E1E5"/>
<path d="M7.66974 1.90517H0C0 1.59443 0.126036 1.31302 0.329577 1.10948C0.533119 0.905577 0.814527 0.779541 1.12527 0.779541H6.54447C7.16595 0.779541 7.66974 1.28369 7.66974 1.90517Z" fill="#FEDBA6"/>
<path d="M6.58322 1.90517H0C0 1.59443 0.126036 1.31302 0.329577 1.10948C0.533119 0.905577 0.814527 0.779541 1.12527 0.779541H5.45795C6.07944 0.779541 6.58322 1.28369 6.58322 1.90517Z" fill="#FFF9EE"/>
<path d="M17.9999 1.74502V2.98872H8.85791V1.74502L13.4289 1.34229L17.9999 1.74502Z" fill="#D7D0D6"/>
<path d="M16.9134 1.74506V2.98876H8.85791V1.74506L12.7996 1.40356L16.9134 1.74506Z" fill="#E5E1E5"/>
<path d="M17.9999 1.74504H8.85791C8.85791 1.40134 8.99698 1.09059 9.22226 0.865323C9.44717 0.640051 9.75827 0.500977 10.1016 0.500977H16.7558C17.4429 0.500977 17.9999 1.058 17.9999 1.74504Z" fill="#FEDBA6"/>
<path d="M16.9134 1.74504H8.85791C8.85791 1.40134 8.99698 1.09059 9.22226 0.865323C9.44717 0.640051 9.75827 0.500977 10.1016 0.500977H15.6693C16.3563 0.500977 16.9134 1.058 16.9134 1.74504Z" fill="#FFF9EE"/>
</svg>
