<svg width="18" height="12" viewBox="0 0 18 12" fill="none" xmlns="http://www.w3.org/2000/svg">
<path d="M16.8001 12H12.6001V0H16.8001C17.1315 0 17.4001 0.268613 17.4001 0.6V11.4C17.4001 11.7314 17.1315 12 16.8001 12Z" fill="#F4804A"/>
<path d="M11.1 0H10.5C10.8314 0 11.1 0.26865 11.1 0.6V11.4C11.1 11.7314 10.8314 12 10.5 12H11.1C11.4314 12 11.7 11.7314 11.7 11.4V0.6C11.7 0.26865 11.4314 0 11.1 0Z" fill="#A5C3DC"/>
<path d="M11.9999 0H11.3999C11.7313 0 11.9999 0.26865 11.9999 0.6V11.4C11.9999 11.7314 11.7313 12 11.3999 12H11.9999C12.3313 12 12.5999 11.7314 12.5999 11.4V0.6C12.5999 0.26865 12.3313 0 11.9999 0Z" fill="#A5C3DC"/>
<path d="M12.8998 0H12.2998C12.6312 0 12.8998 0.26865 12.8998 0.6V11.4C12.8998 11.7314 12.6312 12 12.2998 12H12.8998C13.2312 12 13.4998 11.7314 13.4998 11.4V0.6C13.4998 0.26865 13.2312 0 12.8998 0Z" fill="#A5C3DC"/>
<path d="M13.8002 0H13.2002C13.5316 0 13.8002 0.26865 13.8002 0.6V11.4C13.8002 11.7314 13.5316 12 13.2002 12H13.8002C14.1316 12 14.4002 11.7314 14.4002 11.4V0.6C14.4002 0.26865 14.1316 0 13.8002 0Z" fill="#A5C3DC"/>
<path d="M11.3999 0.600098H14.3999V11.4001H11.3999V0.600098Z" fill="#463C4B"/>
<path d="M17.6999 1.8001H17.3999V0.600098H17.6999C17.8656 0.600098 17.9999 0.734423 17.9999 0.900098V1.5001C17.9999 1.66577 17.8656 1.8001 17.6999 1.8001Z" fill="#463C4B"/>
<path d="M17.6999 11.4H17.3999V10.2H17.6999C17.8656 10.2 17.9999 10.3343 17.9999 10.5V11.1C17.9999 11.2656 17.8656 11.4 17.6999 11.4Z" fill="#463C4B"/>
<path d="M10.8002 0H10.2002C10.5316 0 10.8002 0.26865 10.8002 0.6V11.4C10.8002 11.7314 10.5316 12 10.2002 12H10.8002C11.1316 12 11.4002 11.7314 11.4002 11.4V0.6C11.4002 0.26865 11.1316 0 10.8002 0Z" fill="#555A6E"/>
<path d="M11.7001 0H11.1001C11.4315 0 11.7001 0.26865 11.7001 0.6V11.4C11.7001 11.7314 11.4315 12 11.1001 12H11.7001C12.0315 12 12.3001 11.7314 12.3001 11.4V0.6C12.3001 0.26865 12.0315 0 11.7001 0Z" fill="#555A6E"/>
<path d="M12.6 0H12C12.3314 0 12.6 0.26865 12.6 0.6V11.4C12.6 11.7314 12.3314 12 12 12H12.6C12.9314 12 13.2 11.7314 13.2 11.4V0.6C13.2 0.26865 12.9314 0 12.6 0Z" fill="#555A6E"/>
<path d="M13.4999 0H12.8999C13.2313 0 13.4999 0.26865 13.4999 0.6V11.4C13.4999 11.7314 13.2313 12 12.8999 12H13.4999C13.8313 12 14.0999 11.7314 14.0999 11.4V0.6C14.0999 0.26865 13.8313 0 13.4999 0Z" fill="#555A6E"/>
<path d="M14.3998 0H13.7998C14.1312 0 14.3998 0.26865 14.3998 0.6V11.4C14.3998 11.7314 14.1312 12 13.7998 12H14.3998C14.7312 12 14.9998 11.7314 14.9998 11.4V0.6C14.9998 0.26865 14.7312 0 14.3998 0Z" fill="#555A6E"/>
<path d="M6 12H0.6C0.268613 12 0 11.7314 0 11.4V0.6C0 0.268613 0.268613 0 0.6 0H6V12Z" fill="#FFB846"/>
<path d="M6.0001 12H1.2001C0.86871 12 0.600098 11.7314 0.600098 11.4V0.6C0.600098 0.268613 0.86871 0 1.2001 0H6.0001V12Z" fill="#F4804A"/>
<path d="M10.1998 12H4.7998V0H10.1998C10.5312 0 10.7998 0.268613 10.7998 0.6V11.4C10.7998 11.7314 10.5312 12 10.1998 12Z" fill="#F4804A"/>
<path d="M7.7998 12H4.7998V0H7.7998C8.13119 0 8.3998 0.268613 8.3998 0.6V11.4C8.3998 11.7314 8.13119 12 7.7998 12Z" fill="#FFB846"/>
<path d="M6.3002 1.1999V2.9999C6.3002 3.16558 6.16587 3.2999 6.0002 3.2999C5.83452 3.2999 5.7002 3.16558 5.7002 2.9999V1.1999C5.7002 1.03423 5.83452 0.899902 6.0002 0.899902C6.16587 0.899902 6.3002 1.03423 6.3002 1.1999Z" fill="#D24605"/>
<path d="M7.4999 1.1999V2.9999C7.4999 3.16558 7.36558 3.2999 7.1999 3.2999C7.03423 3.2999 6.8999 3.16558 6.8999 2.9999V1.1999C6.8999 1.03423 7.03423 0.899902 7.1999 0.899902C7.36558 0.899902 7.4999 1.03423 7.4999 1.1999Z" fill="#D24605"/>
<path d="M6.3002 8.99995V10.8C6.3002 10.9656 6.16587 11.1 6.0002 11.1C5.83452 11.1 5.7002 10.9656 5.7002 10.8V8.99995C5.7002 8.83428 5.83452 8.69995 6.0002 8.69995C6.16587 8.69995 6.3002 8.83428 6.3002 8.99995Z" fill="#D24605"/>
<path d="M6.3002 4.1999V7.7999C6.3002 7.96558 6.16587 8.0999 6.0002 8.0999C5.83452 8.0999 5.7002 7.96558 5.7002 7.7999V4.1999C5.7002 4.03423 5.83452 3.8999 6.0002 3.8999C6.16587 3.8999 6.3002 4.03423 6.3002 4.1999Z" fill="#D24605"/>
<path d="M7.4999 4.1999V7.7999C7.4999 7.96558 7.36558 8.0999 7.1999 8.0999C7.03423 8.0999 6.8999 7.96558 6.8999 7.7999V4.1999C6.8999 4.03423 7.03423 3.8999 7.1999 3.8999C7.36558 3.8999 7.4999 4.03423 7.4999 4.1999Z" fill="#D24605"/>
<path d="M7.4999 8.99995V10.8C7.4999 10.9656 7.36558 11.1 7.1999 11.1C7.03423 11.1 6.8999 10.9656 6.8999 10.8V8.99995C6.8999 8.83428 7.03423 8.69995 7.1999 8.69995C7.36558 8.69995 7.4999 8.83428 7.4999 8.99995Z" fill="#D24605"/>
<path d="M9.3 8.4001C9.13432 8.4001 9 8.26577 9 8.1001V3.9001C9 3.73442 9.13432 3.6001 9.3 3.6001C9.46568 3.6001 9.6 3.73442 9.6 3.9001V8.1001C9.6 8.26577 9.46568 8.4001 9.3 8.4001Z" fill="#D24605"/>
<path d="M16.1999 2.7001C16.3656 2.7001 16.4999 2.56578 16.4999 2.4001C16.4999 2.23441 16.3656 2.1001 16.1999 2.1001C16.0342 2.1001 15.8999 2.23441 15.8999 2.4001C15.8999 2.56578 16.0342 2.7001 16.1999 2.7001Z" fill="#A5C3DC"/>
<path d="M15.5998 3.6C15.7655 3.6 15.8998 3.46569 15.8998 3.3C15.8998 3.13431 15.7655 3 15.5998 3C15.4341 3 15.2998 3.13431 15.2998 3.3C15.2998 3.46569 15.4341 3.6 15.5998 3.6Z" fill="#A5C3DC"/>
<path d="M16.8 3.6C16.9657 3.6 17.1 3.46569 17.1 3.3C17.1 3.13431 16.9657 3 16.8 3C16.6343 3 16.5 3.13431 16.5 3.3C16.5 3.46569 16.6343 3.6 16.8 3.6Z" fill="#A5C3DC"/>
<path d="M16.1999 4.4999C16.3656 4.4999 16.4999 4.36559 16.4999 4.1999C16.4999 4.03422 16.3656 3.8999 16.1999 3.8999C16.0342 3.8999 15.8999 4.03422 15.8999 4.1999C15.8999 4.36559 16.0342 4.4999 16.1999 4.4999Z" fill="#A5C3DC"/>
<path d="M15.5998 5.40005C15.7655 5.40005 15.8998 5.26573 15.8998 5.10005C15.8998 4.93436 15.7655 4.80005 15.5998 4.80005C15.4341 4.80005 15.2998 4.93436 15.2998 5.10005C15.2998 5.26573 15.4341 5.40005 15.5998 5.40005Z" fill="#A5C3DC"/>
<path d="M16.8 5.40005C16.9657 5.40005 17.1 5.26573 17.1 5.10005C17.1 4.93436 16.9657 4.80005 16.8 4.80005C16.6343 4.80005 16.5 4.93436 16.5 5.10005C16.5 5.26573 16.6343 5.40005 16.8 5.40005Z" fill="#A5C3DC"/>
<path d="M16.1999 6.29995C16.3656 6.29995 16.4999 6.16564 16.4999 5.99995C16.4999 5.83427 16.3656 5.69995 16.1999 5.69995C16.0342 5.69995 15.8999 5.83427 15.8999 5.99995C15.8999 6.16564 16.0342 6.29995 16.1999 6.29995Z" fill="#A5C3DC"/>
<path d="M15.5998 7.2001C15.7655 7.2001 15.8998 7.06578 15.8998 6.9001C15.8998 6.73441 15.7655 6.6001 15.5998 6.6001C15.4341 6.6001 15.2998 6.73441 15.2998 6.9001C15.2998 7.06578 15.4341 7.2001 15.5998 7.2001Z" fill="#A5C3DC"/>
<path d="M16.8 7.2001C16.9657 7.2001 17.1 7.06578 17.1 6.9001C17.1 6.73441 16.9657 6.6001 16.8 6.6001C16.6343 6.6001 16.5 6.73441 16.5 6.9001C16.5 7.06578 16.6343 7.2001 16.8 7.2001Z" fill="#A5C3DC"/>
<path d="M16.1999 8.1C16.3656 8.1 16.4999 7.96569 16.4999 7.8C16.4999 7.63431 16.3656 7.5 16.1999 7.5C16.0342 7.5 15.8999 7.63431 15.8999 7.8C15.8999 7.96569 16.0342 8.1 16.1999 8.1Z" fill="#A5C3DC"/>
<path d="M16.1999 9.90005C16.3656 9.90005 16.4999 9.76573 16.4999 9.60005C16.4999 9.43436 16.3656 9.30005 16.1999 9.30005C16.0342 9.30005 15.8999 9.43436 15.8999 9.60005C15.8999 9.76573 16.0342 9.90005 16.1999 9.90005Z" fill="#A5C3DC"/>
<path d="M15.5998 8.9999C15.7655 8.9999 15.8998 8.86559 15.8998 8.6999C15.8998 8.53422 15.7655 8.3999 15.5998 8.3999C15.4341 8.3999 15.2998 8.53422 15.2998 8.6999C15.2998 8.86559 15.4341 8.9999 15.5998 8.9999Z" fill="#A5C3DC"/>
<path d="M16.8 8.9999C16.9657 8.9999 17.1 8.86559 17.1 8.6999C17.1 8.53422 16.9657 8.3999 16.8 8.3999C16.6343 8.3999 16.5 8.53422 16.5 8.6999C16.5 8.86559 16.6343 8.9999 16.8 8.9999Z" fill="#A5C3DC"/>
<path d="M2.7001 2.39995C3.03147 2.39995 3.3001 2.13132 3.3001 1.79995C3.3001 1.46858 3.03147 1.19995 2.7001 1.19995C2.36873 1.19995 2.1001 1.46858 2.1001 1.79995C2.1001 2.13132 2.36873 2.39995 2.7001 2.39995Z" fill="#A5C3DC"/>
<path d="M1.4999 2.39995C1.83127 2.39995 2.0999 2.13132 2.0999 1.79995C2.0999 1.46858 1.83127 1.19995 1.4999 1.19995C1.16853 1.19995 0.899902 1.46858 0.899902 1.79995C0.899902 2.13132 1.16853 2.39995 1.4999 2.39995Z" fill="#463C4B"/>
<path d="M3.8998 2.39995C4.23118 2.39995 4.4998 2.13132 4.4998 1.79995C4.4998 1.46858 4.23118 1.19995 3.8998 1.19995C3.56843 1.19995 3.2998 1.46858 3.2998 1.79995C3.2998 2.13132 3.56843 2.39995 3.8998 2.39995Z" fill="#463C4B"/>
<path d="M2.7001 4.8001C3.03147 4.8001 3.3001 4.53147 3.3001 4.2001C3.3001 3.86873 3.03147 3.6001 2.7001 3.6001C2.36873 3.6001 2.1001 3.86873 2.1001 4.2001C2.1001 4.53147 2.36873 4.8001 2.7001 4.8001Z" fill="#463C4B"/>
<path d="M1.4999 4.8001C1.83127 4.8001 2.0999 4.53147 2.0999 4.2001C2.0999 3.86873 1.83127 3.6001 1.4999 3.6001C1.16853 3.6001 0.899902 3.86873 0.899902 4.2001C0.899902 4.53147 1.16853 4.8001 1.4999 4.8001Z" fill="#A5C3DC"/>
<path d="M3.8998 4.8001C4.23118 4.8001 4.4998 4.53147 4.4998 4.2001C4.4998 3.86873 4.23118 3.6001 3.8998 3.6001C3.56843 3.6001 3.2998 3.86873 3.2998 4.2001C3.2998 4.53147 3.56843 4.8001 3.8998 4.8001Z" fill="#A5C3DC"/>
<path d="M2.1 3.5999C2.43137 3.5999 2.7 3.33127 2.7 2.9999C2.7 2.66853 2.43137 2.3999 2.1 2.3999C1.76863 2.3999 1.5 2.66853 1.5 2.9999C1.5 3.33127 1.76863 3.5999 2.1 3.5999Z" fill="#A5C3DC"/>
<path d="M3.3002 3.5999C3.63157 3.5999 3.9002 3.33127 3.9002 2.9999C3.9002 2.66853 3.63157 2.3999 3.3002 2.3999C2.96882 2.3999 2.7002 2.66853 2.7002 2.9999C2.7002 3.33127 2.96882 3.5999 3.3002 3.5999Z" fill="#463C4B"/>
<path d="M2.7001 7.2C3.03147 7.2 3.3001 6.93137 3.3001 6.6C3.3001 6.26863 3.03147 6 2.7001 6C2.36873 6 2.1001 6.26863 2.1001 6.6C2.1001 6.93137 2.36873 7.2 2.7001 7.2Z" fill="#A5C3DC"/>
<path d="M1.4999 7.2C1.83127 7.2 2.0999 6.93137 2.0999 6.6C2.0999 6.26863 1.83127 6 1.4999 6C1.16853 6 0.899902 6.26863 0.899902 6.6C0.899902 6.93137 1.16853 7.2 1.4999 7.2Z" fill="#463C4B"/>
<path d="M3.8998 7.2C4.23118 7.2 4.4998 6.93137 4.4998 6.6C4.4998 6.26863 4.23118 6 3.8998 6C3.56843 6 3.2998 6.26863 3.2998 6.6C3.2998 6.93137 3.56843 7.2 3.8998 7.2Z" fill="#463C4B"/>
<path d="M2.1 6.00005C2.43137 6.00005 2.7 5.73142 2.7 5.40005C2.7 5.06868 2.43137 4.80005 2.1 4.80005C1.76863 4.80005 1.5 5.06868 1.5 5.40005C1.5 5.73142 1.76863 6.00005 2.1 6.00005Z" fill="#463C4B"/>
<path d="M3.3002 6.00005C3.63157 6.00005 3.9002 5.73142 3.9002 5.40005C3.9002 5.06868 3.63157 4.80005 3.3002 4.80005C2.96882 4.80005 2.7002 5.06868 2.7002 5.40005C2.7002 5.73142 2.96882 6.00005 3.3002 6.00005Z" fill="#A5C3DC"/>
<path d="M2.7001 9.5999C3.03147 9.5999 3.3001 9.33127 3.3001 8.9999C3.3001 8.66853 3.03147 8.3999 2.7001 8.3999C2.36873 8.3999 2.1001 8.66853 2.1001 8.9999C2.1001 9.33127 2.36873 9.5999 2.7001 9.5999Z" fill="#463C4B"/>
<path d="M1.4999 9.5999C1.83127 9.5999 2.0999 9.33127 2.0999 8.9999C2.0999 8.66853 1.83127 8.3999 1.4999 8.3999C1.16853 8.3999 0.899902 8.66853 0.899902 8.9999C0.899902 9.33127 1.16853 9.5999 1.4999 9.5999Z" fill="#A5C3DC"/>
<path d="M3.8998 9.5999C4.23118 9.5999 4.4998 9.33127 4.4998 8.9999C4.4998 8.66853 4.23118 8.3999 3.8998 8.3999C3.56843 8.3999 3.2998 8.66853 3.2998 8.9999C3.2998 9.33127 3.56843 9.5999 3.8998 9.5999Z" fill="#A5C3DC"/>
<path d="M2.1 8.39995C2.43137 8.39995 2.7 8.13132 2.7 7.79995C2.7 7.46858 2.43137 7.19995 2.1 7.19995C1.76863 7.19995 1.5 7.46858 1.5 7.79995C1.5 8.13132 1.76863 8.39995 2.1 8.39995Z" fill="#A5C3DC"/>
<path d="M3.3002 8.39995C3.63157 8.39995 3.9002 8.13132 3.9002 7.79995C3.9002 7.46858 3.63157 7.19995 3.3002 7.19995C2.96882 7.19995 2.7002 7.46858 2.7002 7.79995C2.7002 8.13132 2.96882 8.39995 3.3002 8.39995Z" fill="#463C4B"/>
<path d="M2.1 10.8001C2.43137 10.8001 2.7 10.5315 2.7 10.2001C2.7 9.86873 2.43137 9.6001 2.1 9.6001C1.76863 9.6001 1.5 9.86873 1.5 10.2001C1.5 10.5315 1.76863 10.8001 2.1 10.8001Z" fill="#463C4B"/>
<path d="M3.3002 10.8001C3.63157 10.8001 3.9002 10.5315 3.9002 10.2001C3.9002 9.86873 3.63157 9.6001 3.3002 9.6001C2.96882 9.6001 2.7002 9.86873 2.7002 10.2001C2.7002 10.5315 2.96882 10.8001 3.3002 10.8001Z" fill="#A5C3DC"/>
<path d="M1.4999 2.2C1.27899 2.2 1.09989 2.02094 1.09989 1.79999C1.09989 1.57904 1.27899 1.39998 1.4999 1.39998C1.55514 1.39998 1.59991 1.3552 1.59991 1.29996C1.59991 1.24473 1.55514 1.19995 1.4999 1.19995C1.16851 1.19995 0.899902 1.4686 0.899902 1.79995C0.899902 2.1313 1.16851 2.39995 1.4999 2.39995C1.55514 2.39995 1.59991 2.35518 1.59991 2.29994C1.59991 2.24478 1.55514 2.2 1.4999 2.2Z" fill="#555A6E"/>
<path d="M2.7001 2.2C2.47919 2.2 2.30009 2.02094 2.30009 1.79999C2.30009 1.57904 2.47919 1.39998 2.7001 1.39998C2.75534 1.39998 2.80011 1.3552 2.80011 1.29996C2.80011 1.24473 2.75534 1.19995 2.7001 1.19995C2.36871 1.19995 2.1001 1.4686 2.1001 1.79995C2.1001 2.1313 2.36871 2.39995 2.7001 2.39995C2.75534 2.39995 2.80011 2.35518 2.80011 2.29994C2.80011 2.24478 2.75534 2.2 2.7001 2.2Z" fill="#D7E6F0"/>
<path d="M2.1 3.39995C1.87909 3.39995 1.69999 3.22089 1.69999 2.99994C1.69999 2.77899 1.87909 2.59993 2.1 2.59993C2.15524 2.59993 2.20001 2.55515 2.20001 2.49992C2.20001 2.44468 2.15524 2.3999 2.1 2.3999C1.76861 2.3999 1.5 2.66855 1.5 2.9999C1.5 3.33125 1.76861 3.5999 2.1 3.5999C2.15524 3.5999 2.20001 3.55513 2.20001 3.49989C2.20001 3.44473 2.15524 3.39995 2.1 3.39995Z" fill="#D7E6F0"/>
<path d="M1.49994 4.60015C1.27903 4.60015 1.09993 4.42109 1.09993 4.20014C1.09993 3.97919 1.27899 3.80012 1.4999 3.80012C1.55514 3.80012 1.59991 3.75535 1.59991 3.70011C1.59991 3.64487 1.55514 3.6001 1.4999 3.6001C1.16851 3.6001 0.899902 3.86875 0.899902 4.2001C0.899902 4.53145 1.16851 4.8001 1.4999 4.8001C1.55514 4.8001 1.59991 4.75532 1.59991 4.70009C1.59995 4.64492 1.55518 4.60015 1.49994 4.60015Z" fill="#D7E6F0"/>
<path d="M3.89984 4.60015C3.67893 4.60015 3.49983 4.42109 3.49983 4.20014C3.49983 3.97919 3.67889 3.80012 3.8998 3.80012C3.95504 3.80012 3.99982 3.75535 3.99982 3.70011C3.99982 3.64487 3.95504 3.6001 3.8998 3.6001C3.56842 3.6001 3.2998 3.86875 3.2998 4.2001C3.2998 4.53145 3.56842 4.8001 3.8998 4.8001C3.95504 4.8001 3.99982 4.75532 3.99982 4.70009C3.99985 4.64492 3.95508 4.60015 3.89984 4.60015Z" fill="#D7E6F0"/>
<path d="M3.30023 5.8001C3.07932 5.8001 2.90022 5.62104 2.90022 5.40009C2.90022 5.17914 3.07928 5.00007 3.3002 5.00007C3.35543 5.00007 3.40021 4.9553 3.40021 4.90006C3.40021 4.84482 3.35543 4.80005 3.3002 4.80005C2.96881 4.80005 2.7002 5.0687 2.7002 5.40005C2.7002 5.7314 2.96881 6.00005 3.3002 6.00005C3.35543 6.00005 3.40021 5.95527 3.40021 5.90004C3.40025 5.84487 3.35547 5.8001 3.30023 5.8001Z" fill="#D7E6F0"/>
<path d="M2.7001 7.00005C2.47919 7.00005 2.30009 6.82099 2.30009 6.60004C2.30009 6.37909 2.47919 6.20003 2.7001 6.20003C2.75534 6.20003 2.80011 6.15525 2.80011 6.10001C2.80011 6.04477 2.75534 6 2.7001 6C2.36871 6 2.1001 6.26865 2.1001 6.6C2.1001 6.93135 2.36871 7.2 2.7001 7.2C2.75534 7.2 2.80011 7.15523 2.80011 7.09999C2.80011 7.04483 2.75534 7.00005 2.7001 7.00005V7.00005Z" fill="#D7E6F0"/>
<path d="M2.1 8.2C1.87909 8.2 1.69999 8.02094 1.69999 7.79999C1.69999 7.57904 1.87909 7.39998 2.1 7.39998C2.15524 7.39998 2.20001 7.3552 2.20001 7.29996C2.20001 7.24473 2.15524 7.19995 2.1 7.19995C1.76861 7.19995 1.5 7.4686 1.5 7.79995C1.5 8.1313 1.76861 8.39995 2.1 8.39995C2.15524 8.39995 2.20001 8.35518 2.20001 8.29994C2.20001 8.24478 2.15524 8.2 2.1 8.2V8.2Z" fill="#D7E6F0"/>
<path d="M1.4999 9.39995C1.27899 9.39995 1.09989 9.22089 1.09989 8.99994C1.09989 8.77899 1.27899 8.59993 1.4999 8.59993C1.55514 8.59993 1.59991 8.55515 1.59991 8.49991C1.59991 8.44468 1.55514 8.3999 1.4999 8.3999C1.16851 8.3999 0.899902 8.66855 0.899902 8.9999C0.899902 9.33125 1.16851 9.5999 1.4999 9.5999C1.55514 9.5999 1.59991 9.55513 1.59991 9.49989C1.59991 9.44473 1.55514 9.39995 1.4999 9.39995V9.39995Z" fill="#D7E6F0"/>
<path d="M3.89984 9.39995C3.67893 9.39995 3.49983 9.22089 3.49983 8.99994C3.49983 8.77899 3.67889 8.59993 3.8998 8.59993C3.95504 8.59993 3.99982 8.55515 3.99982 8.49991C3.99982 8.44468 3.95504 8.3999 3.8998 8.3999C3.56842 8.3999 3.2998 8.66855 3.2998 8.9999C3.2998 9.33125 3.56842 9.5999 3.8998 9.5999C3.95504 9.5999 3.99982 9.55513 3.99982 9.49989C3.99985 9.44473 3.95508 9.39995 3.89984 9.39995V9.39995Z" fill="#D7E6F0"/>
<path d="M3.30023 10.6001C3.07932 10.6001 2.90022 10.4211 2.90022 10.2001C2.90022 9.97919 3.07928 9.80012 3.3002 9.80012C3.35543 9.80012 3.40021 9.75535 3.40021 9.70011C3.40021 9.64487 3.35543 9.6001 3.3002 9.6001C2.96881 9.6001 2.7002 9.86875 2.7002 10.2001C2.7002 10.5314 2.96881 10.8001 3.3002 10.8001C3.35543 10.8001 3.40021 10.7553 3.40021 10.7001C3.40025 10.6449 3.35547 10.6001 3.30023 10.6001V10.6001Z" fill="#D7E6F0"/>
<path d="M3.89984 2.2C3.67893 2.2 3.49983 2.02094 3.49983 1.79999C3.49983 1.57904 3.67889 1.39998 3.8998 1.39998C3.95504 1.39998 3.99982 1.3552 3.99982 1.29996C3.99982 1.24473 3.95504 1.19995 3.8998 1.19995C3.56842 1.19995 3.2998 1.4686 3.2998 1.79995C3.2998 2.1313 3.56842 2.39995 3.8998 2.39995C3.95504 2.39995 3.99982 2.35518 3.99982 2.29994C3.99985 2.24478 3.95508 2.2 3.89984 2.2Z" fill="#555A6E"/>
<path d="M3.30023 3.39995C3.07932 3.39995 2.90022 3.22089 2.90022 2.99994C2.90022 2.77899 3.07928 2.59993 3.3002 2.59993C3.35543 2.59993 3.40021 2.55515 3.40021 2.49992C3.40021 2.44468 3.35543 2.3999 3.3002 2.3999C2.96881 2.3999 2.7002 2.66855 2.7002 2.9999C2.7002 3.33125 2.96881 3.5999 3.3002 3.5999C3.35543 3.5999 3.40021 3.55513 3.40021 3.49989C3.40025 3.44473 3.35547 3.39995 3.30023 3.39995Z" fill="#555A6E"/>
<path d="M2.7001 4.60015C2.47919 4.60015 2.30009 4.42109 2.30009 4.20014C2.30009 3.97919 2.47919 3.80012 2.7001 3.80012C2.75534 3.80012 2.80011 3.75535 2.80011 3.70011C2.80011 3.64487 2.75534 3.6001 2.7001 3.6001C2.36871 3.6001 2.1001 3.86875 2.1001 4.2001C2.1001 4.53145 2.36871 4.8001 2.7001 4.8001C2.75534 4.8001 2.80011 4.75532 2.80011 4.70009C2.80011 4.64492 2.75534 4.60015 2.7001 4.60015Z" fill="#555A6E"/>
<path d="M2.1 5.8001C1.87909 5.8001 1.69999 5.62104 1.69999 5.40009C1.69999 5.17914 1.87909 5.00007 2.1 5.00007C2.15524 5.00007 2.20001 4.9553 2.20001 4.90006C2.20001 4.84482 2.15524 4.80005 2.1 4.80005C1.76861 4.80005 1.5 5.0687 1.5 5.40005C1.5 5.7314 1.76861 6.00005 2.1 6.00005C2.15524 6.00005 2.20001 5.95527 2.20001 5.90004C2.20001 5.84487 2.15524 5.8001 2.1 5.8001Z" fill="#555A6E"/>
<path d="M1.4999 7.00005C1.27899 7.00005 1.09989 6.82099 1.09989 6.60004C1.09989 6.37909 1.27899 6.20003 1.4999 6.20003C1.55514 6.20003 1.59991 6.15525 1.59991 6.10001C1.59991 6.04477 1.55514 6 1.4999 6C1.16851 6 0.899902 6.26865 0.899902 6.6C0.899902 6.93135 1.16851 7.2 1.4999 7.2C1.55514 7.2 1.59991 7.15523 1.59991 7.09999C1.59991 7.04483 1.55514 7.00005 1.4999 7.00005V7.00005Z" fill="#555A6E"/>
<path d="M3.89984 7.00005C3.67893 7.00005 3.49983 6.82099 3.49983 6.60004C3.49983 6.37909 3.67889 6.20003 3.8998 6.20003C3.95504 6.20003 3.99982 6.15525 3.99982 6.10001C3.99982 6.04477 3.95504 6 3.8998 6C3.56842 6 3.2998 6.26865 3.2998 6.6C3.2998 6.93135 3.56842 7.2 3.8998 7.2C3.95504 7.2 3.99982 7.15523 3.99982 7.09999C3.99985 7.04483 3.95508 7.00005 3.89984 7.00005V7.00005Z" fill="#555A6E"/>
<path d="M3.30023 8.2C3.07932 8.2 2.90022 8.02094 2.90022 7.79999C2.90022 7.57904 3.07928 7.39998 3.3002 7.39998C3.35543 7.39998 3.40021 7.3552 3.40021 7.29996C3.40021 7.24473 3.35543 7.19995 3.3002 7.19995C2.96881 7.19995 2.7002 7.4686 2.7002 7.79995C2.7002 8.1313 2.96881 8.39995 3.3002 8.39995C3.35543 8.39995 3.40021 8.35518 3.40021 8.29994C3.40025 8.24478 3.35547 8.2 3.30023 8.2V8.2Z" fill="#555A6E"/>
<path d="M2.7001 9.39995C2.47919 9.39995 2.30009 9.22089 2.30009 8.99994C2.30009 8.77899 2.47919 8.59993 2.7001 8.59993C2.75534 8.59993 2.80011 8.55515 2.80011 8.49991C2.80011 8.44468 2.75534 8.3999 2.7001 8.3999C2.36871 8.3999 2.1001 8.66855 2.1001 8.9999C2.1001 9.33125 2.36871 9.5999 2.7001 9.5999C2.75534 9.5999 2.80011 9.55513 2.80011 9.49989C2.80011 9.44473 2.75534 9.39995 2.7001 9.39995V9.39995Z" fill="#555A6E"/>
<path d="M2.1 10.6001C1.87909 10.6001 1.69999 10.4211 1.69999 10.2001C1.69999 9.97919 1.87909 9.80012 2.1 9.80012C2.15524 9.80012 2.20001 9.75535 2.20001 9.70011C2.20001 9.64487 2.15524 9.6001 2.1 9.6001C1.76861 9.6001 1.5 9.86875 1.5 10.2001C1.5 10.5314 1.76861 10.8001 2.1 10.8001C2.15524 10.8001 2.20001 10.7553 2.20001 10.7001C2.20001 10.6449 2.15524 10.6001 2.1 10.6001V10.6001Z" fill="#555A6E"/>
</svg>
