<svg width="18" height="18" viewBox="0 0 18 18" fill="none" xmlns="http://www.w3.org/2000/svg">
<path d="M9.47123 15.0455C9.56683 15.1411 9.54961 15.3004 9.43575 15.3732C8.07644 16.2433 6.29579 17.7454 4.66459 17.1517C3.82523 16.8687 3.06088 16.3764 2.43256 15.7469C2.29628 15.6106 2.16617 15.4682 2.04365 15.3198C1.59967 14.7842 1.24925 14.1725 1.02782 13.5149C0.434044 11.8837 1.93619 10.1031 2.80627 8.74373C2.87916 8.62987 3.03838 8.61266 3.13395 8.70826C3.69735 9.27224 4.58002 9.30232 5.10605 8.77684L5.62985 8.25304C6.09722 7.78566 6.12493 7.0358 5.7293 6.47904C5.65281 6.3714 5.69285 6.22116 5.81246 6.16524C7.08315 5.57121 8.46988 4.77383 9.89299 4.95936C10.9813 5.10071 11.8786 4.67834 12.8219 4.21948L13.96 5.35754C13.5011 6.30088 13.0787 7.19814 13.2201 8.28646C13.4056 9.70953 12.6082 11.0963 12.0142 12.367C11.9583 12.4866 11.8081 12.5267 11.7004 12.4502C11.1437 12.0545 10.3938 12.0822 9.92641 12.5496L9.40261 13.0734C8.87716 13.5995 8.90724 14.4821 9.47123 15.0455Z" fill="#883F2E"/>
<path d="M8.6549 14.2292C8.75051 14.3248 8.73329 14.484 8.61943 14.5569C7.26012 15.427 5.47947 16.9291 3.84827 16.3353C3.19098 16.1136 2.57952 15.7635 2.04365 15.3198C1.59967 14.7842 1.24925 14.1725 1.02782 13.5149C0.434044 11.8837 1.93619 10.1031 2.80627 8.74373C2.87916 8.62987 3.03838 8.61266 3.13395 8.70826C3.69735 9.27224 4.58002 9.30232 5.10605 8.77684L5.62985 8.25304C6.09722 7.78566 6.12493 7.0358 5.7293 6.47904C5.65281 6.3714 5.69285 6.22116 5.81246 6.16524C7.08315 5.57121 8.46988 4.77383 9.89299 4.95936C10.9813 5.10071 11.8786 4.67834 12.8219 4.21948L13.1436 4.54122C12.6848 5.48456 12.2624 6.38182 12.4038 7.47014C12.5893 8.89321 11.7919 10.28 11.1979 11.5507C11.142 11.6703 10.9918 11.7104 10.8841 11.6338C10.3273 11.2382 9.57747 11.2659 9.11009 11.7333L8.58629 12.2571C8.06084 12.7831 8.09092 13.6658 8.6549 14.2292Z" fill="#A44F3E"/>
<path d="M1.06154 8.08401L0.529183 7.8669C0.215169 7.73884 0.133152 7.33217 0.372949 7.09237L6.41839 1.0469C6.55338 0.911903 6.75612 0.871002 6.93288 0.943099L7.83463 1.31092L1.06154 8.08401Z" fill="#D8AA5E"/>
<path d="M3.99005 11.3331C3.82206 11.3331 3.65407 11.2691 3.52616 11.1412C3.40224 11.0173 3.33398 10.8525 3.33398 10.6773C3.33398 10.5021 3.40224 10.3374 3.52616 10.2134C3.63143 10.1082 3.80211 10.1082 3.90735 10.2134C4.01262 10.3187 4.01262 10.4894 3.90735 10.5946C3.87755 10.6244 3.87309 10.6592 3.87309 10.6773C3.87309 10.6954 3.87755 10.7302 3.90735 10.76C3.93714 10.7898 3.97193 10.7943 3.99005 10.7943C4.00812 10.7943 4.04291 10.7898 4.07271 10.76L5.60784 9.22489C5.73173 9.10097 5.89648 9.03271 6.07173 9.03271C6.24694 9.03271 6.41169 9.10097 6.53562 9.22489C6.65951 9.34878 6.72776 9.51353 6.72776 9.68878C6.72776 9.86399 6.65951 10.0287 6.53558 10.1527C6.43031 10.2579 6.25963 10.2579 6.15436 10.1527C6.04909 10.0474 6.04912 9.87671 6.15436 9.77144C6.18415 9.74165 6.18861 9.70685 6.18861 9.68878C6.18861 9.6707 6.18415 9.63587 6.15436 9.60611C6.12456 9.57628 6.08977 9.57182 6.0717 9.57182C6.05362 9.57182 6.01879 9.57628 5.98903 9.60608L4.4539 11.1412C4.32602 11.2691 4.15803 11.3331 3.99005 11.3331Z" fill="#E9B665"/>
<path d="M7.50192 14.8451C7.32671 14.8451 7.16196 14.7768 7.03803 14.6529C6.78224 14.3971 6.78224 13.9809 7.03803 13.7251L8.57317 12.19C8.60296 12.1602 8.60742 12.1254 8.60742 12.1073C8.60742 12.0892 8.60296 12.0544 8.57317 12.0246C8.54334 11.9948 8.50858 11.9903 8.49047 11.9903C8.47239 11.9903 8.4376 11.9948 8.40781 12.0246C8.30254 12.1298 8.13189 12.1298 8.02658 12.0246C7.92131 11.9193 7.92131 11.7486 8.02658 11.6433C8.15051 11.5194 8.31522 11.4512 8.49047 11.4512C8.66568 11.4512 8.83043 11.5194 8.95436 11.6433C9.07828 11.7672 9.14653 11.932 9.14653 12.1072C9.14653 12.2825 9.07828 12.4472 8.95436 12.5711L7.41922 14.1063C7.37361 14.1519 7.37361 14.226 7.41922 14.2716C7.46483 14.3172 7.53901 14.3172 7.58462 14.2716C7.68989 14.1663 7.86057 14.1663 7.96581 14.2716C8.07108 14.3769 8.07108 14.5476 7.96581 14.6528C7.84188 14.7768 7.67713 14.8451 7.50192 14.8451Z" fill="#E9B665"/>
<path d="M7.03444 12.7957C6.96547 12.7957 6.89647 12.7694 6.84385 12.7167L5.46225 11.3351C5.35698 11.2299 5.35698 11.0592 5.46225 10.954C5.56752 10.8487 5.73821 10.8487 5.84344 10.954L7.22504 12.3355C7.33031 12.4408 7.33031 12.6115 7.22504 12.7167C7.17242 12.7694 7.10341 12.7957 7.03444 12.7957Z" fill="#E19974"/>
<path d="M0.269546 9.14537C0.200576 9.14537 0.13157 9.11906 0.0789527 9.06641C-0.0263176 8.96114 -0.0263176 8.79045 0.0789527 8.68522L8.28263 0.481541C8.3879 0.37627 8.55859 0.37627 8.66382 0.481541C8.76909 0.586811 8.76909 0.757493 8.66382 0.862728L0.46014 9.06641C0.407523 9.11906 0.338552 9.14537 0.269546 9.14537Z" fill="#FFF9EF"/>
<path d="M4.06382 13.4244C3.95855 13.3191 3.95855 13.1484 4.06382 13.0432L8.66182 8.44516C8.76709 8.33989 8.93777 8.33989 9.04304 8.44516C9.14831 8.55043 9.14831 8.72112 9.04304 8.82639L4.445 13.4244C4.33973 13.5297 4.16905 13.5297 4.06382 13.4244Z" fill="#FFF9EF"/>
<path d="M4.75473 14.1151C4.64946 14.0098 4.64946 13.8391 4.75473 13.7338L9.35274 9.13584C9.45801 9.03057 9.62869 9.03057 9.73396 9.13584C9.83923 9.24111 9.83923 9.41179 9.73396 9.51706L5.13592 14.1151C5.03065 14.2203 4.85997 14.2203 4.75473 14.1151Z" fill="#FFF9EF"/>
<path d="M0.626968 17.8212C0.557998 17.8212 0.488992 17.7949 0.436375 17.7423C0.331104 17.637 0.331104 17.4663 0.436375 17.3611L1.16798 16.6295C1.27325 16.5242 1.44394 16.5242 1.54917 16.6295C1.65444 16.7348 1.65444 16.9054 1.54917 17.0107L0.817562 17.7423C0.764944 17.7949 0.695974 17.8212 0.626968 17.8212Z" fill="#D7D0D6"/>
<path d="M5.29539 14.263L4.75585 14.6986C4.34839 15.0268 3.79031 15.015 3.41153 15.3938L1.75826 17.0471C1.71067 17.0947 1.63354 17.0947 1.58596 17.0471L1.13188 16.593C1.0843 16.5455 1.0843 16.4683 1.13188 16.4207L2.78515 14.7675C3.16142 14.3912 3.15354 13.8286 3.48064 13.4234L3.91592 12.8836C4.00387 12.7743 4.16768 12.7656 4.26688 12.8648L5.31419 13.9121C5.41371 14.0115 5.40473 14.1751 5.29539 14.263Z" fill="#E19974"/>
<path d="M4.95004 13.9177L4.41021 14.353C4.00304 14.6815 3.44495 14.6697 3.06617 15.0485L1.4129 16.7018C1.36532 16.7493 1.28819 16.7493 1.2406 16.7018L1.13188 16.593C1.0843 16.5455 1.0843 16.4683 1.13188 16.4207L2.78515 14.7675C3.16142 14.3912 3.15354 13.8286 3.48064 13.4234L3.91592 12.8836C4.00387 12.7743 4.16768 12.7656 4.26688 12.8648L4.96884 13.5667C5.06807 13.666 5.05937 13.8298 4.95004 13.9177Z" fill="#E8AD8C"/>
<path d="M17.7303 3.10919C17.6613 3.10919 17.5923 3.08288 17.5397 3.03023L16.9203 2.41082C16.815 2.30555 16.815 2.13487 16.9203 2.02964C17.0255 1.92437 17.1962 1.92437 17.3014 2.02964L17.9209 2.64904C18.0261 2.75431 18.0261 2.92499 17.9209 3.03023C17.8682 3.08288 17.7993 3.10919 17.7303 3.10919Z" fill="#6D3326"/>
<path d="M15.9588 1.33742C15.8898 1.33742 15.8208 1.31111 15.7682 1.25846L15.1488 0.639095C15.0435 0.533825 15.0435 0.363142 15.1488 0.257908C15.254 0.152638 15.4247 0.152638 15.53 0.257908L16.1494 0.87731C16.2546 0.98258 16.2546 1.15326 16.1494 1.2585C16.0967 1.31111 16.0278 1.33742 15.9588 1.33742Z" fill="#6D3326"/>
<path d="M10.0217 9.5203C9.84436 9.70773 9.54731 9.71194 9.36494 9.52957L8.64922 8.81385C8.46686 8.63149 8.47106 8.33444 8.65849 8.15714L16.5028 0.736572L16.9785 1.21232L17.4425 1.6757L10.0217 9.5203Z" fill="#E19974"/>
<path d="M9.55798 9.05663C9.38065 9.24406 9.08363 9.24826 8.90127 9.0659L8.64922 8.81385C8.46686 8.63149 8.47106 8.33444 8.65849 8.15714L16.5028 0.736572L16.9788 1.21203L16.9785 1.21232L9.55798 9.05663Z" fill="#E8AD8C"/>
<path d="M17.3578 1.97367L16.8646 2.46682C16.6826 2.64889 16.3875 2.64889 16.2054 2.46682L15.8052 2.06611L15.7533 2.01414C15.7522 2.01357 15.7516 2.01303 15.7505 2.01188L15.7106 1.97199C15.5302 1.78991 15.5307 1.49595 15.7123 1.31441L16.2052 0.821523C16.3864 0.640274 16.6792 0.63916 16.8616 0.81872L17.3576 1.3147C17.5396 1.49681 17.5396 1.79185 17.3578 1.97367Z" fill="#883F2E"/>
<path d="M16.9498 1.56564L16.4567 2.05882C16.2771 2.23838 15.9879 2.24089 15.8053 2.06611C15.8025 2.06385 15.7999 2.06133 15.7974 2.05882L15.7106 1.97199C15.5302 1.78991 15.5307 1.49595 15.7123 1.31441L16.2052 0.821523C16.3864 0.640274 16.6792 0.63916 16.8616 0.81872L16.9495 0.906667C17.1317 1.08878 17.1314 1.38356 16.9498 1.56564Z" fill="#A44F3E"/>
</svg>
