<svg width="18" height="18" viewBox="0 0 18 18" fill="none" xmlns="http://www.w3.org/2000/svg">
<path d="M16.9976 1.98559L16.0142 1.0022L17.3528 0.0270687C17.409 -0.0138531 17.4866 -0.00780626 17.5358 0.0413422L17.9584 0.46392C18.0075 0.513069 18.0136 0.590729 17.9726 0.646909L16.9976 1.98559Z" fill="#735458"/>
<path d="M3.98047 13.0359L4.96387 14.0193L16.6087 2.37444L15.6253 1.39105L3.98047 13.0359Z" fill="#735458"/>
<path d="M4.49821 13.5534L4.96387 14.019L16.6087 2.3742L16.1431 1.90854L4.49821 13.5534Z" fill="#5C4346"/>
<path d="M3.22981 17.8299C3.24239 17.8633 3.12568 17.9345 3.03729 17.9828C2.98224 18.0128 2.9141 18.003 2.86977 17.9587L1.80194 16.8908L0.0414175 15.1303C-0.00294965 15.0859 -0.0127934 15.0177 0.0173355 14.9627C0.0654996 14.8747 0.136199 14.7583 0.168191 14.7683C1.70593 15.252 4.40564 12.6108 4.40564 12.6108L5.3891 13.5943C5.3891 13.5943 2.60789 16.1587 3.22981 17.8299Z" fill="#735458"/>
<path d="M3.22963 17.8299C3.24221 17.8633 3.1255 17.9345 3.03711 17.9828C2.98206 18.0129 2.91393 18.003 2.86959 17.9587L1.80176 16.8908C3.04597 14.5974 4.89066 13.1542 4.92304 13.1284L5.38893 13.5943C5.38893 13.5943 2.60771 16.1587 3.22963 17.8299Z" fill="#5C4346"/>
<path d="M13.3454 5.58091C13.8573 5.58091 14.2723 5.16591 14.2723 4.65398C14.2723 4.14205 13.8573 3.72705 13.3454 3.72705C12.8335 3.72705 12.4185 4.14205 12.4185 4.65398C12.4185 5.16591 12.8335 5.58091 13.3454 5.58091Z" fill="#FFDEA9"/>
<path d="M10.8849 8.04185C11.3969 8.04185 11.8119 7.62685 11.8119 7.11492C11.8119 6.60299 11.3969 6.18799 10.8849 6.18799C10.373 6.18799 9.95801 6.60299 9.95801 7.11492C9.95801 7.62685 10.373 8.04185 10.8849 8.04185Z" fill="#FFDEA9"/>
<path d="M8.424 10.5028C8.93593 10.5028 9.35093 10.0878 9.35093 9.57586C9.35093 9.06393 8.93593 8.64893 8.424 8.64893C7.91207 8.64893 7.49707 9.06393 7.49707 9.57586C7.49707 10.0878 7.91207 10.5028 8.424 10.5028Z" fill="#FFDEA9"/>
<path d="M16.3133 2.9294L15.0707 1.6868C15.0155 1.63164 15.0155 1.5422 15.0707 1.48704L16.051 0.506676C16.1062 0.451551 16.1956 0.451551 16.2507 0.506676L17.4933 1.74927C17.5485 1.80443 17.5485 1.89387 17.4933 1.94903L16.513 2.9294C16.4578 2.98456 16.3685 2.98456 16.3133 2.9294Z" fill="#FFDEA9"/>
<path d="M16.3131 2.92938L15.6768 2.29313L16.8568 1.11304L17.4931 1.74926C17.5482 1.80442 17.5482 1.89386 17.4931 1.94902L16.5127 2.92938C16.4576 2.98454 16.3682 2.98454 16.3131 2.92938Z" fill="#FFBF7B"/>
<path d="M5.21832 14.1554L3.84459 12.7816C3.78943 12.7265 3.78943 12.637 3.84459 12.5819L4.6283 11.7982C4.68342 11.7431 4.77282 11.7431 4.82795 11.7982L6.20168 13.1719C6.25684 13.2271 6.25684 13.3165 6.20168 13.3717L5.41798 14.1554C5.36282 14.2105 5.27345 14.2105 5.21832 14.1554Z" fill="#FFDEA9"/>
<path d="M5.21823 14.1552L4.55469 13.4917L5.53808 12.5083L6.20155 13.1718C6.25671 13.2269 6.25671 13.3164 6.20155 13.3715L5.41784 14.1552C5.36272 14.2104 5.27335 14.2104 5.21823 14.1552Z" fill="#FFBF7B"/>
</svg>
