<svg width="18" height="18" viewBox="0 0 18 18" fill="none" xmlns="http://www.w3.org/2000/svg">
<path d="M6.53427 17.065C5.1761 18.4232 2.83595 18.2856 1.30777 16.7574C1.19438 16.644 1.08881 16.5262 0.99106 16.4044C-0.232155 14.8878 -0.257155 12.7887 1.00038 11.5311C1.57331 10.9582 2.3211 10.6513 3.10856 10.603C3.55631 10.5756 3.93938 10.2655 4.05181 9.83123C4.1711 9.37051 4.40452 8.94358 4.75477 8.5933C5.8117 7.5364 7.44299 7.66426 8.71006 8.6854C8.83131 8.78312 8.94913 8.88869 9.06277 9.00237C10.3656 10.3052 10.6299 12.1528 9.47206 13.3106C9.12181 13.6609 8.69488 13.8943 8.23413 14.0136C7.79985 14.126 7.48977 14.5091 7.4621 14.9566C7.41413 15.7443 7.1072 16.4921 6.53427 17.065Z" fill="#A44F3E"/>
<path d="M5.86438 16.3951C4.60688 17.6526 2.50799 17.6279 0.991059 16.4044C-0.232155 14.8878 -0.257155 12.7887 1.00038 11.5311C1.57331 10.9582 2.3211 10.6513 3.10856 10.603C3.55631 10.5756 3.93938 10.2655 4.05181 9.83123C4.17109 9.37051 4.40452 8.94358 4.75477 8.5933C5.8117 7.5364 7.44299 7.66426 8.71006 8.6854C9.7312 9.95248 9.85906 11.5838 8.80217 12.6407C8.45192 12.9909 8.0252 13.2246 7.56424 13.3437C7.12995 13.4561 6.82013 13.8394 6.79242 14.2869C6.7442 15.0744 6.43731 15.8222 5.86438 16.3951V16.3951Z" fill="#BB5D4C"/>
<path d="M7.39909 11.975L6.0752 10.6511L13.8552 3.16504L14.8607 4.1705L7.39909 11.975Z" fill="#E19974"/>
<path d="M6.78673 11.3626L6.0752 10.6511L13.8552 3.16504L14.4198 3.72961L6.78673 11.3626Z" fill="#E8AD8C"/>
<path d="M4.51902 15.2362L2.8566 13.5738C2.7672 13.4844 2.7672 13.3394 2.8566 13.25L3.18142 12.9252C3.27081 12.8358 3.41577 12.8358 3.50517 12.9252L5.1676 14.5876C5.25699 14.677 5.25699 14.822 5.1676 14.9114L4.84277 15.2362C4.75338 15.3256 4.60842 15.3256 4.51902 15.2362Z" fill="#E5E1E5"/>
<path d="M7.08201 12.5698C6.63794 13.0139 5.91805 13.0136 5.47423 12.5698C5.37773 12.4733 5.30205 12.3638 5.24766 12.2467C5.05098 11.8257 5.12666 11.3096 5.47423 10.962C5.8218 10.6144 6.33787 10.5388 6.75894 10.7354C6.87601 10.7898 6.98551 10.8655 7.08201 10.962C7.52584 11.4059 7.52609 12.1257 7.08201 12.5698Z" fill="#465A61"/>
<path d="M6.5303 12.0195C6.94757 11.6022 7.049 11.0271 6.75684 10.735C6.46469 10.4428 5.8896 10.5442 5.47233 10.9615C5.05506 11.3788 4.95363 11.9539 5.24578 12.246C5.53794 12.5382 6.11303 12.4368 6.5303 12.0195Z" fill="#596C76"/>
<path d="M16.8752 2.3578L15.6677 1.1503C15.5489 1.03148 15.3549 1.03587 15.2416 1.15998L14.5787 1.88591C14.4732 2.00151 14.3836 2.13076 14.3125 2.27023L13.856 3.16559L14.8599 4.16955L15.7553 3.71298C15.8947 3.64187 16.024 3.55234 16.1396 3.44676L16.8655 2.78391C16.9897 2.67062 16.9941 2.47666 16.8752 2.3578V2.3578Z" fill="#A44F3E"/>
<path d="M16.4769 1.95944L15.6677 1.1503C15.5489 1.03148 15.3549 1.03587 15.2416 1.15998L14.5787 1.88591C14.4732 2.00151 14.3836 2.13076 14.3125 2.27023L13.856 3.16559L14.4616 3.77119L15.3569 3.31462C15.4964 3.24351 15.6257 3.15398 15.7412 3.04841L16.4672 2.38555C16.5914 2.27226 16.5957 2.0783 16.4769 1.95944V1.95944Z" fill="#BB5D4C"/>
<path d="M2.79275 14.398C2.72421 14.398 2.65564 14.3718 2.60336 14.3195C2.49875 14.2149 2.49875 14.0453 2.60336 13.9407L2.91357 13.6305C3.01818 13.5259 3.18779 13.5258 3.29236 13.6305C3.39696 13.7351 3.39696 13.9046 3.29236 14.0093L2.98214 14.3195C2.92982 14.3718 2.86129 14.398 2.79275 14.398Z" fill="#596C76"/>
<path d="M3.36746 14.9729C3.29892 14.9729 3.23035 14.9467 3.17806 14.8944C3.07346 14.7898 3.07346 14.6202 3.17806 14.5156L3.48831 14.2054C3.59292 14.1008 3.76253 14.1008 3.8671 14.2054C3.97171 14.31 3.97171 14.4796 3.8671 14.5842L3.55685 14.8944C3.50456 14.9467 3.43599 14.9729 3.36746 14.9729Z" fill="#596C76"/>
<path d="M3.96902 15.5742C3.90048 15.5742 3.83191 15.548 3.77963 15.4957C3.67502 15.3911 3.67502 15.2215 3.77963 15.1169L4.08984 14.8067C4.19445 14.7021 4.36406 14.7021 4.46863 14.8067C4.57323 14.9113 4.57323 15.0809 4.46863 15.1855L4.15841 15.4957C4.10613 15.548 4.03756 15.5742 3.96902 15.5742V15.5742Z" fill="#596C76"/>
<path d="M15.7948 5.13018C15.9709 5.13018 16.1136 4.98747 16.1136 4.81143C16.1136 4.63539 15.9709 4.49268 15.7948 4.49268C15.6188 4.49268 15.4761 4.63539 15.4761 4.81143C15.4761 4.98747 15.6188 5.13018 15.7948 5.13018Z" fill="#7A8C98"/>
<path d="M16.7133 4.47539C16.8893 4.47539 17.032 4.33268 17.032 4.15664C17.032 3.9806 16.8893 3.83789 16.7133 3.83789C16.5372 3.83789 16.3945 3.9806 16.3945 4.15664C16.3945 4.33268 16.5372 4.47539 16.7133 4.47539Z" fill="#7A8C98"/>
<path d="M17.6156 3.6624C17.7917 3.6624 17.9344 3.51969 17.9344 3.34365C17.9344 3.16761 17.7917 3.0249 17.6156 3.0249C17.4396 3.0249 17.2969 3.16761 17.2969 3.34365C17.2969 3.51969 17.4396 3.6624 17.6156 3.6624Z" fill="#7A8C98"/>
<path d="M13.1229 2.45806C13.299 2.45806 13.4417 2.31535 13.4417 2.13931C13.4417 1.96327 13.299 1.82056 13.1229 1.82056C12.9469 1.82056 12.8042 1.96327 12.8042 2.13931C12.8042 2.31535 12.9469 2.45806 13.1229 2.45806Z" fill="#7A8C98"/>
<path d="M13.7777 1.53984C13.9538 1.53984 14.0965 1.39713 14.0965 1.22109C14.0965 1.04505 13.9538 0.902344 13.7777 0.902344C13.6017 0.902344 13.459 1.04505 13.459 1.22109C13.459 1.39713 13.6017 1.53984 13.7777 1.53984Z" fill="#7A8C98"/>
<path d="M14.5907 0.6375C14.7668 0.6375 14.9095 0.494791 14.9095 0.31875C14.9095 0.142709 14.7668 0 14.5907 0C14.4147 0 14.272 0.142709 14.272 0.31875C14.272 0.494791 14.4147 0.6375 14.5907 0.6375Z" fill="#7A8C98"/>
</svg>
