<svg width="14" height="18" viewBox="0 0 14 18" fill="none" xmlns="http://www.w3.org/2000/svg">
<path d="M8.96918 16.5684H8.40176H5.58514H5.01772C4.86771 16.5684 4.74609 16.6899 4.74609 16.84C4.74609 16.99 4.86771 17.1116 5.01772 17.1116H5.58514H8.40176H8.96918C9.11919 17.1116 9.24081 16.99 9.24081 16.84C9.24081 16.6899 9.11919 16.5684 8.96918 16.5684Z" fill="#D7D0D6"/>
<path d="M6.62413 14.5085H5.84723C5.78693 14.5085 5.73029 14.5374 5.6949 14.5862L3.43418 17.7011C3.34386 17.8255 3.43277 17.9999 3.58651 17.9999H4.36341C4.42371 17.9999 4.48036 17.9711 4.51578 17.9222L6.7765 14.8074C6.86682 14.6829 6.77791 14.5085 6.62413 14.5085Z" fill="#596C76"/>
<path d="M7.3629 14.5085H8.1398C8.2001 14.5085 8.25675 14.5374 8.29217 14.5862L10.5529 17.7011C10.6432 17.8255 10.5543 17.9999 10.4006 17.9999H9.62366C9.56336 17.9999 9.50671 17.9711 9.47129 17.9222L7.21057 14.8074C7.12021 14.6829 7.20912 14.5085 7.3629 14.5085Z" fill="#596C76"/>
<path d="M6.99331 17.1117C6.8433 17.1117 6.72168 16.9901 6.72168 16.84V9.34951C6.72168 9.19946 6.8433 9.07788 6.99331 9.07788C7.14332 9.07788 7.26494 9.19946 7.26494 9.34951V16.84C7.26494 16.9901 7.14332 17.1117 6.99331 17.1117Z" fill="#E5E1E5"/>
<path d="M8.97378 9.34948H5.08252L5.3556 8.04565H8.7007L8.97378 9.34948Z" fill="#596C76"/>
<path d="M7.40756 9.34948H5.08252L5.3556 8.04565H7.13448L7.40756 9.34948Z" fill="#7A8C98"/>
<path d="M5.82979 2.68149L5.60018 1.8264L3.11933 1.44043L0.638405 1.8264L0.40915 2.68149C-0.00445183 4.22109 -0.0497236 5.83638 0.277319 7.39662L0.939733 10.5591L1.05237 11.0966L1.50183 13.2428C1.57173 13.5528 1.84734 13.773 2.16533 13.773H4.07362C4.39124 13.773 4.66686 13.5528 4.73712 13.2428L5.18657 11.0966L5.29921 10.5591L5.96162 7.39662C6.2883 5.83638 6.24303 4.22109 5.82979 2.68149Z" fill="#D8AA5E"/>
<path d="M3.8457 13.2428L4.29516 11.0966L4.40779 10.5591L5.07021 7.39664C5.39689 5.8364 5.35162 4.2211 4.93838 2.68151L4.70876 1.82642L2.77787 1.55493L0.638405 1.82642L0.40915 2.68151C-0.00445183 4.2211 -0.0497236 5.8364 0.277319 7.39664L0.939733 10.5591L1.05237 11.0966L1.50183 13.2428C1.57173 13.5529 1.84734 13.7731 2.16533 13.7731H3.1822C3.49983 13.7731 3.77544 13.5529 3.8457 13.2428Z" fill="#E9B665"/>
<path d="M6.09717 1.37003C6.09717 1.6221 5.88349 1.82673 5.61947 1.82673H0.619308C0.355284 1.82673 0.141602 1.6221 0.141602 1.37003V1.36967C0.141602 1.1176 0.355284 0.91333 0.618945 0.91333H5.61947C5.88349 0.91333 6.09717 1.11796 6.09717 1.37003Z" fill="#D7D0D6"/>
<path d="M5.15552 1.37003C5.15552 1.6221 4.94184 1.82673 4.67782 1.82673H0.619308C0.355284 1.82673 0.141602 1.6221 0.141602 1.37003V1.36967C0.141602 1.1176 0.355284 0.91333 0.618945 0.91333H4.67782C4.94184 0.91333 5.15552 1.11796 5.15552 1.37003Z" fill="#E5E1E5"/>
<path d="M5.47506 0.9134H0.763184C0.763184 0.661328 0.870024 0.432797 1.04314 0.267646C1.2159 0.102133 1.45493 0 1.7186 0H4.51964C5.04733 0 5.47506 0.408893 5.47506 0.9134Z" fill="#FEDBA6"/>
<path d="M4.5334 0.9134H0.763184C0.763184 0.661328 0.870024 0.432797 1.04314 0.267646C1.2159 0.102133 1.45493 0 1.7186 0H3.57799C4.10568 0 4.5334 0.408893 4.5334 0.9134Z" fill="#FFF9EE"/>
<path d="M2.35565 3.18945H1.55684C1.47477 3.18945 1.4082 3.25598 1.4082 3.33809V4.46687C1.4082 4.54894 1.47473 4.61551 1.55684 4.61551H2.35561C2.43768 4.61551 2.50425 4.54898 2.50425 4.46687V3.33809C2.50425 3.25598 2.43772 3.18945 2.35565 3.18945Z" fill="#E5E1E5"/>
<path d="M4.68133 3.18945H3.88252C3.80045 3.18945 3.73389 3.25598 3.73389 3.33809V4.46687C3.73389 4.54894 3.80042 4.61551 3.88252 4.61551H4.68129C4.76336 4.61551 4.82993 4.54898 4.82993 4.46687V3.33809C4.82993 3.25598 4.7634 3.18945 4.68133 3.18945Z" fill="#E5E1E5"/>
<path d="M1.9562 3.46098C1.80619 3.46098 1.68457 3.33939 1.68457 3.18935V1.82656C1.68457 1.67651 1.80619 1.55493 1.9562 1.55493C2.10621 1.55493 2.22783 1.67651 2.22783 1.82656V3.18935C2.22783 3.33936 2.10621 3.46098 1.9562 3.46098Z" fill="#596C76"/>
<path d="M4.28237 3.46073C4.13236 3.46073 4.01074 3.33915 4.01074 3.1891V1.82632C4.01074 1.67627 4.13236 1.55469 4.28237 1.55469C4.43238 1.55469 4.554 1.67627 4.554 1.82632V3.1891C4.554 3.33911 4.43238 3.46073 4.28237 3.46073Z" fill="#596C76"/>
<path d="M5.29942 10.5592L5.18678 11.0967H4.7855C4.62831 11.0967 4.47548 11.0779 4.32916 11.0424C3.81632 10.9182 3.3828 10.5897 3.1195 10.1478C2.78123 10.7157 2.16119 11.0967 1.4535 11.0967H1.05258L0.939941 10.5592C0.95805 10.5553 0.976521 10.5534 0.995716 10.5534H1.4535C2.2224 10.5534 2.84787 9.92797 2.84787 9.15908C2.84787 9.00914 2.96956 8.88745 3.1195 8.88745C3.26944 8.88745 3.39113 9.00914 3.39113 9.15908C3.39113 9.80882 3.83769 10.3561 4.44034 10.5103C4.55081 10.5386 4.66634 10.5534 4.7855 10.5534H5.24364C5.26284 10.5534 5.28131 10.5553 5.29942 10.5592Z" fill="#FD4755"/>
<path d="M5.24333 10.5533H4.78518C4.66602 10.5533 4.55049 10.5385 4.44003 10.5102C4.433 10.5084 4.42612 10.5063 4.41913 10.5044L4.40769 10.5591L4.30762 11.0365C4.31472 11.0383 4.32171 11.0405 4.32884 11.0423C4.47516 11.0778 4.628 11.0966 4.78518 11.0966H5.18647L5.2991 10.5591C5.28099 10.5551 5.26252 10.5533 5.24333 10.5533Z" fill="#E41F2D"/>
<path d="M13.591 2.68149L13.3614 1.8264L10.8806 1.44043L8.39964 1.8264L8.17038 2.68149C7.75678 4.22109 7.71151 5.83638 8.03855 7.39662L8.70096 10.5591L8.8136 11.0966L9.26306 13.2428C9.33296 13.5528 9.60857 13.773 9.92656 13.773H11.8348C12.1525 13.773 12.4281 13.5528 12.4983 13.2428L12.9478 11.0966L13.0604 10.5591L13.7229 7.39662C14.0495 5.83638 14.0043 4.22109 13.591 2.68149Z" fill="#D8AA5E"/>
<path d="M11.6069 13.2428L12.0564 11.0966L12.169 10.5591L12.8314 7.39664C13.1581 5.8364 13.1128 4.2211 12.6996 2.68151L12.47 1.82642L10.5391 1.55493L8.39964 1.82642L8.17038 2.68151C7.75678 4.2211 7.71151 5.8364 8.03855 7.39664L8.70096 10.5591L8.8136 11.0966L9.26306 13.2428C9.33296 13.5529 9.60857 13.7731 9.92656 13.7731H10.9434C11.2611 13.7731 11.5367 13.5529 11.6069 13.2428Z" fill="#E9B665"/>
<path d="M13.8584 1.37003C13.8584 1.6221 13.6447 1.82673 13.3807 1.82673H8.38054C8.11651 1.82673 7.90283 1.6221 7.90283 1.37003V1.36967C7.90283 1.1176 8.11651 0.91333 8.38018 0.91333H13.3807C13.6447 0.91333 13.8584 1.11796 13.8584 1.37003Z" fill="#D7D0D6"/>
<path d="M12.9168 1.37003C12.9168 1.6221 12.7031 1.82673 12.439 1.82673H8.38054C8.11651 1.82673 7.90283 1.6221 7.90283 1.37003V1.36967C7.90283 1.1176 8.11651 0.91333 8.38018 0.91333H12.439C12.7031 0.91333 12.9168 1.11796 12.9168 1.37003Z" fill="#E5E1E5"/>
<path d="M13.2363 0.9134H8.52441C8.52441 0.661328 8.63125 0.432797 8.80437 0.267646C8.97713 0.102133 9.21616 0 9.47983 0H12.2809C12.8086 0 13.2363 0.408893 13.2363 0.9134Z" fill="#FEDBA6"/>
<path d="M12.2946 0.9134H8.52441C8.52441 0.661328 8.63125 0.432797 8.80437 0.267646C8.97713 0.102133 9.21616 0 9.47983 0H11.3392C11.8669 0 12.2946 0.408893 12.2946 0.9134Z" fill="#FFF9EE"/>
<path d="M10.1168 3.18945H9.31807C9.236 3.18945 9.16943 3.25598 9.16943 3.33809V4.46687C9.16943 4.54894 9.23596 4.61551 9.31807 4.61551H10.1168C10.1989 4.61551 10.2655 4.54898 10.2655 4.46687V3.33809C10.2655 3.25598 10.1989 3.18945 10.1168 3.18945Z" fill="#E5E1E5"/>
<path d="M12.4425 3.18945H11.6438C11.5617 3.18945 11.4951 3.25598 11.4951 3.33809V4.46687C11.4951 4.54894 11.5616 4.61551 11.6438 4.61551H12.4425C12.5246 4.61551 12.5912 4.54898 12.5912 4.46687V3.33809C12.5912 3.25598 12.5246 3.18945 12.4425 3.18945Z" fill="#E5E1E5"/>
<path d="M9.71743 3.46098C9.56742 3.46098 9.4458 3.33939 9.4458 3.18935V1.82656C9.4458 1.67651 9.56742 1.55493 9.71743 1.55493C9.86744 1.55493 9.98906 1.67651 9.98906 1.82656V3.18935C9.98906 3.33936 9.86744 3.46098 9.71743 3.46098Z" fill="#596C76"/>
<path d="M12.0436 3.46098C11.8936 3.46098 11.772 3.33939 11.772 3.18935V1.82656C11.772 1.67651 11.8936 1.55493 12.0436 1.55493C12.1936 1.55493 12.3152 1.67651 12.3152 1.82656V3.18935C12.3152 3.33936 12.1936 3.46098 12.0436 3.46098Z" fill="#596C76"/>
<path d="M13.0606 10.5592L12.948 11.0967H12.5467C12.3895 11.0967 12.2367 11.0779 12.0904 11.0424C11.5775 10.9182 11.144 10.5897 10.8807 10.1478C10.5425 10.7157 9.92242 11.0967 9.21473 11.0967H8.81381L8.70117 10.5592C8.71928 10.5553 8.73775 10.5534 8.75695 10.5534H9.21473C9.98363 10.5534 10.6091 9.92797 10.6091 9.15908C10.6091 9.00914 10.7308 8.88745 10.8807 8.88745C11.0307 8.88745 11.1524 9.00914 11.1524 9.15908C11.1524 9.80882 11.5989 10.3561 12.2016 10.5103C12.312 10.5386 12.4276 10.5534 12.5467 10.5534H13.0049C13.0241 10.5534 13.0425 10.5553 13.0606 10.5592Z" fill="#FD4755"/>
<path d="M13.0046 10.5533H12.5464C12.4273 10.5533 12.3117 10.5385 12.2013 10.5102C12.1942 10.5084 12.1874 10.5063 12.1804 10.5044L12.1689 10.5591L12.0688 11.0365C12.0759 11.0383 12.0829 11.0405 12.0901 11.0423C12.2364 11.0778 12.3892 11.0966 12.5464 11.0966H12.9477L13.0603 10.5591C13.0422 10.5551 13.0238 10.5533 13.0046 10.5533Z" fill="#E41F2D"/>
</svg>
