<svg width="16" height="16" viewBox="0 0 16 16" fill="none" xmlns="http://www.w3.org/2000/svg">
<path d="M9.125 15.875C12.8529 15.875 15.875 12.8529 15.875 9.125C15.875 5.39708 12.8529 2.375 9.125 2.375C5.39708 2.375 2.375 5.39708 2.375 9.125C2.375 12.8529 5.39708 15.875 9.125 15.875Z" fill="#F88B58"/>
<path d="M6.875 13.625C10.6029 13.625 13.625 10.6029 13.625 6.875C13.625 3.14708 10.6029 0.125 6.875 0.125C3.14708 0.125 0.125 3.14708 0.125 6.875C0.125 10.6029 3.14708 13.625 6.875 13.625Z" fill="#FFB643"/>
<path d="M6.875 9.125C8.11764 9.125 9.125 8.11764 9.125 6.875C9.125 5.63236 8.11764 4.625 6.875 4.625C5.63236 4.625 4.625 5.63236 4.625 6.875C4.625 8.11764 5.63236 9.125 6.875 9.125Z" fill="#A55523"/>
<path d="M4.90625 7.15625C5.06157 7.15625 5.1875 7.03032 5.1875 6.875C5.1875 5.94452 5.94452 5.1875 6.875 5.1875C7.03032 5.1875 7.15625 5.06157 7.15625 4.90625C7.15625 4.75093 7.03032 4.625 6.875 4.625C5.63237 4.625 4.625 5.63237 4.625 6.875C4.625 7.03032 4.75093 7.15625 4.90625 7.15625Z" fill="#D26E28"/>
<path d="M6.03125 7.15625C5.87593 7.15625 5.75 7.03032 5.75 6.875C5.75 6.25467 6.25467 5.75 6.875 5.75C7.03032 5.75 7.15625 5.87593 7.15625 6.03125C7.15625 6.18657 7.03032 6.3125 6.875 6.3125C6.56485 6.3125 6.3125 6.56485 6.3125 6.875C6.3125 7.03032 6.18657 7.15625 6.03125 7.15625Z" fill="#D26E28"/>
<path d="M0.40625 7.15625C0.56157 7.15625 0.6875 7.03032 0.6875 6.875C0.6875 3.46319 3.46319 0.6875 6.875 0.6875C7.03032 0.6875 7.15625 0.56157 7.15625 0.40625C7.15625 0.25093 7.03032 0.125 6.875 0.125C3.14707 0.125 0.125 3.14707 0.125 6.875C0.125 7.03032 0.25093 7.15625 0.40625 7.15625Z" fill="#FFD721"/>
<path d="M1.53125 7.15625C1.37593 7.15625 1.25 7.03032 1.25 6.875C1.25 3.77338 3.77338 1.25 6.875 1.25C7.03032 1.25 7.15625 1.37593 7.15625 1.53125C7.15625 1.68657 7.03032 1.8125 6.875 1.8125C4.08352 1.8125 1.8125 4.08352 1.8125 6.875C1.8125 7.03032 1.68657 7.15625 1.53125 7.15625Z" fill="#FFD721"/>
<path d="M2.65625 7.15625C2.50093 7.15625 2.375 7.03032 2.375 6.875C2.375 4.39367 4.39367 2.375 6.875 2.375C7.03032 2.375 7.15625 2.50093 7.15625 2.65625C7.15625 2.81157 7.03032 2.9375 6.875 2.9375C4.70386 2.9375 2.9375 4.70386 2.9375 6.875C2.9375 7.03032 2.81157 7.15625 2.65625 7.15625Z" fill="#FFD721"/>
<path d="M3.78125 7.15625C3.62593 7.15625 3.5 7.03032 3.5 6.875C3.5 5.014 5.014 3.5 6.875 3.5C7.03032 3.5 7.15625 3.62593 7.15625 3.78125C7.15625 3.93657 7.03032 4.0625 6.875 4.0625C5.32419 4.0625 4.0625 5.32419 4.0625 6.875C4.0625 7.03032 3.93657 7.15625 3.78125 7.15625Z" fill="#FFD721"/>
<path d="M13.625 6.875C13.625 6.71968 13.4991 6.59375 13.3438 6.59375C13.1884 6.59375 13.0625 6.71968 13.0625 6.875C13.0625 10.2868 10.2868 13.0625 6.875 13.0625C6.71968 13.0625 6.59375 13.1884 6.59375 13.3438C6.59375 13.4991 6.71968 13.625 6.875 13.625C10.6029 13.625 13.625 10.6029 13.625 6.875Z" fill="#FFD721"/>
<path d="M6.875 12.5C6.71968 12.5 6.59375 12.3741 6.59375 12.2188C6.59375 12.0634 6.71968 11.9375 6.875 11.9375C9.66648 11.9375 11.9375 9.66648 11.9375 6.875C11.9375 6.71968 12.0634 6.59375 12.2188 6.59375C12.3741 6.59375 12.5 6.71968 12.5 6.875C12.5 9.97662 9.97666 12.5 6.875 12.5Z" fill="#FFD721"/>
<path d="M6.875 11.375C6.71968 11.375 6.59375 11.2491 6.59375 11.0938C6.59375 10.9384 6.71968 10.8125 6.875 10.8125C9.04614 10.8125 10.8125 9.04614 10.8125 6.875C10.8125 6.71968 10.9384 6.59375 11.0938 6.59375C11.2491 6.59375 11.375 6.71968 11.375 6.875C11.375 9.35633 9.35629 11.375 6.875 11.375Z" fill="#FFD721"/>
<path d="M6.875 10.25C6.71968 10.25 6.59375 10.1241 6.59375 9.96875C6.59375 9.81343 6.71968 9.6875 6.875 9.6875C8.42581 9.6875 9.6875 8.42581 9.6875 6.875C9.6875 6.71968 9.81343 6.59375 9.96875 6.59375C10.1241 6.59375 10.25 6.71968 10.25 6.875C10.25 8.736 8.736 10.25 6.875 10.25Z" fill="#FFD721"/>
<path d="M6.875 7.4375C7.18566 7.4375 7.4375 7.18566 7.4375 6.875C7.4375 6.56434 7.18566 6.3125 6.875 6.3125C6.56434 6.3125 6.3125 6.56434 6.3125 6.875C6.3125 7.18566 6.56434 7.4375 6.875 7.4375Z" fill="#784119"/>
</svg>
