<svg width="18" height="18" viewBox="0 0 18 18" fill="none" xmlns="http://www.w3.org/2000/svg">
<path d="M18 14.8966H0V1.08714C0 0.486621 0.486621 0 1.08714 0H16.9129C17.5134 0 18 0.486621 18 1.08714V14.8966Z" fill="#D1D1D1"/>
<path d="M0 14.8965V16.9128C0 17.5133 0.486621 17.9999 1.08714 17.9999H16.9129C17.5134 17.9999 18 17.5133 18 16.9128V14.8965H0Z" fill="#556080"/>
<path d="M7.44819 14.2758C11.219 14.2758 14.2758 11.219 14.2758 7.44819C14.2758 3.67742 11.219 0.620605 7.44819 0.620605C3.67742 0.620605 0.620605 3.67742 0.620605 7.44819C0.620605 11.219 3.67742 14.2758 7.44819 14.2758Z" fill="#2C2F38"/>
<path d="M11.8885 10.8199L13.354 9.35449C13.5476 8.75366 13.655 8.11373 13.655 7.44835C13.655 4.02028 10.8762 1.24146 7.44811 1.24146C4.02004 1.24146 1.24121 4.02028 1.24121 7.44835C1.24121 10.8764 4.02004 13.6552 7.44811 13.6552C9.43463 13.6552 11.1989 12.7183 12.3348 11.2665L11.8885 10.8199Z" fill="#35495E"/>
<path d="M1.55156 17.069L1.24121 16.7587V16.138L1.55156 15.8276H2.17225L2.48259 16.138V16.7587L2.17225 17.069H1.55156Z" fill="white"/>
<path d="M3.72392 17.069L3.41357 16.7587V16.138L3.72392 15.8276H4.34461L4.65495 16.138V16.7587L4.34461 17.069H3.72392Z" fill="white"/>
<path d="M5.89677 17.069L5.58643 16.7587V16.138L5.89677 15.8276H6.51746L6.82781 16.138V16.7587L6.51746 17.069H5.89677Z" fill="white"/>
<path d="M8.06913 17.069L7.75879 16.7587V16.138L8.06913 15.8276H8.68982L9.00017 16.138V16.7587L8.68982 17.069H8.06913Z" fill="white"/>
<path d="M15.8274 14.2759C15.6558 14.2759 15.5171 14.1369 15.5171 13.9656V12.4139C15.5171 12.2426 15.6558 12.1035 15.8274 12.1035C15.9991 12.1035 16.1378 12.2426 16.1378 12.4139V13.9656C16.1378 14.1369 15.9991 14.2759 15.8274 14.2759Z" fill="#556080"/>
<path d="M15.8274 11.7932C15.6558 11.7932 15.5171 11.6541 15.5171 11.4828V10.5518C15.5171 10.3805 15.6558 10.2415 15.8274 10.2415C15.9991 10.2415 16.1378 10.3805 16.1378 10.5518V11.4828C16.1378 11.6541 15.9991 11.7932 15.8274 11.7932Z" fill="#556080"/>
<path d="M15.8275 3.10352C16.3417 3.10352 16.7586 2.68669 16.7586 2.17249C16.7586 1.65829 16.3417 1.24146 15.8275 1.24146C15.3133 1.24146 14.8965 1.65829 14.8965 2.17249C14.8965 2.68669 15.3133 3.10352 15.8275 3.10352Z" fill="#556080"/>
<path d="M7.44838 4.65527C5.90565 4.65527 4.65527 5.90565 4.65527 7.44838C4.65527 8.9911 5.90565 10.2415 7.44838 10.2415C8.9911 10.2415 10.2415 8.9911 10.2415 7.44838C10.2415 5.90565 8.9911 4.65527 7.44838 4.65527ZM7.44838 8.68976C6.76283 8.68976 6.207 8.13393 6.207 7.44838C6.207 6.76283 6.76283 6.207 7.44838 6.207C8.13393 6.207 8.68976 6.76283 8.68976 7.44838C8.68976 8.13393 8.13393 8.68976 7.44838 8.68976Z" fill="#F3D55B"/>
<path d="M16.7586 11.4827H14.8965V12.4137H16.7586V11.4827Z" fill="white"/>
<path d="M13.8638 9.72243L15.8276 7.75857V2.17236" fill="black"/>
<path d="M13.8638 9.72243L15.8276 7.75857V2.17236" stroke="#464F5D" stroke-width="0.62069" stroke-miterlimit="10" stroke-linecap="round"/>
<path d="M14.3026 10.1615L13.4248 9.28369L11.8887 10.8198L12.7665 11.6976L14.3026 10.1615Z" fill="white"/>
<path d="M7.44841 8.68955C8.13401 8.68955 8.68979 8.13376 8.68979 7.44817C8.68979 6.76257 8.13401 6.20679 7.44841 6.20679C6.76282 6.20679 6.20703 6.76257 6.20703 7.44817C6.20703 8.13376 6.76282 8.68955 7.44841 8.68955Z" fill="#2C2F38"/>
</svg>
