<svg width="14" height="18" viewBox="0 0 14 18" fill="none" xmlns="http://www.w3.org/2000/svg">
<path d="M12.9548 1.06299V1.63231C12.9548 2.31937 11.6971 7.05361 10.6173 8.1347H3.38288C2.30313 7.05361 1.04541 2.31937 1.04541 1.63231V1.06299H12.9548Z" fill="#A66856"/>
<path d="M11.8514 1.06299V1.63231C11.8514 2.31937 11.4477 4.34697 10.0684 8.1347H10.6172C11.697 7.05361 12.9547 2.31937 12.9547 1.63231V1.06299H11.8514Z" fill="#8F5040"/>
<path d="M11.353 18H2.64718C2.55655 18 2.48824 17.9141 2.50497 17.8212L4.01177 9.45703H9.98844L11.4952 17.8212C11.5119 17.9141 11.4436 18 11.353 18Z" fill="#735458"/>
<path d="M11.4953 17.8212L9.98849 9.45703H8.90332L10.4101 17.8212C10.4268 17.9141 10.3585 18 10.2679 18H11.353C11.4437 18 11.512 17.9141 11.4953 17.8212Z" fill="#5C4346"/>
<path d="M4.7275 8.49006C4.62098 8.49006 4.52064 8.42502 4.48077 8.31948C3.22004 4.981 2.98491 2.02148 2.9827 1.99198C2.97173 1.84682 3.0805 1.72026 3.2257 1.70926C3.37103 1.69829 3.49752 1.80706 3.50853 1.95222C3.51074 1.98102 3.74147 4.8691 4.97412 8.13315C5.02555 8.26938 4.95682 8.42154 4.82059 8.47297C4.78997 8.48457 4.75847 8.49006 4.7275 8.49006Z" fill="#735458"/>
<path d="M6.14976 8.49003C6.01701 8.49003 5.90279 8.39008 5.88799 8.25508C5.52904 4.98186 5.48576 2.00536 5.48538 1.97568C5.48341 1.83007 5.59992 1.7105 5.7455 1.70853C5.74666 1.70853 5.74785 1.7085 5.74908 1.7085C5.89308 1.7085 6.01072 1.82423 6.01265 1.96865C6.01307 1.99808 6.0561 4.95054 6.41217 8.1976C6.42806 8.34234 6.32354 8.47256 6.1788 8.48841C6.16903 8.48954 6.15932 8.49003 6.14976 8.49003Z" fill="#735458"/>
<path d="M9.32716 8.49007C9.29619 8.49007 9.26473 8.48459 9.23407 8.47299C9.09784 8.42155 9.02911 8.2694 9.08054 8.13317C10.3132 4.86912 10.544 1.98103 10.5461 1.95224C10.5571 1.80705 10.6834 1.69817 10.829 1.70928C10.9742 1.72028 11.0829 1.84684 11.072 1.992C11.0698 2.0215 10.8346 4.98102 9.57389 8.31949C9.53402 8.42503 9.43369 8.49007 9.32716 8.49007Z" fill="#735458"/>
<path d="M7.90512 8.49005C7.89555 8.49005 7.88582 8.48952 7.87608 8.48847C7.73134 8.47261 7.62682 8.34239 7.64271 8.19765C7.99895 4.94929 8.0418 1.99813 8.04219 1.9687C8.04412 1.82309 8.16394 1.70567 8.30934 1.70855C8.45496 1.71048 8.57143 1.83012 8.56946 1.9757C8.56908 2.00537 8.52584 4.98188 8.16689 8.2551C8.15209 8.3901 8.03783 8.49005 7.90512 8.49005Z" fill="#735458"/>
<path d="M13.2578 2.06437C12.6321 2.06437 12.6321 1.55732 12.0063 1.55732C11.3805 1.55732 11.3805 2.06437 10.7547 2.06437C10.129 2.06437 10.129 1.55732 9.50337 1.55732C8.87766 1.55732 8.87766 2.06437 8.25198 2.06437C7.6262 2.06437 7.6262 1.55732 7.00046 1.55732C6.37468 1.55732 6.37468 2.06437 5.74889 2.06437C5.12308 2.06437 5.12308 1.55732 4.49726 1.55732C3.87148 1.55732 3.87148 2.06437 3.2457 2.06437C2.61981 2.06437 2.61981 1.55732 1.99396 1.55732C1.36811 1.55732 1.36807 2.06437 0.742188 2.06437V0.36218C0.742188 0.162141 0.904152 0 1.10391 0H12.8961C13.0958 0 13.2578 0.162141 13.2578 0.36218V2.06437Z" fill="#FFDEA9"/>
<path d="M12.8962 0H11.811C12.0108 0 12.1728 0.162141 12.1728 0.36218V1.57103C12.638 1.65161 12.6932 2.06437 13.2579 2.06437V0.36218C13.2579 0.162141 13.096 0 12.8962 0Z" fill="#FFBF7B"/>
<path d="M10.6572 9.80075H3.34229C3.26462 9.80075 3.20166 9.73779 3.20166 9.66013V8.27539C3.20166 8.19773 3.26462 8.13477 3.34229 8.13477H10.6572C10.7349 8.13477 10.7978 8.19773 10.7978 8.27539V9.66013C10.7979 9.73779 10.7349 9.80075 10.6572 9.80075Z" fill="#FFDEA9"/>
<path d="M10.6574 9.80075H9.71289V8.13477H10.6574C10.7351 8.13477 10.7981 8.19773 10.7981 8.27539V9.66013C10.7981 9.73779 10.7351 9.80075 10.6574 9.80075Z" fill="#FFBF7B"/>
</svg>
