<svg width="18" height="16" viewBox="0 0 18 16" fill="none" xmlns="http://www.w3.org/2000/svg">
<path d="M6.82551 12.6898C6.70264 12.6115 6.53969 12.6477 6.46146 12.7705L5.48173 14.3088C5.40351 14.4317 5.43968 14.5947 5.56248 14.6729C5.60639 14.7008 5.6554 14.7142 5.70385 14.7142C5.79096 14.7142 5.87625 14.671 5.92649 14.5921L6.90623 13.0538C6.98448 12.931 6.94834 12.768 6.82551 12.6898Z" fill="#B8B6B1"/>
<path d="M11.5384 12.7705C11.4601 12.6477 11.2972 12.6115 11.1743 12.6897C11.0515 12.768 11.0153 12.931 11.0936 13.0538L12.0733 14.5921C12.1236 14.671 12.2088 14.7142 12.2959 14.7142C12.3444 14.7142 12.3934 14.7008 12.4373 14.6729C12.5601 14.5947 12.5963 14.4317 12.5181 14.3088L11.5384 12.7705Z" fill="#B8B6B1"/>
<path d="M3.2517 12.8619V0.880859C3.2517 0.735242 3.13365 0.617188 2.98803 0.617188C2.84241 0.617188 2.72436 0.735242 2.72436 0.880859V12.8619L1.59205 14.2674C1.50068 14.3808 1.51857 14.5468 1.63195 14.6381C1.74529 14.7295 1.91134 14.7116 2.00267 14.5982L2.72432 13.7024V14.4328C2.72432 14.5784 2.84238 14.6965 2.988 14.6965C3.13361 14.6965 3.25167 14.5784 3.25167 14.4328V13.7024L3.97332 14.5982C4.02542 14.6628 4.10175 14.6965 4.17881 14.6965C4.23689 14.6965 4.29532 14.6774 4.34408 14.6381C4.45749 14.5467 4.47535 14.3808 4.38398 14.2674L3.2517 12.8619Z" fill="#B8B6B1"/>
<path d="M16.4079 14.2674L15.2756 12.8619V0.880859C15.2756 0.735242 15.1576 0.617188 15.012 0.617188C14.8663 0.617188 14.7483 0.735242 14.7483 0.880859V12.8619L13.616 14.2674C13.5246 14.3808 13.5425 14.5468 13.6559 14.6381C13.7692 14.7295 13.9353 14.7116 14.0266 14.5982L14.7482 13.7024V14.4328C14.7482 14.5784 14.8663 14.6965 15.0119 14.6965C15.1575 14.6965 15.2756 14.5784 15.2756 14.4328V13.7024L15.9972 14.5982C16.0493 14.6628 16.1257 14.6965 16.2027 14.6965C16.2608 14.6965 16.3192 14.6774 16.368 14.6381C16.4814 14.5468 16.4993 14.3808 16.4079 14.2674Z" fill="#B8B6B1"/>
<path d="M17.8594 15.3827H0.140625C0.0629648 15.3827 0 15.3197 0 15.2421V14.437C0 14.3594 0.0629648 14.2964 0.140625 14.2964H17.8594C17.937 14.2964 18 14.3594 18 14.437V15.2421C18 15.3197 17.937 15.3827 17.8594 15.3827Z" fill="#595959"/>
<path d="M17.8595 15.3827H16.9136V14.2964H17.8595C17.9371 14.2964 18.0001 14.3594 18.0001 14.437V15.2421C18.0001 15.3197 17.9371 15.3827 17.8595 15.3827Z" fill="#464646"/>
<path d="M7.01227 7.70614H2.65771C2.58005 7.70614 2.51709 7.64318 2.51709 7.56552V4.15747H7.1529V7.56552C7.1529 7.64318 7.08993 7.70614 7.01227 7.70614Z" fill="#A66856"/>
<path d="M7.01229 7.70614H6.06641V4.15747H7.15291V7.56552C7.15291 7.64318 7.08995 7.70614 7.01229 7.70614Z" fill="#8F5040"/>
<path d="M7.22962 4.59196H2.44043C2.36277 4.59196 2.2998 4.529 2.2998 4.45134V3.86353C2.2998 3.78587 2.36277 3.7229 2.44043 3.7229H7.22959C7.30725 3.7229 7.37021 3.78587 7.37021 3.86353V4.45134C7.37025 4.529 7.30729 4.59196 7.22962 4.59196Z" fill="#FFDEA9"/>
<path d="M15.3424 7.70614H10.9878C10.9101 7.70614 10.8472 7.64318 10.8472 7.56552V4.15747H15.483V7.56552C15.483 7.64318 15.42 7.70614 15.3424 7.70614Z" fill="#A66856"/>
<path d="M15.3424 7.70614H14.3965V4.15747H15.483V7.56552C15.483 7.64318 15.4201 7.70614 15.3424 7.70614Z" fill="#8F5040"/>
<path d="M15.5597 4.59196H10.7705C10.6928 4.59196 10.6299 4.529 10.6299 4.45134V3.86353C10.6299 3.78587 10.6928 3.7229 10.7705 3.7229H15.5597C15.6373 3.7229 15.7003 3.78587 15.7003 3.86353V4.45134C15.7003 4.529 15.6374 4.59196 15.5597 4.59196Z" fill="#FFDEA9"/>
<path d="M7.22957 4.59196H6.28369V3.7229H7.22957C7.30723 3.7229 7.3702 3.78587 7.3702 3.86353V4.45134C7.3702 4.529 7.30723 4.59196 7.22957 4.59196Z" fill="#FFBF7B"/>
<path d="M15.5596 4.59196H14.6138V3.7229H15.5596C15.6373 3.7229 15.7003 3.78587 15.7003 3.86353V4.45134C15.7003 4.529 15.6373 4.59196 15.5596 4.59196Z" fill="#FFBF7B"/>
<path d="M4.67111 2.2382H1.24588C1.16052 2.2382 1.11049 2.14233 1.15932 2.07234C1.33521 1.82012 1.81386 1.36914 2.9879 1.36914C4.16986 1.36914 4.60892 1.82624 4.76097 2.07743C4.80372 2.14806 4.7537 2.2382 4.67111 2.2382Z" fill="#FFCE55"/>
<path d="M16.7316 2.2382H13.3064C13.2211 2.2382 13.171 2.14233 13.2199 2.07234C13.3958 1.82012 13.8744 1.36914 15.0484 1.36914C16.2304 1.36914 16.6695 1.82624 16.8215 2.07743C16.8642 2.14806 16.8142 2.2382 16.7316 2.2382Z" fill="#FFCE55"/>
<path d="M15.0485 1.36914C14.8471 1.36914 14.6663 1.3825 14.5039 1.40574C15.6421 1.5708 15.809 2.2382 15.809 2.2382H16.7317C16.8143 2.2382 16.8643 2.14806 16.8215 2.07743C16.6695 1.82624 16.2304 1.36914 15.0485 1.36914Z" fill="#FFBC38"/>
<path d="M2.98793 1.36914C2.78655 1.36914 2.60578 1.3825 2.44336 1.40574C3.58154 1.5708 3.7485 2.2382 3.7485 2.2382H4.67114C4.75372 2.2382 4.80375 2.14806 4.761 2.07743C4.60895 1.82624 4.16988 1.36914 2.98793 1.36914Z" fill="#FFBC38"/>
<path d="M8.9999 13.7171C11.4201 13.7171 13.3821 11.7555 13.3821 9.33562C13.3821 6.91578 11.4201 4.9541 8.9999 4.9541C6.57967 4.9541 4.61768 6.91578 4.61768 9.33562C4.61768 11.7555 6.57967 13.7171 8.9999 13.7171Z" fill="#FFDEA9"/>
<path d="M9.00021 12.7756C7.10304 12.7756 5.55957 11.2324 5.55957 9.33555C5.55957 7.43869 7.10304 5.89551 9.00021 5.89551C10.8974 5.89551 12.4408 7.43869 12.4408 9.33555C12.4408 11.2324 10.8974 12.7756 9.00021 12.7756Z" fill="#595959"/>
</svg>
