<svg width="18" height="16" viewBox="0 0 18 16" fill="none" xmlns="http://www.w3.org/2000/svg">
<path d="M18 8C18 11.9157 15.2824 15.1016 11.9422 15.1016H6.05813C5.18414 15.1016 4.35305 14.8832 3.60176 14.4913C1.48184 13.3845 0 10.8912 0 8C0 5.10945 1.48113 2.61652 3.6007 1.50945C4.35199 1.11676 5.18379 0.898438 6.05813 0.898438H11.9422C15.2824 0.898438 18 4.0843 18 8Z" fill="#F5A257"/>
<path d="M11.9422 15.1017C8.60186 15.1017 5.88428 11.9159 5.88428 8.00017C5.88428 4.0844 8.60186 0.898682 11.9422 0.898682C15.2826 0.898682 18.0002 4.08437 18.0002 8.00017C18.0002 11.916 15.2826 15.1017 11.9422 15.1017Z" fill="#595959"/>
<path d="M11.9422 0.898438C11.7591 0.898438 11.578 0.908563 11.3989 0.927301C14.4857 1.25046 16.9136 4.29882 16.9136 7.99993C16.9136 11.7011 14.4857 14.7494 11.3989 15.0726C11.5779 15.0913 11.7591 15.1014 11.9422 15.1014C15.2826 15.1015 18.0001 11.9157 18.0001 7.99993C18.0001 4.08416 15.2826 0.898438 11.9422 0.898438Z" fill="#464646"/>
<path d="M11.9421 14.0147C10.6497 14.0147 9.42271 13.4106 8.48699 12.3137C7.50919 11.1675 6.9707 9.63553 6.9707 8.00013C6.9707 6.36473 7.50919 4.83283 8.48699 3.68656C9.42271 2.58969 10.6497 1.9856 11.9421 1.9856C13.2346 1.9856 14.4616 2.58969 15.3973 3.68656C16.3751 4.83279 16.9136 6.36473 16.9136 8.00013C16.9136 9.63553 16.3751 11.1675 15.3973 12.3137C14.4616 13.4106 13.2346 14.0147 11.9421 14.0147Z" fill="#FFDEA9"/>
<path d="M6.54154 12.6009C6.53381 12.5875 6.52537 12.5745 6.51553 12.5629C5.68232 11.3237 5.18064 9.73285 5.18064 8C5.18064 4.34938 7.40674 1.32875 10.2709 0.898438H8.56549C7.63736 1.36496 6.82033 2.09234 6.17592 3.00535H2.83432C3.73256 1.86945 4.9335 1.09988 6.274 0.898438H6.05815C5.18381 0.898438 4.35201 1.11676 3.60072 1.50945C1.83271 2.87281 0.656738 5.27258 0.656738 8C0.656738 9.83973 1.19182 11.53 2.08268 12.854C2.09146 12.8709 2.10201 12.8864 2.11432 12.9008C2.5376 13.5202 3.03998 14.0581 3.60178 14.4913C4.35307 14.8832 5.18416 15.1016 6.05815 15.1016H6.274C4.9335 14.9001 3.73256 14.1305 2.83432 12.9946H6.17592C6.82033 13.9073 7.63736 14.635 8.56549 15.1016H10.2706C8.77994 14.8776 7.46264 13.952 6.54154 12.6009ZM2.45604 3.5327H5.83525C5.13107 4.72555 4.70111 6.17223 4.65752 7.73633H1.1883C1.23506 6.14973 1.70229 4.69391 2.45604 3.5327ZM2.45604 12.4673C1.70229 11.3061 1.23541 9.85027 1.1883 8.26367H4.65752C4.70111 9.82777 5.13107 11.2745 5.83525 12.4673H2.45604Z" fill="#A66856"/>
<path d="M17.7991 14.2083C17.6152 14.3923 17.3169 14.3923 17.1329 14.2083L12.9761 10.0497L13.6419 9.38354L17.7991 13.5424C17.9829 13.7263 17.9829 14.0244 17.7991 14.2083Z" fill="#F3B573"/>
<path d="M12.874 10.3713C13.4759 10.3713 13.9639 9.8834 13.9639 9.28149C13.9639 8.67959 13.4759 8.19165 12.874 8.19165C12.2721 8.19165 11.7842 8.67959 11.7842 9.28149C11.7842 9.8834 12.2721 10.3713 12.874 10.3713Z" fill="#FF803C"/>
</svg>
