<svg width="18" height="18" viewBox="0 0 18 18" fill="none" xmlns="http://www.w3.org/2000/svg">
<path d="M10.0551 12.6651C9.65974 13.0169 9.22477 13.2893 8.73187 13.4163C8.26776 13.5368 7.9364 13.9459 7.9069 14.4244C7.85545 15.2663 7.52769 16.0661 6.91499 16.6784C5.46329 18.1305 2.96211 17.9833 1.32835 16.3496C1.19883 16.22 1.07867 16.0848 0.967855 15.9448C-0.318712 14.3258 -0.337061 12.0995 0.999516 10.7629C1.61222 10.1506 2.41165 9.82282 3.25353 9.77101C3.73203 9.74151 4.1411 9.41015 4.26163 8.94604C4.26163 8.94604 4.61673 7.47167 5.76586 6.60964C5.98856 6.4427 6.17529 6.32649 6.33251 6.24914C6.98839 5.92534 7.13374 6.27433 7.22044 6.4481C7.32082 6.64958 6.49477 8.08797 7.21073 8.96583L7.21181 8.96727C7.24239 8.99857 7.24635 9.01044 7.28376 9.04858L6.39223 9.90989L4.761 11.4854L4.22133 11.9347L3.80507 12.2815L3.18697 12.796L2.7707 13.1425L1.99466 13.7887L3.19344 14.9867C3.19344 14.9867 3.19416 14.9874 3.19524 14.9885L3.88962 15.6829C3.88962 15.6829 4.85634 16.5352 5.6403 16.1974C5.85329 16.1056 6.02994 15.9999 6.17781 15.884C6.54874 15.5933 6.7369 15.2386 6.85347 14.8777C6.98767 14.4614 7.02652 14.0369 7.13949 13.6922C7.19058 13.5372 7.25642 13.3983 7.35284 13.2835C8.15551 12.3294 9.00494 12.7806 9.09489 12.116C9.09741 12.0977 9.09705 12.0808 9.09381 12.0646C9.05819 11.8793 8.66387 11.8318 8.23502 11.7246C8.00044 11.667 7.75651 11.5908 7.55432 11.4652L8.12996 10.8658C8.24617 10.9047 9.22585 11.2234 9.76659 11.2249H9.77055C10.3451 11.2249 11.0402 11.7887 10.0551 12.6651V12.6651Z" fill="#E41F2D"/>
<path d="M9.76659 11.225C9.71874 11.42 9.57447 11.647 9.29025 11.8999C9.22585 11.9572 9.16037 12.0126 9.09381 12.0647C8.7513 12.3367 8.37929 12.545 7.96662 12.6515C7.50251 12.7713 7.17115 13.1808 7.14201 13.6593C7.14129 13.6704 7.14057 13.6812 7.13949 13.6924C7.11107 14.1039 7.01573 14.5047 6.85347 14.8778C6.69409 15.2452 6.46887 15.5862 6.17781 15.8841C6.16881 15.8938 6.1591 15.9036 6.14974 15.9129C4.81281 17.2499 2.58722 17.2308 0.967855 15.9449C-0.318712 14.3259 -0.337061 12.0996 0.999516 10.763C1.61222 10.1507 2.41165 9.82295 3.25353 9.77114C3.73203 9.74164 4.1411 9.41028 4.26163 8.94617C4.26163 8.94617 4.61673 7.47179 5.76586 6.60977C5.98856 6.44283 6.17529 6.32662 6.33251 6.24927C6.1537 6.86125 5.92956 7.80783 6.62789 8.38347L7.21073 8.96595L7.21181 8.96739C7.24239 8.99869 7.24635 9.01057 7.28376 9.0487L6.39223 9.91001L4.761 11.4855L5.98756 12.7117C6.09121 12.8153 6.25976 12.8136 6.36129 12.7079L7.55432 11.4653L8.12996 10.8659C8.24617 10.9048 9.22585 11.2236 9.76659 11.225V11.225Z" fill="#FD4755"/>
<path d="M9.09485 12.1161C9.00491 12.7806 8.15547 12.3295 7.35281 13.2836C7.25639 13.3984 7.19055 13.5373 7.13946 13.6923C7.02649 14.037 6.98763 14.4615 6.85343 14.8778C6.73687 15.2387 6.5487 15.5934 6.17777 15.8841C6.0299 15.9999 5.85325 16.1057 5.64026 16.1975C4.85631 16.5353 3.88958 15.683 3.88958 15.683L3.19737 14.9908C3.19665 14.9897 3.19593 14.989 3.19521 14.9886C3.19413 14.9875 3.19341 14.9868 3.19341 14.9868L1.99463 13.7887L2.77067 13.1426L2.88472 13.2566L2.8876 13.2599L4.2803 14.6526C4.33319 14.7051 4.40227 14.7317 4.47134 14.7317C4.54006 14.7317 4.60914 14.7051 4.66203 14.6526C4.76744 14.5472 4.76744 14.3763 4.66203 14.2708L4.24216 13.8513L3.26537 12.8745L3.18693 12.7961L3.80503 12.2816L3.83238 12.309L3.83525 12.3122L5.22796 13.7049C5.28084 13.7574 5.34992 13.7837 5.419 13.7837C5.48617 13.7837 5.55334 13.7589 5.60529 13.7092C5.71506 13.6043 5.70869 13.4222 5.60133 13.3148L4.22133 11.9348L4.761 11.4855L5.98756 12.7117C6.09121 12.8153 6.25976 12.8136 6.36129 12.7079L7.55432 11.4653C7.75652 11.5909 8.00044 11.6672 8.23502 11.7247C8.66388 11.8319 9.05819 11.8794 9.09381 12.0647C9.09701 12.0809 9.09737 12.0978 9.09485 12.1161V12.1161Z" fill="#FEDBA6"/>
<path d="M8.23499 11.7247C7.93385 11.9532 7.28121 11.8449 6.65664 12.5871C6.08603 13.2656 6.58324 14.7943 4.94409 15.5013C4.19072 15.8262 3.26788 15.0508 3.19737 14.9908C3.19665 14.9897 3.19593 14.989 3.19521 14.9886C3.19413 14.9875 3.19341 14.9868 3.19341 14.9868L1.99463 13.7887L2.77067 13.1426L2.88472 13.2566L2.8876 13.2599L4.2803 14.6526C4.33319 14.7051 4.40227 14.7317 4.47134 14.7317C4.54006 14.7317 4.60914 14.7051 4.66203 14.6526C4.76744 14.5472 4.76744 14.3763 4.66203 14.2708L4.24216 13.8513L3.26537 12.8745L3.18693 12.7961L3.80503 12.2816L3.83238 12.309L3.83525 12.3122L5.22796 13.7049C5.28084 13.7574 5.34992 13.7837 5.419 13.7837C5.48617 13.7837 5.55334 13.7589 5.60529 13.7092C5.71506 13.6043 5.70869 13.4222 5.60133 13.3148L4.22133 11.9348L4.761 11.4855L5.98756 12.7117C6.09121 12.8153 6.25977 12.8136 6.36129 12.7079L7.55432 11.4653C7.75648 11.5909 8.00041 11.6671 8.23499 11.7247V11.7247Z" fill="#FFEFD2"/>
<path d="M15.0164 3.69391L8.13019 10.8657L7.55455 11.4651L6.36152 12.7077C6.26 12.8134 6.09144 12.8152 5.98779 12.7115L4.76123 11.4853L6.39247 9.9098L7.284 9.0485L13.9417 2.6189L15.0164 3.69391Z" fill="#596C76"/>
<path d="M5.36145 12.0854L4.76123 11.4852L13.9414 2.61914L14.5301 3.20781L5.73231 12.0846C5.63024 12.1876 5.46395 12.1879 5.36145 12.0854V12.0854Z" fill="#7A8C98"/>
<path d="M2.64076 15.6391L1.48526 14.4836C1.43395 14.4323 1.43395 14.3491 1.48526 14.2978L1.99445 13.7886L3.14409 14.9382L2.64076 15.6391Z" fill="#E5E1E5"/>
<path d="M3.19443 16.1925L2.63516 15.6332C2.58385 15.5819 2.58385 15.4987 2.63516 15.4474L3.14435 14.9382L3.88942 15.6833L3.38022 16.1925C3.32892 16.2438 3.24574 16.2438 3.19443 16.1925Z" fill="#BAAFB9"/>
<path d="M15.5532 3.66188L15.0162 3.6939L13.9414 2.61906L14.4278 1.58768C14.4735 1.49105 14.553 1.41442 14.6511 1.37182L17.0121 0.354724C17.0221 0.350443 17.0324 0.346413 17.0427 0.342995C17.1076 0.320977 17.1771 0.31612 17.2451 0.329252L17.7181 0.419592C17.8622 0.447043 17.9288 0.615456 17.8424 0.733823L15.8209 3.51541C15.758 3.60183 15.6599 3.65587 15.5532 3.66188Z" fill="#E41F2D"/>
<path d="M14.8948 3.09968L14.5299 3.20786L13.9414 2.61908L14.4278 1.58771C14.4735 1.49107 14.553 1.41444 14.6511 1.37184L17.0121 0.354746C17.0221 0.350465 17.0324 0.346435 17.0427 0.343018L15.1933 2.88787C15.1304 2.97426 15.0015 3.0937 14.8948 3.09968V3.09968Z" fill="#FD4755"/>
<path d="M5.60982 13.7049C5.5573 13.7575 5.48822 13.7837 5.41914 13.7837C5.35006 13.7837 5.28099 13.7575 5.2281 13.7049L3.8354 12.3122L3.83252 12.309L3.80518 12.2816L4.22144 11.9348L5.60982 13.3232C5.71524 13.4287 5.71524 13.5995 5.60982 13.7049V13.7049Z" fill="#7A8C98"/>
<path d="M4.24194 13.8511L3.26514 12.8743C3.26658 12.8753 3.26766 12.8764 3.26909 12.8779L4.24194 13.8511Z" fill="#7A8C98"/>
<path d="M4.66186 14.6524C4.60897 14.7049 4.5399 14.7315 4.47118 14.7315C4.4021 14.7315 4.33303 14.7049 4.28014 14.6524L2.88744 13.2597L2.88456 13.2564L2.77051 13.1424L3.18677 12.7959L3.2652 12.8743L4.242 13.8511L4.66186 14.2706C4.76728 14.376 4.76728 14.5469 4.66186 14.6524V14.6524Z" fill="#7A8C98"/>
<path d="M5.37191 9.51872C5.53902 9.51872 5.67448 9.38325 5.67448 9.21615C5.67448 9.04904 5.53902 8.91357 5.37191 8.91357C5.2048 8.91357 5.06934 9.04904 5.06934 9.21615C5.06934 9.38325 5.2048 9.51872 5.37191 9.51872Z" fill="#E5E1E5"/>
<path d="M5.63129 8.6591C5.60301 8.6591 5.57423 8.6546 5.54591 8.64517C5.40452 8.59804 5.32814 8.44521 5.37524 8.30385L5.5748 7.70511C5.62194 7.56371 5.77477 7.4873 5.91613 7.53443C6.05752 7.58156 6.1339 7.73436 6.08681 7.87575L5.88724 8.47449C5.84953 8.58757 5.74426 8.6591 5.63129 8.6591Z" fill="#FD4755"/>
<path d="M17.73 2.49008C17.661 2.49008 17.5919 2.46374 17.5392 2.41103L16.6655 1.53728C16.5601 1.4319 16.5601 1.26104 16.6655 1.15569C16.7708 1.05032 16.9417 1.05032 17.047 1.15569L17.9208 2.02945C18.0262 2.13483 18.0262 2.30569 17.9208 2.41103C17.8681 2.46374 17.7991 2.49008 17.73 2.49008Z" fill="#BAAFB9"/>
<path d="M17.0816 3.13876C17.0125 3.13876 16.9435 3.11242 16.8908 3.05971L16.017 2.18596C15.9116 2.08058 15.9116 1.90972 16.017 1.80438C16.1224 1.699 16.2933 1.699 16.3986 1.80438L17.2724 2.67813C17.3777 2.78351 17.3777 2.95437 17.2724 3.05971C17.2197 3.11242 17.1506 3.13876 17.0816 3.13876V3.13876Z" fill="#BAAFB9"/>
<path d="M16.4326 3.78744C16.3636 3.78744 16.2945 3.7611 16.2419 3.7084L15.3681 2.83464C15.2627 2.72926 15.2627 2.5584 15.3681 2.45306C15.4735 2.34768 15.6443 2.34768 15.7497 2.45306L16.6234 3.32682C16.7288 3.43219 16.7288 3.60305 16.6234 3.7084C16.5708 3.76107 16.5017 3.78744 16.4326 3.78744Z" fill="#BAAFB9"/>
</svg>
