<svg width="18" height="18" viewBox="0 0 18 18" fill="none" xmlns="http://www.w3.org/2000/svg">
<path d="M16.0504 3.33706L2.20744 17.1514L1.54299 16.4883L0.850586 15.797L14.6932 1.98267L16.0504 3.33706Z" fill="#FFDEA9"/>
<path d="M16.0497 3.33764L2.20742 17.1513L1.54297 16.4882L15.3853 2.67456L16.0497 3.33764Z" fill="#FFBF7B"/>
<path d="M15.7174 3.66935L14.3604 2.31506C14.3604 2.31506 15.5815 0.729195 15.9713 0.596058C16.263 0.49646 16.7878 0.187085 17.0014 0.0577805C17.0571 0.0240657 17.1285 0.0327844 17.1745 0.0787688L17.9586 0.861171C18.0046 0.907156 18.0134 0.978382 17.9795 1.03396C17.8499 1.24708 17.5398 1.77066 17.44 2.06169C17.3066 2.45066 15.7174 3.66935 15.7174 3.66935Z" fill="#FFBF7B"/>
<path d="M17.0957 0L17.382 0.28575C17.382 0.28575 16.9119 1.03609 16.7845 1.40755C16.6511 1.79652 15.0622 3.01504 15.062 3.01521L15.7174 3.66926C15.7174 3.66926 17.3065 2.4506 17.4399 2.0616C17.5398 1.77057 17.8499 1.24699 17.9795 1.03387C18.0133 0.978293 18.0046 0.907066 17.9585 0.861082L17.0957 0Z" fill="#F4AB69"/>
<path d="M1.36816 17.9587L0.0413965 16.6346C-0.0137988 16.5795 -0.0137988 16.4902 0.0413965 16.4351L1.14766 15.3311C1.20285 15.276 1.2924 15.276 1.34759 15.3311L2.67435 16.6552C2.72955 16.7103 2.72955 16.7996 2.67435 16.8547L1.56809 17.9587C1.5129 18.0137 1.42335 18.0137 1.36816 17.9587Z" fill="#FFBF7B"/>
<path d="M1.36798 17.9587L0.718262 17.3103L2.02446 16.0068L2.67418 16.6552C2.72937 16.7103 2.72937 16.7996 2.67418 16.8547L1.56792 17.9587C1.51272 18.0138 1.42321 18.0138 1.36798 17.9587Z" fill="#F4AB69"/>
<path d="M12.082 6.20532C12.2277 6.20532 12.3457 6.08727 12.3457 5.94165C12.3457 5.79603 12.2277 5.67798 12.082 5.67798C11.9364 5.67798 11.8184 5.79603 11.8184 5.94165C11.8184 6.08727 11.9364 6.20532 12.082 6.20532Z" fill="#595959"/>
<path d="M10.4805 7.80713C10.6261 7.80713 10.7441 7.68908 10.7441 7.54346C10.7441 7.39784 10.6261 7.27979 10.4805 7.27979C10.3348 7.27979 10.2168 7.39784 10.2168 7.54346C10.2168 7.68908 10.3348 7.80713 10.4805 7.80713Z" fill="#595959"/>
<path d="M8.87891 9.40845C9.02453 9.40845 9.14258 9.2904 9.14258 9.14478C9.14258 8.99915 9.02453 8.8811 8.87891 8.8811C8.73328 8.8811 8.61523 8.99915 8.61523 9.14478C8.61523 9.2904 8.73328 9.40845 8.87891 9.40845Z" fill="#595959"/>
<path d="M7.27734 11.0098C7.42297 11.0098 7.54102 10.8917 7.54102 10.7461C7.54102 10.6005 7.42297 10.4824 7.27734 10.4824C7.13172 10.4824 7.01367 10.6005 7.01367 10.7461C7.01367 10.8917 7.13172 11.0098 7.27734 11.0098Z" fill="#595959"/>
<path d="M5.67578 12.6116C5.8214 12.6116 5.93945 12.4935 5.93945 12.3479C5.93945 12.2023 5.8214 12.0842 5.67578 12.0842C5.53016 12.0842 5.41211 12.2023 5.41211 12.3479C5.41211 12.4935 5.53016 12.6116 5.67578 12.6116Z" fill="#595959"/>
</svg>
