<svg width="16" height="16" viewBox="0 0 16 16" fill="none" xmlns="http://www.w3.org/2000/svg">
<path d="M0.547852 15.8371V0.583252H1.50898V15.8371C1.50898 15.9058 1.45328 15.9615 1.38458 15.9615H0.672249C0.603519 15.9615 0.547852 15.9058 0.547852 15.8371Z" fill="#75360D"/>
<path d="M14.6606 15.8373V0.583496H15.6218V15.8373C15.6218 15.906 15.5661 15.9617 15.4974 15.9617H14.785C14.7163 15.9617 14.6606 15.906 14.6606 15.8373Z" fill="#75360D"/>
<path d="M8.09877 8.13909C8.09796 8.13909 8.09716 8.13909 8.09632 8.13909C8.00734 8.13816 7.92664 8.08666 7.88829 8.00639L4.40759 0.720596C4.35208 0.604347 4.40128 0.465115 4.51753 0.409572C4.63378 0.354059 4.77301 0.40329 4.82852 0.519477L8.10428 7.37632L11.5601 0.515092C11.618 0.400024 11.7583 0.353748 11.8733 0.411717C11.9884 0.469656 12.0347 0.609913 11.9767 0.72495L8.30708 8.01077C8.26743 8.08949 8.18678 8.13909 8.09877 8.13909Z" fill="#FFBF7B"/>
<path d="M8.09852 13.9644C4.79503 13.9644 2.10742 11.2768 2.10742 7.97328C2.10742 4.66978 4.79499 1.98218 8.09852 1.98218C11.402 1.98218 14.0896 4.66978 14.0896 7.97328C14.0896 11.2768 11.402 13.9644 8.09852 13.9644Z" fill="#FFA440"/>
<path d="M8.09879 13.0033C5.32526 13.0033 3.06885 10.7469 3.06885 7.97333C3.06885 5.1998 5.32523 2.94336 8.09879 2.94336C10.8724 2.94336 13.1287 5.19977 13.1287 7.9733C13.1287 10.7468 10.8723 13.0033 8.09879 13.0033Z" fill="#FFCE55"/>
<path d="M8.09901 10.1045C6.92383 10.1045 5.96777 9.14843 5.96777 7.97328C5.96777 6.79813 6.92386 5.84204 8.09901 5.84204C9.27416 5.84204 10.2302 6.79813 10.2302 7.97328C10.2302 9.14843 9.27419 10.1045 8.09901 10.1045Z" fill="#FFBC38"/>
<path d="M8.09874 5.84204C7.93345 5.84204 7.77273 5.86157 7.61816 5.89734C8.56256 6.11593 9.26885 6.96339 9.26885 7.97328C9.26885 8.98317 8.56256 9.83062 7.61816 10.0492C7.77273 10.085 7.93345 10.1045 8.09874 10.1045C9.27392 10.1045 10.23 9.14846 10.23 7.97331C10.23 6.7981 9.27392 5.84204 8.09874 5.84204Z" fill="#FFA440"/>
<path d="M3.08588 14.5473C3.24853 14.71 3.51225 14.71 3.6749 14.5473L7.35221 10.87L6.76319 10.281L3.08588 13.9583C2.9232 14.121 2.9232 14.3847 3.08588 14.5473Z" fill="#F3B573"/>
<path d="M7.44211 11.1616C7.97834 11.1616 8.41303 10.7269 8.41303 10.1906C8.41303 9.65442 7.97834 9.21973 7.44211 9.21973C6.90589 9.21973 6.47119 9.65442 6.47119 10.1906C6.47119 10.7269 6.90589 11.1616 7.44211 11.1616Z" fill="#FFDEA9"/>
<path d="M15.837 1.32008H0.162971C0.0942731 1.32008 0.0385742 1.26438 0.0385742 1.19569V0.162971C0.0385742 0.0942731 0.0942731 0.0385742 0.162971 0.0385742H15.837C15.9057 0.0385742 15.9614 0.0942731 15.9614 0.162971V1.19569C15.9614 1.26438 15.9057 1.32008 15.837 1.32008Z" fill="#A66856"/>
<path d="M15.8372 1.32008H15.0005V0.0385742H15.8372C15.9059 0.0385742 15.9616 0.0942731 15.9616 0.162971V1.19569C15.9616 1.26438 15.9059 1.32008 15.8372 1.32008Z" fill="#8F5040"/>
</svg>
