<svg width="16" height="10" viewBox="0 0 18 10" fill="none" xmlns="http://www.w3.org/2000/svg">
	<path d="M0 6.1936H18V8.18871H0V6.1936Z" fill="#BAAFB9" />
	<path d="M0 6.1936H16.8555V8.32789H0V6.1936Z" fill="#D7D0D6" />
	<path d="M18 2.15184V6.71449H0V2.15184C0 1.73353 0.338994 1.39453 0.757304 1.39453H17.2427C17.661 1.39453 18 1.73353 18 2.15184Z" fill="#A44F3E" />
	<path d="M16.8555 2.15184V6.71449H0V2.15184C0 1.7336 0.339066 1.39453 0.757304 1.39453H16.0982C16.5165 1.39453 16.8555 1.7336 16.8555 2.15184Z" fill="#BB5D4C" />
	<path d="M15.7898 1.43911V4.72475C15.7898 5.13473 15.4577 5.46684 15.0477 5.46684H2.95254C2.54256 5.46684 2.21045 5.13473 2.21045 4.72475V1.43911C2.21045 1.02913 2.54256 0.697021 2.95254 0.697021H15.0477C15.4577 0.697021 15.7898 1.02913 15.7898 1.43911Z" fill="#BAAFB9" />
	<path d="M14.4497 1.43911V4.72475C14.4497 5.13473 14.1176 5.46684 13.7076 5.46684H2.95254C2.54256 5.46684 2.21045 5.13473 2.21045 4.72475V1.43911C2.21045 1.02913 2.54256 0.697021 2.95254 0.697021H13.7076C14.1176 0.697021 14.4497 1.02913 14.4497 1.43911Z" fill="#D7D0D6" />
	<path d="M0 7.85132H1.59392V9.30291H0.831187C0.372314 9.30291 0 8.93059 0 8.47172V7.85132Z" fill="#596C76" />
	<path d="M2.13721 7.85132H3.63226V9.30291H2.13721V7.85132Z" fill="#596C76" />
	<path d="M4.17529 7.85132H5.67071V9.30291H4.17529V7.85132Z" fill="#596C76" />
	<path d="M6.21436 7.85132H7.70941V9.30291H6.21436V7.85132Z" fill="#596C76" />
	<path d="M8.25244 7.85132H9.74749V9.30291H8.25244V7.85132Z" fill="#596C76" />
	<path d="M10.291 7.85132H11.7861V9.30291H10.291V7.85132Z" fill="#596C76" />
	<path d="M12.3291 7.85132H13.8245V9.30291H12.3291V7.85132Z" fill="#596C76" />
	<path d="M14.3677 7.85132H15.8627V9.30291H14.3677V7.85132Z" fill="#596C76" />
	<path d="M18.0002 7.85132V8.47172C18.0002 8.93059 17.6279 9.30291 17.169 9.30291H16.4062V7.85132H18.0002Z" fill="#596C76" />
	<path d="M16.8555 7.85132V8.47172C16.8555 8.93059 16.4832 9.30291 16.0243 9.30291H0.831187C0.372314 9.30291 0 8.93059 0 8.47172V7.85132H16.8555Z" fill="#7A8C98" />
	<path d="M13.1188 3.83155H4.88158C4.47776 3.83155 4.15039 3.50419 4.15039 3.10036V3.06371C4.15039 2.65989 4.47776 2.33252 4.88158 2.33252H13.1188C13.5226 2.33252 13.85 2.65989 13.85 3.06371V3.10036C13.85 3.50419 13.5226 3.83155 13.1188 3.83155Z" fill="#FED402" />
	<path d="M1.59375 7.85132H2.13701V9.30291H1.59375V7.85132Z" fill="#BAAFB9" />
	<path d="M3.63184 7.85132H4.1751V9.30291H3.63184V7.85132Z" fill="#BAAFB9" />
	<path d="M5.6709 7.85132H6.21416V9.30291H5.6709V7.85132Z" fill="#BAAFB9" />
	<path d="M7.70898 7.85132H8.25224V9.30291H7.70898V7.85132Z" fill="#BAAFB9" />
	<path d="M9.74756 7.85132H10.2908V9.30291H9.74756V7.85132Z" fill="#BAAFB9" />
	<path d="M11.7856 7.85132H12.3289V9.30291H11.7856V7.85132Z" fill="#BAAFB9" />
	<path d="M13.8242 7.85132H14.3675V9.30291H13.8242V7.85132Z" fill="#BAAFB9" />
	<path d="M15.8628 7.85132H16.4061V9.30291H15.8628V7.85132Z" fill="#BAAFB9" />
	<path d="M13.1185 4.10308H4.88124C4.32827 4.10308 3.87842 3.65323 3.87842 3.10026V3.06361C3.87842 2.51065 4.32831 2.06079 4.88124 2.06079H13.1185C13.6715 2.06079 14.1213 2.51065 14.1213 3.06361V3.10026C14.1213 3.65319 13.6714 4.10308 13.1185 4.10308ZM4.88124 2.60401C4.62783 2.60401 4.42168 2.81016 4.42168 3.06358V3.10023C4.42168 3.35364 4.62783 3.55979 4.88124 3.55979H13.1185C13.3719 3.55979 13.5781 3.35364 13.5781 3.10023V3.06358C13.5781 2.81016 13.3719 2.60401 13.1185 2.60401H4.88124Z" fill="#BAAFB9" />
	<path d="M16.8551 4.81382C16.7051 4.81382 16.5835 4.6922 16.5835 4.54219V3.53872C16.5835 3.38871 16.7051 3.26709 16.8551 3.26709C17.0052 3.26709 17.1268 3.38871 17.1268 3.53872V4.54219C17.1268 4.6922 17.0052 4.81382 16.8551 4.81382Z" fill="#D7D0D6" />
	<path d="M1.14419 4.81382C0.99414 4.81382 0.872559 4.6922 0.872559 4.54219V3.53872C0.872559 3.38871 0.99414 3.26709 1.14419 3.26709C1.29424 3.26709 1.41582 3.38871 1.41582 3.53872V4.54219C1.41582 4.6922 1.2942 4.81382 1.14419 4.81382Z" fill="#D7D0D6" />
</svg>
