<svg width="18" height="18" viewBox="0 0 18 18" fill="none" xmlns="http://www.w3.org/2000/svg">
<path d="M6.42757 16.7596L5.7268 17.1408L4.74165 16.7596L2.35254 0.45874H4.03809L6.42757 16.7596Z" fill="#D8AA5E"/>
<path d="M5.63089 16.7596L5.23963 17.0664L4.74175 16.7596L4.34868 14.0931L4.5933 13.5659L4.19052 13.0201L2.53467 1.78697L2.92074 1.51172L3.42344 1.78697L5.63089 16.7596Z" fill="#E9B665"/>
<path d="M4.90888 5.54129H2.88081C2.76945 5.54129 2.67488 5.45976 2.65844 5.34963L2.35505 3.31661C2.33477 3.18072 2.44001 3.05859 2.57742 3.05859H4.60548C4.71685 3.05859 4.81141 3.14012 4.82786 3.25026L5.13125 5.28328C5.15153 5.41917 5.04628 5.54129 4.90888 5.54129V5.54129Z" fill="#FEDBA6"/>
<path d="M4.03966 5.54129H2.88081C2.76945 5.54129 2.67488 5.45976 2.65844 5.34963L2.35505 3.31661C2.33477 3.18072 2.44001 3.05859 2.57742 3.05859H3.73627C3.84764 3.05859 3.9422 3.14012 3.95864 3.25026L4.26203 5.28328C4.28232 5.41917 4.17707 5.54129 4.03966 5.54129Z" fill="#FFEFD2"/>
<path d="M6.03715 14.1123L5.27188 14.1058L4.34942 14.0978L4.19043 13.0193H5.87635L6.03715 14.1123Z" fill="#FEDBA6"/>
<path d="M5.23954 14.1055L4.34942 14.0978L4.19043 13.0193H5.07938L5.23954 14.1055Z" fill="#FFEFD2"/>
<path d="M17.0356 3.6192L10.3242 16.7596L8.23336 17.3798L6.42757 16.7596L13.8324 4.50601C13.9515 4.30895 13.8096 4.05742 13.5793 4.05742H11.9963C9.41513 4.05742 7.58978 1.78696 5.02885 1.78696H1.51903C1.15577 1.78696 0.861328 1.49252 0.861328 1.12962V0.657344C0.861328 0.294447 1.15577 0 1.51903 0H5.02885C7.59014 0 9.41477 2.27046 11.9963 2.27046H16.2099C16.9027 2.27046 17.3507 3.00241 17.0356 3.6192Z" fill="#A44F3E"/>
<path d="M15.3519 3.6192L8.30319 17.3798L6.42757 16.7596L13.8324 4.50601C13.9515 4.30895 13.8096 4.05742 13.5793 4.05742H11.9963C9.41513 4.05742 7.58978 1.78696 5.02885 1.78696H1.51903C1.15577 1.78696 0.861328 1.49252 0.861328 1.12962V0.657344C0.861328 0.294447 1.15577 0 1.51903 0H3.34511C5.9064 0 7.73103 2.27046 10.3126 2.27046H14.5261C15.219 2.27046 15.667 3.00241 15.3519 3.6192Z" fill="#BB5D4C"/>
<path d="M11.737 17.3796C11.737 17.7222 11.4593 18 11.117 18H4.36357C3.98546 17.9645 3.77866 17.7577 3.74316 17.3796C3.74316 17.0373 4.02095 16.7595 4.36357 16.7595H11.117C11.4948 16.7954 11.7012 17.0018 11.737 17.3796Z" fill="#FEDBA6"/>
<path d="M10.4245 17.3796C10.4245 17.7222 10.1467 18 9.80449 18H4.36357C3.98546 17.9645 3.77866 17.7577 3.74316 17.3796C3.74316 17.0373 4.02095 16.7595 4.36357 16.7595H9.80449C10.1819 16.7954 10.3887 17.0018 10.4245 17.3796Z" fill="#FFEFD2"/>
<path d="M8.20466 15.7329C8.07044 15.7329 7.95371 15.6334 7.93571 15.4967L6.15813 2.02255C6.1385 1.87384 6.24317 1.73734 6.39191 1.71771C6.54076 1.69804 6.67709 1.80274 6.69675 1.95149L8.47433 15.4257C8.49396 15.5744 8.38929 15.7109 8.24055 15.7305C8.22845 15.7321 8.2165 15.7329 8.20466 15.7329Z" fill="#FFEFD2"/>
<path d="M9.49924 13.8378C9.36502 13.8378 9.24833 13.7383 9.23029 13.6016L7.80022 2.76133C7.78059 2.61262 7.88526 2.47612 8.034 2.45649C8.18274 2.43675 8.31921 2.54153 8.33884 2.69027L9.76892 13.5306C9.78855 13.6793 9.68388 13.8158 9.53514 13.8354C9.52308 13.837 9.51109 13.8378 9.49924 13.8378V13.8378Z" fill="#FFEFD2"/>
<path d="M10.75 11.6152C10.6158 11.6152 10.4991 11.5157 10.4811 11.379L9.455 3.60137C9.43537 3.45267 9.54004 3.31616 9.68879 3.29653C9.83749 3.27701 9.974 3.38157 9.99363 3.53032L11.0197 11.308C11.0393 11.4567 10.9347 11.5932 10.7859 11.6128C10.7739 11.6144 10.7619 11.6152 10.75 11.6152Z" fill="#FFEFD2"/>
<path d="M11.9849 9.27175C11.8507 9.27175 11.734 9.17227 11.716 9.03562L11.0585 4.05208C11.0389 3.90337 11.1436 3.76687 11.2923 3.74724C11.4411 3.72761 11.5775 3.83228 11.5971 3.98102L12.2546 8.96456C12.2742 9.11327 12.1696 9.24977 12.0208 9.2694C12.0087 9.27096 11.9968 9.27175 11.9849 9.27175Z" fill="#FFEFD2"/>
</svg>
