<svg width="16" height="18" viewBox="0 0 16 18" fill="none" xmlns="http://www.w3.org/2000/svg">
<path d="M10.0582 7.82008C9.91271 7.82008 9.79225 7.70494 9.78689 7.55837C9.78606 7.53497 9.77049 6.98042 10.1688 6.56725C10.4426 6.2832 10.8329 6.13916 11.3288 6.13916H13.3181C13.4681 6.13916 13.5897 6.26078 13.5897 6.41079C13.5897 6.5608 13.4681 6.68242 13.3181 6.68242H11.3288C10.9861 6.68242 10.7274 6.77054 10.5599 6.94431C10.3239 7.18914 10.3297 7.53508 10.3298 7.53849C10.3353 7.68839 10.2182 7.81439 10.0683 7.8199C10.0649 7.82004 10.0615 7.82008 10.0582 7.82008Z" fill="#596C76"/>
<path d="M12.3542 12.5925C12.2041 12.5925 12.0826 12.4708 12.0826 12.3208C12.0826 12.0984 12.0826 11.4217 10.6571 11.4217C10.4287 11.4217 10.2296 11.3384 10.0811 11.1809C9.75831 10.8384 9.78279 10.259 9.78659 10.194C9.79547 10.0443 9.92415 9.93012 10.0739 9.93896C10.2234 9.94783 10.3375 10.0761 10.329 10.2256C10.3234 10.3309 10.3388 10.663 10.477 10.8089C10.5078 10.8413 10.556 10.8784 10.6571 10.8784C12.3701 10.8784 12.6258 11.7821 12.6258 12.3208C12.6258 12.4708 12.5042 12.5925 12.3542 12.5925Z" fill="#596C76"/>
<path d="M11.6012 9.76642C11.6012 10.0117 11.4025 10.21 11.1576 10.21H8.85241C8.85571 10.1857 8.85716 10.1605 8.85716 10.1354C8.85716 9.78862 8.57582 9.50728 8.229 9.50728C8.40259 9.50728 8.55981 9.43669 8.67335 9.32275H11.1576C11.2802 9.32275 11.3908 9.37262 11.4713 9.45266C11.5517 9.53314 11.6012 9.64415 11.6012 9.76642Z" fill="#FFE2B5"/>
<path d="M11.6012 8.87917C11.6012 9.12411 11.4025 9.3228 11.1576 9.3228H8.67334C8.78688 9.20926 8.85714 9.0524 8.85714 8.87917C8.85714 8.70595 8.78692 8.54909 8.67334 8.43555H11.1576C11.2802 8.43555 11.3908 8.48542 11.4713 8.56546C11.5517 8.6459 11.6012 8.7569 11.6012 8.87917Z" fill="#FFF5E4"/>
<path d="M11.6012 7.99176C11.6012 8.2367 11.4025 8.43538 11.1576 8.43538H8.67335C8.55981 8.32148 8.40259 8.25086 8.229 8.25086C8.57582 8.25086 8.85716 7.96952 8.85716 7.6227C8.85716 7.5976 8.85571 7.57247 8.85241 7.5481H11.1576C11.2802 7.5481 11.3908 7.59797 11.4713 7.67801C11.5517 7.75848 11.6012 7.86949 11.6012 7.99176Z" fill="#FFE2B5"/>
<path d="M8.85734 10.1355C8.85734 10.1606 8.8559 10.1857 8.8526 10.2101C8.81584 10.522 8.55091 10.7636 8.22919 10.7636C8.1313 10.7636 8.03887 10.7414 7.95626 10.7014C7.74591 10.5999 7.60107 10.3844 7.60107 10.1355C7.60107 9.88656 7.74591 9.6711 7.95626 9.56955C8.03887 9.52952 8.1313 9.50732 8.22919 9.50732C8.57604 9.50732 8.85734 9.78866 8.85734 10.1355Z" fill="#596C76"/>
<path d="M8.31148 10.1353C8.31148 10.1604 8.31003 10.1855 8.30673 10.2099C8.28127 10.4268 8.14513 10.6098 7.95626 10.7012C7.74591 10.5996 7.60107 10.3842 7.60107 10.1353C7.60107 9.88635 7.74591 9.67089 7.95626 9.56934C8.16661 9.67089 8.31148 9.88635 8.31148 10.1353Z" fill="#7A8C98"/>
<path d="M8.85734 8.87913C8.85734 9.05236 8.78712 9.20921 8.67354 9.32276C8.56 9.43666 8.40278 9.50728 8.22919 9.50728C8.1313 9.50728 8.03887 9.48508 7.95626 9.44506C7.9559 9.44506 7.9559 9.44506 7.9559 9.44506C7.74591 9.34315 7.60107 9.12809 7.60107 8.87913C7.60107 8.63021 7.74591 8.41511 7.9559 8.3132H7.95626C8.03887 8.27318 8.1313 8.25098 8.22919 8.25098C8.40278 8.25098 8.56 8.32156 8.67354 8.4355C8.78712 8.54904 8.85734 8.7059 8.85734 8.87913Z" fill="#596C76"/>
<path d="M8.31148 8.8792C8.31148 9.05243 8.24125 9.20928 8.12767 9.32283C8.07816 9.3727 8.02033 9.41417 7.95626 9.44509C7.9559 9.44509 7.9559 9.44509 7.9559 9.44509C7.74591 9.34318 7.60107 9.12812 7.60107 8.87916C7.60107 8.63024 7.74591 8.41515 7.9559 8.31323H7.95626C8.02033 8.34416 8.07816 8.38567 8.12767 8.4355C8.24121 8.54912 8.31148 8.70597 8.31148 8.8792Z" fill="#7A8C98"/>
<path d="M8.85734 7.62278C8.85734 7.9696 8.57601 8.25093 8.22919 8.25093C8.1313 8.25093 8.03887 8.22873 7.95626 8.18871C7.74591 8.08716 7.60107 7.87174 7.60107 7.62278C7.60107 7.37386 7.74591 7.1584 7.95626 7.05685C8.03887 7.01683 8.1313 6.99463 8.22919 6.99463C8.55091 6.99463 8.81584 7.23627 8.8526 7.54817C8.8559 7.57255 8.85734 7.59765 8.85734 7.62278Z" fill="#596C76"/>
<path d="M8.31144 7.62282C8.31144 7.87174 8.16661 8.08719 7.95626 8.18875C7.74591 8.08719 7.60107 7.87177 7.60107 7.62282C7.60107 7.3739 7.74591 7.15844 7.95626 7.05688C8.14513 7.14822 8.28123 7.3313 8.30673 7.54821C8.30995 7.57258 8.31144 7.59768 8.31144 7.62282Z" fill="#7A8C98"/>
<path d="M14.0366 10.0379H11.6012C11.4512 10.0379 11.3296 9.91627 11.3296 9.76626C11.3296 9.61625 11.4512 9.49463 11.6012 9.49463H14.0365C14.1866 9.49463 14.3082 9.61625 14.3082 9.76626C14.3082 9.91627 14.1866 10.0379 14.0366 10.0379Z" fill="#D7D0D6"/>
<path d="M14.1331 9.15068H11.6012C11.4512 9.15068 11.3296 9.02906 11.3296 8.87905C11.3296 8.72904 11.4512 8.60742 11.6012 8.60742H14.1331C14.2831 8.60742 14.4047 8.72904 14.4047 8.87905C14.4047 9.02906 14.2831 9.15068 14.1331 9.15068Z" fill="#D7D0D6"/>
<path d="M14.0363 8.26347H11.6012C11.4512 8.26347 11.3296 8.14186 11.3296 7.99184C11.3296 7.84183 11.4512 7.72021 11.6012 7.72021H14.0363C14.1863 7.72021 14.3079 7.84183 14.3079 7.99184C14.3079 8.14186 14.1863 8.26347 14.0363 8.26347Z" fill="#D7D0D6"/>
<path d="M14.5035 5.38458L13.3179 6.4105L10.4883 1.44866L11.4753 0.851074L14.5035 5.38458Z" fill="#D7D0D6"/>
<path d="M13.3175 6.41043C12.5445 5.35574 11.2988 4.66099 9.91509 4.66099C9.74987 4.66099 9.58682 4.67044 9.4267 4.68938C7.32719 4.93102 5.69712 6.71465 5.69712 8.87896C5.69712 10.7612 6.92977 12.3552 8.63188 12.8979L7.44363 12.8214C7.44073 12.8211 7.4378 12.8211 7.4349 12.8207C6.74452 12.7759 6.06759 12.6602 5.41578 12.4782C4.6257 11.4923 4.15332 10.2408 4.15332 8.87896C4.15332 5.86123 6.47304 3.38541 9.4267 3.13758C9.58755 3.12411 9.7506 3.11719 9.91509 3.11719C10.4945 3.11719 11.0513 3.20197 11.5786 3.36104L11.9094 3.94153L13.3175 6.41043Z" fill="#FAC600"/>
<path d="M11.9094 3.94161C11.1732 3.49726 10.3296 3.21339 9.4267 3.1377C6.47304 3.38553 4.15332 5.86138 4.15332 8.87908C4.15332 10.2409 4.6257 11.4925 5.41578 12.4784C6.06759 12.6603 6.74449 12.7761 7.4349 12.8208C5.84778 12.2156 4.72034 10.6791 4.72034 8.87908C4.72034 6.54955 6.60878 4.6611 8.93831 4.6611C9.10354 4.6611 9.26659 4.67056 9.4267 4.6895C9.58682 4.67056 9.74987 4.6611 9.91509 4.6611C11.2988 4.6611 12.5445 5.35586 13.3175 6.41054L11.9094 3.94161Z" fill="#FED402"/>
<path d="M15.677 8.87902C15.677 12.0576 13.1033 14.635 9.92614 14.6408C9.9549 14.6117 9.97964 14.5789 9.9993 14.5433C10.0368 14.477 10.0579 14.401 10.0579 14.3202V13.4176C10.0579 13.2928 10.0077 13.1792 9.92578 13.097C12.2506 13.0912 14.1332 11.2049 14.1332 8.87902C14.1332 7.96337 13.829 7.10814 13.3176 6.41045L13.8835 5.92061L14.5033 5.38452L14.5001 5.38927C15.2385 6.35772 15.677 7.56705 15.677 8.87902Z" fill="#FAC600"/>
<path d="M13.8835 5.92065L13.3176 6.41049C13.829 7.10815 14.1332 7.96338 14.1332 8.87906C14.1332 11.2049 12.2506 13.0912 9.92578 13.097C10.0077 13.1793 10.0579 13.2928 10.0579 13.4177V14.3202C10.0579 14.401 10.0368 14.4771 9.9993 14.5433C12.6749 14.0455 14.7002 11.6988 14.7002 8.87906C14.7002 7.79743 14.4022 6.78534 13.8835 5.92065Z" fill="#FED402"/>
<path d="M10.0582 13.4176V14.3202C10.0582 14.4446 10.0079 14.5582 9.9264 14.6408C9.85035 14.7179 9.74698 14.7682 9.63127 14.7755L8.00011 14.8806L7.44367 14.9167C6.39663 14.9844 5.3787 15.2144 4.43358 15.5907C3.48809 15.9666 2.615 16.4889 1.85693 17.1396V10.5979C2.8716 11.4691 4.09183 12.1097 5.41619 12.4783C6.07089 12.661 6.75072 12.7771 7.44403 12.8215L8.00011 12.8572L8.63225 12.898L9.63123 12.9624C9.74694 12.97 9.84995 13.0199 9.926 13.097C10.0079 13.1793 10.0582 13.2928 10.0582 13.4176Z" fill="#FAC600"/>
<path d="M7.99992 13.4144V14.3238C7.99992 14.637 7.75676 14.8964 7.4442 14.9167L7.44348 14.9167C6.39644 14.9844 5.37851 15.2144 4.43339 15.5907C3.4879 15.9666 2.61481 16.4889 1.85674 17.1396L1.33691 13.8689L1.85674 10.5979C2.87141 11.4691 4.09164 12.1097 5.416 12.4783C6.0707 12.661 6.75053 12.7771 7.44384 12.8215C7.75654 12.8416 7.99992 13.1011 7.99992 13.4144Z" fill="#FED402"/>
<path d="M1.8567 10.5048V17.2332C1.8567 17.6564 1.51351 18 1.08991 18C0.950146 18 0.819148 17.9625 0.706331 17.8974C0.47704 17.7645 0.322754 17.5167 0.322754 17.2332V10.5048C0.322754 10.293 0.408625 10.1012 0.547301 9.96258C0.594601 9.91528 0.648094 9.8745 0.706331 9.84068C0.819148 9.77552 0.950146 9.73804 1.08991 9.73804C1.51351 9.73804 1.8567 10.0812 1.8567 10.5048Z" fill="#FFE2B5"/>
<path d="M1.08991 10.5047V17.2331C1.08991 17.5166 0.935587 17.7645 0.706331 17.8973C0.47704 17.7645 0.322754 17.5166 0.322754 17.2331V10.5047C0.322754 10.2929 0.408625 10.1011 0.547301 9.96248C0.594601 9.91518 0.648094 9.8744 0.706331 9.84058C0.935587 9.97302 1.08991 10.2209 1.08991 10.5047Z" fill="#FFF5E4"/>
<path d="M11.4813 0.848944L10.4932 1.44436L10.0516 0.679665C9.97954 0.554896 10.0223 0.395287 10.1471 0.32325L10.6466 0.0349606C10.7658 -0.0338523 10.918 0.00182178 10.9942 0.11645L11.4813 0.848944Z" fill="#3C87D0"/>
</svg>
