<svg width="18" height="18" viewBox="0 0 18 18" fill="none" xmlns="http://www.w3.org/2000/svg">
<path d="M16.7755 3.72525L14.2717 1.22144C14.1672 1.11694 13.9978 1.11694 13.8933 1.22144C13.7888 1.32595 13.7888 1.49539 13.8933 1.59989L16.3971 4.10369C16.4494 4.15596 16.5179 4.18208 16.5863 4.18208C16.6548 4.18208 16.7233 4.15596 16.7755 4.10369C16.88 3.99919 16.8801 3.82975 16.7755 3.72525Z" fill="#E5E1E5"/>
<path d="M17.3107 3.19032L14.8069 0.686519C14.7024 0.582015 14.533 0.582051 14.4285 0.686519C14.324 0.791022 14.324 0.960461 14.4285 1.06496L16.9323 3.56873C16.9845 3.62096 17.053 3.64712 17.1215 3.64712C17.1899 3.64712 17.2584 3.621 17.3107 3.56873C17.4152 3.46426 17.4152 3.29482 17.3107 3.19032V3.19032Z" fill="#E5E1E5"/>
<path d="M17.9186 2.58214L15.4148 0.0783776C15.3103 -0.0261259 15.1409 -0.0261259 15.0364 0.0783776C14.9319 0.182881 14.9319 0.35232 15.0364 0.456788L17.5402 2.96059C17.5924 3.01282 17.6609 3.03898 17.7294 3.03898C17.7979 3.03898 17.8664 3.01286 17.9186 2.96059C18.0231 2.85609 18.0231 2.68665 17.9186 2.58214V2.58214Z" fill="#E5E1E5"/>
<path d="M8.09317 16.3725C6.00535 18.4603 3.07158 18.5006 1.28696 16.716C1.18478 16.6138 1.08851 16.5078 0.998389 16.3986C-0.486353 14.5981 -0.337928 11.8782 1.63048 9.90976C2.85077 8.68948 4.42998 8.0987 5.888 8.17445C6.4482 8.20371 6.97814 7.94389 7.31983 7.49898C7.37631 7.42555 7.43793 7.35519 7.50518 7.28794C8.23945 6.55367 9.37347 6.46251 10.2074 7.01449C10.3512 7.11001 10.4862 7.2245 10.6087 7.35826C11.3527 8.1711 11.354 9.43506 10.612 10.2499C10.544 10.3246 10.4723 10.3932 10.3969 10.4558C9.97017 10.8117 9.7617 11.3637 9.81382 11.9164C9.95661 13.4287 9.36891 15.0967 8.09317 16.3725V16.3725Z" fill="#D8AA5E"/>
<path d="M7.48702 15.7663C5.51883 17.7345 2.79867 17.8831 0.998389 16.3986C-0.486353 14.5981 -0.337928 11.8782 1.63048 9.90977C2.85077 8.68948 4.42998 8.0987 5.888 8.17445C6.4482 8.20371 6.97814 7.94389 7.31983 7.49898C7.37631 7.42555 7.43793 7.35519 7.50518 7.28794C8.23945 6.55367 9.37347 6.46251 10.2074 7.01449C10.7394 7.81859 10.6724 8.91258 10.0061 9.64403C9.93806 9.71874 9.86616 9.78703 9.79095 9.84993C9.36423 10.2058 9.15551 10.7575 9.20789 11.3105C9.35042 12.8225 8.76276 14.4905 7.48702 15.7663V15.7663Z" fill="#E9B665"/>
<path d="M2.10236 11.3347L1.24707 12.8678C1.17239 13.0016 1.2957 13.1582 1.4437 13.1185C1.73505 13.0402 2.13519 12.8549 2.39807 12.4168C2.68414 11.94 2.54236 11.5488 2.39736 11.3238C2.32718 11.2149 2.16548 11.2216 2.10236 11.3347V11.3347Z" fill="#FFEFD2"/>
<path d="M6.71925 15.9517L5.1862 16.807C5.05237 16.8817 4.89574 16.7583 4.93548 16.6103C5.0138 16.319 5.19904 15.9189 5.63714 15.656C6.11396 15.3699 6.50517 15.5117 6.7302 15.6567C6.83909 15.7269 6.83239 15.8886 6.71925 15.9517V15.9517Z" fill="#FFEFD2"/>
<path d="M8.94383 12.7946C7.92381 13.2837 5.93945 12.0275 5.93945 12.0275L10.6085 7.3584C10.6085 7.3584 9.92457 9.47755 9.95511 9.82492C10.0129 10.4783 9.9636 12.3053 8.94383 12.7946V12.7946Z" fill="#FEDBA6"/>
<path d="M8.44072 12.291C7.79322 12.6016 6.75728 12.2086 6.08691 11.8802L9.6705 8.29663C9.54291 8.75593 9.4397 9.18161 9.452 9.32129C9.5098 9.97468 9.4605 11.8017 8.44072 12.291Z" fill="#FFEFD2"/>
<path d="M9.95526 9.82492L8.17773 8.0474L14.3885 2.50415L15.4728 3.58847L9.95526 9.82492Z" fill="#596C76"/>
<path d="M9.39042 9.26009L8.17773 8.0474L14.3885 2.50415L14.908 3.02364L9.39042 9.26009Z" fill="#7A8C98"/>
<path d="M16.4396 3.27695C16.0243 3.37396 15.4728 3.58836 15.4728 3.58836L14.3887 2.50418C14.3887 2.50418 14.5941 1.94378 14.6914 1.52872C14.8292 0.975951 15.3544 0.593758 15.8802 0.625084L16.7342 0.669397L16.7778 0.671681L17.0968 0.688236C17.1959 0.693088 17.275 0.77226 17.2804 0.871804L17.3433 2.08813C17.3838 2.64601 16.9252 3.17181 16.4396 3.27695Z" fill="#A44F3E"/>
<path d="M15.8749 2.71219C15.4593 2.80895 14.9081 3.0236 14.9081 3.0236L14.3887 2.50418C14.3887 2.50418 14.5941 1.94378 14.6914 1.52872C14.8292 0.975951 15.3544 0.593758 15.8802 0.625084L16.7342 0.669397L16.7786 1.52341C16.819 2.08125 16.3604 2.60705 15.8749 2.71219V2.71219Z" fill="#BB5D4C"/>
<path d="M5.53064 12.8144L3.03048 15.3146C2.97824 15.3668 2.90963 15.3931 2.84127 15.3928C2.77291 15.3931 2.70427 15.3668 2.65207 15.3146C2.54764 15.2102 2.5476 15.0406 2.65207 14.9362L5.15223 12.436C5.2567 12.3315 5.42621 12.3316 5.53068 12.436C5.63511 12.5405 5.63511 12.71 5.53064 12.8144V12.8144Z" fill="#E5E1E5"/>
<path d="M5.96534 10.5274C5.89687 10.5274 5.82837 10.5013 5.77613 10.449C5.67163 10.3445 5.67163 10.1751 5.77613 10.0706L7.98858 7.85816C8.09308 7.75366 8.26252 7.75366 8.36699 7.85816C8.47149 7.96267 8.47149 8.13211 8.36699 8.23657L6.15454 10.449C6.10227 10.5013 6.0338 10.5274 5.96534 10.5274Z" fill="#E5E1E5"/>
<path d="M2.14991 14.4968C2.08144 14.4968 2.01294 14.4707 1.9607 14.4184C1.8562 14.3139 1.8562 14.1445 1.9607 14.04L4.40324 11.5974C4.50775 11.4929 4.67719 11.4929 4.78165 11.5974C4.88616 11.7019 4.88616 11.8714 4.78165 11.9758L2.33911 14.4184C2.28684 14.4706 2.21837 14.4968 2.14991 14.4968V14.4968Z" fill="#E5E1E5"/>
<path d="M3.77588 16.1196C3.70742 16.1196 3.63891 16.0934 3.58668 16.0412C3.48217 15.9367 3.48217 15.7672 3.58668 15.6628L6.02926 13.2202C6.13376 13.1157 6.3032 13.1157 6.40767 13.2202C6.51217 13.3247 6.51217 13.4942 6.40767 13.5986L3.96509 16.0412C3.91285 16.0934 3.84439 16.1196 3.77588 16.1196Z" fill="#E5E1E5"/>
<path d="M6.8462 13.2017C6.77773 13.2017 6.70922 13.1756 6.65699 13.1234C6.55249 13.0189 6.55249 12.8494 6.65699 12.745L9.76619 9.63575C9.8707 9.53125 10.0401 9.53125 10.1446 9.63575C10.2491 9.74025 10.2491 9.90969 10.1446 10.0142L7.0354 13.1234C6.98317 13.1756 6.9147 13.2017 6.8462 13.2017Z" fill="#E5E1E5"/>
<path d="M8.18082 14.4847L7.84377 14.8217C7.78408 14.8814 7.68724 14.8814 7.62755 14.8217L3.181 10.3751C3.12131 10.3155 3.12131 10.2186 3.181 10.1589L3.51806 9.82187C3.57775 9.76218 3.67458 9.76218 3.73427 9.82187L8.18086 14.2685C8.24055 14.3281 8.24055 14.425 8.18082 14.4847Z" fill="#A44F3E"/>
<path d="M7.29203 13.5961L6.95497 13.9331C6.89528 13.9928 6.79845 13.9928 6.73876 13.9331L3.181 10.3754C3.12131 10.3157 3.12131 10.2189 3.181 10.1592L3.51806 9.82211C3.57775 9.76242 3.67458 9.76242 3.73427 9.82211L7.29203 13.3799C7.35175 13.4396 7.35175 13.5364 7.29203 13.5961Z" fill="#BB5D4C"/>
<path d="M3.62126 15.9694C3.09503 16.3111 2.4111 16.9505 2.11129 17.2395C2.0262 17.3216 1.89126 17.3202 1.80766 17.2366L0.766232 16.1952C0.682636 16.1116 0.681244 15.9766 0.763306 15.8916C1.05234 15.5917 1.69171 14.9078 2.03344 14.3816C2.09506 14.2868 2.20327 14.2331 2.31612 14.241L3.39716 14.3171C3.55197 14.328 3.67517 14.4512 3.68601 14.606L3.70735 14.9099L3.76187 15.6868C3.76979 15.7996 3.71609 15.9078 3.62126 15.9694V15.9694Z" fill="#AA9EA9"/>
<path d="M3.23239 15.564C3.03805 15.7286 1.85576 16.6983 1.85576 16.6983C1.85576 16.6983 1.74594 16.8098 1.6186 16.8632C1.53897 16.8966 1.44677 16.8758 1.38572 16.8147L0.766232 16.1952C0.682636 16.1116 0.681244 15.9766 0.763306 15.8916C1.05234 15.5917 1.69171 14.9078 2.03344 14.3816C2.09506 14.2867 2.20327 14.2331 2.31612 14.241L3.39716 14.3171C3.55197 14.328 3.67517 14.4512 3.68601 14.606L3.70735 14.9099C3.70735 14.9098 3.42674 15.3994 3.23239 15.564V15.564Z" fill="#BAAFB9"/>
</svg>
