<svg width="18" height="18" viewBox="0 0 18 18" fill="none" xmlns="http://www.w3.org/2000/svg">
<path d="M7.78202 3.9289L6.49339 4.67281L2.48048 6.98966L1.45215 5.34168L5.33552 2.49831L6.62378 1.75476L6.62414 1.75439L7.78202 3.9289Z" fill="#3C87D0"/>
<path d="M6.76089 5.1582L8.20061 8.40399L7.63674 9.66904L6.14718 9.58951L4.05615 6.7198L6.76089 5.1582Z" fill="#A44F3E"/>
<path d="M5.93857 5.63281L7.44127 8.84202L7.13234 9.66887L6.14718 9.58934L4.05615 6.71963L5.93857 5.63281Z" fill="#BB5D4C"/>
<path d="M12.6454 16.2863C12.9819 16.7787 12.8552 17.4721 12.3626 17.8098C12.2093 17.9149 12.0384 17.9746 11.8652 17.9924C11.4186 18.0392 10.958 17.81 10.7517 17.3779L9.79601 15.3718C8.81263 13.3075 7.43849 11.4668 6.14697 9.58936L8.20041 8.40381C9.1651 10.4365 10.0599 12.5167 11.3368 14.3785L12.6454 16.2863Z" fill="#D8AA5E"/>
<path d="M11.8861 16.7247C12.1515 17.1133 12.1288 17.6272 11.8652 17.9924C11.4186 18.0393 10.958 17.81 10.7517 17.378L9.79601 15.3719C8.81263 13.3076 7.43849 11.4668 6.14697 9.58942L6.87469 9.16926L7.44103 8.84229C8.40572 10.8749 9.30048 12.9552 10.5774 14.8169L11.8861 16.7247Z" fill="#E9B665"/>
<path d="M5.33565 2.4984L1.17641 4.89963L1.01343 4.6385C0.51761 3.84425 0.426703 2.81204 0.85045 1.96745C1.03661 1.59658 1.31186 1.27026 1.63855 0.995003C2.20571 0.51693 2.92898 0.192058 3.61386 0.0511708C4.76594 -0.186779 5.94084 0.461879 6.47904 1.48286L6.62391 1.75485L5.33565 2.4984Z" fill="#E41F2D"/>
<path d="M7.41983 6.60483C6.9251 7.06516 6.2529 7.56134 5.53362 7.84855C4.88967 8.10569 4.20841 8.19479 3.58511 7.93946C3.14398 7.75909 2.75065 7.43205 2.48047 6.98983V6.98947L6.49339 4.67262L7.78201 3.92871V3.92907C8.27819 4.83922 8.12825 5.94495 7.41983 6.60483Z" fill="#E41F2D"/>
<path d="M5.75457 1.94287L3.76659 3.09097C3.76622 3.09133 3.7655 3.09133 3.76514 3.09133L5.75457 1.94287Z" fill="#E41F2D"/>
<path d="M5.33565 2.49801L1.17641 4.89924L1.01343 4.63811C0.51761 3.84386 0.426703 2.81165 0.85045 1.96706C1.03661 1.59619 1.31186 1.26987 1.63855 0.994614C1.86708 0.908416 2.09815 0.841776 2.32523 0.794693C3.47696 0.557105 4.65222 1.20576 5.19078 2.22638L5.33565 2.49801Z" fill="#FD4755"/>
<path d="M6.13121 7.34897C5.95338 7.51485 5.75201 7.68507 5.53362 7.84878C4.88967 8.10592 4.20841 8.19502 3.58511 7.93969C3.14398 7.75932 2.75065 7.43228 2.48047 6.99006V6.9897L6.49339 4.67285C6.98957 5.58336 6.83963 6.68909 6.13121 7.34897Z" fill="#FD4755"/>
<path d="M6.89274 2.2583L7.78221 3.92859L6.4934 4.67268L5.33545 2.49824L6.89274 2.2583Z" fill="#0078C8"/>
<path d="M1.17627 4.89927L3.76938 6.24541L3.90013 3.32666L1.17627 4.89927Z" fill="#FED402"/>
<path d="M6.62426 1.75439L6.4934 4.67292L5.33545 2.49849L6.62426 1.75439Z" fill="#FAC600"/>
<path d="M5.33537 2.49854L6.49332 4.67297L3.90039 3.32701L5.33537 2.49854Z" fill="#FED402"/>
<path d="M6.87495 2.22521L6.78694 4.18966L6.36573 4.43304L6.25635 4.22732L6.33096 2.23752L6.75217 1.99414L6.87495 2.22521Z" fill="#FAC600"/>
<path d="M6.36576 4.43276L5.92825 4.6852L4.37607 3.87932C4.27194 3.82525 4.14685 3.89747 4.1416 4.01467L4.06308 5.76192V5.76228L3.20472 6.25774H3.20436L1.45903 5.35193L1.32031 5.12992L1.74189 4.88654L3.51728 5.80828L3.60673 3.80978L4.46582 3.31396L6.25642 4.22701L6.36576 4.43276Z" fill="#FAC600"/>
<path d="M1.72427 3.75225C1.87429 3.75225 1.9959 3.63064 1.9959 3.48062C1.9959 3.3306 1.87429 3.20898 1.72427 3.20898C1.57425 3.20898 1.45264 3.3306 1.45264 3.48062C1.45264 3.63064 1.57425 3.75225 1.72427 3.75225Z" fill="#FED402"/>
<path d="M2.85757 3.09844C3.00759 3.09844 3.1292 2.97683 3.1292 2.82681C3.1292 2.67679 3.00759 2.55518 2.85757 2.55518C2.70755 2.55518 2.58594 2.67679 2.58594 2.82681C2.58594 2.97683 2.70755 3.09844 2.85757 3.09844Z" fill="#FED402"/>
<path d="M3.99038 2.44414C4.1404 2.44414 4.26201 2.32253 4.26201 2.17251C4.26201 2.02249 4.1404 1.90088 3.99038 1.90088C3.84036 1.90088 3.71875 2.02249 3.71875 2.17251C3.71875 2.32253 3.84036 2.44414 3.99038 2.44414Z" fill="#FED402"/>
<path d="M4.4772 7.16826C4.62722 7.16826 4.74883 7.04665 4.74883 6.89663C4.74883 6.74661 4.62722 6.625 4.4772 6.625C4.32718 6.625 4.20557 6.74661 4.20557 6.89663C4.20557 7.04665 4.32718 7.16826 4.4772 7.16826Z" fill="#FED402"/>
<path d="M5.6105 6.51397C5.76052 6.51397 5.88213 6.39235 5.88213 6.24234C5.88213 6.09232 5.76052 5.9707 5.6105 5.9707C5.46048 5.9707 5.33887 6.09232 5.33887 6.24234C5.33887 6.39235 5.46048 6.51397 5.6105 6.51397Z" fill="#FED402"/>
<path d="M6.74331 5.86016C6.89333 5.86016 7.01494 5.73855 7.01494 5.58853C7.01494 5.43851 6.89333 5.31689 6.74331 5.31689C6.59329 5.31689 6.47168 5.43851 6.47168 5.58853C6.47168 5.73855 6.59329 5.86016 6.74331 5.86016Z" fill="#FED402"/>
<path d="M5.12368 1.78985C5.2737 1.78985 5.39532 1.66823 5.39532 1.51821C5.39532 1.3682 5.2737 1.24658 5.12368 1.24658C4.97366 1.24658 4.85205 1.3682 4.85205 1.51821C4.85205 1.66823 4.97366 1.78985 5.12368 1.78985Z" fill="#FED402"/>
<path d="M6.6211 4.91263L6.6135 4.91697L3.91274 6.47651L3.90333 6.48194L2.63535 7.2139C2.5803 7.14291 2.52851 7.0683 2.4807 6.99007V6.98971L2.33691 6.759L3.20433 6.25811H3.20469L4.06305 5.76266V5.76229L5.92826 4.68554L6.36577 4.43311L6.78455 4.50492L6.6211 4.91263Z" fill="#0AB69F"/>
<path d="M7.89882 4.17488L6.63736 4.90286L6.62106 4.91227L6.36572 4.43275L6.78693 4.18937L7.65435 3.68848L7.7822 3.9286V3.92896C7.82602 4.00937 7.86513 4.09158 7.89882 4.17488Z" fill="#01998D"/>
<path d="M5.46358 2.73818L4.46579 3.31405L3.6067 3.80987L1.74186 4.88662L1.32028 5.13L1.1765 4.89929L1.03271 4.66895L1.03344 4.66822L3.76461 3.09131L3.76534 3.09094C3.7657 3.09094 3.76642 3.09094 3.76679 3.09058L5.20789 2.2583L5.61012 2.33972L5.46358 2.73818Z" fill="#0AB69F"/>
<path d="M6.75233 1.99417L6.33112 2.23755L5.4637 2.73844L5.20801 2.25856L5.75489 1.94274L6.49627 1.51465L6.62412 1.75477L6.62448 1.75441L6.75233 1.99417Z" fill="#01998D"/>
<path d="M15.5217 6.98803L14.2331 6.24401L10.2202 3.92713L11.1274 2.22363L15.5374 4.154L16.8254 4.89791L16.8259 4.89802L15.5217 6.98803Z" fill="#3C87D0"/>
<path d="M13.9463 6.7183L11.8552 9.58804H10.5855L9.80176 8.40249L11.2415 5.15674L13.9463 6.7183Z" fill="#A44F3E"/>
<path d="M13.1239 6.24356L11.096 9.14952L10.1875 8.99994L9.80176 8.40249L11.2415 5.15674L13.1239 6.24356Z" fill="#BB5D4C"/>
<path d="M7.25149 17.3786C6.99322 17.9162 6.32942 18.1532 5.79065 17.8955C5.62303 17.8152 5.48584 17.697 5.38385 17.556C5.12 17.1927 5.0882 16.6791 5.35926 16.2844L6.61873 14.4537C7.91474 12.5699 8.82181 10.4595 9.80197 8.40234L11.8554 9.58789C10.5774 11.4397 9.22325 13.2547 8.24943 15.2914L7.25149 17.3786Z" fill="#D8AA5E"/>
<path d="M6.49215 16.9402C6.28835 17.3643 5.83197 17.6016 5.38385 17.556C5.12 17.1927 5.0882 16.6791 5.35926 16.2844L6.61873 14.4537C7.91474 12.5699 8.82181 10.4595 9.80197 8.40234L11.0961 9.14948C9.81809 11.0013 8.46391 12.8163 7.49009 14.853L6.49215 16.9402Z" fill="#E9B665"/>
<path d="M15.5371 4.15423L11.3779 1.75285L11.5226 1.48115C11.9625 0.654625 12.811 0.0597862 13.7543 0.00448182C14.1685 -0.0197478 14.5888 0.0554763 14.9905 0.200782C15.6881 0.452929 16.3311 0.916841 16.7956 1.43953C17.5777 2.31828 17.6033 3.66011 16.9883 4.63669L16.8251 4.89814L15.5371 4.15423Z" fill="#E41F2D"/>
<path d="M13.0229 8.01256C12.3768 7.81427 11.611 7.48024 11.0027 7.00089C10.458 6.57179 10.0402 6.02635 9.94968 5.35889C9.88532 4.88669 9.97189 4.38254 10.2198 3.92743L10.2201 3.92725L14.233 6.24413L15.5216 6.98815L15.5212 6.98833C14.9811 7.87312 13.9486 8.29611 13.0229 8.01256Z" fill="#E41F2D"/>
<path d="M16.2281 4.2395L14.2398 3.09191C14.2393 3.09176 14.239 3.09115 14.2388 3.09082L16.2281 4.2395Z" fill="#E41F2D"/>
<path d="M15.5371 4.15423L11.3779 1.75285L11.5226 1.48115C11.9625 0.654625 12.811 0.0597862 13.7543 0.00448182C14.1685 -0.0197478 14.5888 0.0554763 14.9905 0.200782C15.1794 0.355612 15.3527 0.522394 15.507 0.695515C16.2886 1.57416 16.3145 2.91627 15.6999 3.89299L15.5371 4.15423Z" fill="#FD4755"/>
<path d="M11.7343 7.26851C11.5018 7.19745 11.2536 7.10817 11.0027 7.00089C10.458 6.57179 10.0402 6.02635 9.94968 5.35889C9.88532 4.88669 9.97189 4.38254 10.2198 3.92743L10.2201 3.92725L14.233 6.24413C13.6926 7.12907 12.66 7.55205 11.7343 7.26851Z" fill="#FD4755"/>
<path d="M16.5297 5.37302L15.5217 6.9884L14.2329 6.24431L15.537 4.1543L16.5297 5.37302Z" fill="#0078C8"/>
<path d="M11.3779 1.75293L11.5087 4.67171L14.1018 3.32554L11.3779 1.75293Z" fill="#FED402"/>
<path d="M16.8258 4.89839L14.2329 6.24431L15.537 4.1543L16.8258 4.89839Z" fill="#FAC600"/>
<path d="M15.537 4.15416L14.2329 6.24418L14.1021 3.32568L15.537 4.15416Z" fill="#FED402"/>
<path d="M16.5431 5.35067L14.7979 6.25669L14.3765 6.0136L14.4999 5.81603L16.2604 4.88574L16.6818 5.1288L16.5431 5.35067Z" fill="#FAC600"/>
<path d="M14.3769 6.01363L13.9395 5.76094L13.8613 4.01377C13.8561 3.89657 13.731 3.82431 13.6269 3.87838L12.0744 4.68401L12.0741 4.68419L11.2158 4.18855L11.2157 4.18823L11.1274 2.22382L11.2504 1.99268L11.6719 2.23606L11.7614 4.23448L13.5369 3.3127L14.3958 3.80877L14.5004 5.81599L14.3769 6.01363Z" fill="#FAC600"/>
<path d="M12.8805 1.78936C13.0305 1.78936 13.1522 1.66774 13.1522 1.51773C13.1522 1.36771 13.0305 1.24609 12.8805 1.24609C12.7305 1.24609 12.6089 1.36771 12.6089 1.51773C12.6089 1.66774 12.7305 1.78936 12.8805 1.78936Z" fill="#FED402"/>
<path d="M14.0138 2.44366C14.1638 2.44366 14.2855 2.32204 14.2855 2.17202C14.2855 2.022 14.1638 1.90039 14.0138 1.90039C13.8638 1.90039 13.7422 2.022 13.7422 2.17202C13.7422 2.32204 13.8638 2.44366 14.0138 2.44366Z" fill="#FED402"/>
<path d="M15.1466 3.09746C15.2967 3.09746 15.4183 2.97585 15.4183 2.82583C15.4183 2.67581 15.2967 2.5542 15.1466 2.5542C14.9966 2.5542 14.875 2.67581 14.875 2.82583C14.875 2.97585 14.9966 3.09746 15.1466 3.09746Z" fill="#FED402"/>
<path d="M11.2985 5.88164C11.4485 5.88164 11.5701 5.76003 11.5701 5.61001C11.5701 5.45999 11.4485 5.33838 11.2985 5.33838C11.1485 5.33838 11.0269 5.45999 11.0269 5.61001C11.0269 5.76003 11.1485 5.88164 11.2985 5.88164Z" fill="#FED402"/>
<path d="M12.4318 6.53545C12.5818 6.53545 12.7034 6.41384 12.7034 6.26382C12.7034 6.1138 12.5818 5.99219 12.4318 5.99219C12.2818 5.99219 12.1602 6.1138 12.1602 6.26382C12.1602 6.41384 12.2818 6.53545 12.4318 6.53545Z" fill="#FED402"/>
<path d="M13.5651 7.18975C13.7151 7.18975 13.8367 7.06814 13.8367 6.91812C13.8367 6.7681 13.7151 6.64648 13.5651 6.64648C13.4151 6.64648 13.2935 6.7681 13.2935 6.91812C13.2935 7.06814 13.4151 7.18975 13.5651 7.18975Z" fill="#FED402"/>
<path d="M16.2799 3.75176C16.43 3.75176 16.5516 3.63015 16.5516 3.48013C16.5516 3.33011 16.43 3.2085 16.2799 3.2085C16.1299 3.2085 16.0083 3.33011 16.0083 3.48013C16.0083 3.63015 16.1299 3.75176 16.2799 3.75176Z" fill="#FED402"/>
<path d="M14.0893 6.47449L14.0818 6.47007L11.3808 4.91093L11.3714 4.9055L10.1035 4.1734C10.1375 4.09024 10.1762 4.00806 10.22 3.92755L10.2204 3.92737L10.3483 3.6875L11.2158 4.18825L11.2159 4.18857L12.0742 4.68421L12.0745 4.68403L13.9396 5.76096L14.377 6.01365L14.548 6.34023L14.0893 6.47449Z" fill="#0AB69F"/>
<path d="M15.3663 7.2124L14.1052 6.48396L14.0889 6.47454L14.3765 6.01367L14.7979 6.25677L15.6653 6.75751L15.5213 6.98829L15.521 6.98847C15.4733 7.06659 15.4216 7.14156 15.3663 7.2124Z" fill="#01998D"/>
<path d="M15.393 4.38503L14.3954 3.80884L13.5365 3.31277L11.6716 2.23612L11.25 1.99274L11.3779 1.75287L11.5055 1.51318L11.5065 1.51344L14.2377 3.09025L14.2384 3.09068C14.2386 3.09101 14.239 3.09162 14.2395 3.09177L15.6808 3.92365L15.8181 4.37058L15.393 4.38503Z" fill="#0AB69F"/>
<path d="M16.6819 5.12904L16.2606 4.88599L15.3931 4.3852L15.6808 3.92383L16.2278 4.23954L16.9692 4.66756L16.8251 4.89834L16.8257 4.89845L16.6819 5.12904Z" fill="#01998D"/>
</svg>
