<svg width="18" height="18" viewBox="0 0 18 18" fill="none" xmlns="http://www.w3.org/2000/svg">
<path d="M16.0053 2.96484L14.999 1.95859L17.3449 0.0317852C17.4008 -0.013953 17.4823 -0.00991007 17.5334 0.0412071L17.959 0.466879C18.0108 0.518594 18.0142 0.601316 17.9669 0.657145L16.0053 2.96484Z" fill="#FFBF7B"/>
<path d="M3.90568 15.6266C3.90568 15.6266 2.95642 16.5418 2.40735 17.8688C2.40408 17.876 2.39466 17.8869 2.38056 17.8996C2.31032 17.9647 2.22626 17.9984 2.14987 17.9999C2.08975 18.001 2.0347 17.9818 1.99522 17.9423L0.0576137 16.0047C-0.0322105 15.9149 -0.0162847 15.745 0.100364 15.6194C0.113055 15.6052 0.123918 15.5958 0.131161 15.5925C1.45817 15.0435 2.37336 14.0942 2.37336 14.0942L3.12377 14.8446L3.90568 15.6266Z" fill="#735458"/>
<path d="M3.90589 15.6266C3.90589 15.6266 2.95663 16.5419 2.40756 17.8688C2.40429 17.8761 2.39487 17.8869 2.38077 17.8996C2.31053 17.9648 2.22647 17.9985 2.15008 18C2.08996 18.0011 2.03491 17.9819 1.99543 17.9424L1.21387 17.1608C1.30334 17.2503 1.47353 17.2347 1.59921 17.1181C1.61296 17.105 1.62277 17.0945 1.62565 17.0869C2.17507 15.7603 3.12398 14.8447 3.12398 14.8447L3.90589 15.6266Z" fill="#5C4346"/>
<path d="M2.8429 14.1505L3.84912 15.1567L14.9985 4.00733L13.9923 3.00112L2.8429 14.1505Z" fill="#735458"/>
<path d="M3.27263 14.5802L3.84961 15.1572L14.999 4.00782L14.422 3.43085L3.27263 14.5802Z" fill="#5C4346"/>
<path d="M13.5843 6.27007C13.5169 6.27007 13.4494 6.24434 13.3979 6.19287L12.0992 4.8942C11.9962 4.79119 11.9962 4.62427 12.0992 4.52129C12.2022 4.41836 12.3691 4.41836 12.4721 4.52129L13.7708 5.81997C13.8737 5.92297 13.8737 6.0899 13.7708 6.19287C13.7193 6.24434 13.6518 6.27007 13.5843 6.27007Z" fill="#FFBF7B"/>
<path d="M10.6581 8.61166C10.5906 8.61166 10.5231 8.58593 10.4716 8.53446L9.18123 7.24405C9.07826 7.14104 9.07826 6.97412 9.18123 6.87115C9.28424 6.76821 9.45116 6.76821 9.55414 6.87115L10.8445 8.16156C10.9475 8.26457 10.9475 8.43149 10.8445 8.53446C10.7931 8.58593 10.7256 8.61166 10.6581 8.61166Z" fill="#FFBF7B"/>
<path d="M8.77282 10.4969C8.70536 10.4969 8.63786 10.4712 8.58639 10.4197L7.29598 9.1293C7.19301 9.0263 7.19301 8.85938 7.29598 8.7564C7.39895 8.65346 7.56591 8.65346 7.66885 8.7564L8.95926 10.0468C9.06223 10.1498 9.06223 10.3167 8.95926 10.4197C8.90779 10.4711 8.84032 10.4969 8.77282 10.4969Z" fill="#FFBF7B"/>
<path d="M7.01696 12.2525C6.9495 12.2525 6.882 12.2268 6.83053 12.1753L5.54012 10.8849C5.43715 10.7819 5.43715 10.615 5.54012 10.512C5.64309 10.4091 5.81005 10.4091 5.91299 10.512L7.2034 11.8024C7.30637 11.9054 7.30637 12.0724 7.2034 12.1753C7.15193 12.2268 7.08443 12.2525 7.01696 12.2525Z" fill="#FFBF7B"/>
<path d="M15.134 4.14279L13.8571 2.86585C13.8022 2.81094 13.8022 2.72188 13.8571 2.66697L14.8657 1.65837C14.9206 1.60346 15.0097 1.60346 15.0646 1.65837L16.3415 2.93532C16.3964 2.99023 16.3964 3.07928 16.3415 3.1342L15.3329 4.14279C15.278 4.19771 15.189 4.19771 15.134 4.14279Z" fill="#FFDEA9"/>
<path d="M15.1342 4.14293L14.4604 3.4692L15.6679 2.26172L16.3417 2.93545C16.3966 2.99037 16.3966 3.07942 16.3417 3.13433L15.3331 4.14293C15.2781 4.19784 15.1891 4.19784 15.1342 4.14293Z" fill="#FFBF7B"/>
<path d="M3.6769 15.7342L2.26579 14.3231C2.21088 14.2681 2.21088 14.1791 2.26579 14.1242L3.07316 13.3168C3.12807 13.2619 3.21712 13.2619 3.27204 13.3168L4.68314 14.7279C4.73805 14.7828 4.73805 14.8719 4.68314 14.9268L3.87578 15.7342C3.82086 15.7891 3.73185 15.7891 3.6769 15.7342Z" fill="#FFDEA9"/>
<path d="M3.67706 15.7341L3.02832 15.0853L4.03456 14.0791L4.6833 14.7278C4.73821 14.7828 4.73821 14.8718 4.6833 14.9267L3.87594 15.7341C3.82102 15.789 3.73201 15.789 3.67706 15.7341Z" fill="#FFBF7B"/>
<path d="M12.2861 5.323C12.6259 5.323 12.9014 5.04755 12.9014 4.70776C12.9014 4.36798 12.6259 4.09253 12.2861 4.09253C11.9463 4.09253 11.6709 4.36798 11.6709 4.70776C11.6709 5.04755 11.9463 5.323 12.2861 5.323Z" fill="#FFDEA9"/>
<path d="M10.6582 8.96313C10.998 8.96313 11.2734 8.68768 11.2734 8.3479C11.2734 8.00812 10.998 7.73267 10.6582 7.73267C10.3184 7.73267 10.043 8.00812 10.043 8.3479C10.043 8.68768 10.3184 8.96313 10.6582 8.96313Z" fill="#FFDEA9"/>
<path d="M8.77295 10.8484C9.11273 10.8484 9.38818 10.5729 9.38818 10.2332C9.38818 9.89337 9.11273 9.61792 8.77295 9.61792C8.43316 9.61792 8.15771 9.89337 8.15771 10.2332C8.15771 10.5729 8.43316 10.8484 8.77295 10.8484Z" fill="#FFDEA9"/>
<path d="M7.01709 12.6042C7.35687 12.6042 7.63232 12.3288 7.63232 11.989C7.63232 11.6492 7.35687 11.3738 7.01709 11.3738C6.67731 11.3738 6.40186 11.6492 6.40186 11.989C6.40186 12.3288 6.67731 12.6042 7.01709 12.6042Z" fill="#FFDEA9"/>
</svg>
