<svg width="18" height="18" viewBox="0 0 18 18" fill="none" xmlns="http://www.w3.org/2000/svg">
<path d="M9.30853 6.86528H8.69106C8.54102 6.86528 8.41943 6.74366 8.41943 6.59365C8.41943 6.44364 8.54102 6.32202 8.69106 6.32202H9.30853C9.45858 6.32202 9.58016 6.44364 9.58016 6.59365C9.58016 6.74366 9.45858 6.86528 9.30853 6.86528Z" fill="#F5DAA7"/>
<path d="M9.71697 7.76543H8.28335C8.1333 7.76543 8.01172 7.64381 8.01172 7.4938C8.01172 7.34379 8.1333 7.22217 8.28335 7.22217H9.71697C9.86702 7.22217 9.9886 7.34379 9.9886 7.4938C9.9886 7.64381 9.86702 7.76543 9.71697 7.76543Z" fill="#F5DAA7"/>
<path d="M2.27225 0.97876H2.14429C1.83862 0.97876 1.59082 1.22656 1.59082 1.53223V8.21809H2.82572V1.53223C2.82572 1.22656 2.57792 0.97876 2.27225 0.97876Z" fill="#EDC472"/>
<path d="M3.50711 1.52344H3.37916C3.07348 1.52344 2.82568 1.77124 2.82568 2.07691V8.21802H4.06059V2.07691C4.06059 1.77124 3.81279 1.52344 3.50711 1.52344Z" fill="#BC9B5B"/>
<path d="M5.97684 1.52344H5.84888C5.54321 1.52344 5.29541 1.77124 5.29541 2.07691V8.21802H6.53031V2.07691C6.53028 1.77124 6.28248 1.52344 5.97684 1.52344Z" fill="#BC9B5B"/>
<path d="M7.2117 0.97876H7.08375C6.77807 0.97876 6.53027 1.22656 6.53027 1.53223V8.21809H7.76517V1.53223C7.76517 1.22656 7.51738 0.97876 7.2117 0.97876Z" fill="#EDC472"/>
<path d="M9.68143 0.97876H9.55347C9.2478 0.97876 9 1.22656 9 1.53223V8.21809H10.2349V1.53223C10.2349 1.22656 9.9871 0.97876 9.68143 0.97876Z" fill="#EDC472"/>
<path d="M10.9163 1.52344H10.7883C10.4827 1.52344 10.2349 1.77124 10.2349 2.07691V8.21802H11.4698V2.07691C11.4698 1.77124 11.222 1.52344 10.9163 1.52344Z" fill="#BC9B5B"/>
<path d="M13.386 2.17749H13.2581C12.9524 2.17749 12.7046 2.42529 12.7046 2.73096V8.21792H13.9395V2.73096C13.9395 2.42529 13.6917 2.17749 13.386 2.17749Z" fill="#BC9B5B"/>
<path d="M14.6209 1.52344H14.4929C14.1873 1.52344 13.9395 1.77124 13.9395 2.07691V8.21802H15.1744V2.07691C15.1744 1.77124 14.9266 1.52344 14.6209 1.52344Z" fill="#EDC472"/>
<path d="M15.8557 0.978516H15.7278C15.4221 0.978516 15.1743 1.22631 15.1743 1.53199V8.21785H16.4092V1.53199C16.4092 1.22631 16.1614 0.978516 15.8557 0.978516Z" fill="#BC9B5B"/>
<path d="M4.74198 0.393066H4.61402C4.30835 0.393066 4.06055 0.640865 4.06055 0.946539V8.21807H5.29545V0.946539C5.29545 0.640865 5.04765 0.393066 4.74198 0.393066Z" fill="#EDC472"/>
<path d="M8.44657 0.393066H8.31861C8.01294 0.393066 7.76514 0.640865 7.76514 0.946539V8.21807H9.00004V0.946539C9.00004 0.640865 8.75224 0.393066 8.44657 0.393066Z" fill="#BC9B5B"/>
<path d="M12.1512 0.573242H12.0232C11.7175 0.573242 11.4697 0.821041 11.4697 1.12672V8.21803H12.7046V1.12668C12.7046 0.821005 12.4568 0.573242 12.1512 0.573242Z" fill="#EDC472"/>
<path d="M18 10.7946H0V8.08497C0 7.7584 0.264748 7.49365 0.59132 7.49365H17.4087C17.7353 7.49365 18 7.7584 18 8.08497V10.7946H18Z" fill="#9A6A53"/>
<path d="M17.4088 7.49365H16.3223C16.6488 7.49365 16.9136 7.7584 16.9136 8.08497V10.7946H18.0001V8.08497C18.0001 7.7584 17.7354 7.49365 17.4088 7.49365Z" fill="#855B47"/>
<path d="M10.1103 9.55456L9.00013 9.91673L7.88996 9.55456C7.59584 9.55456 7.35742 9.31614 7.35742 9.02202V5.96198C7.35742 5.66786 7.59584 5.42944 7.88996 5.42944H10.1103C10.4044 5.42944 10.6428 5.66786 10.6428 5.96198V9.02202C10.6428 9.31614 10.4044 9.55456 10.1103 9.55456Z" fill="#F4E2C1"/>
<path d="M9.71697 8.66533H8.28335C8.1333 8.66533 8.01172 8.54371 8.01172 8.3937C8.01172 8.24369 8.1333 8.12207 8.28335 8.12207H9.71697C9.86702 8.12207 9.9886 8.24369 9.9886 8.3937C9.9886 8.54375 9.86702 8.66533 9.71697 8.66533Z" fill="#F5DAA7"/>
<path d="M15.8238 10.7947H2.17578V9.91048C2.17578 9.71614 2.33333 9.55859 2.52767 9.55859H3.35574L3.62737 9.66725L3.899 9.55859H4.71653L5.02137 9.63103L5.25979 9.55859H6.07729L6.31611 9.63103L6.62055 9.55859H7.43805L7.70968 9.63103L7.98131 9.55859H8.7988L9.07043 9.63103L9.34206 9.55859H10.1596L10.4312 9.63103L10.7029 9.55859H11.5204L11.754 9.63103L12.0636 9.55859H12.8811L13.1527 9.63103L13.4244 9.55859H14.2419L14.5135 9.66725L14.7851 9.55859H15.4719C15.6662 9.55859 15.8238 9.71614 15.8238 9.91048V10.7947H15.8238Z" fill="#F7F7F7"/>
<path d="M6.07764 9.55859H6.6209V10.7947H6.07764V9.55859Z" fill="#C8C3CA"/>
<path d="M7.43848 9.55859H7.98174V10.7947H7.43848V9.55859Z" fill="#C8C3CA"/>
<path d="M3.35596 9.55859H3.89922V10.7947H3.35596V9.55859Z" fill="#C8C3CA"/>
<path d="M4.7168 9.55859H5.26006V10.7947H4.7168V9.55859Z" fill="#C8C3CA"/>
<path d="M14.7854 9.55859H14.2422V10.7947H14.7854V9.58721V9.55859Z" fill="#C8C3CA"/>
<path d="M12.8813 9.55859H13.4246V10.7947H12.8813V9.55859Z" fill="#C8C3CA"/>
<path d="M8.79883 9.55859H9.34209V10.7947H8.79883V9.55859Z" fill="#C8C3CA"/>
<path d="M11.5205 9.55859H12.0638V10.7947H11.5205V9.55859Z" fill="#C8C3CA"/>
<path d="M10.1597 9.55859H10.7029V10.7947H10.1597V9.55859Z" fill="#C8C3CA"/>
<path d="M17.5149 17.6072H0.485131C0.217195 17.6072 0 17.39 0 17.122V10.6934H18V17.122C18 17.39 17.7828 17.6072 17.5149 17.6072Z" fill="#B78C7A"/>
<path d="M1.34277 10.6934H16.6573V17.6072H1.34277V10.6934Z" fill="#7A5341"/>
<path d="M15.5708 10.6934H16.6573V17.6072H15.5708V10.6934Z" fill="#704C3B"/>
<path d="M5.14893 15.5486H12.0823V17.6071H5.14893V15.5486Z" fill="#9A6A53"/>
<path d="M10.9956 15.5486H12.0821V17.6071H10.9956V15.5486Z" fill="#855B47"/>
<path d="M12.0398 15.5485H5.19116C4.97987 15.5485 4.80859 15.3772 4.80859 15.1659V15.0418C4.80859 14.5302 5.22332 14.1155 5.73489 14.1155H11.4961C12.0077 14.1155 12.4224 14.5302 12.4224 15.0418V15.1659C12.4224 15.3772 12.2511 15.5485 12.0398 15.5485Z" fill="#CF9875"/>
<path d="M11.4962 14.1157H10.4097C10.9212 14.1157 11.336 14.5304 11.336 15.042V15.1662C11.336 15.3774 11.1647 15.5487 10.9534 15.5487H12.0399C12.2512 15.5487 12.4225 15.3775 12.4225 15.1662V15.042C12.4225 14.5304 12.0078 14.1157 11.4962 14.1157Z" fill="#C7865B"/>
</svg>
