<svg width="18" height="18" viewBox="0 0 18 18" fill="none" xmlns="http://www.w3.org/2000/svg">
<path d="M17.7321 8.61356V13.7332L8.04175 16.0139L0.268066 13.7332V4.23272C0.268066 2.14044 1.88698 0.402736 4.01438 0.0615694C4.26392 0.021006 4.52034 0 4.78219 0C6.02879 0 7.15732 0.473722 7.97402 1.23972C8.79109 2.00571 9.29632 3.06398 9.29632 4.23272C9.29632 4.65827 9.4803 5.04326 9.77764 5.32213C10.075 5.60101 10.4857 5.7734 10.9391 5.7734H14.7032C16.3761 5.7734 17.7321 7.04499 17.7321 8.61356V8.61356Z" fill="#465A61"/>
<path d="M16.1968 8.61352V13.7332L8.04175 16.0138L0.268066 13.7332V4.23267C0.268066 2.1404 1.88698 0.40269 4.01438 0.0615234C4.9535 0.211825 5.79338 0.634481 6.43877 1.23967C7.25547 2.00567 7.7607 3.06394 7.7607 4.23267C7.7607 4.65822 7.94469 5.04321 8.24203 5.32209C8.53937 5.60096 8.95008 5.77335 9.40388 5.77335H13.1676C14.8405 5.77335 16.1968 7.04494 16.1968 8.61352V8.61352Z" fill="#596C76"/>
<path d="M3.24889 15.5447V17.3563H1.33154V13.7332H2.76611V15.3293C2.76611 15.448 2.86245 15.5447 2.9816 15.5447H3.24889Z" fill="#FEDBA6"/>
<path d="M1.33154 13.7332H2.29021V17.3563H1.33154V13.7332Z" fill="#FFEFD2"/>
<path d="M5.16601 15.5447V17.3563H3.24902V15.5447H3.51595C3.6351 15.5447 3.7318 15.448 3.7318 15.3293V13.7332H4.68323V15.3293C4.68323 15.448 4.77957 15.5447 4.89872 15.5447H5.16601Z" fill="#FEDBA6"/>
<path d="M4.2077 13.7332V17.3563H3.24902V15.5447H3.51595C3.6351 15.5447 3.7318 15.448 3.7318 15.3293V13.7332H4.2077Z" fill="#FFEFD2"/>
<path d="M7.083 13.7332V17.3563H5.16602V15.5447H5.4333C5.55209 15.5447 5.64879 15.448 5.64879 15.3293V13.7332H7.083Z" fill="#FEDBA6"/>
<path d="M6.12469 13.7332V17.3563H5.16602V15.5447H5.4333C5.55209 15.5447 5.64879 15.448 5.64879 15.3293V13.7332H6.12469Z" fill="#FFEFD2"/>
<path d="M8.99999 15.5447V17.3563H7.08301V13.7332H8.51721V15.3293C8.51721 15.448 8.61391 15.5447 8.73271 15.5447H8.99999Z" fill="#FEDBA6"/>
<path d="M7.08301 13.7332H8.04168V17.3563H7.08301V13.7332Z" fill="#FFEFD2"/>
<path d="M10.917 15.5447V17.3563H9V15.5447H9.26728C9.38644 15.5447 9.48278 15.448 9.48278 15.3293V13.7332H10.4342V15.3293C10.4342 15.448 10.5309 15.5447 10.6501 15.5447H10.917Z" fill="#FEDBA6"/>
<path d="M9.95867 13.7332V17.3563H9V15.5447H9.26728C9.38644 15.5447 9.48278 15.448 9.48278 15.3293V13.7332H9.95867Z" fill="#FFEFD2"/>
<path d="M12.8343 15.5447V17.3563H10.917V15.5447H11.1843C11.3034 15.5447 11.4001 15.448 11.4001 15.3293V13.7332H12.3516V15.3293C12.3516 15.448 12.4479 15.5447 12.5671 15.5447H12.8343Z" fill="#FEDBA6"/>
<path d="M11.8757 13.7332V17.3563H10.917V15.5447H11.1843C11.3034 15.5447 11.4001 15.448 11.4001 15.3293V13.7332H11.8757Z" fill="#FFEFD2"/>
<path d="M14.7515 13.7332V17.3563H12.8345V15.5447H13.1014C13.2205 15.5447 13.3172 15.448 13.3172 15.3293V13.7332H14.7515Z" fill="#FEDBA6"/>
<path d="M13.7931 13.7332V17.3563H12.8345V15.5447H13.1014C13.2205 15.5447 13.3172 15.448 13.3172 15.3293V13.7332H13.7931Z" fill="#FFEFD2"/>
<path d="M14.7515 13.7332H16.6684V17.3563H14.7515V13.7332Z" fill="#FEDBA6"/>
<path d="M14.7515 13.7332H15.7098V17.3563H14.7515V13.7332Z" fill="#FFEFD2"/>
<path d="M0.816831 17.9999H0.783149C0.498662 17.9999 0.268066 17.7693 0.268066 17.4848V13.7332H1.33191V17.4848C1.33191 17.7693 1.10128 17.9999 0.816831 17.9999V17.9999Z" fill="#465A61"/>
<path d="M17.2172 17.9999H17.1835C16.8991 17.9999 16.6685 17.7693 16.6685 17.4848V13.7332H17.7323V17.4848C17.7323 17.7693 17.5017 17.9999 17.2172 17.9999V17.9999Z" fill="#465A61"/>
<path d="M13.3171 13.7332V15.3293C13.3171 15.448 13.2204 15.5447 13.1013 15.5447H12.5671C12.4479 15.5447 12.3516 15.448 12.3516 15.3293V13.7332H13.3171Z" fill="#465A61"/>
<path d="M3.73167 13.7332V15.3293C3.73167 15.448 3.63497 15.5447 3.51581 15.5447H2.98161C2.86245 15.5447 2.76611 15.448 2.76611 15.3293V13.7332H3.73167Z" fill="#465A61"/>
<path d="M5.64866 13.7332V15.3293C5.64866 15.448 5.55196 15.5447 5.43317 15.5447H4.8986C4.77944 15.5447 4.68311 15.448 4.68311 15.3293V13.7332H5.64866Z" fill="#465A61"/>
<path d="M9.48264 13.7332V15.3293C9.48264 15.448 9.38631 15.5447 9.26715 15.5447H8.73258C8.61379 15.5447 8.51709 15.448 8.51709 15.3293V13.7332H9.48264Z" fill="#465A61"/>
<path d="M11.4 13.7332V15.3293C11.4 15.448 11.3033 15.5447 11.1841 15.5447H10.6499C10.5308 15.5447 10.4341 15.448 10.4341 15.3293V13.7332H11.4Z" fill="#465A61"/>
<path d="M16.4089 12.1526C16.4089 12.3065 16.3467 12.4456 16.246 12.5463C16.1453 12.6473 16.0058 12.7096 15.8523 12.7096H2.10927C1.80178 12.7096 1.55225 12.4601 1.55225 12.1526C1.55225 11.9987 1.61454 11.8596 1.71559 11.7589C1.81627 11.6582 1.95571 11.5959 2.10927 11.5959H15.8523C16.1598 11.5959 16.4089 11.8451 16.4089 12.1526Z" fill="#A44F3E"/>
<path d="M15.1243 12.1526C15.1243 12.3065 15.062 12.4456 14.9613 12.5463C14.8607 12.6473 14.7216 12.7096 14.5677 12.7096H2.10927C1.80178 12.7096 1.55225 12.4601 1.55225 12.1526C1.55225 11.9987 1.61454 11.8596 1.71559 11.7589C1.81627 11.6582 1.95571 11.5959 2.10927 11.5959H14.5677C14.8751 11.5959 15.1243 11.8451 15.1243 12.1526Z" fill="#BB5D4C"/>
</svg>
