<svg width="18" height="18" viewBox="0 0 18 18" fill="none" xmlns="http://www.w3.org/2000/svg">
<path d="M16.7977 0.562744H15.4136L15.144 1.06855L15.4136 1.52733H16.7977C17.008 1.52733 17.1785 1.35687 17.1785 1.14656V0.94355C17.1785 0.733209 17.008 0.562744 16.7977 0.562744Z" fill="#3C87D0"/>
<path d="M15.4136 0.562772V1.52721H13.1465C12.6288 1.52721 12.23 1.98403 12.3 2.4971L13.2801 9.68868C13.447 10.9104 13.5301 12.1437 13.5301 13.3766C13.5301 15.9358 11.4147 17.9996 8.87369 18C8.69988 18 8.52789 17.9902 8.35881 17.9713C6.05257 17.7152 4.21657 15.7609 4.21657 13.3766C4.21657 11.7544 3.3882 10.6027 2.29785 9.51306L3.37231 7.39804L5.59829 6.21299C6.9321 7.54681 8.23254 8.81604 8.23254 10.8614V12.9332C8.23254 13.93 9.77789 13.9296 9.77789 12.9332V1.47388C9.77789 0.660015 10.4379 0 11.2521 0L14.3835 0.42344L15.4136 0.562772Z" fill="#FAC600"/>
<path d="M11.2699 2.4971L12.25 9.68868C12.4169 10.9104 12.5 12.1437 12.5 13.3766C12.5 15.7605 10.6643 17.7148 8.35881 17.9713C6.05257 17.7152 4.21657 15.7609 4.21657 13.3766C4.21657 11.7544 3.3882 10.6027 2.29785 9.51306L2.69266 8.36444L3.40732 8.40381C3.85144 7.95976 4.5611 7.92424 5.04477 8.32482C5.7915 8.94329 6.71404 10.0308 6.71404 11.6292C6.71404 13.7456 8.12913 13.6807 8.99996 13.6807C9.3882 13.6829 9.7779 13.4336 9.7779 12.9332V1.47388C9.7779 0.660015 10.4379 0 11.2521 0L14.3835 0.42344V1.52721H12.1164C11.5986 1.52721 11.1999 1.98403 11.2699 2.4971Z" fill="#FED402"/>
<path d="M11.109 3.31307H10.6256C10.4753 3.31307 10.3535 3.19122 10.3535 3.04093C10.3535 2.89064 10.4753 2.7688 10.6256 2.7688H11.109C11.2593 2.7688 11.3811 2.89064 11.3811 3.04093C11.3811 3.19122 11.2592 3.31307 11.109 3.31307Z" fill="#D7D0D6"/>
<path d="M11.109 8.82063H10.6256C10.4753 8.82063 10.3535 8.69879 10.3535 8.5485C10.3535 8.39821 10.4753 8.27637 10.6256 8.27637H11.109C11.2593 8.27637 11.3811 8.39821 11.3811 8.5485C11.3811 8.69879 11.2592 8.82063 11.109 8.82063Z" fill="#D7D0D6"/>
<path d="M11.109 6.06697H10.6256C10.4753 6.06697 10.3535 5.94513 10.3535 5.79484C10.3535 5.64455 10.4753 5.52271 10.6256 5.52271H11.109C11.2593 5.52271 11.3811 5.64455 11.3811 5.79484C11.3811 5.94513 11.2592 6.06697 11.109 6.06697Z" fill="#D7D0D6"/>
<path d="M5.79831 5.73052C5.79831 5.90504 5.73154 6.07994 5.59838 6.2131L2.29794 9.51317C2.03161 9.7795 1.59983 9.7795 1.3335 9.51317L1.02145 9.20113C0.98009 9.15976 0.944894 9.11441 0.916955 9.06615C0.916592 9.06615 0.916592 9.06615 0.91623 9.06542C0.761658 8.80381 0.796854 8.46129 1.02145 8.23669L4.32189 4.93625C4.54649 4.71165 4.88902 4.67645 5.15063 4.83102C5.15135 4.83139 5.15135 4.83139 5.15135 4.83175C5.19961 4.86005 5.24497 4.89489 5.28633 4.93625L5.59838 5.2483C5.73154 5.38146 5.79831 5.55599 5.79831 5.73052Z" fill="#FFE2B5"/>
<path d="M5.24606 5.17827C5.24606 5.3528 5.17929 5.52769 5.04613 5.66085L1.74569 8.96092C1.52109 9.18552 1.17857 9.22072 0.916955 9.06615C0.916592 9.06615 0.916592 9.06615 0.91623 9.06542C0.761658 8.80381 0.796854 8.46129 1.02145 8.23669L4.32189 4.93625C4.54649 4.71165 4.88902 4.67645 5.15063 4.83102C5.15135 4.83139 5.15135 4.83139 5.15135 4.83175C5.21449 4.93843 5.24606 5.05817 5.24606 5.17827Z" fill="#FFF5E4"/>
<path d="M10.6257 8.54865C10.6257 9.01672 10.2462 9.39626 9.77778 9.39626C9.63772 9.39626 9.50528 9.36215 9.38881 9.30155C9.11632 9.16077 8.93018 8.87666 8.93018 8.54865C8.93018 8.22064 9.11632 7.93617 9.38881 7.79539C9.50528 7.73479 9.63772 7.70068 9.77778 7.70068C10.2462 7.70068 10.6257 8.08022 10.6257 8.54865Z" fill="#596C76"/>
<path d="M9.84745 8.54868C9.84745 8.87632 9.66131 9.1608 9.38881 9.30158C9.11632 9.1608 8.93018 8.87669 8.93018 8.54868C8.93018 8.22066 9.11632 7.93619 9.38881 7.79541C9.66131 7.93619 9.84745 8.22066 9.84745 8.54868Z" fill="#7A8C98"/>
<path d="M10.6257 5.79475C10.6257 6.26318 10.2462 6.64271 9.77778 6.64271C9.63772 6.64271 9.50528 6.60861 9.38881 6.54801C9.11632 6.40723 8.93018 6.12276 8.93018 5.79475C8.93018 5.46673 9.11632 5.18226 9.38881 5.04148C9.50528 4.98088 9.63772 4.94678 9.77778 4.94678C10.2462 4.94678 10.6257 5.32668 10.6257 5.79475Z" fill="#596C76"/>
<path d="M9.38881 6.54779C9.64211 6.54779 9.84745 6.21054 9.84745 5.79453C9.84745 5.37851 9.64211 5.04126 9.38881 5.04126C9.13551 5.04126 8.93018 5.37851 8.93018 5.79453C8.93018 6.21054 9.13551 6.54779 9.38881 6.54779Z" fill="#7A8C98"/>
<path d="M10.6257 3.04108C10.6257 3.50915 10.2462 3.88869 9.77778 3.88869C9.63772 3.88869 9.50528 3.85458 9.38881 3.79399C9.11632 3.6532 8.93018 3.36909 8.93018 3.04108C8.93018 2.71307 9.11632 2.4286 9.38881 2.28782C9.50528 2.22722 9.63772 2.19312 9.77778 2.19312C10.2462 2.19312 10.6257 2.57265 10.6257 3.04108Z" fill="#596C76"/>
<path d="M9.84745 3.04111C9.84745 3.36876 9.66131 3.65323 9.38881 3.79401C9.11632 3.65323 8.93018 3.36912 8.93018 3.04111C8.93018 2.7131 9.11632 2.42863 9.38881 2.28784C9.66131 2.42863 9.84745 2.7131 9.84745 3.04111Z" fill="#7A8C98"/>
<path d="M10.8674 11.0572C11.0339 11.0572 11.1688 10.9223 11.1688 10.7558C11.1688 10.5893 11.0339 10.4543 10.8674 10.4543C10.7009 10.4543 10.5659 10.5893 10.5659 10.7558C10.5659 10.9223 10.7009 11.0572 10.8674 11.0572Z" fill="#596C76"/>
<path d="M10.8674 12.7184C11.0339 12.7184 11.1688 12.5834 11.1688 12.4169C11.1688 12.2504 11.0339 12.1155 10.8674 12.1155C10.7009 12.1155 10.5659 12.2504 10.5659 12.4169C10.5659 12.5834 10.7009 12.7184 10.8674 12.7184Z" fill="#596C76"/>
<path d="M13.4311 11.3294C13.2808 11.3294 13.159 11.2075 13.159 11.0572C13.159 10.9069 13.2808 10.7851 13.4311 10.7851C13.627 10.7851 13.8129 10.7001 13.9411 10.5519C14.0692 10.4038 14.1265 10.2076 14.0982 10.0137L13.3291 4.73761C13.2812 4.40873 12.9944 4.16072 12.662 4.16072H12.4894C12.3391 4.16072 12.2173 4.03888 12.2173 3.88859C12.2173 3.7383 12.3391 3.61646 12.4894 3.61646H12.662C13.2627 3.61646 13.781 4.06471 13.8677 4.65909L14.6368 9.93521C14.6879 10.2856 14.5843 10.6401 14.3527 10.908C14.1211 11.1758 13.7852 11.3294 13.4311 11.3294Z" fill="#596C76"/>
</svg>
