<svg width="18" height="10" viewBox="0 0 18 10" fill="none" xmlns="http://www.w3.org/2000/svg">
<path d="M17.8594 9.81639H0.140625C0.0629648 9.81639 0 9.75343 0 9.67577V3.26172H18V9.67577C18 9.75343 17.937 9.81639 17.8594 9.81639Z" fill="#464646"/>
<path d="M17.8595 9.81639H16.9136V3.26172H18.0001V9.67577C18.0001 9.75343 17.9371 9.81639 17.8595 9.81639Z" fill="#353535"/>
<path d="M2.66916 5.18115H1.08643V9.8165H2.66916V5.18115Z" fill="#FFDEA9"/>
<path d="M4.25217 5.18115H2.66943V9.8165H4.25217V5.18115Z" fill="#FFBF7B"/>
<path d="M5.83469 5.18115H4.25195V9.8165H5.83469V5.18115Z" fill="#FFDEA9"/>
<path d="M7.41721 5.18115H5.83447V9.8165H7.41721V5.18115Z" fill="#FFBF7B"/>
<path d="M9.00022 5.18115H7.41748V9.8165H9.00022V5.18115Z" fill="#FFDEA9"/>
<path d="M10.5827 5.18115H9V9.8165H10.5827V5.18115Z" fill="#FFBF7B"/>
<path d="M12.1653 5.18115H10.5825V9.8165H12.1653V5.18115Z" fill="#FFDEA9"/>
<path d="M13.7483 5.18115H12.1655V9.8165H13.7483V5.18115Z" fill="#FFBF7B"/>
<path d="M15.3308 5.18115H13.748V9.8165H15.3308V5.18115Z" fill="#FFDEA9"/>
<path d="M16.9138 5.18115H15.3311V9.8165H16.9138V5.18115Z" fill="#FFBF7B"/>
<path d="M18 3.79653H0V0.324219C0 0.246559 0.0629648 0.183594 0.140625 0.183594H17.8594C17.937 0.183594 18 0.246559 18 0.324219V3.79653Z" fill="#595959"/>
<path d="M18.0001 3.79653H16.9136V0.183594H17.8595C17.9371 0.183594 18.0001 0.246559 18.0001 0.324219V3.79653Z" fill="#464646"/>
<path d="M5.55908 2.55548V1.38818C5.55908 1.31052 5.62205 1.24756 5.69971 1.24756H12.2997C12.3774 1.24756 12.4404 1.31052 12.4404 1.38818V2.55548C12.4404 2.63314 12.3774 2.6961 12.2997 2.6961H5.69971C5.62205 2.6961 5.55908 2.63317 5.55908 2.55548Z" fill="#FFDEA9"/>
<path d="M3.42236 2.55548V1.38818C3.42236 1.31052 3.48533 1.24756 3.56299 1.24756H4.36824C4.4459 1.24756 4.50887 1.31052 4.50887 1.38818V2.55548C4.50887 2.63314 4.4459 2.6961 4.36824 2.6961H3.56299C3.48533 2.6961 3.42236 2.63317 3.42236 2.55548Z" fill="#FFDEA9"/>
<path d="M13.4907 2.55548V1.38818C13.4907 1.31052 13.5537 1.24756 13.6313 1.24756H14.4366C14.5143 1.24756 14.5772 1.31052 14.5772 1.38818V2.55548C14.5772 2.63314 14.5143 2.6961 14.4366 2.6961H13.6313C13.5537 2.6961 13.4907 2.63317 13.4907 2.55548Z" fill="#FFDEA9"/>
<path d="M2.99928 7.72882H2.33887C2.26121 7.72882 2.19824 7.66586 2.19824 7.5882V5.18115H3.1399V7.58816C3.1399 7.66586 3.07694 7.72882 2.99928 7.72882Z" fill="#595959"/>
<path d="M4.5818 7.72882H3.92139C3.84373 7.72882 3.78076 7.66586 3.78076 7.5882V5.18115H4.72242V7.58816C4.72242 7.66586 4.65946 7.72882 4.5818 7.72882Z" fill="#595959"/>
<path d="M7.73801 7.72882H7.07764C6.99998 7.72882 6.93701 7.66586 6.93701 7.5882V5.18115H7.87867V7.58816C7.87864 7.66586 7.81567 7.72882 7.73801 7.72882Z" fill="#595959"/>
<path d="M9.32984 7.72882H8.66943C8.59177 7.72882 8.52881 7.66586 8.52881 7.5882V5.18115H9.47047V7.58816C9.47047 7.66586 9.40754 7.72882 9.32984 7.72882Z" fill="#595959"/>
<path d="M10.9345 7.71648L10.2741 7.72661C10.1956 7.7278 10.1313 7.66452 10.1313 7.58598V5.18115H11.073V7.57586C11.073 7.65271 11.0113 7.71529 10.9345 7.71648Z" fill="#595959"/>
<path d="M14.0784 7.71437H13.418C13.3403 7.71437 13.2773 7.65141 13.2773 7.57375V5.18115H14.219V7.57371C14.219 7.65141 14.156 7.71437 14.0784 7.71437Z" fill="#595959"/>
<path d="M2.46782 1.75171H1.81592C1.6703 1.75171 1.55225 1.63369 1.55225 1.48804C1.55225 1.34238 1.6703 1.22437 1.81592 1.22437H2.46782C2.61344 1.22437 2.73149 1.34238 2.73149 1.48804C2.73149 1.63369 2.61344 1.75171 2.46782 1.75171Z" fill="#FFCE55"/>
<path d="M2.46782 2.69336H1.81592C1.6703 2.69336 1.55225 2.57534 1.55225 2.42969C1.55225 2.28404 1.6703 2.16602 1.81592 2.16602H2.46782C2.61344 2.16602 2.73149 2.28404 2.73149 2.42969C2.73149 2.57534 2.61344 2.69336 2.46782 2.69336Z" fill="#FFCE55"/>
<path d="M16.1841 1.75171H15.5322C15.3866 1.75171 15.2686 1.63369 15.2686 1.48804C15.2686 1.34238 15.3866 1.22437 15.5322 1.22437H16.1841C16.3297 1.22437 16.4478 1.34238 16.4478 1.48804C16.4478 1.63369 16.3297 1.75171 16.1841 1.75171Z" fill="#FFCE55"/>
<path d="M16.1841 2.69336H15.5322C15.3866 2.69336 15.2686 2.57534 15.2686 2.42969C15.2686 2.28404 15.3866 2.16602 15.5322 2.16602H16.1841C16.3297 2.16602 16.4478 2.28404 16.4478 2.42969C16.4478 2.57534 16.3297 2.69336 16.1841 2.69336Z" fill="#FFCE55"/>
<path d="M15.6609 7.71613H15.0005C14.9228 7.71613 14.8599 7.65316 14.8599 7.5755V5.18115H15.8015V7.57547C15.8015 7.65316 15.7386 7.71613 15.6609 7.71613Z" fill="#595959"/>
</svg>
