<svg width="18" height="18" viewBox="0 0 18 18" fill="none" xmlns="http://www.w3.org/2000/svg">
<path d="M9.00027 2.31792C9.64035 2.31792 10.1592 1.79904 10.1592 1.15896C10.1592 0.518884 9.64035 0 9.00027 0C8.36019 0 7.84131 0.518884 7.84131 1.15896C7.84131 1.79904 8.36019 2.31792 9.00027 2.31792Z" fill="#9D9D9D"/>
<path d="M9.00027 18.0001C9.64035 18.0001 10.1592 17.4812 10.1592 16.8411C10.1592 16.201 9.64035 15.6821 9.00027 15.6821C8.36019 15.6821 7.84131 16.201 7.84131 16.8411C7.84131 17.4812 8.36019 18.0001 9.00027 18.0001Z" fill="#9D9D9D"/>
<path d="M14.5447 4.61431C15.1848 4.61431 15.7037 4.09542 15.7037 3.45535C15.7037 2.81527 15.1848 2.29639 14.5447 2.29639C13.9046 2.29639 13.3857 2.81527 13.3857 3.45535C13.3857 4.09542 13.9046 4.61431 14.5447 4.61431Z" fill="#9D9D9D"/>
<path d="M3.45535 15.7037C4.09542 15.7037 4.61431 15.1848 4.61431 14.5447C4.61431 13.9046 4.09542 13.3857 3.45535 13.3857C2.81527 13.3857 2.29639 13.9046 2.29639 14.5447C2.29639 15.1848 2.81527 15.7037 3.45535 15.7037Z" fill="#9D9D9D"/>
<path d="M16.8411 10.1592C17.4812 10.1592 18.0001 9.64035 18.0001 9.00027C18.0001 8.36019 17.4812 7.84131 16.8411 7.84131C16.201 7.84131 15.6821 8.36019 15.6821 9.00027C15.6821 9.64035 16.201 10.1592 16.8411 10.1592Z" fill="#9D9D9D"/>
<path d="M1.15896 10.1592C1.79904 10.1592 2.31792 9.64035 2.31792 9.00027C2.31792 8.36019 1.79904 7.84131 1.15896 7.84131C0.518884 7.84131 0 8.36019 0 9.00027C0 9.64035 0.518884 10.1592 1.15896 10.1592Z" fill="#9D9D9D"/>
<path d="M14.5447 15.7037C15.1848 15.7037 15.7037 15.1848 15.7037 14.5447C15.7037 13.9046 15.1848 13.3857 14.5447 13.3857C13.9046 13.3857 13.3857 13.9046 13.3857 14.5447C13.3857 15.1848 13.9046 15.7037 14.5447 15.7037Z" fill="#9D9D9D"/>
<path d="M3.45535 4.61431C4.09542 4.61431 4.61431 4.09542 4.61431 3.45535C4.61431 2.81527 4.09542 2.29639 3.45535 2.29639C2.81527 2.29639 2.29639 2.81527 2.29639 3.45535C2.29639 4.09542 2.81527 4.61431 3.45535 4.61431Z" fill="#9D9D9D"/>
<path d="M8.99987 16.8591C13.3404 16.8591 16.8591 13.3404 16.8591 8.99987C16.8591 4.65933 13.3404 1.14062 8.99987 1.14062C4.65933 1.14062 1.14062 4.65933 1.14062 8.99987C1.14062 13.3404 4.65933 16.8591 8.99987 16.8591Z" fill="#735458"/>
<path d="M9.00031 1.14062C8.81763 1.14062 8.63658 1.14738 8.45703 1.15964C12.5441 1.43875 15.773 4.84197 15.773 8.99983C15.773 13.1577 12.5441 16.5609 8.45703 16.84C8.63658 16.8523 8.81763 16.859 9.00031 16.859C13.3408 16.859 16.8595 13.3403 16.8595 8.99983C16.8595 4.6593 13.3408 1.14062 9.00031 1.14062Z" fill="#5C4346"/>
<path d="M9.00023 15.7729C5.26577 15.7729 2.22754 12.7347 2.22754 9.00023C2.22754 5.26577 5.26577 2.22754 9.00023 2.22754C12.7347 2.22754 15.7729 5.26577 15.7729 9.00023C15.7729 12.7347 12.7347 15.7729 9.00023 15.7729Z" fill="#FFDEA9"/>
<path d="M9.04816 2.22754C8.86527 2.22754 8.68415 2.23506 8.50488 2.24937C11.9863 2.527 14.7343 5.44861 14.7343 9.00023C14.7343 12.5519 11.9863 15.4735 8.50488 15.7511C8.68415 15.7654 8.86527 15.7729 9.04816 15.7729C12.7826 15.7729 15.8209 12.7347 15.8209 9.00023C15.8209 5.26577 12.7826 2.22754 9.04816 2.22754Z" fill="#FFBF7B"/>
</svg>
