<svg width="18" height="12" viewBox="0 0 18 12" fill="none" xmlns="http://www.w3.org/2000/svg">
<path d="M4.49981 8.07046C0.0563773 8.07046 0.25276 2.43994 0.25276 2.43994H8.74686C8.74686 2.43994 8.94324 8.07046 4.49981 8.07046Z" fill="#F5A257"/>
<path d="M4.49979 9.49951C6.94431 9.49951 6.83628 11.6249 6.83628 11.6249H2.16331C2.16331 11.6249 2.05527 9.49951 4.49979 9.49951Z" fill="#A66856"/>
<path d="M13.4998 8.07046C9.05638 8.07046 9.25276 2.43994 9.25276 2.43994H17.7469C17.7469 2.43994 17.9432 8.07046 13.4998 8.07046Z" fill="#F5A257"/>
<path d="M17.7472 2.43994H16.7195C16.7195 2.43994 16.9003 7.62651 12.9863 8.04374C13.1503 8.06121 13.3214 8.07046 13.5002 8.07046C17.9436 8.07046 17.7472 2.43994 17.7472 2.43994Z" fill="#DB8F52"/>
<path d="M8.74719 2.43994H7.71954C7.71954 2.43994 7.90031 7.62651 3.98633 8.04374C4.15033 8.06121 4.32144 8.07046 4.50017 8.07046C8.94357 8.07046 8.74719 2.43994 8.74719 2.43994Z" fill="#DB8F52"/>
<path d="M13.4998 9.49951C15.9443 9.49951 15.8363 11.6249 15.8363 11.6249H11.1633C11.1633 11.6249 11.0553 9.49951 13.4998 9.49951Z" fill="#A66856"/>
<path d="M4.5 11.2658C4.35435 11.2658 4.23633 11.1478 4.23633 11.0022V1.97021C4.23633 1.82456 4.35435 1.70654 4.5 1.70654C4.64565 1.70654 4.76367 1.82456 4.76367 1.97021V11.0022C4.76367 11.1478 4.64565 11.2658 4.5 11.2658Z" fill="#5C4346"/>
<path d="M2.96331 11.0375C2.84645 11.0375 2.73965 10.9592 2.7085 10.8408L0.388152 2.02571C0.351062 1.88487 0.435191 1.7407 0.576027 1.70361C0.716758 1.66645 0.861039 1.75061 0.898129 1.89148L3.21848 10.7066C3.25557 10.8474 3.17144 10.9916 3.0306 11.0287C3.0081 11.0346 2.98553 11.0375 2.96331 11.0375Z" fill="#5C4346"/>
<path d="M6.03637 11.0375C6.01415 11.0375 5.99158 11.0347 5.96908 11.0288C5.82825 10.9917 5.74415 10.8475 5.78121 10.7067L8.10155 1.89154C8.13861 1.7507 8.28275 1.66633 8.42366 1.70367C8.56449 1.74076 8.64859 1.88493 8.61153 2.02577L6.29118 10.8409C6.26003 10.9592 6.15323 11.0375 6.03637 11.0375Z" fill="#5C4346"/>
<path d="M13.5 11.2658C13.3543 11.2658 13.2363 11.1478 13.2363 11.0022V1.97021C13.2363 1.82456 13.3543 1.70654 13.5 1.70654C13.6457 1.70654 13.7637 1.82456 13.7637 1.97021V11.0022C13.7637 11.1478 13.6457 11.2658 13.5 11.2658Z" fill="#5C4346"/>
<path d="M11.9633 11.0375C11.8465 11.0375 11.7396 10.9592 11.7085 10.8408L9.38815 2.02571C9.35106 1.88487 9.43519 1.7407 9.57603 1.70361C9.71676 1.66645 9.86104 1.75061 9.89813 1.89148L12.2185 10.7066C12.2556 10.8474 12.1714 10.9916 12.0306 11.0287C12.0081 11.0346 11.9855 11.0375 11.9633 11.0375Z" fill="#5C4346"/>
<path d="M15.0364 11.0375C15.0142 11.0375 14.9916 11.0347 14.9691 11.0288C14.8282 10.9917 14.7442 10.8475 14.7812 10.7067L17.1016 1.89154C17.1386 1.7507 17.2827 1.66633 17.4237 1.70367C17.5645 1.74076 17.6486 1.88493 17.6115 2.02577L15.2912 10.8409C15.26 10.9592 15.1532 11.0375 15.0364 11.0375Z" fill="#5C4346"/>
<path d="M16.198 11.625H10.8018C10.7241 11.625 10.6611 11.562 10.6611 11.4843V10.6541C10.6611 10.5764 10.7241 10.5134 10.8018 10.5134H16.198C16.2756 10.5134 16.3386 10.5764 16.3386 10.6541V11.4843C16.3386 11.562 16.2756 11.625 16.198 11.625Z" fill="#8F5040"/>
<path d="M16.1983 11.625H15.2524V10.5134H16.1983C16.276 10.5134 16.3389 10.5764 16.3389 10.6541V11.4843C16.3389 11.562 16.276 11.625 16.1983 11.625Z" fill="#75360D"/>
<path d="M7.19796 11.625H1.80176C1.7241 11.625 1.66113 11.562 1.66113 11.4843V10.6541C1.66113 10.5764 1.7241 10.5134 1.80176 10.5134H7.19796C7.27562 10.5134 7.33859 10.5764 7.33859 10.6541V11.4843C7.33859 11.562 7.27562 11.625 7.19796 11.625Z" fill="#8F5040"/>
<path d="M7.19832 11.625H6.25244V10.5134H7.19832C7.27598 10.5134 7.33895 10.5764 7.33895 10.6541V11.4843C7.33895 11.562 7.27598 11.625 7.19832 11.625Z" fill="#75360D"/>
<path d="M8.86454 2.44012H0.135457C0.0606445 2.44012 0 2.37948 0 2.30466V1.61251C0 1.5377 0.0606445 1.47705 0.135457 1.47705H8.86451C8.93932 1.47705 8.99996 1.5377 8.99996 1.61251V2.30466C9 2.37948 8.93936 2.44012 8.86454 2.44012Z" fill="#735458"/>
<path d="M8.74263 1.47697H0.257812V0.872777C0.257812 0.597855 0.480668 0.375 0.75559 0.375H8.24486C8.51978 0.375 8.74263 0.597855 8.74263 0.872777V1.47697Z" fill="#FFDEA9"/>
<path d="M17.8645 2.44012H9.13546C9.06064 2.44012 9 2.37948 9 2.30466V1.61251C9 1.5377 9.06064 1.47705 9.13546 1.47705H17.8645C17.9393 1.47705 18 1.5377 18 1.61251V2.30466C18 2.37948 17.9394 2.44012 17.8645 2.44012Z" fill="#735458"/>
<path d="M17.8648 1.47705H16.7783C16.8531 1.47705 16.9137 1.53777 16.9137 1.61265V2.30452C16.9137 2.37944 16.8531 2.44012 16.7783 2.44012H17.8648C17.9396 2.44012 18.0002 2.37941 18.0002 2.30452V1.61265C18.0002 1.53777 17.9396 1.47705 17.8648 1.47705Z" fill="#5C4346"/>
<path d="M8.86482 1.47705H7.77832C7.85306 1.47705 7.91367 1.53777 7.91367 1.61265V2.30452C7.91367 2.37944 7.8531 2.44012 7.77832 2.44012H8.86482C8.93957 2.44012 9.00018 2.37941 9.00018 2.30452V1.61265C9.00018 1.53777 8.9396 1.47705 8.86482 1.47705Z" fill="#5C4346"/>
<path d="M17.7426 1.47697H9.25781V0.872777C9.25781 0.597855 9.48067 0.375 9.75559 0.375H17.2449C17.5198 0.375 17.7426 0.597855 17.7426 0.872777V1.47697Z" fill="#FFDEA9"/>
<path d="M17.2451 0.375H16.1646C16.4392 0.375 16.6618 0.598101 16.6618 0.873269V1.47697H17.7424V0.873269C17.7425 0.598101 17.5198 0.375 17.2451 0.375Z" fill="#FFBF7B"/>
<path d="M8.24515 0.375H7.16455C7.43919 0.375 7.66184 0.598101 7.66184 0.873269V1.47697H8.74243V0.873269C8.74243 0.598101 8.51979 0.375 8.24515 0.375Z" fill="#FFBF7B"/>
</svg>
