<svg width="18" height="18" viewBox="0 0 18 18" fill="none" xmlns="http://www.w3.org/2000/svg">
<path d="M16.7611 15.0856L16.3543 15.3232L15.9091 15.5833L15.7971 15.6486L10.667 6.86429C10.6414 6.8205 10.629 6.77234 10.6294 6.72491C10.6298 6.63077 10.6783 6.53918 10.7655 6.48847L10.8483 6.43994L11.2552 6.20241C11.3862 6.12615 11.5544 6.1703 11.631 6.30129L16.7611 15.0856Z" fill="#AEA7AD"/>
<path d="M16.3543 15.3232L15.9091 15.5834L15.7971 15.6487L10.667 6.8643C10.6414 6.82052 10.629 6.77236 10.6294 6.72492C10.6298 6.63078 10.6783 6.5392 10.7655 6.48848L10.8483 6.43995C10.9793 6.3637 11.1475 6.40785 11.2241 6.53884L16.3543 15.3232Z" fill="#D2CED2"/>
<path d="M17.8639 16.9319L17.4202 17.1909C17.4195 17.1913 17.4191 17.1916 17.4184 17.192L16.8638 17.5157C16.7204 17.5996 16.5361 17.5379 16.4719 17.385L15.605 15.3191L16.1238 15.0163L16.569 14.7561L17.9424 16.5261C18.0442 16.6575 18.007 16.8479 17.8639 16.9319Z" fill="#FAC600"/>
<path d="M17.4202 17.1909C17.4195 17.1913 17.4191 17.1916 17.4184 17.192L16.8638 17.5157C16.7204 17.5996 16.5361 17.5379 16.4719 17.385L15.605 15.3191L16.1621 14.9939L17.4969 16.7863C17.5983 16.9169 17.5622 17.1063 17.4202 17.1909Z" fill="#FED402"/>
<path d="M12.4769 12.9921L7.67076 4.7682C7.37083 4.25555 6.78667 4.07348 6.28497 4.22235C6.00876 4.30408 5.75736 4.48615 5.59244 4.7682L0.166384 14.0528C-0.302845 14.8552 0.276211 15.8637 1.20555 15.8637H10.0742C10.4661 15.8637 10.7839 15.5459 10.7839 15.154C10.7839 14.9581 10.7043 14.7807 10.5759 14.6523C10.4475 14.5239 10.2701 14.4443 10.0742 14.4443H2.44904C2.14364 14.4443 1.95062 14.1167 2.09803 13.8496L6.28095 6.28571C6.43347 6.00987 6.82973 6.00987 6.98224 6.28571L11.1177 13.7649C11.1965 13.9072 11.3159 14.0185 11.4567 14.0878C11.5622 14.14 11.6804 14.1685 11.8019 14.1685C12.4057 14.1685 12.7816 13.5132 12.4769 12.9921Z" fill="#AEA7AD"/>
<path d="M11.7836 12.9919L6.9775 4.76802C6.81258 4.48597 6.56118 4.3039 6.28497 4.22217C6.00876 4.3039 5.75736 4.48597 5.59244 4.76802L0.166384 14.0526C-0.302845 14.855 0.276211 15.8635 1.20555 15.8635H9.38093C9.77281 15.8635 10.0906 15.5457 10.0906 15.1538C10.0906 14.9579 10.0111 14.7805 9.88263 14.6521C9.7542 14.5237 9.57687 14.4441 9.38093 14.4441H1.75578C1.45038 14.4441 1.25736 14.1165 1.40477 13.8494L5.58769 6.28553C6.07334 5.40181 6.79105 5.89877 6.98224 6.28553L11.1177 13.7647C11.1965 13.907 11.3159 14.0183 11.4567 14.0877C11.8409 13.8972 12.0241 13.4028 11.7836 12.9919Z" fill="#D2CED2"/>
<path d="M7.18976 0.985816V7.94215C7.18976 8.25047 6.93982 8.50041 6.6315 8.50041C6.5297 8.50041 6.43447 8.47341 6.35237 8.42561C6.18562 8.32928 6.07324 8.14867 6.07324 7.94215V0.985816C6.07324 0.751566 6.19256 0.593211 6.3531 0.511479C6.68368 0.343636 7.18976 0.500897 7.18976 0.985816Z" fill="#0078C8"/>
<path d="M6.6315 0.985812V7.94215C6.6315 8.14867 6.51912 8.32928 6.35237 8.42561C6.18562 8.32928 6.07324 8.14867 6.07324 7.94215V0.985812C6.07324 0.751562 6.19256 0.593207 6.3531 0.511475C6.51292 0.593207 6.6315 0.751197 6.6315 0.985812Z" fill="#3C87D0"/>
</svg>
