<svg width="18" height="16" viewBox="0 0 18 16" fill="none" xmlns="http://www.w3.org/2000/svg">
<path d="M3.53178 14.321C3.46439 14.321 3.39699 14.2953 3.34549 14.2439L1.48657 12.3882C1.38352 12.2854 1.38335 12.1184 1.48625 12.0154C1.58912 11.9123 1.75608 11.9122 1.85915 12.0151L3.71808 13.8707C3.82112 13.9736 3.82129 14.1406 3.71839 14.2436C3.66692 14.2952 3.59935 14.321 3.53178 14.321Z" fill="#FFA440"/>
<path d="M5.11573 12.7397C5.04834 12.7397 4.98094 12.714 4.92944 12.6626L3.07055 10.807C2.96751 10.7041 2.96733 10.5371 3.07024 10.4341C3.1731 10.331 3.34006 10.3308 3.44314 10.4338L5.30202 12.2895C5.40507 12.3923 5.40524 12.5593 5.30234 12.6623C5.25084 12.7139 5.18327 12.7397 5.11573 12.7397Z" fill="#FFA440"/>
<path d="M17.8384 1.15233L17.1369 1.85247C17.1365 1.85321 17.1362 1.85356 17.1355 1.8543L3.61378 15.3522C3.02597 15.9394 2.06078 15.931 1.46249 15.3338L0.454207 14.3273C-0.144084 13.73 -0.152417 12.7666 0.43575 12.1798L1.12169 11.4949C1.33681 11.2801 1.68595 11.2801 1.90107 11.4949C2.11619 11.71 2.11619 12.0585 1.90107 12.2732L1.21513 12.9578C1.05721 13.1157 1.06519 13.3808 1.23359 13.5492L2.24223 14.5558C2.41062 14.7238 2.67613 14.7322 2.83436 14.5742L16.3426 1.08894L17.059 0.373968C17.2741 0.159198 17.6233 0.159198 17.8384 0.373968C18.0539 0.588739 18.0539 0.937174 17.8384 1.15233Z" fill="#FFCE55"/>
<path d="M17.8385 1.15233L17.1355 1.85426C17.1363 1.85352 17.1366 1.85317 17.137 1.85243C17.338 1.63657 17.3337 1.299 17.1232 1.08929C16.9081 0.874522 16.559 0.874522 16.3439 1.08929L16.3428 1.08894L17.0592 0.373968C17.2743 0.159198 17.6234 0.159198 17.8385 0.373968C18.054 0.588737 18.054 0.937171 17.8385 1.15233Z" fill="#FFBC38"/>
<path d="M11.4817 6.02686C9.42167 5.38069 6.26281 7.94214 4.35164 9.82662L3.57227 9.04826C3.57227 9.04826 3.57624 9.0439 3.58422 9.03521C3.60268 9.01602 3.64072 8.97545 3.69503 8.91603C3.69756 8.9135 3.70009 8.91062 3.70301 8.9077C4.45342 8.0906 8.15154 3.92139 7.40257 1.91119C7.37614 1.84021 7.51086 1.81015 7.56517 1.86302C7.98093 2.26721 9.33691 3.59032 10.4383 4.7182C10.8613 5.15175 11.2466 5.55633 11.527 5.8689C11.5744 5.92216 11.5498 6.0482 11.4817 6.02686Z" fill="#FFCE55"/>
<path d="M11.4817 6.02667C9.42167 5.3805 6.26281 7.94195 4.35164 9.82643L3.57227 9.04807C3.57227 9.04807 3.57624 9.04371 3.58422 9.03503C3.60197 9.01548 3.63927 8.97491 3.69503 8.91585C3.69756 8.91332 3.70009 8.91044 3.70301 8.90752C4.3205 8.2592 6.69091 5.73614 10.4383 4.71802C10.8613 5.15156 11.2466 5.55614 11.527 5.86872C11.5744 5.92198 11.5498 6.04801 11.4817 6.02667Z" fill="#FFBC38"/>
<path d="M4.35182 9.82652L1.51292 12.6605L0.733398 11.8823L3.57227 9.04834L4.35182 9.82652Z" fill="#FFBC38"/>
<path d="M9.72993 10.2641L9.34767 10.6457C9.29276 10.7005 9.20388 10.7005 9.14897 10.6457L7.54908 9.04856C7.49406 8.99361 7.49406 8.90446 7.54908 8.84951L7.93098 8.46824C8.09562 8.30388 8.36221 8.30388 8.52684 8.46824L9.72993 9.66925C9.89439 9.83346 9.89439 10.0999 9.72993 10.2641Z" fill="#FFA440"/>
<path d="M13.4357 5.78544L9.63818 9.57743L8.61963 8.56095L12.4175 4.76865C12.4724 4.71384 12.5613 4.71384 12.6162 4.76861L13.4356 5.58642C13.4907 5.64133 13.4907 5.73053 13.4357 5.78544Z" fill="#FFBC38"/>
</svg>
