<svg width="18" height="18" viewBox="0 0 18 18" fill="none" xmlns="http://www.w3.org/2000/svg">
<path d="M7.80756 8.40161H8.67685L8.61785 9.2119C8.36328 9.58016 8.06521 9.97047 7.74968 10.3782C6.4564 12.0479 4.87117 14.006 4.79613 15.9311L1.08838 12.2233C3.01858 12.1478 4.97207 10.5641 6.6418 9.27028C7.04848 8.95479 7.43876 8.65669 7.80756 8.40161Z" fill="#FAC600"/>
<path d="M6.98083 9.60953L7.41065 10.0394C7.60431 10.233 7.62386 10.5404 7.45603 10.7568C6.22823 12.3401 4.86555 14.1498 4.79613 15.9313L2.53113 14.488L1.08838 12.2235C2.87451 12.1536 4.68059 10.7923 6.26332 9.56426C6.47972 9.39632 6.78714 9.41584 6.98083 9.60953Z" fill="#FED402"/>
<path d="M12.8965 3.31275L11.2644 4.94484L12.0747 5.75513L13.1134 4.71642C13.623 4.20681 14.4617 4.21832 14.986 4.74253L16.056 5.8125C16.5802 6.33675 16.5917 7.17543 16.0821 7.68508L10.7438 13.0234C10.2341 13.533 9.39542 13.5215 8.87117 12.9973L8.11644 13.1914L7.95947 13.909C8.44555 14.395 9.08221 14.6378 9.71909 14.638C10.3558 14.6375 10.9926 14.395 11.4787 13.909L17.4857 7.90199C18.1712 7.21643 18.1712 6.10394 17.4857 5.41838L15.3801 3.31278C14.6946 2.62719 13.5821 2.62719 12.8965 3.31275Z" fill="#FAC600"/>
<path d="M12.3502 3.85901L10.7179 5.49136L11.5281 6.30165L13.1134 4.71642C13.623 4.2068 14.4617 4.21832 14.986 4.74253L16.0559 5.8125C16.5801 6.33674 16.5917 7.17543 16.082 7.68508L10.1975 13.5696C9.68787 14.0792 8.84915 14.0677 8.32491 13.5435H8.06106L7.95947 13.9089C8.44555 14.395 9.08221 14.6378 9.71909 14.638C10.3558 14.6375 10.9926 14.395 11.4787 13.9089L16.9394 8.44825C17.625 7.76269 17.6247 6.65046 16.9392 5.9649L14.8336 3.8593C14.148 3.1737 13.0358 3.17345 12.3502 3.85901Z" fill="#FED402"/>
<path d="M11.2646 4.94507L15.9473 9.62775C16.2655 9.94595 16.2655 10.4618 15.9473 10.78C15.8504 10.8769 15.7354 10.944 15.6129 10.9816C15.3333 11.0688 15.0163 11.0014 14.795 10.78L10.1123 6.09736L11.2646 4.94507Z" fill="#FFE2B5"/>
<path d="M10.7283 5.48145L15.411 10.1642C15.6324 10.3855 15.6998 10.7024 15.6129 10.9817C15.3333 11.0689 15.0163 11.0015 14.795 10.7802L10.1123 6.09747L10.7283 5.48145Z" fill="#FFF5E4"/>
<path d="M10.1124 6.09741L14.7951 10.7801C15.1133 11.0983 15.1133 11.6142 14.7951 11.9324C14.6998 12.0277 14.5864 12.0945 14.4662 12.1324C14.1856 12.2218 13.8661 12.155 13.6432 11.9321L8.96045 7.24934L10.1124 6.09741Z" fill="#FFE2B5"/>
<path d="M9.58324 6.62671L14.266 11.3094C14.4886 11.5321 14.5557 11.8519 14.4662 12.1325C14.1856 12.2219 13.8661 12.1552 13.6431 11.9323L8.96045 7.2495L9.58324 6.62671Z" fill="#FFF5E4"/>
<path d="M8.96039 7.24927L13.6431 11.932C13.9613 12.2502 13.9613 12.7661 13.6431 13.0843C13.5381 13.1893 13.4114 13.2596 13.2779 13.2952C13.0064 13.3678 12.7041 13.2975 12.4908 13.0843L7.80811 8.40156L8.96039 7.24927Z" fill="#FFE2B5"/>
<path d="M8.38425 7.82544L13.067 12.5082C13.2802 12.7214 13.3505 13.0237 13.2779 13.2953C13.0064 13.3678 12.7041 13.2975 12.4908 13.0843L7.80811 8.40158L8.38425 7.82544Z" fill="#FFF5E4"/>
<path d="M16.7947 2.6555L15.9847 1.84546L14.8182 3.01191L14.8182 3.01195L7.9597 9.87042C7.40217 10.4279 7.1233 11.1591 7.12305 11.8897C7.1233 12.6204 7.40192 13.3513 7.9597 13.909L8.32514 13.5436C7.65725 12.8757 7.65751 11.7926 8.32539 11.1248L15.6282 3.82202L16.7947 2.6555Z" fill="#D7D0D6"/>
<path d="M8.87152 10.5786C8.20364 11.2465 8.20339 12.3295 8.87127 12.9974L8.325 13.5437C7.65712 12.8758 7.65737 11.7928 8.32526 11.1249L8.87152 10.5786Z" fill="#BAAFB9"/>
<path d="M7.53755 7.29702C7.72737 7.29702 7.88125 7.14314 7.88125 6.95332C7.88125 6.7635 7.72737 6.60962 7.53755 6.60962C7.34773 6.60962 7.19385 6.7635 7.19385 6.95332C7.19385 7.14314 7.34773 7.29702 7.53755 7.29702Z" fill="#596C76"/>
<path d="M8.6772 6.15762C8.86702 6.15762 9.0209 6.00374 9.0209 5.81392C9.0209 5.6241 8.86702 5.47021 8.6772 5.47021C8.48738 5.47021 8.3335 5.6241 8.3335 5.81392C8.3335 6.00374 8.48738 6.15762 8.6772 6.15762Z" fill="#596C76"/>
<path d="M9.81685 5.01797C10.0067 5.01797 10.1605 4.86409 10.1605 4.67427C10.1605 4.48445 10.0067 4.33057 9.81685 4.33057C9.62702 4.33057 9.47314 4.48445 9.47314 4.67427C9.47314 4.86409 9.62702 5.01797 9.81685 5.01797Z" fill="#596C76"/>
<path d="M15.3813 2.44824L15.9826 1.84702L16.7925 2.65693L16.1913 3.25815L15.3813 2.44824Z" fill="#BAAFB9"/>
<path d="M17.4907 2.65355C17.2655 2.87875 16.9004 2.87875 16.6752 2.65355L15.9863 1.96463C15.7611 1.73943 15.7611 1.37432 15.9863 1.14912C16.2115 0.923925 16.5766 0.923925 16.8018 1.14912L17.4907 1.83805C17.7159 2.06325 17.7159 2.42836 17.4907 2.65355Z" fill="#3C87D0"/>
<path d="M0.991413 12.1262L4.8935 16.0283C5.12033 16.2551 5.12 16.6229 4.89318 16.8497C4.81831 16.9246 4.72824 16.9745 4.63299 16.9997C4.43955 17.0519 4.22406 17.0017 4.07206 16.8497L0.169968 12.9476C0.0180003 12.7956 -0.0322331 12.5802 0.019956 12.3867C0.0452357 12.2914 0.0951431 12.2013 0.169968 12.1265C0.283364 12.0131 0.432109 11.9564 0.580853 11.9561C0.729272 11.9561 0.878016 12.0127 0.991413 12.1262Z" fill="#FFE2B5"/>
<path d="M0.580527 12.5371L4.48262 16.4392C4.63458 16.5911 4.68482 16.806 4.63299 16.9998C4.43955 17.0519 4.22406 17.0017 4.07206 16.8497L0.169968 12.9477C0.0180003 12.7957 -0.0322331 12.5802 0.019956 12.3867C0.0688856 12.3734 0.119445 12.3669 0.169968 12.3669C0.318387 12.3669 0.467131 12.4237 0.580527 12.5371Z" fill="#FFF5E4"/>
</svg>
