<svg width="14" height="18" viewBox="0 0 14 18" fill="none" xmlns="http://www.w3.org/2000/svg">
<path d="M11.1279 8.50952L11.5348 9.0673L11.1279 9.62505H4.65527C4.00738 9.62505 3.48219 10.1502 3.48219 10.7981H2.3667C2.3667 10.1658 2.62283 9.59383 3.0369 9.17976C3.45097 8.76569 4.02303 8.50956 4.65527 8.50956H11.1279V8.50952Z" fill="#BAAFB9"/>
<path d="M10.3261 8.50952V9.62501H4.65531C4.00742 9.62501 3.48223 10.1502 3.48223 10.7981L2.91068 11.2654L2.3667 10.7981C2.3667 10.1658 2.62283 9.5938 3.0369 9.17972C3.45097 8.76565 4.02303 8.50952 4.65527 8.50952H10.3261Z" fill="#D7D0D6"/>
<path d="M11.7099 7.78149C12.0313 7.78149 12.2918 8.04204 12.2918 8.36343V9.77113C12.2918 10.0925 12.0313 10.3531 11.7099 10.3531C11.3885 10.3531 11.1279 10.0925 11.1279 9.77113V8.36343C11.128 8.04201 11.3885 7.78149 11.7099 7.78149Z" fill="#3C87D0"/>
<path d="M12.9034 1.45783C10.9812 3.94541 9.52428 6.48117 9.52428 9.73935V13.1113C9.52428 15.5185 7.69484 17.6313 5.30721 17.9584C4.86724 18.0186 4.43311 18.0124 4.01501 17.9472C1.87055 17.6139 0.135742 15.7452 0.135742 13.4607V9.02185C0.135742 5.43079 5.71328 5.3371 5.71328 8.97991V12.7798C5.71328 14.9305 2.36676 14.9867 2.36676 12.807V10.7982H3.48226V12.7905C3.48226 13.5254 4.59775 13.5317 4.59775 12.807V9.00714C4.59775 6.85645 1.25124 6.88945 1.25124 9.06915V13.018C1.25124 16.651 6.8823 16.5216 6.8823 12.8989V9.73935C6.8823 6.48475 5.42456 3.94451 3.50319 1.45783L8.54931 0.989502L12.9034 1.45783Z" fill="#FAC600"/>
<path d="M11.5349 1.45768C9.61265 3.94526 8.15577 6.48102 8.15577 9.7392V13.1111C8.15577 15.493 6.36563 17.5861 4.01501 17.9471C1.87055 17.6138 0.135742 15.7451 0.135742 13.4605V9.0217C0.135742 5.43064 5.71328 5.33695 5.71328 8.97976V12.7796C5.71328 14.9303 2.36676 14.9866 2.36676 12.8068V10.798H3.48226V12.7904C3.48226 13.5252 4.59775 13.5315 4.59775 12.8069V9.00699C4.59775 6.8563 1.25124 6.8893 1.25124 9.069V13.0179C1.25124 16.6509 6.8823 16.5215 6.8823 12.8988V9.7392C6.8823 6.4846 5.42455 3.94436 3.50319 1.45768L7.66767 0.851074L11.5349 1.45768Z" fill="#FED402"/>
<path d="M13.8644 0.729091C13.8644 0.930314 13.7827 1.11238 13.6511 1.24446C13.519 1.37608 13.337 1.45775 13.1357 1.45775H3.27065C2.86817 1.45775 2.54199 1.13157 2.54199 0.729091C2.54199 0.527867 2.62366 0.345803 2.75528 0.213718C2.88736 0.08167 3.06942 0 3.27065 0H13.1357C13.5382 0 13.8644 0.326608 13.8644 0.729091Z" fill="#FFE2B5"/>
<path d="M12.1804 0.729091C12.1804 0.930314 12.0988 1.11238 11.9671 1.24446C11.8351 1.37608 11.653 1.45775 11.4518 1.45775H3.27065C2.86817 1.45775 2.54199 1.13157 2.54199 0.729091C2.54199 0.527867 2.62366 0.345803 2.75528 0.213718C2.88736 0.08167 3.06942 0 3.27065 0H11.4518C11.8543 0 12.1804 0.326608 12.1804 0.729091Z" fill="#FFF5E4"/>
</svg>
