<svg width="18" height="18" viewBox="0 0 18 18" fill="none" xmlns="http://www.w3.org/2000/svg">
<path d="M7.82862 16.8786C6.19375 18.5135 3.36673 18.3368 1.5139 16.4839C1.39087 16.3609 1.27515 16.2333 1.16697 16.1019C-0.354326 14.2607 -0.406915 11.6953 1.11923 10.1692C1.72867 9.5598 2.50373 9.20236 3.33221 9.08929C3.84777 9.01889 4.28724 8.68677 4.50411 8.21358C4.65518 7.88393 4.86372 7.57934 5.13028 7.31277C5.41086 7.03219 5.73378 6.81612 6.08314 6.66368C7.28365 6.1387 9.52883 8.32767 9.65237 8.45124C10.8685 9.6674 11.9182 10.5785 11.3341 11.9147C11.1817 12.264 10.9656 12.587 10.685 12.8675C10.4185 13.1341 10.1139 13.3426 9.7842 13.4937C9.31101 13.7106 8.9789 14.1501 8.90849 14.6656C8.79549 15.4941 8.43806 16.2692 7.82862 16.8786V16.8786Z" fill="#15B5A8"/>
<path d="M7.09941 16.1494C5.57326 17.6756 3.0085 17.6229 1.16697 16.1019C-0.354326 14.2607 -0.406914 11.6953 1.11923 10.1692C1.72867 9.55979 2.50373 9.20236 3.33221 9.08929C3.84777 9.01888 4.28724 8.68676 4.50411 8.21358C4.65518 7.88392 4.86372 7.57933 5.13028 7.31277C5.41086 7.03219 5.73378 6.81611 6.08314 6.66367C7.28365 6.13869 11.1296 9.98521 10.6049 11.1854C10.4915 11.4453 10.3429 11.6906 10.1587 11.9147C10.0952 11.9918 10.0276 12.0664 9.9558 12.1383C9.68927 12.4048 9.38468 12.6134 9.05499 12.7645C8.5818 12.9814 8.24969 13.4208 8.17928 13.9364C8.06628 14.7649 7.70881 15.54 7.09941 16.1494V16.1494Z" fill="#40CAB8"/>
<path d="M4.06674 16.2323L3.82907 16.4699C3.73328 16.5657 3.57808 16.5657 3.48232 16.4699L1.52754 14.5152C1.43174 14.4194 1.43149 14.2639 1.52729 14.1682L1.76495 13.9305C1.86074 13.8347 2.01644 13.8347 2.1122 13.9305L4.06699 15.8853C4.16278 15.981 4.16253 16.1365 4.06674 16.2323Z" fill="#BAAFB9"/>
<path d="M3.49489 15.6604L3.25723 15.8981C3.16143 15.9939 3.00624 15.9939 2.91023 15.8978L1.52754 14.5152C1.43174 14.4194 1.43149 14.2639 1.52729 14.1682L1.76495 13.9305C1.86074 13.8347 2.01644 13.8347 2.1122 13.9305L3.49489 15.3132C3.59094 15.4092 3.59069 15.5647 3.49489 15.6604Z" fill="#D7D0D6"/>
<path d="M2.52478 12.6195C2.64687 12.2293 2.92959 11.5512 3.55047 10.8456C3.55047 10.8456 3.83366 10.2139 3.35442 9.99602C2.90329 9.79095 1.71872 10.8598 2.30795 12.6212C2.34311 12.7264 2.49168 12.7253 2.52478 12.6195V12.6195Z" fill="#FFE97B"/>
<path d="M5.37784 15.473C5.76801 15.3509 6.44615 15.0682 7.15171 14.4473C7.15171 14.4473 7.78346 14.1642 8.00131 14.6434C8.20638 15.0945 7.13748 16.2791 5.3761 15.6899C5.27096 15.6547 5.27201 15.5061 5.37784 15.473V15.473Z" fill="#FFE97B"/>
<path d="M11.334 11.9145H6.08301V6.66352C7.05502 6.23861 8.23152 6.30471 9.26909 6.84048C9.65756 7.0412 10.0266 7.30773 10.3582 7.6393C10.6898 7.97087 10.9563 8.33993 11.157 8.72841C11.6928 9.76597 11.7589 10.9425 11.334 11.9145Z" fill="#EB3845"/>
<path d="M10.3774 11.9145H6.08301V6.66352C7.05502 6.23861 8.23152 6.30471 9.26909 6.84048C9.65756 7.0412 10.0266 7.30773 10.3582 7.6393C10.3582 7.6393 10.9776 10.5276 10.3774 11.9145Z" fill="#FF6B76"/>
<path d="M7.56239 13.0347C6.84451 13.7526 5.6804 13.7524 4.96278 13.0347C4.85485 12.9268 4.76315 12.8087 4.6876 12.6835C4.26106 11.977 4.3528 11.0452 4.96278 10.4352C5.57276 9.8252 6.50457 9.73349 7.21111 10.16C7.33628 10.2355 7.45446 10.3272 7.56235 10.4352C8.28 11.1528 8.28026 12.3169 7.56239 13.0347V13.0347Z" fill="#465A61"/>
<path d="M6.9341 12.4076C7.63084 11.7108 7.75402 10.7044 7.20924 10.1596C6.66445 9.61481 5.658 9.73799 4.96126 10.4347C4.26452 11.1315 4.14134 12.1379 4.68613 12.6827C5.23091 13.2275 6.23736 13.1043 6.9341 12.4076Z" fill="#596C76"/>
<path d="M10.8721 8.65076L10.1399 8.45113L9.6737 8.32379L9.34648 7.12516L9.27147 6.84998L9.26904 6.84052C9.27147 6.84186 9.27419 6.84349 9.27716 6.84483L13.5291 2.81567L15.1861 4.47264L11.1556 8.72602C11.1559 8.72682 11.1564 8.72736 11.157 8.72845L11.154 8.72765L10.8721 8.65076Z" fill="#E19974"/>
<path d="M14.5737 4.01731L10.1399 8.45113L9.6737 8.32379L9.34648 7.12516L9.27147 6.84998L9.26904 6.84052C9.27147 6.84186 9.27419 6.84349 9.27716 6.84483L13.5291 2.81567L14.6404 3.92691L14.5737 4.01731Z" fill="#E8AD8C"/>
<path d="M17.8243 2.46324L15.6032 4.49332C15.3903 4.68785 15.062 4.68003 14.8583 4.47634L14.2295 3.84749L15.183 1.8776L17.2199 1.06201L17.8418 1.68384C18.0593 1.90129 18.0512 2.25579 17.8243 2.46324Z" fill="#15B5A8"/>
<path d="M17.1958 1.83458L14.9744 3.86441C14.7616 4.0589 14.4335 4.05137 14.2296 3.84742L13.5257 3.14357C13.3218 2.93963 13.3142 2.61156 13.5088 2.39871L15.5388 0.177582C15.746 -0.0495761 16.1008 -0.0573991 16.3182 0.160053L17.2133 1.05518C17.4308 1.27263 17.4227 1.62709 17.1958 1.83458V1.83458Z" fill="#40CAB8"/>
<path d="M17.6912 3.82633C17.6217 3.82633 17.5521 3.79982 17.4991 3.74676L16.6113 2.85895C16.5052 2.75287 16.5052 2.58087 16.6113 2.47483C16.7174 2.36874 16.8894 2.36874 16.9954 2.47483L17.8832 3.36263C17.9893 3.46871 17.9893 3.64071 17.8832 3.74676C17.8302 3.79982 17.7607 3.82633 17.6912 3.82633Z" fill="#D7D0D6"/>
<path d="M16.8718 4.64567C16.8023 4.64567 16.7328 4.61915 16.6798 4.56609L15.792 3.67829C15.6859 3.57221 15.6859 3.40021 15.792 3.29416C15.898 3.18808 16.07 3.18808 16.1761 3.29416L17.0639 4.18197C17.17 4.28805 17.17 4.46005 17.0639 4.56609C17.0109 4.61912 16.9413 4.64567 16.8718 4.64567Z" fill="#D7D0D6"/>
<path d="M15.3352 1.47013C15.2657 1.47013 15.1962 1.44362 15.1432 1.39056L14.2553 0.50275C14.1493 0.396668 14.1493 0.22467 14.2553 0.118624C14.3614 0.012542 14.5334 0.012542 14.6395 0.118624L15.5273 1.00643C15.6334 1.11251 15.6334 1.28451 15.5273 1.39056C15.4743 1.44358 15.4048 1.47013 15.3352 1.47013V1.47013Z" fill="#D7D0D6"/>
<path d="M14.5159 2.28971C14.4464 2.28971 14.3768 2.2632 14.3238 2.21014L13.436 1.32233C13.3299 1.21625 13.3299 1.04425 13.436 0.938204C13.5421 0.832122 13.7141 0.832122 13.8201 0.938204L14.7079 1.82601C14.814 1.93209 14.814 2.10409 14.7079 2.21014C14.6549 2.2632 14.5854 2.28971 14.5159 2.28971Z" fill="#D7D0D6"/>
</svg>
