<svg width="18" height="18" viewBox="0 0 18 18" fill="none" xmlns="http://www.w3.org/2000/svg">
<g clip-path="url(#clip0_927_45335)">
<path d="M12.3164 18C12.248 18 12.1795 17.9739 12.1272 17.9217C12.0227 17.8172 12.0227 17.6477 12.1272 17.5432L12.9471 16.7234C13.0516 16.6189 13.221 16.6189 13.3255 16.7234C13.43 16.8279 13.43 16.9973 13.3255 17.1018L12.5057 17.9217C12.4534 17.9739 12.3849 18 12.3164 18Z" fill="#FED402"/>
<path d="M3.45591 17.3389C2.60011 17.3389 1.79554 17.0056 1.19039 16.4005C0.585233 15.7954 0.251989 14.9908 0.251953 14.135C0.251953 13.2792 0.585233 12.4746 1.19035 11.8695L1.70702 11.3528C1.81153 11.2483 1.98097 11.2483 2.08544 11.3528C2.18994 11.4573 2.18994 11.6267 2.08544 11.7312L1.56877 12.2479C1.06473 12.752 0.787106 13.4222 0.787106 14.135C0.787106 14.8478 1.06469 15.518 1.56877 16.0221C2.60932 17.0626 4.3024 17.0626 5.34295 16.0221L12.2784 9.08659C12.8836 8.48147 13.6881 8.14819 14.544 8.14819C15.3997 8.14819 16.2043 8.48147 16.8095 9.08659C17.4146 9.69175 17.7479 10.4964 17.7479 11.3522C17.7479 12.2079 17.4146 13.0125 16.8095 13.6177L15.5115 14.9156C15.407 15.0201 15.2376 15.0201 15.1331 14.9156C15.0286 14.8111 15.0286 14.6417 15.1331 14.5372L16.431 13.2392C17.4716 12.1987 17.4716 10.5056 16.431 9.46508C15.927 8.961 15.2568 8.68342 14.544 8.68342C13.8311 8.68342 13.1609 8.961 12.6569 9.46504L5.72144 16.4005C5.11632 17.0056 4.31172 17.3389 3.45591 17.3389Z" fill="#465A61"/>
<path d="M12.6079 4.8412L11.9252 5.52389C10.8179 6.6312 9.02233 6.63145 7.91452 5.52364C7.78483 5.39395 7.67055 5.25494 7.57139 5.10887C7.55826 5.08921 7.54517 5.06952 7.53229 5.04957C6.82662 3.95186 6.95404 2.47367 7.91452 1.51322L8.59721 0.830537C9.55769 -0.129949 11.0358 -0.257359 12.1336 0.448305C12.1575 0.463683 12.1815 0.479595 12.2049 0.495972C12.347 0.593091 12.4815 0.704375 12.6076 0.830501C13.1614 1.38428 13.4386 2.1101 13.4384 2.83596C13.4387 3.56185 13.1617 4.28743 12.6079 4.8412Z" fill="#C6C1C5"/>
<path d="M11.8611 4.09091L11.1786 4.77334C10.1972 5.75474 8.67592 5.86677 7.57139 5.10887C7.55826 5.08921 7.54517 5.06952 7.53229 5.04957C6.82663 3.95186 6.95404 2.47367 7.91452 1.51322L8.59721 0.830537C9.55769 -0.129949 11.0358 -0.257359 12.1336 0.448305C12.1575 0.463683 12.1815 0.479595 12.2049 0.495972C12.5299 0.974324 12.6921 1.5301 12.6921 2.08566C12.6919 2.81152 12.4151 3.53688 11.8611 4.09091Z" fill="#FFFDFF"/>
<path d="M15.5345 15.5878L13.9977 17.1246C13.8183 17.304 13.5276 17.304 13.348 17.1243L12.9242 16.7006C12.905 16.6813 12.8876 16.6607 12.8728 16.639C12.7467 16.4599 12.7639 16.211 12.9239 16.0509L14.4608 14.514C14.6209 14.354 14.8698 14.3368 15.0489 14.4629C15.0706 14.4777 15.0912 14.495 15.1105 14.5143L15.5342 14.9381C15.7139 15.1177 15.7139 15.4084 15.5345 15.5878Z" fill="#E41F2D"/>
<path d="M14.9978 15.0511L13.461 16.5879C13.3009 16.748 13.0519 16.7651 12.8728 16.639C12.7467 16.4599 12.7639 16.211 12.9239 16.0509L14.4608 14.514C14.6209 14.354 14.8698 14.3368 15.0489 14.4629C15.175 14.642 15.1579 14.891 14.9978 15.0511Z" fill="#FD4755"/>
<path d="M7.10428 9.24695L5.24211 10.821L4.83187 11.1676L3.74979 12.0822C3.3474 12.4225 2.75149 12.3973 2.3791 12.0249L1.41359 11.0594C1.04095 10.6868 1.01598 10.0911 1.35632 9.68872L2.27089 8.60665L2.61755 8.19641L4.19132 6.33398L7.10428 9.24695Z" fill="#596C76"/>
<path d="M2.27089 8.60669L4.08232 10.4181L3.00024 11.3327C2.59785 11.673 2.00194 11.6478 1.62955 11.2754L1.41359 11.0595C1.04095 10.6868 1.01598 10.0912 1.35632 9.68877L2.27089 8.60669Z" fill="#7A8C98"/>
<path d="M6.35434 8.49736L4.4922 10.0714L2.61719 8.19637L4.19096 6.33398L6.35434 8.49736Z" fill="#7A8C98"/>
<path d="M10.6348 6.26339L7.10395 9.2471L4.19092 6.33407L7.17488 2.80347L10.6348 6.26339Z" fill="#465A61"/>
<path d="M9.88529 5.51384L6.3544 8.49755L4.19092 6.33407L7.17488 2.80347L9.88529 5.51384Z" fill="#596C76"/>
<path d="M6.63736 6.80092C6.38325 6.54681 6.38325 6.13479 6.63736 5.88068L7.1734 5.34463C7.42751 5.09053 7.83953 5.09053 8.09364 5.34463C8.34775 5.59874 8.34775 6.01077 8.09364 6.26487L7.5576 6.80092C7.30349 7.05506 6.89147 7.05506 6.63736 6.80092Z" fill="#FFFDFF"/>
<path d="M12.5818 5.51934C12.5296 5.57158 12.461 5.5978 12.3924 5.5978C12.3242 5.5978 12.2556 5.57158 12.2034 5.51934L11.3179 4.63382L11.6963 4.25537L12.5818 5.14089C12.6862 5.24536 12.6862 5.41491 12.5818 5.51934Z" fill="#465A61"/>
<path d="M11.6963 4.25549L11.3178 4.63394L7.91875 1.23485C7.81432 1.13042 7.81407 0.96112 7.91875 0.856401C8.02318 0.751968 8.19273 0.751968 8.2972 0.856401L11.6963 4.25549Z" fill="#596C76"/>
<path d="M4.49218 10.0713L4.08194 10.418L2.27051 8.60653L2.61717 8.19629L4.49218 10.0713Z" fill="#596C76"/>
<path d="M5.24182 10.8208L4.83158 11.1675L4.08203 10.4179L4.49227 10.0713L5.24182 10.8208Z" fill="#465A61"/>
</g>
<defs>
<clipPath id="clip0_927_45335">
<rect width="18" height="18" fill="white"/>
</clipPath>
</defs>
</svg>
