<svg width="18" height="12" viewBox="0 0 18 12" fill="none" xmlns="http://www.w3.org/2000/svg">
<path d="M17.3719 6.68704L0.820582 8.90804C0.386191 8.96633 0 8.62809 0 8.18937V1.92541C0 1.48666 0.386191 1.14846 0.820582 1.20674L17.3719 3.42774C17.7315 3.47601 18 3.78317 18 4.1464V5.96838C18 6.33158 17.7315 6.63877 17.3719 6.68704Z" fill="#A66856"/>
<path d="M17.3719 3.42793L16.7954 3.35059C16.8699 3.5 16.9135 3.67757 16.9135 3.86738V6.24778C16.9135 6.43759 16.87 6.61516 16.7954 6.76457L17.3719 6.68723C17.7315 6.63896 18 6.33177 18 5.96857V4.14663C18 3.78339 17.7315 3.4762 17.3719 3.42793Z" fill="#8F5040"/>
<path d="M3.4153 9.91553H1.53216C1.45211 9.91553 1.38721 9.85063 1.38721 9.77058V0.344168C1.38721 0.264117 1.45211 0.199219 1.53216 0.199219H3.4153C3.49535 0.199219 3.56025 0.264117 3.56025 0.344168V9.77058C3.56025 9.85063 3.49535 9.91553 3.4153 9.91553Z" fill="#F3B573"/>
<path d="M3.41522 9.91553H2.47363V0.199219H3.41522C3.49527 0.199219 3.56017 0.264117 3.56017 0.344168V9.77058C3.56017 9.85063 3.49527 9.91553 3.41522 9.91553Z" fill="#F5A257"/>
<path d="M6.59011 9.46849H4.70696C4.62691 9.46849 4.56201 9.40359 4.56201 9.32354V0.791434C4.56201 0.711383 4.62691 0.646484 4.70696 0.646484H6.59011C6.67016 0.646484 6.73505 0.711383 6.73505 0.791434V9.32357C6.73505 9.40359 6.67016 9.46849 6.59011 9.46849Z" fill="#F3B573"/>
<path d="M6.58999 9.46849H5.64844V0.646484H6.59003C6.67008 0.646484 6.73498 0.711383 6.73498 0.791434V9.32357C6.73494 9.40359 6.67004 9.46849 6.58999 9.46849Z" fill="#F5A257"/>
<path d="M9.7654 9.06228H7.88225C7.8022 9.06228 7.7373 8.99738 7.7373 8.91733V1.1972C7.7373 1.11714 7.8022 1.05225 7.88225 1.05225H9.7654C9.84545 1.05225 9.91035 1.11714 9.91035 1.1972V8.91737C9.91035 8.99738 9.84545 9.06228 9.7654 9.06228Z" fill="#F3B573"/>
<path d="M9.76532 9.06228H8.82373V1.05225H9.76532C9.84537 1.05225 9.91027 1.11714 9.91027 1.1972V8.91737C9.91027 8.99738 9.84537 9.06228 9.76532 9.06228Z" fill="#F5A257"/>
<path d="M12.9402 8.69371H10.9121V1.56585C10.9121 1.4858 10.977 1.4209 11.0571 1.4209H12.9402C13.0203 1.4209 13.0852 1.4858 13.0852 1.56585V8.54876C13.0852 8.62881 13.0203 8.69371 12.9402 8.69371Z" fill="#F3B573"/>
<path d="M12.9401 8.69371H11.9985V1.4209H12.9401C13.0202 1.4209 13.0851 1.4858 13.0851 1.56585V8.54876C13.0851 8.62881 13.0202 8.69371 12.9401 8.69371Z" fill="#F5A257"/>
<path d="M16.1155 8.35929H14.2324C14.1523 8.35929 14.0874 8.29439 14.0874 8.21434V1.90081C14.0874 1.82076 14.1523 1.75586 14.2324 1.75586H16.1155C16.1955 1.75586 16.2604 1.82076 16.2604 1.90081V8.21434C16.2604 8.29439 16.1955 8.35929 16.1155 8.35929Z" fill="#F3B573"/>
<path d="M16.1154 8.35926H15.1738V1.75586H16.1154C16.1955 1.75586 16.2604 1.82076 16.2604 1.90081V8.21431C16.2604 8.29436 16.1955 8.35926 16.1154 8.35926Z" fill="#F5A257"/>
<path d="M2.50293 1.68457C2.64855 1.68457 2.7666 1.56652 2.7666 1.4209C2.7666 1.27528 2.64855 1.15723 2.50293 1.15723C2.35731 1.15723 2.23926 1.27528 2.23926 1.4209C2.23926 1.56652 2.35731 1.68457 2.50293 1.68457Z" fill="#E8E6E1"/>
<path d="M2.50293 8.95752C2.64855 8.95752 2.7666 8.83947 2.7666 8.69385C2.7666 8.54823 2.64855 8.43018 2.50293 8.43018C2.35731 8.43018 2.23926 8.54823 2.23926 8.69385C2.23926 8.83947 2.35731 8.95752 2.50293 8.95752Z" fill="#E8E6E1"/>
<path d="M5.64893 2.12842C5.79455 2.12842 5.9126 2.01037 5.9126 1.86475C5.9126 1.71912 5.79455 1.60107 5.64893 1.60107C5.5033 1.60107 5.38525 1.71912 5.38525 1.86475C5.38525 2.01037 5.5033 2.12842 5.64893 2.12842Z" fill="#E8E6E1"/>
<path d="M5.64893 8.49316C5.79455 8.49316 5.9126 8.37511 5.9126 8.22949C5.9126 8.08387 5.79455 7.96582 5.64893 7.96582C5.5033 7.96582 5.38525 8.08387 5.38525 8.22949C5.38525 8.37511 5.5033 8.49316 5.64893 8.49316Z" fill="#E8E6E1"/>
<path d="M8.82373 2.56396C8.96935 2.56396 9.0874 2.44591 9.0874 2.30029C9.0874 2.15467 8.96935 2.03662 8.82373 2.03662C8.67811 2.03662 8.56006 2.15467 8.56006 2.30029C8.56006 2.44591 8.67811 2.56396 8.82373 2.56396Z" fill="#E8E6E1"/>
<path d="M8.82373 8.03857C8.96935 8.03857 9.0874 7.92052 9.0874 7.7749C9.0874 7.62928 8.96935 7.51123 8.82373 7.51123C8.67811 7.51123 8.56006 7.62928 8.56006 7.7749C8.56006 7.92052 8.67811 8.03857 8.82373 8.03857Z" fill="#E8E6E1"/>
<path d="M11.999 3.01709C12.1446 3.01709 12.2627 2.89904 12.2627 2.75342C12.2627 2.6078 12.1446 2.48975 11.999 2.48975C11.8534 2.48975 11.7354 2.6078 11.7354 2.75342C11.7354 2.89904 11.8534 3.01709 11.999 3.01709Z" fill="#E8E6E1"/>
<path d="M12.1641 7.65283C12.3097 7.65283 12.4277 7.53478 12.4277 7.38916C12.4277 7.24354 12.3097 7.12549 12.1641 7.12549C12.0184 7.12549 11.9004 7.24354 11.9004 7.38916C11.9004 7.53478 12.0184 7.65283 12.1641 7.65283Z" fill="#E8E6E1"/>
<path d="M15.187 3.59717C15.3229 3.59717 15.4331 3.47912 15.4331 3.3335C15.4331 3.18787 15.3229 3.06982 15.187 3.06982C15.0511 3.06982 14.9409 3.18787 14.9409 3.3335C14.9409 3.47912 15.0511 3.59717 15.187 3.59717Z" fill="#E8E6E1"/>
<path d="M15.187 7.27295C15.3326 7.27295 15.4507 7.1549 15.4507 7.00928C15.4507 6.86366 15.3326 6.74561 15.187 6.74561C15.0414 6.74561 14.9233 6.86366 14.9233 7.00928C14.9233 7.1549 15.0414 7.27295 15.187 7.27295Z" fill="#E8E6E1"/>
<path d="M14.6864 11.6626C14.5025 11.8466 14.2044 11.8466 14.0205 11.6626L9.84619 7.48391L10.5121 6.81738L14.6864 10.9961C14.8703 11.1801 14.8703 11.4785 14.6864 11.6626Z" fill="#FFBF7B"/>
<path d="M9.75293 7.49756C10.1801 7.49756 10.5264 7.15128 10.5264 6.72412C10.5264 6.29696 10.1801 5.95068 9.75293 5.95068C9.32577 5.95068 8.97949 6.29696 8.97949 6.72412C8.97949 7.15128 9.32577 7.49756 9.75293 7.49756Z" fill="#735458"/>
<path d="M10.0197 10.4892C9.83587 10.3052 9.83587 10.0068 10.0197 9.82271L14.1941 5.64404L14.8599 6.31057L10.6856 10.4892C10.5017 10.6733 10.2036 10.6733 10.0197 10.4892Z" fill="#FFDEA9"/>
<path d="M14.9531 6.32373C15.3803 6.32373 15.7266 5.97745 15.7266 5.55029C15.7266 5.12314 15.3803 4.77686 14.9531 4.77686C14.526 4.77686 14.1797 5.12314 14.1797 5.55029C14.1797 5.97745 14.526 6.32373 14.9531 6.32373Z" fill="#735458"/>
</svg>
